<svg width="22" height="22" viewBox="0 0 22 22" fill="none" xmlns="http://www.w3.org/2000/svg">
<path fill-rule="evenodd" clip-rule="evenodd" d="M11 21C16.5228 21 21 16.5228 21 11C21 5.47715 16.5228 1 11 1C5.47715 1 1 5.47715 1 11C1 16.5228 5.47715 21 11 21ZM11 22C17.0751 22 22 17.0751 22 11C22 4.92487 17.0751 0 11 0C4.92487 0 0 4.92487 0 11C0 17.0751 4.92487 22 11 22Z" fill="#0047BB"/>
<path d="M10.4545 5.54545C10.4545 5.24421 10.6988 5 11 5C11.3012 5 11.5455 5.24421 11.5455 5.54545V16.4545C11.5455 16.7558 11.3012 17 11 17C10.6988 17 10.4545 16.7558 10.4545 16.4545V5.54545Z" fill="#0047BB"/>
<path d="M16.4545 10.4545C16.7558 10.4545 17 10.6988 17 11C17 11.3012 16.7558 11.5455 16.4545 11.5455L5.54545 11.5455C5.24421 11.5455 5 11.3012 5 11C5 10.6988 5.24421 10.4545 5.54545 10.4545L16.4545 10.4545Z" fill="#0047BB"/>
</svg>
