<svg width="20" height="20" viewBox="0 0 20 20" fill="none" xmlns="http://www.w3.org/2000/svg">
<g clip-path="url(#clip0)">
<path d="M6.09447 16.8941L6.29497 16.678C6.29497 16.678 6.47473 16.4721 6.50947 16.2974C6.54421 16.1227 6.50643 15.9642 6.46022 15.8676C6.41403 15.7705 6.38222 15.7176 6.29309 15.621C6.20395 15.5245 6.09605 15.416 6.09605 15.416L6.09447 16.8941ZM4.61615 16.8957C4.61615 16.8957 4.50853 16.7869 4.41911 16.6906C4.32968 16.5944 4.29817 16.5411 4.25198 16.444C4.20578 16.3469 4.16799 16.189 4.20245 16.014C4.23691 15.839 4.41695 15.6334 4.41695 15.6334L4.61745 15.4173L6.09605 15.416C6.09605 15.416 5.98701 15.3081 5.89072 15.2187C5.79443 15.1293 5.74118 15.0978 5.64405 15.0516C5.54692 15.0054 5.38896 14.9676 5.21397 15.0021C5.03897 15.0365 4.83328 15.2165 4.83328 15.2165L4.61745 15.4173L4.61615 16.8957ZM4.61615 16.8957C4.61615 16.8957 4.72518 17.0035 4.82147 17.0929C4.91776 17.1823 4.97102 17.2139 5.06815 17.26C5.16528 17.3062 5.32324 17.344 5.49795 17.3093C5.67267 17.2746 5.87863 17.0948 5.87863 17.0948L6.09447 16.8941L4.61615 16.8957ZM6.09605 15.416L4.61745 15.4173L4.61615 16.8957L6.09447 16.8941L6.09605 15.416ZM7.5715 18.372L7.77199 18.1559C7.77199 18.1559 7.95173 17.95 7.98646 17.7753C8.0212 17.6006 7.98343 17.4421 7.93695 17.3453C7.89075 17.2482 7.85895 17.1952 7.76982 17.0986C7.6804 17.0024 7.57278 16.8936 7.57278 16.8936L7.5715 18.372ZM6.09345 18.3733C6.09345 18.3733 5.98583 18.2646 5.89641 18.1683C5.80699 18.072 5.77548 18.0188 5.72928 17.9216C5.68308 17.8245 5.64531 17.6666 5.67976 17.4916C5.71422 17.3167 5.89424 17.111 5.89424 17.111L6.09447 16.8941L7.57278 16.8936C7.57278 16.8936 7.46432 16.7858 7.36803 16.6963C7.27174 16.6069 7.21848 16.5754 7.12135 16.5292C7.02422 16.4831 6.86625 16.4453 6.69125 16.4797C6.51626 16.5142 6.31058 16.6942 6.31058 16.6942L6.09447 16.8941L6.09345 18.3733ZM6.09345 18.3733C6.09345 18.3733 6.20221 18.4809 6.2985 18.5703C6.39479 18.6597 6.44805 18.6912 6.54518 18.7374C6.64231 18.7836 6.80027 18.8214 6.97526 18.7869C7.15026 18.7525 7.35593 18.5725 7.35593 18.5725L7.5715 18.372L6.09345 18.3733ZM7.57278 16.8936L6.09474 16.8955L6.09345 18.3733L7.5715 18.372L7.57278 16.8936Z" fill="#0047BB"/>
<path d="M1.90539 12.7057L2.10588 12.4896C2.10588 12.4896 2.28565 12.2836 2.32038 12.109C2.35512 11.9343 2.31734 11.7758 2.27114 11.6792C2.22494 11.5821 2.19314 11.5291 2.104 11.4326C2.01487 11.336 1.90696 11.2276 1.90696 11.2276L1.90539 12.7057ZM0.42706 12.7072C0.42706 12.7072 0.319441 12.5985 0.23002 12.5022C0.140599 12.4059 0.109089 12.3527 0.0628929 12.2556C0.0166966 12.1585 -0.0210904 12.0005 0.0133677 11.8256C0.0478257 11.6506 0.227866 11.4449 0.227866 11.4449L0.428361 11.2289L1.90696 11.2276C1.90696 11.2276 1.79792 11.1197 1.70163 11.0303C1.60535 10.9409 1.55209 10.9094 1.45497 10.8632C1.35784 10.817 1.19988 10.7792 1.02488 10.8137C0.849887 10.8481 0.644191 11.0281 0.644191 11.0281L0.428361 11.2289L0.42706 12.7072ZM0.42706 12.7072C0.42706 12.7072 0.5361 12.8151 0.632388 12.9045C0.728676 12.9939 0.781937 13.0254 0.879065 13.0716C0.976194 13.1178 1.13415 13.1556 1.30887 13.1209C1.48358 13.0861 1.68954 12.9064 1.68954 12.9064L1.90539 12.7057L0.42706 12.7072ZM1.90696 11.2276L0.428361 11.2289L0.42706 12.7072L1.90539 12.7057L1.90696 11.2276ZM3.38241 14.1836L3.58291 13.9675C3.58291 13.9675 3.76264 13.7616 3.79738 13.5869C3.83212 13.4122 3.79434 13.2537 3.74786 13.1569C3.70167 13.0597 3.66987 13.0068 3.58073 12.9102C3.49131 12.8139 3.3837 12.7052 3.3837 12.7052L3.38241 14.1836ZM1.90436 14.1849C1.90436 14.1849 1.79674 14.0761 1.70732 13.9799C1.6179 13.8836 1.58639 13.8303 1.54019 13.7332C1.494 13.6361 1.45622 13.4782 1.49068 13.3032C1.52514 13.1282 1.70515 12.9226 1.70515 12.9226L1.90539 12.7057L3.3837 12.7052C3.3837 12.7052 3.27523 12.5973 3.17894 12.5079C3.08266 12.4185 3.0294 12.387 2.93227 12.3408C2.83514 12.2946 2.67716 12.2568 2.50217 12.2913C2.32717 12.3257 2.12149 12.5058 2.12149 12.5058L1.90539 12.7057L1.90436 14.1849ZM1.90436 14.1849C1.90436 14.1849 2.01313 14.2925 2.10942 14.3819C2.2057 14.4713 2.25897 14.5028 2.35609 14.549C2.45322 14.5952 2.61118 14.6329 2.78618 14.5985C2.96117 14.564 3.16684 14.384 3.16684 14.384L3.38241 14.1836L1.90436 14.1849ZM3.3837 12.7052L1.90566 12.7071L1.90436 14.1849L3.38241 14.1836L3.3837 12.7052Z" fill="#0047BB"/>
<path d="M6.09379 3.10572L5.87771 2.90523C5.87771 2.90523 5.67178 2.72546 5.49709 2.69073C5.32241 2.65599 5.1639 2.69377 5.06735 2.73997C4.97024 2.78617 4.91728 2.81797 4.82072 2.90711C4.72416 2.99624 4.6157 3.10415 4.6157 3.10415L6.09379 3.10572ZM6.09537 4.58405C6.09537 4.58405 5.98662 4.69167 5.89034 4.78109C5.79407 4.87051 5.74082 4.90202 5.64371 4.94822C5.54659 4.99441 5.38866 5.0322 5.2137 4.99774C5.03873 4.96328 4.83308 4.78324 4.83308 4.78324L4.617 4.58275L4.6157 3.10415C4.6157 3.10415 4.50782 3.21319 4.41841 3.30947C4.32901 3.40576 4.29749 3.45902 4.25131 3.55614C4.20512 3.65327 4.16734 3.81123 4.2018 3.98623C4.23625 4.16122 4.41624 4.36692 4.41624 4.36692L4.617 4.58275L6.09537 4.58405ZM6.09537 4.58405C6.09537 4.58405 6.20324 4.47501 6.29265 4.37872C6.38206 4.28243 6.41356 4.22917 6.45975 4.13204C6.50594 4.03492 6.54373 3.87696 6.50899 3.70224C6.47426 3.52752 6.29453 3.32157 6.29453 3.32157L6.09379 3.10572L6.09537 4.58405ZM4.6157 3.10415L4.617 4.58275L6.09537 4.58405L6.09379 3.10572L4.6157 3.10415ZM7.57172 1.6287L7.35563 1.4282C7.35563 1.4282 7.1497 1.24847 6.97501 1.21373C6.80032 1.17899 6.64182 1.21677 6.54499 1.26325C6.44788 1.30944 6.39492 1.34124 6.29836 1.43037C6.20208 1.5198 6.09333 1.62741 6.09333 1.62741L7.57172 1.6287ZM7.57301 3.10675C7.57301 3.10675 7.46426 3.21437 7.36799 3.30379C7.27172 3.39321 7.21846 3.42472 7.12135 3.47092C7.02424 3.51711 6.8663 3.55489 6.69133 3.52043C6.51637 3.48597 6.31071 3.30596 6.31071 3.30596L6.09379 3.10572L6.09333 1.62741C6.09333 1.62741 5.98546 1.73588 5.89605 1.83216C5.80665 1.92845 5.77514 1.98171 5.72895 2.07884C5.68276 2.17597 5.64497 2.33395 5.67943 2.50894C5.71388 2.68394 5.89389 2.88962 5.89389 2.88962L6.09379 3.10572L7.57301 3.10675ZM7.57301 3.10675C7.57301 3.10675 7.68062 2.99798 7.77002 2.90169C7.85943 2.8054 7.89093 2.75214 7.93712 2.65502C7.98331 2.55789 8.02108 2.39992 7.98663 2.22493C7.95218 2.04994 7.77218 1.84427 7.77218 1.84427L7.57172 1.6287L7.57301 3.10675ZM6.09333 1.62741L6.0952 3.10545L7.57301 3.10675L7.57172 1.6287L6.09333 1.62741Z" fill="#0047BB"/>
<path d="M1.90536 7.29481L1.68928 7.09431C1.68928 7.09431 1.48335 6.91455 1.30867 6.87981C1.13398 6.84508 0.975469 6.88285 0.87892 6.92906C0.781807 6.97525 0.728849 7.00706 0.63229 7.09619C0.535731 7.18533 0.427266 7.29323 0.427266 7.29323L1.90536 7.29481ZM1.90694 8.77314C1.90694 8.77314 1.79819 8.88075 1.70191 8.97018C1.60564 9.0596 1.55239 9.09111 1.45528 9.1373C1.35816 9.1835 1.20023 9.22129 1.02527 9.18683C0.8503 9.15237 0.644653 8.97233 0.644653 8.97233L0.428568 8.77183L0.427266 7.29323C0.427266 7.29323 0.319392 7.40227 0.229985 7.49856C0.140578 7.59485 0.109065 7.6481 0.0628758 7.74523C0.0166868 7.84236 -0.0210856 8.00032 0.0133671 8.17531C0.0478198 8.35031 0.227814 8.556 0.227814 8.556L0.428568 8.77183L1.90694 8.77314ZM1.90694 8.77314C1.90694 8.77314 2.01481 8.6641 2.10422 8.56781C2.19363 8.47152 2.22513 8.41826 2.27132 8.32113C2.31751 8.224 2.3553 8.06604 2.32057 7.89133C2.28583 7.71661 2.1061 7.51065 2.1061 7.51065L1.90536 7.29481L1.90694 8.77314ZM0.427266 7.29323L0.428568 8.77183L1.90694 8.77314L1.90536 7.29481L0.427266 7.29323ZM3.38329 5.81778L3.1672 5.61729C3.1672 5.61729 2.96127 5.43755 2.78658 5.40282C2.61189 5.36808 2.45339 5.40585 2.35657 5.45233C2.25945 5.49853 2.20649 5.53033 2.10993 5.61946C2.01365 5.70888 1.9049 5.8165 1.9049 5.8165L3.38329 5.81778ZM3.38458 7.29583C3.38458 7.29583 3.27583 7.40345 3.17956 7.49287C3.08329 7.5823 3.03003 7.6138 2.93292 7.66C2.83581 7.7062 2.67787 7.74398 2.5029 7.70952C2.32794 7.67506 2.12228 7.49505 2.12228 7.49505L1.90536 7.29481L1.9049 5.8165C1.9049 5.8165 1.79703 5.92496 1.70762 6.02125C1.61822 6.11754 1.58671 6.1708 1.54052 6.26793C1.49433 6.36506 1.45654 6.52303 1.491 6.69803C1.52545 6.87302 1.70546 7.0787 1.70546 7.0787L1.90536 7.29481L3.38458 7.29583ZM3.38458 7.29583C3.38458 7.29583 3.49219 7.18707 3.58159 7.09078C3.671 6.99449 3.70251 6.94123 3.74869 6.8441C3.79488 6.74697 3.83266 6.58901 3.7982 6.41402C3.76375 6.23902 3.58375 6.03335 3.58375 6.03335L3.38329 5.81778L3.38458 7.29583ZM1.9049 5.8165L1.90677 7.29454L3.38458 7.29583L3.38329 5.81778L1.9049 5.8165Z" fill="#0047BB"/>
<path d="M20 10.0016L19.9894 9.71961C19.9894 9.71961 19.9717 9.45858 19.877 9.31682C19.7822 9.17507 19.6494 9.09335 19.5527 9.05926C19.4557 9.02479 19.3984 9.01046 19.2727 9.00543C19.147 9.00039 19.0006 9 19.0006 9L20 10.0016ZM19.0006 11.0031C19.0006 11.0031 18.8541 11.0024 18.7284 10.9977C18.6028 10.9931 18.5454 10.9784 18.4484 10.9439C18.3514 10.9094 18.2189 10.8281 18.1238 10.6863C18.0287 10.5446 18.0113 10.2835 18.0113 10.2835L18 10.0012L19.0006 9C19.0006 9 18.8538 9.00078 18.7281 9.00543C18.6024 9.01007 18.545 9.02479 18.448 9.05926C18.351 9.09373 18.2185 9.17507 18.1234 9.31682C18.0283 9.45858 18.0109 9.71961 18.0109 9.71961L18 10.0012L19.0006 11.0031ZM19.0006 11.0031C19.0006 11.0031 19.147 11.0024 19.2727 10.9977C19.3984 10.9931 19.4557 10.9784 19.5527 10.9439C19.6497 10.9094 19.7822 10.8281 19.877 10.6863C19.9717 10.5446 19.9894 10.2835 19.9894 10.2835L20 10.0016L19.0006 11.0031ZM19.0006 9L18 10.0012L19.0006 11.0031L20 10.0016L19.0006 9Z" fill="#0047BB"/>
<path d="M18 10.0016L17.9894 9.71961C17.9894 9.71961 17.9717 9.45858 17.877 9.31682C17.7822 9.17507 17.6494 9.09335 17.5527 9.05926C17.4557 9.02479 17.3984 9.01046 17.2727 9.00543C17.147 9.00039 17.0006 9 17.0006 9L18 10.0016ZM17.0006 11.0031C17.0006 11.0031 16.8541 11.0024 16.7284 10.9977C16.6028 10.9931 16.5454 10.9784 16.4484 10.9439C16.3514 10.9094 16.2189 10.8281 16.1238 10.6863C16.0287 10.5446 16.0113 10.2835 16.0113 10.2835L16 10.0012L17.0006 9C17.0006 9 16.8538 9.00078 16.7281 9.00543C16.6024 9.01007 16.545 9.02479 16.448 9.05926C16.351 9.09373 16.2185 9.17507 16.1234 9.31682C16.0283 9.45858 16.0109 9.71961 16.0109 9.71961L16 10.0012L17.0006 11.0031ZM17.0006 11.0031C17.0006 11.0031 17.147 11.0024 17.2727 10.9977C17.3984 10.9931 17.4557 10.9784 17.5527 10.9439C17.6497 10.9094 17.7822 10.8281 17.877 10.6863C17.9717 10.5446 17.9894 10.2835 17.9894 10.2835L18 10.0016L17.0006 11.0031ZM17.0006 9L16 10.0012L17.0006 11.0031L18 10.0016L17.0006 9Z" fill="#0047BB"/>
<path d="M14 10.0016L13.9894 9.71961C13.9894 9.71961 13.9717 9.45858 13.877 9.31682C13.7822 9.17507 13.6494 9.09335 13.5527 9.05926C13.4557 9.02479 13.3984 9.01046 13.2727 9.00543C13.147 9.00039 13.0006 9 13.0006 9L14 10.0016ZM13.0006 11.0031C13.0006 11.0031 12.8541 11.0024 12.7284 10.9977C12.6028 10.9931 12.5454 10.9784 12.4484 10.9439C12.3514 10.9094 12.2189 10.8281 12.1238 10.6863C12.0287 10.5446 12.0113 10.2835 12.0113 10.2835L12 10.0012L13.0006 9C13.0006 9 12.8538 9.00078 12.7281 9.00543C12.6024 9.01007 12.545 9.02479 12.448 9.05926C12.351 9.09373 12.2185 9.17507 12.1234 9.31682C12.0283 9.45858 12.0109 9.71961 12.0109 9.71961L12 10.0012L13.0006 11.0031ZM13.0006 11.0031C13.0006 11.0031 13.147 11.0024 13.2727 10.9977C13.3984 10.9931 13.4557 10.9784 13.5527 10.9439C13.6497 10.9094 13.7822 10.8281 13.877 10.6863C13.9717 10.5446 13.9894 10.2835 13.9894 10.2835L14 10.0016L13.0006 11.0031ZM13.0006 9L12 10.0012L13.0006 11.0031L14 10.0016L13.0006 9Z" fill="#0047BB"/>
<path d="M12 10.0016L11.9894 9.71961C11.9894 9.71961 11.9717 9.45858 11.877 9.31682C11.7822 9.17507 11.6494 9.09335 11.5527 9.05926C11.4557 9.02479 11.3984 9.01046 11.2727 9.00543C11.147 9.00039 11.0006 9 11.0006 9L12 10.0016ZM11.0006 11.0031C11.0006 11.0031 10.8541 11.0024 10.7284 10.9977C10.6028 10.9931 10.5454 10.9784 10.4484 10.9439C10.3514 10.9094 10.2189 10.8281 10.1238 10.6863C10.0287 10.5446 10.0113 10.2835 10.0113 10.2835L10 10.0012L11.0006 9C11.0006 9 10.8538 9.00078 10.7281 9.00543C10.6024 9.01007 10.545 9.02479 10.448 9.05926C10.351 9.09373 10.2185 9.17507 10.1234 9.31682C10.0283 9.45858 10.0109 9.71961 10.0109 9.71961L10 10.0012L11.0006 11.0031ZM11.0006 11.0031C11.0006 11.0031 11.147 11.0024 11.2727 10.9977C11.3984 10.9931 11.4557 10.9784 11.5527 10.9439C11.6497 10.9094 11.7822 10.8281 11.877 10.6863C11.9717 10.5446 11.9894 10.2835 11.9894 10.2835L12 10.0016L11.0006 11.0031ZM11.0006 9L10 10.0012L11.0006 11.0031L12 10.0016L11.0006 9Z" fill="#0047BB"/>
<path d="M8 10.0016L7.98943 9.71961C7.98943 9.71961 7.9717 9.45858 7.87696 9.31682C7.78223 9.17507 7.64937 9.09335 7.55275 9.05926C7.45575 9.02479 7.39838 9.01046 7.27269 9.00543C7.14701 9.00039 7.00056 9 7.00056 9L8 10.0016ZM7.00056 11.0031C7.00056 11.0031 6.85412 11.0024 6.72844 10.9977C6.60275 10.9931 6.54538 10.9784 6.44838 10.9439C6.35138 10.9094 6.21891 10.8281 6.1238 10.6863C6.02869 10.5446 6.01133 10.2835 6.01133 10.2835L6 10.0012L7.00056 9C7.00056 9 6.85375 9.00078 6.72807 9.00543C6.60238 9.01007 6.54501 9.02479 6.44801 9.05926C6.35101 9.09373 6.21854 9.17507 6.12343 9.31682C6.02832 9.45858 6.01094 9.71961 6.01094 9.71961L6 10.0012L7.00056 11.0031ZM7.00056 11.0031C7.00056 11.0031 7.14701 11.0024 7.27269 10.9977C7.39838 10.9931 7.45575 10.9784 7.55275 10.9439C7.64975 10.9094 7.78223 10.8281 7.87696 10.6863C7.9717 10.5446 7.98943 10.2835 7.98943 10.2835L8 10.0016L7.00056 11.0031ZM7.00056 9L6 10.0012L7.00056 11.0031L8 10.0016L7.00056 9Z" fill="#0047BB"/>
<path d="M6 10.0016L5.98943 9.71961C5.98943 9.71961 5.9717 9.45858 5.87696 9.31682C5.78223 9.17507 5.64937 9.09335 5.55275 9.05926C5.45575 9.02479 5.39838 9.01046 5.27269 9.00543C5.14701 9.00039 5.00056 9 5.00056 9L6 10.0016ZM5.00056 11.0031C5.00056 11.0031 4.85412 11.0024 4.72844 10.9977C4.60275 10.9931 4.54538 10.9784 4.44838 10.9439C4.35138 10.9094 4.21891 10.8281 4.1238 10.6863C4.02869 10.5446 4.01133 10.2835 4.01133 10.2835L4 10.0012L5.00056 9C5.00056 9 4.85375 9.00078 4.72807 9.00543C4.60238 9.01007 4.54501 9.02479 4.44801 9.05926C4.35101 9.09373 4.21854 9.17507 4.12343 9.31682C4.02832 9.45858 4.01094 9.71961 4.01094 9.71961L4 10.0012L5.00056 11.0031ZM5.00056 11.0031C5.00056 11.0031 5.14701 11.0024 5.27269 10.9977C5.39838 10.9931 5.45575 10.9784 5.55275 10.9439C5.64975 10.9094 5.78223 10.8281 5.87696 10.6863C5.9717 10.5446 5.98943 10.2835 5.98943 10.2835L6 10.0016L5.00056 11.0031ZM5.00056 9L4 10.0012L5.00056 11.0031L6 10.0016L5.00056 9Z" fill="#0047BB"/>
</g>
<defs>
<clipPath id="clip0">
<rect width="20" height="20" fill="white"/>
</clipPath>
</defs>
</svg>
