<svg width="22" height="24" viewBox="0 0 22 24" fill="none" xmlns="http://www.w3.org/2000/svg">
<g clip-path="url(#clip0_2714_764)">
<path fill-rule="evenodd" clip-rule="evenodd" d="M12.2711 0.333339C11.48 -0.111112 10.52 -0.111114 9.72895 0.333338L1.35819 5.03639C0.52024 5.50718 0 6.4041 0 7.37797V16.622C0 17.5959 0.520239 18.4928 1.35819 18.9636L9.72895 23.6667C10.52 24.1111 11.48 24.1111 12.271 23.6667L20.6418 18.9636C21.4798 18.4928 22 17.5959 22 16.622V7.37797C22 6.4041 21.4798 5.50718 20.6418 5.03639L12.2711 0.333339ZM10.2374 1.26997C10.712 1.0033 11.288 1.0033 11.7626 1.26997L20.1334 5.97302C20.2479 6.03734 20.3525 6.11492 20.4457 6.20328L10.9997 11.7378L1.55399 6.20353C1.64733 6.11506 1.75202 6.0374 1.86661 5.97302L10.2374 1.26997ZM1.07047 7.13086C1.05807 7.21188 1.0517 7.29445 1.0517 7.37797V16.622C1.0517 17.2064 1.36384 17.7445 1.86661 18.027L10.2374 22.73C10.3145 22.7733 10.3943 22.8096 10.4758 22.8389V12.6416L1.07047 7.13086ZM11.5235 22.8391C11.6053 22.8098 11.6853 22.7735 11.7626 22.73L20.1334 18.027C20.6362 17.7445 20.9483 17.2064 20.9483 16.622V7.37797C20.9483 7.29432 20.9419 7.21162 20.9295 7.13049L11.5235 12.6416V22.8391ZM11 7.30435C11.8679 7.30435 12.5714 6.83717 12.5714 6.26087C12.5714 5.68457 11.8679 5.21739 11 5.21739C10.1321 5.21739 9.42857 5.68457 9.42857 6.26087C9.42857 6.83717 10.1321 7.30435 11 7.30435ZM9.07936 19.0435C9.07936 19.7639 8.6885 20.3478 8.20635 20.3478C7.7242 20.3478 7.33333 19.7639 7.33333 19.0435C7.33333 18.3231 7.7242 17.7391 8.20635 17.7391C8.6885 17.7391 9.07936 18.3231 9.07936 19.0435ZM2.96825 12C3.45041 12 3.84127 11.416 3.84127 10.6957C3.84127 9.97528 3.45041 9.3913 2.96825 9.3913C2.4861 9.3913 2.09524 9.97528 2.09524 10.6957C2.09524 11.416 2.4861 12 2.96825 12ZM19.9222 10.6957C19.9222 11.416 19.5313 12 19.0492 12C18.567 12 18.1762 11.416 18.1762 10.6957C18.1762 9.97528 18.567 9.3913 19.0492 9.3913C19.5313 9.3913 19.9222 9.97528 19.9222 10.6957ZM16.2416 16.1739C16.7238 16.1739 17.1146 15.5899 17.1146 14.8696C17.1146 14.1492 16.7238 13.5652 16.2416 13.5652C15.7595 13.5652 15.3686 14.1492 15.3686 14.8696C15.3686 15.5899 15.7595 16.1739 16.2416 16.1739ZM14.3175 19.0435C14.3175 19.7639 13.9266 20.3478 13.4444 20.3478C12.9623 20.3478 12.5714 19.7639 12.5714 19.0435C12.5714 18.3231 12.9623 17.7391 13.4444 17.7391C13.9266 17.7391 14.3175 18.3231 14.3175 19.0435Z" fill="#0047BB"/>
</g>
<defs>
<clipPath id="clip0_2714_764">
<rect width="22" height="24" fill="white"/>
</clipPath>
</defs>
</svg>
