<svg width="28" height="28" viewBox="0 0 28 28" fill="none" xmlns="http://www.w3.org/2000/svg">
<path d="M2 14C2 7.37264 7.37264 2 14 2C20.6274 2 26 7.37264 26 14C26 20.6274 20.6274 26 14 26C7.37264 26 2 20.6274 2 14Z" fill="#DE2910"/>
<path d="M9.33417 8.32541L10.4353 11.646H13.9506L11.1129 13.6637L12.1718 16.9844L9.33417 14.9247L6.49641 16.9844L7.59753 13.6637L4.76001 11.646H8.27529L9.33417 8.32541ZM18.4824 6.55997L18.44 7.73693L19.4989 8.15729L18.3553 8.45153L18.3129 9.58637L17.6777 8.61965L16.5765 8.87189L17.2965 7.98917L16.7035 7.02233L17.7624 7.48469L18.4824 6.55997ZM22.4211 10.301L21.9129 11.3098L22.7177 12.1084L21.5741 11.9404L21.0659 12.9491L20.8965 11.8142L19.7529 11.6462L20.7693 11.1417L20.6 10.0067L21.4047 10.8054L22.4211 10.301ZM21.2353 14.9247L21.6165 16.0176H22.76L21.8282 16.6901L22.1671 17.783L21.2353 17.1105L20.3035 17.783L20.6847 16.6901L19.7529 16.0176H20.8965L21.2353 14.9247ZM18.4824 18.4556L18.3977 19.5905L19.4989 20.0108L18.3553 20.305L18.2706 21.44L17.6778 20.4732L16.5342 20.7674L17.2965 19.8848L16.6611 18.9179L17.7624 19.3383L18.4824 18.4556Z" fill="#FFDE00"/>
</svg>
