<svg width="22" height="22" viewBox="0 0 22 22" fill="none" xmlns="http://www.w3.org/2000/svg">
<path d="M13.1434 0.785645C14.9159 0.785645 16.3679 2.16064 16.4905 3.90336L16.4999 4.14222V5.42922C16.5003 5.62556 16.4271 5.81492 16.2948 5.96002C16.1626 6.10511 15.9808 6.19542 15.7852 6.21316C15.5897 6.2309 15.3946 6.17479 15.2383 6.05587C15.0821 5.93695 14.9761 5.76385 14.9411 5.57064L14.9285 5.42922V4.14222C14.9285 3.22293 14.2324 2.46393 13.3366 2.3665L13.1434 2.35707H4.14222C3.22293 2.35707 2.46393 3.05322 2.3665 3.94893L2.35707 4.14222V13.1434C2.35707 14.0626 3.05322 14.8216 3.94893 14.9191L4.14222 14.9285H5.42922C5.62556 14.9281 5.81492 15.0013 5.96002 15.1336C6.10511 15.2659 6.19542 15.4477 6.21316 15.6432C6.2309 15.8388 6.17479 16.0339 6.05587 16.1901C5.93695 16.3463 5.76385 16.4524 5.57065 16.4874L5.42922 16.4999H4.14222C3.29361 16.4993 2.4767 16.1775 1.85574 15.5991C1.23479 15.0207 0.855829 14.2286 0.795073 13.3822L0.785645 13.1434V4.14222C0.785645 2.36964 2.16064 0.917644 3.90336 0.795073L4.14222 0.785645H13.1434Z" fill="#878787"/>
<path d="M17.2857 5.5H9.42857C8.38665 5.5 7.3874 5.9139 6.65065 6.65065C5.9139 7.3874 5.5 8.38665 5.5 9.42857V17.2857C5.5 18.3276 5.9139 19.3269 6.65065 20.0636C7.3874 20.8004 8.38665 21.2143 9.42857 21.2143H17.2857C18.3276 21.2143 19.3269 20.8004 20.0636 20.0636C20.8004 19.3269 21.2143 18.3276 21.2143 17.2857V9.42857C21.2143 8.38665 20.8004 7.3874 20.0636 6.65065C19.3269 5.9139 18.3276 5.5 17.2857 5.5ZM9.42857 7.07143H17.2857C17.9109 7.07143 18.5104 7.31977 18.9525 7.76182C19.3945 8.20387 19.6429 8.80342 19.6429 9.42857V17.2857C19.6429 17.9109 19.3945 18.5104 18.9525 18.9525C18.5104 19.3945 17.9109 19.6429 17.2857 19.6429H9.42857C8.80342 19.6429 8.20387 19.3945 7.76182 18.9525C7.31977 18.5104 7.07143 17.9109 7.07143 17.2857V9.42857C7.07143 9.11903 7.1324 8.81251 7.25086 8.52653C7.36931 8.24055 7.54294 7.9807 7.76182 7.76182C8.20387 7.31977 8.80342 7.07143 9.42857 7.07143Z" fill="#878787"/>
</svg>
