<svg width="28" height="28" viewBox="0 0 28 28" fill="none" xmlns="http://www.w3.org/2000/svg">
<path d="M20.405 3.8451C18.4898 2.63149 16.2673 1.99128 14 2.00009V3.8451H20.405Z" fill="#ED4C5C"/>
<path d="M14 5.6901H22.655C21.9768 4.98645 21.2163 4.367 20.39 3.84509H14V5.6901Z" fill="white"/>
<path d="M14 7.53507H24.11C23.6708 6.87307 23.1684 6.25518 22.61 5.69006H14L14 7.53507Z" fill="#ED4C5C"/>
<path d="M14 9.38004H25.1C24.8292 8.73789 24.503 8.12056 24.125 7.53503H14V9.38004Z" fill="white"/>
<path d="M14 11.2251H25.67C25.525 10.5954 25.3294 9.97837 25.085 9.38013H14V11.2251Z" fill="#ED4C5C"/>
<path d="M14 13.0701H26C25.9464 12.4485 25.8461 11.8317 25.7 11.2251H14V13.0701Z" fill="white"/>
<path d="M26 13.0701H14V14.0001H2V14.9151H26V13.0701Z" fill="#ED4C5C"/>
<path d="M2.345 16.7451H25.7C25.8461 16.1435 25.9464 15.5318 26 14.9151H2C2.06057 15.5341 2.17603 16.1465 2.345 16.7451Z" fill="white"/>
<path d="M2.93 18.5901H25.1C25.3559 17.9947 25.5567 17.3771 25.7 16.7451H2.345C2.49 17.3748 2.68564 17.9918 2.93 18.5901Z" fill="#ED4C5C"/>
<path d="M3.89 20.435H24.14C24.5188 19.8525 24.8403 19.2346 25.1 18.5901H2.92999C3.20207 19.2288 3.52303 19.8457 3.89 20.4351V20.435Z" fill="white"/>
<path d="M5.34499 22.28H22.7C23.2624 21.7185 23.7651 21.1002 24.2 20.435H3.88998C4.31603 21.0943 4.80318 21.712 5.34499 22.28Z" fill="#ED4C5C"/>
<path d="M7.58 24.1251H20.45C21.2715 23.6029 22.027 22.9835 22.7 22.2801H5.34497C6.01271 22.9832 6.76319 23.6027 7.58 24.1251Z" fill="white"/>
<path d="M14 26.0001C16.2796 25.999 18.5117 25.3486 20.435 24.1251H7.57999C9.49907 25.3459 11.7256 25.9962 14.0001 26.0001H14Z" fill="#ED4C5C"/>
<path d="M7.62502 3.84574C6.80348 4.36792 6.048 4.98741 5.37501 5.69075C4.81215 6.25185 4.30942 6.87019 3.87501 7.53573C3.51254 8.12285 3.20138 8.74014 2.945 9.38074C2.68913 9.97615 2.48829 10.5937 2.345 11.2257C2.18368 11.8312 2.06836 12.4479 2 13.0707L2 14.0007H14V2.00073C11.7438 2.00421 9.53432 2.64367 7.62502 3.84574Z" fill="#428BC1"/>
<path d="M11.21 2.40512L11.405 2.99012H12.02L11.525 3.38012L11.705 3.99513L11.21 3.63513L10.715 3.99513L10.91 3.38012L10.415 2.99012H11.03L11.21 2.40512ZM12.815 4.80513L13.01 5.39013H13.61L13.115 5.78013L13.31 6.39514L12.815 6.03514L12.32 6.39514L12.515 5.78013L12.02 5.39013H12.62L12.815 4.80513ZM9.62002 4.80513L9.80003 5.39013H10.415L9.92003 5.78013L10.115 6.39514L9.62002 6.03514L9.12502 6.39514L9.30502 5.78013L8.81002 5.39013H9.42502L9.62002 4.80513ZM11.21 7.20512L11.405 7.79012H12.02L11.525 8.18012L11.705 8.79512L11.21 8.43512L10.715 8.79512L10.91 8.18012L10.415 7.79012H11.03L11.21 7.20512ZM8.01502 7.20512L8.21002 7.79012H8.81002L8.31502 8.18012L8.51002 8.79512L8.01502 8.43512L7.52002 8.79512L7.71502 8.18012L7.22001 7.79012H7.82002L8.01502 7.20512ZM4.82 7.20512L5.00001 7.79012H5.61501L5.12001 8.18012L5.31501 8.79512L4.82 8.43512L4.325 8.79512L4.505 8.18012L4.01 7.79012H4.62503L4.82003 7.20512H4.82ZM12.815 9.60513L13.01 10.1901H13.61L13.115 10.5801L13.31 11.1951L12.815 10.8351L12.32 11.1951L12.515 10.5801L12.02 10.1901H12.62L12.815 9.60513ZM9.62002 9.60513L9.80003 10.1901H10.415L9.92003 10.5801L10.115 11.1951L9.62002 10.8351L9.12502 11.1951L9.30502 10.5801L8.81002 10.1901H9.42502L9.62002 9.60513ZM6.41001 9.60513L6.60501 10.1901H7.22001L6.72501 10.5801L6.90501 11.1951L6.41001 10.8351L5.91501 11.1951L6.11001 10.5801L5.61501 10.1901H6.23001L6.41001 9.60513ZM11.21 12.0051L11.405 12.5901H12.02L11.525 12.9801L11.705 13.5951L11.21 13.2351L10.715 13.5951L10.91 12.9801L10.415 12.5901H11.03L11.21 12.0051V12.0051ZM8.01502 12.0051L8.21002 12.5901H8.81002L8.31502 12.9801L8.51002 13.5951L8.01502 13.2351L7.52002 13.5951L7.71502 12.9801L7.22001 12.5901H7.82002L8.01502 12.0051V12.0051ZM4.82 12.0051L5.00001 12.5901H5.61501L5.12001 12.9801L5.31501 13.5951L4.82 13.2351L4.325 13.5951L4.505 12.9801L4.01 12.5901H4.62503L4.82003 12.0051L4.82 12.0051ZM5.93001 6.39511L6.50001 6.03511L6.99501 6.39511L6.80001 5.78011L7.29501 5.39011H6.60501L6.50001 4.80511L6.30501 5.39011H5.64501L6.11001 5.76511L5.93001 6.39511ZM2.72 11.1951L3.215 10.8351L3.71 11.1951L3.5 10.5801L3.995 10.1901H3.41002L3.21502 9.60513L3.03502 10.1901H2.64502V10.3251L2.97502 10.5801L2.72 11.1951Z" fill="white"/>
</svg>
