<svg width="40" height="40" viewBox="0 0 40 40" fill="none" xmlns="http://www.w3.org/2000/svg">
<path d="M26.1431 36L26.5653 35.9841C26.5653 35.9841 26.9563 35.9575 27.1686 35.8154C27.3809 35.6733 27.5033 35.4741 27.5543 35.3291C27.6059 35.1836 27.6274 35.0976 27.6349 34.909C27.6425 34.7205 27.6431 34.5008 27.6431 34.5008L26.1431 36ZM24.6431 34.5008C24.6431 34.5008 24.6442 34.2812 24.6512 34.0927C24.6582 33.9041 24.6802 33.8181 24.7318 33.6726C24.7834 33.5271 24.9053 33.3284 25.1176 33.1857C25.3299 33.043 25.7208 33.017 25.7208 33.017L26.1436 33L27.6431 34.5008C27.6431 34.5008 27.6419 34.2806 27.6349 34.0921C27.628 33.9036 27.6059 33.8175 27.5543 33.672C27.5027 33.5265 27.3809 33.3278 27.1686 33.1851C26.9563 33.0425 26.5653 33.0164 26.5653 33.0164L26.1436 33L24.6431 34.5008ZM24.6431 34.5008C24.6431 34.5008 24.6442 34.7205 24.6512 34.909C24.6582 35.0976 24.6802 35.1836 24.7318 35.3291C24.7834 35.4746 24.9053 35.6733 25.1176 35.8154C25.3299 35.9575 25.7208 35.9841 25.7208 35.9841L26.1431 36L24.6431 34.5008ZM27.6431 34.5008L26.1436 33L24.6431 34.5008L26.1431 36L27.6431 34.5008Z" fill="#878787"/>
<path d="M26.1431 33L26.5653 32.9841C26.5653 32.9841 26.9563 32.9575 27.1686 32.8154C27.3809 32.6733 27.5033 32.4741 27.5543 32.3291C27.6059 32.1836 27.6274 32.0976 27.6349 31.909C27.6425 31.7205 27.6431 31.5008 27.6431 31.5008L26.1431 33ZM24.6431 31.5008C24.6431 31.5008 24.6442 31.2812 24.6512 31.0927C24.6582 30.9041 24.6802 30.8181 24.7318 30.6726C24.7834 30.5271 24.9053 30.3284 25.1176 30.1857C25.3299 30.043 25.7208 30.017 25.7208 30.017L26.1436 30L27.6431 31.5008C27.6431 31.5008 27.6419 31.2806 27.6349 31.0921C27.628 30.9036 27.6059 30.8175 27.5543 30.672C27.5027 30.5265 27.3809 30.3278 27.1686 30.1851C26.9563 30.0425 26.5653 30.0164 26.5653 30.0164L26.1436 30L24.6431 31.5008ZM24.6431 31.5008C24.6431 31.5008 24.6442 31.7205 24.6512 31.909C24.6582 32.0976 24.6802 32.1836 24.7318 32.3291C24.7834 32.4746 24.9053 32.6733 25.1176 32.8154C25.3299 32.9575 25.7208 32.9841 25.7208 32.9841L26.1431 33L24.6431 31.5008ZM27.6431 31.5008L26.1436 30L24.6431 31.5008L26.1431 33L27.6431 31.5008Z" fill="#878787"/>
<path d="M26.1431 27L26.5653 26.9841C26.5653 26.9841 26.9563 26.9575 27.1686 26.8154C27.3809 26.6733 27.5033 26.4741 27.5543 26.3291C27.6059 26.1836 27.6274 26.0976 27.6349 25.909C27.6425 25.7205 27.6431 25.5008 27.6431 25.5008L26.1431 27ZM24.6431 25.5008C24.6431 25.5008 24.6442 25.2812 24.6512 25.0927C24.6582 24.9041 24.6802 24.8181 24.7318 24.6726C24.7834 24.5271 24.9053 24.3284 25.1176 24.1857C25.3299 24.043 25.7208 24.017 25.7208 24.017L26.1436 24L27.6431 25.5008C27.6431 25.5008 27.6419 25.2806 27.6349 25.0921C27.628 24.9036 27.6059 24.8175 27.5543 24.672C27.5027 24.5265 27.3809 24.3278 27.1686 24.1851C26.9563 24.0425 26.5653 24.0164 26.5653 24.0164L26.1436 24L24.6431 25.5008ZM24.6431 25.5008C24.6431 25.5008 24.6442 25.7205 24.6512 25.909C24.6582 26.0976 24.6802 26.1836 24.7318 26.3291C24.7834 26.4746 24.9053 26.6733 25.1176 26.8154C25.3299 26.9575 25.7208 26.9841 25.7208 26.9841L26.1431 27L24.6431 25.5008ZM27.6431 25.5008L26.1436 24L24.6431 25.5008L26.1431 27L27.6431 25.5008Z" fill="#878787"/>
<path d="M26.1431 24L26.5653 23.9841C26.5653 23.9841 26.9563 23.9575 27.1686 23.8154C27.3809 23.6733 27.5033 23.4741 27.5543 23.3291C27.6059 23.1836 27.6274 23.0976 27.6349 22.909C27.6425 22.7205 27.6431 22.5008 27.6431 22.5008L26.1431 24ZM24.6431 22.5008C24.6431 22.5008 24.6442 22.2812 24.6512 22.0927C24.6582 21.9041 24.6802 21.8181 24.7318 21.6726C24.7834 21.5271 24.9053 21.3284 25.1176 21.1857C25.3299 21.043 25.7208 21.017 25.7208 21.017L26.1436 21L27.6431 22.5008C27.6431 22.5008 27.6419 22.2806 27.6349 22.0921C27.628 21.9036 27.6059 21.8175 27.5543 21.672C27.5027 21.5265 27.3809 21.3278 27.1686 21.1851C26.9563 21.0425 26.5653 21.0164 26.5653 21.0164L26.1436 21L24.6431 22.5008ZM24.6431 22.5008C24.6431 22.5008 24.6442 22.7205 24.6512 22.909C24.6582 23.0976 24.6802 23.1836 24.7318 23.3291C24.7834 23.4746 24.9053 23.6733 25.1176 23.8154C25.3299 23.9575 25.7208 23.9841 25.7208 23.9841L26.1431 24L24.6431 22.5008ZM27.6431 22.5008L26.1436 21L24.6431 22.5008L26.1431 24L27.6431 22.5008Z" fill="#878787"/>
<path d="M26.1431 18L26.5653 17.9841C26.5653 17.9841 26.9563 17.9575 27.1686 17.8154C27.3809 17.6733 27.5033 17.4741 27.5543 17.3291C27.6059 17.1836 27.6274 17.0976 27.6349 16.909C27.6425 16.7205 27.6431 16.5008 27.6431 16.5008L26.1431 18ZM24.6431 16.5008C24.6431 16.5008 24.6442 16.2812 24.6512 16.0927C24.6582 15.9041 24.6802 15.8181 24.7318 15.6726C24.7834 15.5271 24.9053 15.3284 25.1176 15.1857C25.3299 15.043 25.7208 15.017 25.7208 15.017L26.1436 15L27.6431 16.5008C27.6431 16.5008 27.6419 16.2806 27.6349 16.0921C27.628 15.9036 27.6059 15.8175 27.5543 15.672C27.5027 15.5265 27.3809 15.3278 27.1686 15.1851C26.9563 15.0425 26.5653 15.0164 26.5653 15.0164L26.1436 15L24.6431 16.5008ZM24.6431 16.5008C24.6431 16.5008 24.6442 16.7205 24.6512 16.909C24.6582 17.0976 24.6802 17.1836 24.7318 17.3291C24.7834 17.4746 24.9053 17.6733 25.1176 17.8154C25.3299 17.9575 25.7208 17.9841 25.7208 17.9841L26.1431 18L24.6431 16.5008ZM27.6431 16.5008L26.1436 15L24.6431 16.5008L26.1431 18L27.6431 16.5008Z" fill="#878787"/>
<path d="M26.1431 15L26.5653 14.9841C26.5653 14.9841 26.9563 14.9575 27.1686 14.8154C27.3809 14.6733 27.5033 14.4741 27.5543 14.3291C27.6059 14.1836 27.6274 14.0976 27.6349 13.909C27.6425 13.7205 27.6431 13.5008 27.6431 13.5008L26.1431 15ZM24.6431 13.5008C24.6431 13.5008 24.6442 13.2812 24.6512 13.0927C24.6582 12.9041 24.6802 12.8181 24.7318 12.6726C24.7834 12.5271 24.9053 12.3284 25.1176 12.1857C25.3299 12.043 25.7208 12.017 25.7208 12.017L26.1436 12L27.6431 13.5008C27.6431 13.5008 27.6419 13.2806 27.6349 13.0921C27.628 12.9036 27.6059 12.8175 27.5543 12.672C27.5027 12.5265 27.3809 12.3278 27.1686 12.1851C26.9563 12.0425 26.5653 12.0164 26.5653 12.0164L26.1436 12L24.6431 13.5008ZM24.6431 13.5008C24.6431 13.5008 24.6442 13.7205 24.6512 13.909C24.6582 14.0976 24.6802 14.1836 24.7318 14.3291C24.7834 14.4746 24.9053 14.6733 25.1176 14.8154C25.3299 14.9575 25.7208 14.9841 25.7208 14.9841L26.1431 15L24.6431 13.5008ZM27.6431 13.5008L26.1436 12L24.6431 13.5008L26.1431 15L27.6431 13.5008Z" fill="#878787"/>
<path d="M26.1431 10L26.5653 9.98414C26.5653 9.98414 26.9563 9.95755 27.1686 9.81544C27.3809 9.67334 27.5033 9.47405 27.5543 9.32912C27.6059 9.18362 27.6274 9.09757 27.6349 8.90904C27.6425 8.72051 27.6431 8.50085 27.6431 8.50085L26.1431 10ZM24.6431 8.50085C24.6431 8.50085 24.6442 8.28118 24.6512 8.09265C24.6582 7.90413 24.6802 7.81807 24.7318 7.67257C24.7834 7.52707 24.9053 7.32836 25.1176 7.1857C25.3299 7.04303 25.7208 7.017 25.7208 7.017L26.1436 7L27.6431 8.50085C27.6431 8.50085 27.6419 8.28063 27.6349 8.0921C27.628 7.90357 27.6059 7.81752 27.5543 7.67202C27.5027 7.52652 27.3809 7.32781 27.1686 7.18514C26.9563 7.04248 26.5653 7.01641 26.5653 7.01641L26.1436 7L24.6431 8.50085ZM24.6431 8.50085C24.6431 8.50085 24.6442 8.72051 24.6512 8.90904C24.6582 9.09757 24.6802 9.18362 24.7318 9.32912C24.7834 9.47462 24.9053 9.67334 25.1176 9.81544C25.3299 9.95755 25.7208 9.98414 25.7208 9.98414L26.1431 10L24.6431 8.50085ZM27.6431 8.50085L26.1436 7L24.6431 8.50085L26.1431 10L27.6431 8.50085Z" fill="#878787"/>
<path d="M26.1431 7L26.5653 6.98414C26.5653 6.98414 26.9563 6.95755 27.1686 6.81544C27.3809 6.67334 27.5033 6.47405 27.5543 6.32912C27.6059 6.18362 27.6274 6.09757 27.6349 5.90904C27.6425 5.72051 27.6431 5.50085 27.6431 5.50085L26.1431 7ZM24.6431 5.50085C24.6431 5.50085 24.6442 5.28118 24.6512 5.09265C24.6582 4.90413 24.6802 4.81807 24.7318 4.67257C24.7834 4.52707 24.9053 4.32836 25.1176 4.1857C25.3299 4.04303 25.7208 4.017 25.7208 4.017L26.1436 4L27.6431 5.50085C27.6431 5.50085 27.6419 5.28063 27.6349 5.0921C27.628 4.90357 27.6059 4.81752 27.5543 4.67202C27.5027 4.52652 27.3809 4.32781 27.1686 4.18514C26.9563 4.04248 26.5653 4.01641 26.5653 4.01641L26.1436 4L24.6431 5.50085ZM24.6431 5.50085C24.6431 5.50085 24.6442 5.72051 24.6512 5.90904C24.6582 6.09757 24.6802 6.18362 24.7318 6.32912C24.7834 6.47462 24.9053 6.67334 25.1176 6.81544C25.3299 6.95755 25.7208 6.98414 25.7208 6.98414L26.1431 7L24.6431 5.50085ZM27.6431 5.50085L26.1436 4L24.6431 5.50085L26.1431 7L27.6431 5.50085Z" fill="#878787"/>
<path d="M32.4955 8.85591L32.7829 8.5461C32.7829 8.5461 33.0405 8.25086 33.0902 8.00027C33.1398 7.74967 33.0854 7.5222 33.0191 7.38363C32.9527 7.24424 32.907 7.16821 32.779 7.02957C32.651 6.89093 32.4961 6.73519 32.4961 6.73519L32.4955 8.85591ZM30.3748 8.85651C30.3748 8.85651 30.2203 8.70036 30.0919 8.56213C29.9635 8.4239 29.9183 8.34746 29.8519 8.20807C29.7855 8.06869 29.7311 7.84204 29.7804 7.59104C29.8296 7.34005 30.0876 7.04521 30.0876 7.04521L30.3746 6.73418L32.4961 6.73519C32.4961 6.73519 32.3396 6.58029 32.2014 6.45191C32.0631 6.32352 31.9867 6.27826 31.8473 6.21188C31.7079 6.1455 31.4813 6.09113 31.2303 6.14036C30.9793 6.1896 30.6844 6.4476 30.6844 6.4476L30.3746 6.73418L30.3748 8.85651ZM30.3748 8.85651C30.3748 8.85651 30.531 9.01101 30.6692 9.1394C30.8074 9.26779 30.8839 9.31305 31.0233 9.37943C31.1626 9.44581 31.3893 9.50019 31.6399 9.45056C31.8905 9.40092 32.1857 9.14329 32.1857 9.14329L32.4955 8.85591L30.3748 8.85651ZM32.4961 6.73519L30.3746 6.73418L30.3748 8.85651L32.4955 8.85591L32.4961 6.73519Z" fill="#878787"/>
<path d="M38.4955 14.8559L38.7829 14.5461C38.7829 14.5461 39.0405 14.2509 39.0902 14.0003C39.1398 13.7497 39.0854 13.5222 39.0191 13.3836C38.9527 13.2442 38.907 13.1682 38.779 13.0296C38.651 12.8909 38.4961 12.7352 38.4961 12.7352L38.4955 14.8559ZM36.3748 14.8565C36.3748 14.8565 36.2203 14.7004 36.0919 14.5621C35.9635 14.4239 35.9183 14.3475 35.8519 14.2081C35.7855 14.0687 35.7311 13.842 35.7804 13.591C35.8296 13.34 36.0876 13.0452 36.0876 13.0452L36.3746 12.7342L38.4961 12.7352C38.4961 12.7352 38.3396 12.5803 38.2014 12.4519C38.0631 12.3235 37.9867 12.2783 37.8473 12.2119C37.7079 12.1455 37.4813 12.0911 37.2303 12.1404C36.9793 12.1896 36.6844 12.4476 36.6844 12.4476L36.3746 12.7342L36.3748 14.8565ZM36.3748 14.8565C36.3748 14.8565 36.531 15.011 36.6692 15.1394C36.8074 15.2678 36.8839 15.313 37.0233 15.3794C37.1626 15.4458 37.3893 15.5002 37.6399 15.4506C37.8905 15.4009 38.1857 15.1433 38.1857 15.1433L38.4955 14.8559L36.3748 14.8565ZM38.4961 12.7352L36.3746 12.7342L36.3748 14.8565L38.4955 14.8559L38.4961 12.7352Z" fill="#878787"/>
<path d="M30.3746 6.73418L30.6616 6.42476C30.6616 6.42476 30.9192 6.12952 30.9688 5.87893C31.0185 5.62833 30.9641 5.40087 30.8977 5.26229C30.8313 5.1229 30.7857 5.04687 30.6577 4.90823C30.5297 4.76959 30.3748 4.61385 30.3748 4.61385L30.3746 6.73418ZM28.2535 6.73517C28.2535 6.73517 28.099 6.57902 27.9706 6.44079C27.8422 6.30256 27.7969 6.22612 27.7306 6.08673C27.6642 5.94735 27.6098 5.7207 27.659 5.4697C27.7083 5.21871 27.9663 4.92387 27.9663 4.92387L28.2533 4.61285L30.3748 4.61385C30.3748 4.61385 30.2183 4.45896 30.08 4.33057C29.9418 4.20218 29.8654 4.15692 29.726 4.09054C29.5866 4.02416 29.3599 3.96979 29.1089 4.01902C28.8579 4.06826 28.5631 4.32626 28.5631 4.32626L28.2533 4.61285L28.2535 6.73517ZM28.2535 6.73517C28.2535 6.73517 28.4096 6.88968 28.5479 7.01806C28.6861 7.14645 28.7625 7.19171 28.9019 7.25809C29.0413 7.32447 29.268 7.37885 29.5186 7.32922C29.7691 7.27958 30.0644 7.02195 30.0644 7.02195L30.3746 6.73418L28.2535 6.73517ZM30.3748 4.61385L28.2533 4.61285L28.2535 6.73517L30.3746 6.73418L30.3748 4.61385Z" fill="#878787"/>
<path d="M36.3746 12.7342L36.6616 12.4248C36.6616 12.4248 36.9192 12.1295 36.9688 11.8789C37.0185 11.6283 36.9641 11.4009 36.8977 11.2623C36.8313 11.1229 36.7857 11.0469 36.6577 10.9082C36.5297 10.7696 36.3748 10.6139 36.3748 10.6139L36.3746 12.7342ZM34.2535 12.7352C34.2535 12.7352 34.099 12.579 33.9706 12.4408C33.8422 12.3026 33.7969 12.2261 33.7306 12.0867C33.6642 11.9473 33.6098 11.7207 33.659 11.4697C33.7083 11.2187 33.9663 10.9239 33.9663 10.9239L34.2533 10.6128L36.3748 10.6139C36.3748 10.6139 36.2183 10.459 36.08 10.3306C35.9418 10.2022 35.8654 10.1569 35.726 10.0905C35.5866 10.0242 35.3599 9.96979 35.1089 10.019C34.8579 10.0683 34.5631 10.3263 34.5631 10.3263L34.2533 10.6128L34.2535 12.7352ZM34.2535 12.7352C34.2535 12.7352 34.4096 12.8897 34.5479 13.0181C34.6861 13.1464 34.7625 13.1917 34.9019 13.2581C35.0413 13.3245 35.268 13.3789 35.5186 13.3292C35.7691 13.2796 36.0644 13.022 36.0644 13.022L36.3746 12.7342L34.2535 12.7352ZM36.3748 10.6139L34.2533 10.6128L34.2535 12.7352L36.3746 12.7342L36.3748 10.6139Z" fill="#878787"/>
<path d="M15.97 4L15.5477 4.01586C15.5477 4.01586 15.1568 4.04245 14.9445 4.18456C14.7322 4.32666 14.6098 4.52595 14.5587 4.67088C14.5071 4.81638 14.4856 4.90243 14.4781 5.09096C14.4706 5.27949 14.47 5.49915 14.47 5.49915L15.97 4ZM17.47 5.49915C17.47 5.49915 17.4688 5.71882 17.4618 5.90735C17.4549 6.09587 17.4328 6.18193 17.3812 6.32743C17.3296 6.47293 17.2078 6.67164 16.9955 6.8143C16.7832 6.95697 16.3922 6.983 16.3922 6.983L15.9694 7L14.47 5.49915C14.47 5.49915 14.4711 5.71937 14.4781 5.9079C14.4851 6.09643 14.5071 6.18248 14.5587 6.32798C14.6103 6.47348 14.7322 6.67219 14.9445 6.81486C15.1568 6.95752 15.5477 6.98359 15.5477 6.98359L15.9694 7L17.47 5.49915ZM17.47 5.49915C17.47 5.49915 17.4688 5.27949 17.4618 5.09096C17.4549 4.90243 17.4328 4.81638 17.3812 4.67088C17.3296 4.52538 17.2078 4.32666 16.9955 4.18456C16.7832 4.04245 16.3922 4.01586 16.3922 4.01586L15.97 4L17.47 5.49915ZM14.47 5.49915L15.9694 7L17.47 5.49915L15.97 4L14.47 5.49915Z" fill="#878787"/>
<path d="M15.97 7L15.5477 7.01586C15.5477 7.01586 15.1568 7.04245 14.9445 7.18456C14.7322 7.32666 14.6098 7.52595 14.5587 7.67088C14.5071 7.81638 14.4856 7.90243 14.4781 8.09096C14.4706 8.27949 14.47 8.49915 14.47 8.49915L15.97 7ZM17.47 8.49915C17.47 8.49915 17.4688 8.71882 17.4618 8.90735C17.4549 9.09587 17.4328 9.18193 17.3812 9.32743C17.3296 9.47293 17.2078 9.67164 16.9955 9.8143C16.7832 9.95697 16.3922 9.983 16.3922 9.983L15.9694 10L14.47 8.49915C14.47 8.49915 14.4711 8.71937 14.4781 8.9079C14.4851 9.09643 14.5071 9.18248 14.5587 9.32798C14.6103 9.47348 14.7322 9.67219 14.9445 9.81486C15.1568 9.95752 15.5477 9.98359 15.5477 9.98359L15.9694 10L17.47 8.49915ZM17.47 8.49915C17.47 8.49915 17.4688 8.27949 17.4618 8.09096C17.4549 7.90243 17.4328 7.81638 17.3812 7.67088C17.3296 7.52538 17.2078 7.32666 16.9955 7.18456C16.7832 7.04245 16.3922 7.01586 16.3922 7.01586L15.97 7L17.47 8.49915ZM14.47 8.49915L15.9694 10L17.47 8.49915L15.97 7L14.47 8.49915Z" fill="#878787"/>
<path d="M15.97 13L15.5477 13.0159C15.5477 13.0159 15.1568 13.0425 14.9445 13.1846C14.7322 13.3267 14.6098 13.5259 14.5587 13.6709C14.5071 13.8164 14.4856 13.9024 14.4781 14.091C14.4706 14.2795 14.47 14.4992 14.47 14.4992L15.97 13ZM17.47 14.4992C17.47 14.4992 17.4688 14.7188 17.4618 14.9073C17.4549 15.0959 17.4328 15.1819 17.3812 15.3274C17.3296 15.4729 17.2078 15.6716 16.9955 15.8143C16.7832 15.957 16.3922 15.983 16.3922 15.983L15.9694 16L14.47 14.4992C14.47 14.4992 14.4711 14.7194 14.4781 14.9079C14.4851 15.0964 14.5071 15.1825 14.5587 15.328C14.6103 15.4735 14.7322 15.6722 14.9445 15.8149C15.1568 15.9575 15.5477 15.9836 15.5477 15.9836L15.9694 16L17.47 14.4992ZM17.47 14.4992C17.47 14.4992 17.4688 14.2795 17.4618 14.091C17.4549 13.9024 17.4328 13.8164 17.3812 13.6709C17.3296 13.5254 17.2078 13.3267 16.9955 13.1846C16.7832 13.0425 16.3922 13.0159 16.3922 13.0159L15.97 13L17.47 14.4992ZM14.47 14.4992L15.9694 16L17.47 14.4992L15.97 13L14.47 14.4992Z" fill="#878787"/>
<path d="M15.97 16L15.5477 16.0159C15.5477 16.0159 15.1568 16.0425 14.9445 16.1846C14.7322 16.3267 14.6098 16.5259 14.5587 16.6709C14.5071 16.8164 14.4856 16.9024 14.4781 17.091C14.4706 17.2795 14.47 17.4992 14.47 17.4992L15.97 16ZM17.47 17.4992C17.47 17.4992 17.4688 17.7188 17.4618 17.9073C17.4549 18.0959 17.4328 18.1819 17.3812 18.3274C17.3296 18.4729 17.2078 18.6716 16.9955 18.8143C16.7832 18.957 16.3922 18.983 16.3922 18.983L15.9694 19L14.47 17.4992C14.47 17.4992 14.4711 17.7194 14.4781 17.9079C14.4851 18.0964 14.5071 18.1825 14.5587 18.328C14.6103 18.4735 14.7322 18.6722 14.9445 18.8149C15.1568 18.9575 15.5477 18.9836 15.5477 18.9836L15.9694 19L17.47 17.4992ZM17.47 17.4992C17.47 17.4992 17.4688 17.2795 17.4618 17.091C17.4549 16.9024 17.4328 16.8164 17.3812 16.6709C17.3296 16.5254 17.2078 16.3267 16.9955 16.1846C16.7832 16.0425 16.3922 16.0159 16.3922 16.0159L15.97 16L17.47 17.4992ZM14.47 17.4992L15.9694 19L17.47 17.4992L15.97 16L14.47 17.4992Z" fill="#878787"/>
<path d="M15.97 22L15.5477 22.0159C15.5477 22.0159 15.1568 22.0425 14.9445 22.1846C14.7322 22.3267 14.6098 22.5259 14.5587 22.6709C14.5071 22.8164 14.4856 22.9024 14.4781 23.091C14.4706 23.2795 14.47 23.4992 14.47 23.4992L15.97 22ZM17.47 23.4992C17.47 23.4992 17.4688 23.7188 17.4618 23.9073C17.4549 24.0959 17.4328 24.1819 17.3812 24.3274C17.3296 24.4729 17.2078 24.6716 16.9955 24.8143C16.7832 24.957 16.3922 24.983 16.3922 24.983L15.9694 25L14.47 23.4992C14.47 23.4992 14.4711 23.7194 14.4781 23.9079C14.4851 24.0964 14.5071 24.1825 14.5587 24.328C14.6103 24.4735 14.7322 24.6722 14.9445 24.8149C15.1568 24.9575 15.5477 24.9836 15.5477 24.9836L15.9694 25L17.47 23.4992ZM17.47 23.4992C17.47 23.4992 17.4688 23.2795 17.4618 23.091C17.4549 22.9024 17.4328 22.8164 17.3812 22.6709C17.3296 22.5254 17.2078 22.3267 16.9955 22.1846C16.7832 22.0425 16.3922 22.0159 16.3922 22.0159L15.97 22L17.47 23.4992ZM14.47 23.4992L15.9694 25L17.47 23.4992L15.97 22L14.47 23.4992Z" fill="#878787"/>
<path d="M15.97 25L15.5477 25.0159C15.5477 25.0159 15.1568 25.0425 14.9445 25.1846C14.7322 25.3267 14.6098 25.5259 14.5587 25.6709C14.5071 25.8164 14.4856 25.9024 14.4781 26.091C14.4706 26.2795 14.47 26.4992 14.47 26.4992L15.97 25ZM17.47 26.4992C17.47 26.4992 17.4688 26.7188 17.4618 26.9073C17.4549 27.0959 17.4328 27.1819 17.3812 27.3274C17.3296 27.4729 17.2078 27.6716 16.9955 27.8143C16.7832 27.957 16.3922 27.983 16.3922 27.983L15.9694 28L14.47 26.4992C14.47 26.4992 14.4711 26.7194 14.4781 26.9079C14.4851 27.0964 14.5071 27.1825 14.5587 27.328C14.6103 27.4735 14.7322 27.6722 14.9445 27.8149C15.1568 27.9575 15.5477 27.9836 15.5477 27.9836L15.9694 28L17.47 26.4992ZM17.47 26.4992C17.47 26.4992 17.4688 26.2795 17.4618 26.091C17.4549 25.9024 17.4328 25.8164 17.3812 25.6709C17.3296 25.5254 17.2078 25.3267 16.9955 25.1846C16.7832 25.0425 16.3922 25.0159 16.3922 25.0159L15.97 25L17.47 26.4992ZM14.47 26.4992L15.9694 28L17.47 26.4992L15.97 25L14.47 26.4992Z" fill="#878787"/>
<path d="M15.97 30L15.5477 30.0159C15.5477 30.0159 15.1568 30.0425 14.9445 30.1846C14.7322 30.3267 14.6098 30.5259 14.5587 30.6709C14.5071 30.8164 14.4856 30.9024 14.4781 31.091C14.4706 31.2795 14.47 31.4992 14.47 31.4992L15.97 30ZM17.47 31.4992C17.47 31.4992 17.4688 31.7188 17.4618 31.9073C17.4549 32.0959 17.4328 32.1819 17.3812 32.3274C17.3296 32.4729 17.2078 32.6716 16.9955 32.8143C16.7832 32.957 16.3922 32.983 16.3922 32.983L15.9694 33L14.47 31.4992C14.47 31.4992 14.4711 31.7194 14.4781 31.9079C14.4851 32.0964 14.5071 32.1825 14.5587 32.328C14.6103 32.4735 14.7322 32.6722 14.9445 32.8149C15.1568 32.9575 15.5477 32.9836 15.5477 32.9836L15.9694 33L17.47 31.4992ZM17.47 31.4992C17.47 31.4992 17.4688 31.2795 17.4618 31.091C17.4549 30.9024 17.4328 30.8164 17.3812 30.6709C17.3296 30.5254 17.2078 30.3267 16.9955 30.1846C16.7832 30.0425 16.3922 30.0159 16.3922 30.0159L15.97 30L17.47 31.4992ZM14.47 31.4992L15.9694 33L17.47 31.4992L15.97 30L14.47 31.4992Z" fill="#878787"/>
<path d="M15.97 33L15.5477 33.0159C15.5477 33.0159 15.1568 33.0425 14.9445 33.1846C14.7322 33.3267 14.6098 33.5259 14.5587 33.6709C14.5071 33.8164 14.4856 33.9024 14.4781 34.091C14.4706 34.2795 14.47 34.4992 14.47 34.4992L15.97 33ZM17.47 34.4992C17.47 34.4992 17.4688 34.7188 17.4618 34.9073C17.4549 35.0959 17.4328 35.1819 17.3812 35.3274C17.3296 35.4729 17.2078 35.6716 16.9955 35.8143C16.7832 35.957 16.3922 35.983 16.3922 35.983L15.9694 36L14.47 34.4992C14.47 34.4992 14.4711 34.7194 14.4781 34.9079C14.4851 35.0964 14.5071 35.1825 14.5587 35.328C14.6103 35.4735 14.7322 35.6722 14.9445 35.8149C15.1568 35.9575 15.5477 35.9836 15.5477 35.9836L15.9694 36L17.47 34.4992ZM17.47 34.4992C17.47 34.4992 17.4688 34.2795 17.4618 34.091C17.4549 33.9024 17.4328 33.8164 17.3812 33.6709C17.3296 33.5254 17.2078 33.3267 16.9955 33.1846C16.7832 33.0425 16.3922 33.0159 16.3922 33.0159L15.97 33L17.47 34.4992ZM14.47 34.4992L15.9694 36L17.47 34.4992L15.97 33L14.47 34.4992Z" fill="#878787"/>
<path d="M9.6175 31.1441L9.33012 31.4539C9.33012 31.4539 9.07249 31.7491 9.02286 31.9997C8.97322 32.2503 9.02759 32.4778 9.09398 32.6164C9.16036 32.7558 9.20604 32.8318 9.33401 32.9704C9.46199 33.1091 9.6169 33.2648 9.6169 33.2648L9.6175 31.1441ZM11.7382 31.1435C11.7382 31.1435 11.8927 31.2996 12.0211 31.4379C12.1495 31.5761 12.1948 31.6525 12.2611 31.7919C12.3275 31.9313 12.3819 32.158 12.3327 32.409C12.2834 32.66 12.0254 32.9548 12.0254 32.9548L11.7384 33.2658L9.6169 33.2648C9.6169 33.2648 9.77345 33.4197 9.91168 33.5481C10.0499 33.6765 10.1263 33.7217 10.2657 33.7881C10.4051 33.8545 10.6318 33.9089 10.8828 33.8596C11.1338 33.8104 11.4286 33.5524 11.4286 33.5524L11.7384 33.2658L11.7382 31.1435ZM11.7382 31.1435C11.7382 31.1435 11.5821 30.989 11.4438 30.8606C11.3056 30.7322 11.2292 30.687 11.0898 30.6206C10.9504 30.5542 10.7237 30.4998 10.4731 30.5494C10.2226 30.5991 9.92731 30.8567 9.92731 30.8567L9.6175 31.1441L11.7382 31.1435ZM9.6169 33.2648L11.7384 33.2658L11.7382 31.1435L9.6175 31.1441L9.6169 33.2648Z" fill="#878787"/>
<path d="M3.6175 25.1441L3.33012 25.4539C3.33012 25.4539 3.07249 25.7491 3.02286 25.9997C2.97322 26.2503 3.0276 26.4778 3.09398 26.6164C3.16036 26.7558 3.20604 26.8318 3.33401 26.9704C3.46199 27.1091 3.6169 27.2648 3.6169 27.2648L3.6175 25.1441ZM5.73822 25.1435C5.73822 25.1435 5.89273 25.2996 6.02112 25.4379C6.1495 25.5761 6.19476 25.6525 6.26114 25.7919C6.32752 25.9313 6.38189 26.158 6.33266 26.409C6.28343 26.66 6.0254 26.9548 6.0254 26.9548L5.73842 27.2658L3.6169 27.2648C3.6169 27.2648 3.77345 27.4197 3.91168 27.5481C4.04991 27.6765 4.12635 27.7217 4.26573 27.7881C4.40512 27.8545 4.63176 27.9089 4.88276 27.8596C5.13376 27.8104 5.42862 27.5524 5.42862 27.5524L5.73842 27.2658L5.73822 25.1435ZM5.73822 25.1435C5.73822 25.1435 5.58207 24.989 5.44384 24.8606C5.30561 24.7322 5.22917 24.6869 5.08979 24.6206C4.9504 24.5542 4.72375 24.4998 4.47315 24.5494C4.22255 24.5991 3.92731 24.8567 3.92731 24.8567L3.6175 25.1441L5.73822 25.1435ZM3.6169 27.2648L5.73842 27.2658L5.73822 25.1435L3.6175 25.1441L3.6169 27.2648Z" fill="#878787"/>
<path d="M11.7384 33.2658L11.4515 33.5752C11.4515 33.5752 11.1938 33.8705 11.1442 34.1211C11.0946 34.3717 11.1489 34.5991 11.2153 34.7377C11.2817 34.8771 11.3274 34.9531 11.4554 35.0918C11.5833 35.2304 11.7382 35.3861 11.7382 35.3861L11.7384 33.2658ZM13.8596 33.2648C13.8596 33.2648 14.0141 33.421 14.1425 33.5592C14.2708 33.6974 14.3161 33.7739 14.3825 33.9133C14.4489 34.0527 14.5032 34.2793 14.454 34.5303C14.4048 34.7813 14.1467 35.0761 14.1467 35.0761L13.8598 35.3872L11.7382 35.3861C11.7382 35.3861 11.8948 35.541 12.033 35.6694C12.1712 35.7978 12.2477 35.8431 12.3871 35.9095C12.5265 35.9758 12.7531 36.0302 13.0041 35.981C13.2551 35.9317 13.55 35.6737 13.55 35.6737L13.8598 35.3872L13.8596 33.2648ZM13.8596 33.2648C13.8596 33.2648 13.7034 33.1103 13.5652 32.9819C13.427 32.8536 13.3505 32.8083 13.2111 32.7419C13.0717 32.6755 12.8451 32.6211 12.5945 32.6708C12.3439 32.7204 12.0487 32.978 12.0487 32.978L11.7384 33.2658L13.8596 33.2648ZM11.7382 35.3861L13.8598 35.3872L13.8596 33.2648L11.7384 33.2658L11.7382 35.3861Z" fill="#878787"/>
<path d="M5.73842 27.2658L5.45146 27.5752C5.45146 27.5752 5.19383 27.8705 5.1442 28.1211C5.09456 28.3717 5.14893 28.5991 5.21532 28.7377C5.2817 28.8771 5.32738 28.9531 5.45535 29.0918C5.58333 29.2304 5.73824 29.3861 5.73824 29.3861L5.73842 27.2658ZM7.85956 27.2648C7.85956 27.2648 8.01407 27.421 8.14245 27.5592C8.27084 27.6974 8.3161 27.7739 8.38248 27.9133C8.44886 28.0527 8.50323 28.2793 8.454 28.5303C8.40476 28.7813 8.14674 29.0761 8.14674 29.0761L7.85975 29.3872L5.73824 29.3861C5.73824 29.3861 5.89479 29.541 6.03301 29.6694C6.17124 29.7978 6.24768 29.8431 6.38707 29.9095C6.52646 29.9758 6.7531 30.0302 7.0041 29.981C7.2551 29.9317 7.54996 29.6737 7.54996 29.6737L7.85975 29.3872L7.85956 27.2648ZM7.85956 27.2648C7.85956 27.2648 7.70341 27.1103 7.56518 26.9819C7.42695 26.8536 7.35051 26.8083 7.21112 26.7419C7.07174 26.6755 6.84508 26.6211 6.59449 26.6708C6.34389 26.7204 6.04865 26.978 6.04865 26.978L5.73842 27.2658L7.85956 27.2648ZM5.73824 29.3861L7.85975 29.3872L7.85956 27.2648L5.73842 27.2658L5.73824 29.3861Z" fill="#878787"/>
</svg>
