<svg width="28" height="30" viewBox="0 0 28 30" fill="none" xmlns="http://www.w3.org/2000/svg">
<path d="M17.1249 1.87897V29.0626C17.1249 29.2344 17.2655 29.3751 17.4374 29.3751H19.7811C19.953 29.3751 20.0936 29.2344 20.0936 29.0626V5.42194L27.2421 11.0587C27.4452 11.2188 27.7499 11.0743 27.7499 10.8126V7.98053C27.7499 7.78912 27.6639 7.60944 27.5116 7.48834L19.1483 0.894594C18.328 0.250063 17.1249 0.832092 17.1249 1.87897ZM7.90613 0.937561L7.90613 24.5782L0.75769 18.9415C0.554565 18.7813 0.249878 18.9258 0.249878 19.1876L0.249878 22.0196C0.249878 22.211 0.335816 22.3907 0.488159 22.5118L8.85144 29.1055C9.67175 29.7501 10.8749 29.168 10.8749 28.1251L10.8749 0.937561C10.8749 0.765686 10.7343 0.625061 10.5624 0.625061H8.21863C8.04675 0.625061 7.90613 0.765686 7.90613 0.937561Z" fill="#878787"/>
</svg>
