<svg width="32" height="32" viewBox="0 0 32 32" fill="none" xmlns="http://www.w3.org/2000/svg">
<path d="M19.4374 1.56633L19.4374 31.4683C19.4374 31.6573 19.5921 31.812 19.7811 31.812H22.3593C22.5483 31.812 22.703 31.6573 22.703 31.4683V5.46359L30.5663 11.664C30.7897 11.8402 31.1249 11.6812 31.1249 11.3933V8.27805C31.1249 8.0675 31.0303 7.86984 30.8628 7.73664L21.6632 0.483517C20.7608 -0.225468 19.4374 0.414764 19.4374 1.56633ZM9.29675 0.530779L9.29675 26.5355L1.43347 20.3351C1.21003 20.1589 0.874878 20.3179 0.874878 20.6058L0.874878 23.721C0.874878 23.9316 0.969409 24.1292 1.13699 24.2624L10.3366 31.5155C11.2389 32.2245 12.5624 31.5843 12.5624 30.437L12.5624 0.530779C12.5624 0.341717 12.4077 0.187029 12.2186 0.187029H9.6405C9.45144 0.187029 9.29675 0.341717 9.29675 0.530779Z" fill="#878787"/>
</svg>
