<svg width="36" height="36" viewBox="0 0 36 36" fill="none" xmlns="http://www.w3.org/2000/svg">
<path fill-rule="evenodd" clip-rule="evenodd" d="M5.27208 30.7279C1.89642 27.3523 0 22.7739 0 18C0 13.2261 1.89642 8.64773 5.27208 5.27208C8.64773 1.89642 13.2261 0 18 0C22.7739 0 27.3523 1.89642 30.7279 5.27208C34.1036 8.64773 36 13.2261 36 18C36 22.7739 34.1036 27.3523 30.7279 30.7279C27.3523 34.1036 22.7739 36 18 36C13.2261 36 8.64773 34.1036 5.27208 30.7279ZM22.9762 24.5235C23.1467 24.5235 23.3102 24.4558 23.4307 24.3353L24.3404 23.4385C24.4002 23.3788 24.4476 23.3079 24.4799 23.2299C24.5123 23.1518 24.5289 23.0682 24.5289 22.9837C24.5289 22.8992 24.5123 22.8155 24.4799 22.7375C24.4476 22.6595 24.4002 22.5886 24.3404 22.5289L19.8147 18.0032L24.3404 13.4774C24.4609 13.3569 24.5286 13.1934 24.5286 13.0229C24.5286 12.8525 24.4609 12.689 24.3404 12.5684L23.4352 11.6639C23.3147 11.5434 23.1512 11.4757 22.9807 11.4757C22.8103 11.4757 22.6468 11.5434 22.5262 11.6639L18.0005 16.1897L13.4748 11.6639C13.3542 11.5434 13.1908 11.4757 13.0203 11.4757C12.8498 11.4757 12.6864 11.5434 12.5658 11.6639L11.6645 12.5652C11.544 12.6858 11.4763 12.8493 11.4763 13.0197C11.4763 13.1902 11.544 13.3537 11.6645 13.4742L16.1877 17.998L11.6619 22.5237C11.5414 22.6443 11.4737 22.8078 11.4737 22.9782C11.4737 23.1487 11.5414 23.3122 11.6619 23.4327L12.5652 24.3353C12.6857 24.4558 12.8492 24.5235 13.0197 24.5235C13.1901 24.5235 13.3536 24.4558 13.4742 24.3353L17.9979 19.8115L22.5217 24.3353C22.6423 24.4558 22.8058 24.5235 22.9762 24.5235Z" fill="url(#paint3_linear_modal)"/>
<defs>
<linearGradient id="paint3_linear_modal" x1="0" y1="0" x2="36" y2="36" gradientUnits="userSpaceOnUse">
<stop stop-color="#DC706A"/>
<stop offset="1" stop-color="#DD8751"/>
</linearGradient>
</defs>
</svg>
