<svg width="186" height="44" viewBox="0 0 186 44" fill="none" xmlns="http://www.w3.org/2000/svg">
<path d="M7.08569 6.16044H13.0643V20.0204H29.0071C29.0071 20.0204 31.0009 20.0191 31.0009 18.0395C31.0009 16.06 29.008 16.0595 29.008 16.0595V6.15999H34.9857V37.84H29.0071V23.98H13.0643C13.0643 23.98 11.0719 23.9791 11.0719 25.9595C11.0719 27.94 13.0647 27.9395 13.0647 27.9395V37.8396H7.08569V6.16044ZM42.958 6.16044V37.8404H68.8652L70.858 33.5944L48.9366 33.8804C48.9366 33.8804 46.9437 33.8804 46.9437 31.9004C46.9437 29.9204 48.9366 29.9204 48.9366 29.9204V23.9809H62.8866V20.0209H48.9366V14.0809C48.9366 14.0809 46.9437 14.0809 46.9437 12.1009C46.9437 10.1209 48.9366 10.1209 48.9366 10.1209L68.8652 10.3211L66.8723 6.16087L42.958 6.16044ZM78.829 6.16044V37.8404H84.8076V33.8804C84.8076 33.8804 82.8147 33.8804 82.8147 31.9004C82.8147 29.9204 84.8076 29.9204 84.8076 29.9204V14.0809C84.8076 14.0809 82.8147 14.0809 82.8147 12.1009C82.8147 10.1209 84.8076 10.1209 84.8076 10.1209V6.16087L78.829 6.16044ZM78.8281 10.1204H92.7781C92.7781 10.1204 102.825 10.1204 102.825 22.0004C102.825 33.8804 92.7781 33.8804 92.7781 33.8804H78.829V37.8404H92.7781C92.7781 37.8404 106.728 37.8404 106.728 22.0004C106.728 6.16043 92.7781 6.16044 92.7781 6.16044H78.829L78.8281 10.1204ZM142.6 16.0604C142.6 16.0604 140.608 6.16044 128.65 6.16044C126.875 6.16044 114.7 6.16043 114.7 22.0004C114.7 37.8404 127.342 37.8404 128.65 37.8404C138.615 37.8404 139.9 31.9004 139.9 31.9004L140.607 37.8404H142.6V20.0204H130.643L128.65 23.9804H138.614C138.614 23.9804 138.614 33.5944 128.65 33.5944C126.865 33.5944 118.686 33.6802 118.686 22.0004C118.686 10.3206 126.617 10.1204 128.65 10.1204C136.621 10.1204 138.614 16.0604 138.614 16.0604H142.6ZM150.572 6.16044V37.8404H176.479L178.472 33.5944L156.551 33.8804C156.551 33.8804 154.558 33.8804 154.558 31.9004C154.558 29.9204 156.551 29.9204 156.551 29.9204V23.9809H170.501V20.0209H156.551V14.0809C156.551 14.0809 154.558 14.0809 154.558 12.1009C154.558 10.1209 156.551 10.1209 156.551 10.1209L176.479 10.3211L174.487 6.16087L150.572 6.16044Z" fill="#0047BB"/>
</svg>
