<svg width="88" height="20" viewBox="0 0 88 20" fill="none" xmlns="http://www.w3.org/2000/svg">
<g clip-path="url(#clip0_2323_251)">
<path d="M15 9.44434H1.85559V13.1443H15V9.44434Z" fill="#0047BB"/>
<path d="M3.7 0H0V20H3.7V0Z" fill="#0047BB"/>
<path d="M15.6888 0H1.23328V3.7H15.6888V0Z" fill="#0047BB"/>
<path d="M41.9889 10C41.9889 11.9778 41.4024 13.9112 40.3036 15.5557C39.2048 17.2002 37.643 18.4819 35.8157 19.2388C33.9885 19.9957 31.9778 20.1937 30.038 19.8079C28.0982 19.422 26.3164 18.4696 24.9178 17.0711C23.5193 15.6725 22.5669 13.8907 22.181 11.9509C21.7952 10.0111 21.9932 8.00043 22.7501 6.17317C23.507 4.3459 24.7887 2.78412 26.4332 1.6853C28.0777 0.586489 30.0111 0 31.9889 0C34.6411 0 37.1846 1.05357 39.06 2.92893C40.9353 4.8043 41.9889 7.34783 41.9889 10ZM31.9889 3.68889C30.7384 3.67788 29.5128 4.03864 28.4676 4.72539C27.4225 5.41214 26.6049 6.39391 26.1187 7.5461C25.6325 8.69829 25.4996 9.96895 25.7368 11.1968C25.974 12.4247 26.5707 13.5544 27.451 14.4426C28.3314 15.3308 29.4558 15.9374 30.6815 16.1855C31.9073 16.4335 33.179 16.3118 34.3355 15.8358C35.4919 15.3598 36.4809 14.551 37.1769 13.512C37.8728 12.4729 38.2444 11.2506 38.2445 10C38.2445 8.33577 37.5872 6.73888 36.4157 5.5569C35.2441 4.37492 33.6531 3.70354 31.9889 3.68889Z" fill="#0047BB"/>
<path d="M51.9778 0H48.2778V20H51.9778V0Z" fill="#0047BB"/>
<path d="M50.1333 0H56.6222C56.6222 0 64.5777 0 64.5777 6.85556C64.5777 13.7111 56.6222 13.7111 56.6222 13.7111H50.1333V10H56.6222C56.6222 10 60.6 10 60.6 6.85556C60.6 3.71111 56.6222 3.71111 56.6222 3.71111H50.1333V0Z" fill="#0047BB"/>
<path d="M64.5778 20.0003H60.7778L55.7778 11.8447H59.5778L64.5778 20.0003Z" fill="#0047BB"/>
<path d="M87.1778 0H70.8778V3.7H87.1778V0Z" fill="#0047BB"/>
<path d="M80.8777 1.85547H77.1777V19.9999H80.8777V1.85547Z" fill="#0047BB"/>
</g>
<defs>
<clipPath id="clip0_2323_251">
<rect width="87.1778" height="20" fill="white"/>
</clipPath>
</defs>
</svg>
