<svg width="160" height="44" viewBox="0 0 160 44" fill="none" xmlns="http://www.w3.org/2000/svg">
<path d="M12.6338 9.2919L12.6132 8.74106C12.6132 8.74106 12.5785 8.2311 12.3934 7.95416C12.2084 7.67723 11.9488 7.51757 11.7601 7.45098C11.5706 7.38364 11.4585 7.35564 11.213 7.3458C10.9674 7.33672 10.6813 7.33521 10.6813 7.33521L12.6338 9.2919ZM10.6813 11.2486C10.6813 11.2486 10.3952 11.2471 10.1497 11.238C9.90413 11.2289 9.79205 11.2002 9.60255 11.1328C9.41305 11.0655 9.15424 10.9066 8.96843 10.6297C8.78262 10.3527 8.74867 9.84276 8.74867 9.84276L8.72806 9.2919L10.6805 7.33521C10.6805 7.33521 10.3945 7.33672 10.149 7.3458C9.90341 7.35488 9.79133 7.38364 9.60183 7.45098C9.41233 7.51833 9.15348 7.67723 8.96767 7.95416C8.78185 8.2311 8.74795 8.74106 8.74795 8.74106L8.72729 9.2919L10.6813 11.2486ZM10.6813 11.2486C10.6813 11.2486 10.9674 11.2471 11.213 11.238C11.4585 11.2289 11.5706 11.2002 11.7601 11.1328C11.9496 11.0655 12.2084 10.9066 12.3934 10.6297C12.5785 10.3527 12.6132 9.84276 12.6132 9.84276L12.6338 9.2919L10.6813 11.2486ZM10.6813 7.33597L8.72878 9.29266L10.6813 11.2494L12.6338 9.29266L10.6813 7.33597ZM12.6346 13.2053L12.6139 12.6545C12.6139 12.6545 12.5793 12.1445 12.3942 11.8676C12.2091 11.5906 11.9496 11.431 11.7608 11.3644C11.5713 11.297 11.4592 11.269 11.2137 11.2592C10.9681 11.2494 10.682 11.2486 10.682 11.2486L12.6346 13.2053ZM8.7295 13.2053L8.75016 12.6545C8.75016 12.6545 8.78484 12.1445 8.96992 11.8676C9.15499 11.5906 9.41453 11.431 9.60403 11.3644C9.79353 11.297 9.90562 11.269 10.1512 11.2592C10.3967 11.2494 10.6828 11.2486 10.6828 11.2486L8.7295 13.2053L8.75016 13.7562C8.75016 13.7562 8.78484 14.2661 8.96992 14.5431C9.15499 14.82 9.41453 14.9796 9.60403 15.0462C9.79353 15.1136 9.90562 15.1416 10.1512 15.1514C10.3967 15.1612 10.6828 15.162 10.6828 15.162L8.7295 13.2053ZM10.682 15.1612C10.682 15.1612 10.9681 15.1597 11.2137 15.1506C11.4592 15.1416 11.5713 15.1128 11.7608 15.0455C11.9503 14.9781 12.2091 14.8192 12.3942 14.5423C12.5793 14.2654 12.6139 13.7554 12.6139 13.7554L12.6346 13.2046L10.682 15.1612ZM10.682 11.2486L8.7295 13.2053L10.682 15.162L12.6346 13.2053L10.682 11.2486Z" fill="#0047BB"/>
<path d="M12.6346 19.3102L12.6139 18.7594C12.6139 18.7594 12.5793 18.2494 12.3942 17.9725C12.2091 17.6955 11.9496 17.5359 11.7601 17.4693C11.5706 17.4019 11.4585 17.374 11.2129 17.3641C10.9674 17.3543 10.6813 17.3535 10.6813 17.3535L12.6346 19.3102ZM8.72949 19.3102L8.75015 18.7594C8.75015 18.7594 8.78483 18.2494 8.96991 17.9725C9.15498 17.6955 9.4145 17.5359 9.60326 17.4693C9.79276 17.4019 9.90484 17.374 10.1504 17.3641C10.3959 17.355 10.682 17.3535 10.682 17.3535L8.72949 19.3102L8.75015 19.8611C8.75015 19.8611 8.78483 20.371 8.96991 20.648C9.15498 20.9249 9.4145 21.0846 9.60326 21.1512C9.79276 21.2185 9.90484 21.2465 10.1504 21.2563C10.3959 21.2654 10.682 21.2669 10.682 21.2669L8.72949 19.3102ZM10.682 21.2669C10.682 21.2669 10.9681 21.2654 11.2137 21.2563C11.4592 21.2472 11.5713 21.2185 11.7608 21.1512C11.9503 21.0838 12.2091 20.9249 12.3949 20.648C12.58 20.371 12.6147 19.8611 12.6147 19.8611L12.6353 19.3102L10.682 21.2669ZM10.682 17.3543L8.72949 19.311L10.682 21.2677L12.6346 19.311L10.682 17.3543ZM12.6346 23.2236L12.6139 22.6728C12.6139 22.6728 12.5793 22.1628 12.3942 21.8858C12.2091 21.6089 11.9496 21.4493 11.7601 21.3827C11.5706 21.3153 11.4585 21.2873 11.2129 21.2775C10.9674 21.2684 10.6813 21.2669 10.6813 21.2669L12.6346 23.2236ZM8.72949 23.2236L8.75015 22.6728C8.75015 22.6728 8.78483 22.1628 8.96991 21.8858C9.15498 21.6089 9.41452 21.4493 9.60403 21.3827C9.79353 21.3153 9.90561 21.2873 10.1511 21.2775C10.3967 21.2684 10.6828 21.2669 10.6828 21.2669L8.72949 23.2236L8.75015 23.7744C8.75015 23.7744 8.78483 24.2844 8.96991 24.5614C9.15498 24.8383 9.41452 24.998 9.60403 25.0645C9.79353 25.1319 9.90561 25.1599 10.1511 25.1697C10.3967 25.1788 10.6828 25.1803 10.6828 25.1803L8.72949 23.2236ZM10.682 25.1795C10.682 25.1795 10.9681 25.178 11.2137 25.169C11.4592 25.1599 11.5713 25.1311 11.7608 25.0638C11.9503 24.9964 12.2091 24.8375 12.3949 24.5606C12.58 24.2837 12.6147 23.7737 12.6147 23.7737L12.6353 23.2228L10.682 25.1795ZM10.682 21.2669L8.72949 23.2236L10.682 25.1803L12.6346 23.2236L10.682 21.2669Z" fill="#0047BB"/>
<path d="M12.636 29.3297L12.6154 28.7789C12.6154 28.7789 12.5808 28.2689 12.3957 27.992C12.2106 27.715 11.951 27.5554 11.7615 27.4888C11.572 27.4215 11.4599 27.3935 11.2144 27.3836C10.9688 27.3746 10.6828 27.373 10.6828 27.373L12.636 29.3297ZM8.73098 29.3297L8.75163 28.7789C8.75163 28.7789 8.78627 28.2689 8.97135 27.992C9.15643 27.715 9.41601 27.5554 9.60551 27.4888C9.79501 27.4215 9.90705 27.3935 10.1526 27.3836C10.3981 27.3738 10.6842 27.373 10.6842 27.373L8.73098 29.3297L8.75163 29.8806C8.75163 29.8806 8.78627 30.3906 8.97135 30.6675C9.15643 30.9444 9.41601 31.1041 9.60551 31.1707C9.79501 31.238 9.90705 31.266 10.1526 31.2758C10.3981 31.2849 10.6842 31.2864 10.6842 31.2864L8.73098 29.3297ZM10.6835 31.2864C10.6835 31.2864 10.9696 31.2849 11.2152 31.2758C11.4607 31.2668 11.5728 31.238 11.7623 31.1707C11.9518 31.1033 12.2106 30.9444 12.3964 30.6675C12.5815 30.3906 12.6161 29.8806 12.6161 29.8806L12.6368 29.3297L10.6835 31.2864ZM10.6835 27.3738L8.73098 29.3305L10.6835 31.2872L12.636 29.3305L10.6835 27.3738ZM12.636 33.2431L12.6154 32.6923C12.6154 32.6923 12.5808 32.1823 12.3957 31.9054C12.2106 31.6284 11.951 31.4688 11.7623 31.4022C11.5728 31.3349 11.4607 31.3069 11.2152 31.297C10.9696 31.2872 10.6835 31.2864 10.6835 31.2864L12.636 33.2431ZM10.6835 35.1991C10.6835 35.1991 10.3974 35.1976 10.1519 35.1885C9.90633 35.1794 9.79425 35.1506 9.60475 35.0833C9.41524 35.016 9.15644 34.8571 8.97063 34.5801C8.78555 34.3032 8.75087 33.7932 8.75087 33.7932L8.73026 33.2424L10.6828 31.2857C10.6828 31.2857 10.3967 31.2872 10.1511 31.2963C9.90561 31.3054 9.79353 31.3341 9.60403 31.4015C9.41452 31.4688 9.15572 31.6277 8.96991 31.9046C8.78483 32.1815 8.75015 32.6915 8.75015 32.6915L8.72949 33.2424L10.6835 35.1991ZM10.6835 35.1991C10.6835 35.1991 10.9696 35.1976 11.2152 35.1885C11.4607 35.1794 11.5728 35.1506 11.7623 35.0833C11.9518 35.016 12.2106 34.8571 12.3957 34.5801C12.5808 34.3032 12.6154 33.7932 12.6154 33.7932L12.636 33.2424L10.6835 35.1991ZM10.6835 31.2864L8.73098 33.2431L10.6835 35.1998L12.636 33.2431L10.6835 31.2864Z" fill="#0047BB"/>
<path d="M18.4936 9.28995L18.473 8.73911C18.473 8.73911 18.4384 8.22914 18.2533 7.95221C18.0682 7.67528 17.8086 7.51562 17.6199 7.44903C17.4304 7.38169 17.3183 7.35369 17.0728 7.34385C16.8272 7.33401 16.5411 7.33325 16.5411 7.33325L18.4936 9.28995ZM14.5893 9.29071L14.61 8.73987C14.61 8.73987 14.6446 8.22988 14.8297 7.95295C15.0148 7.67601 15.2743 7.51638 15.4638 7.44979C15.6533 7.38245 15.7654 7.35445 16.011 7.34461C16.2565 7.33478 16.5426 7.33401 16.5426 7.33401L14.5893 9.29071L14.61 9.84155C14.61 9.84155 14.6446 10.3515 14.8297 10.6285C15.0148 10.9054 15.2743 11.0651 15.4638 11.1316C15.6533 11.199 15.7654 11.227 16.011 11.2368C16.2565 11.2466 16.5426 11.2474 16.5426 11.2474L14.5893 9.29071ZM16.5411 11.2466C16.5411 11.2466 16.8272 11.2451 17.0728 11.2361C17.3183 11.227 17.4304 11.1982 17.6199 11.1309C17.8094 11.0635 18.0682 10.9046 18.2533 10.6277C18.4384 10.3508 18.473 9.84081 18.473 9.84081L18.4936 9.28995L16.5411 11.2466ZM16.5411 7.33401L14.5886 9.29071L16.5411 11.2466L18.4936 9.29071L16.5411 7.33401ZM22.4009 9.29147L22.3803 8.74063C22.3803 8.74063 22.3456 8.23064 22.1605 7.95371C21.9755 7.67678 21.7159 7.51712 21.5264 7.45053C21.3369 7.38319 21.2248 7.35521 20.9793 7.34537C20.7338 7.33629 20.4477 7.33478 20.4477 7.33478L22.4009 9.29147ZM18.4959 9.29147L18.5165 8.74063C18.5165 8.74063 18.5512 8.23064 18.7363 7.95371C18.9213 7.67678 19.1809 7.51712 19.3704 7.45053C19.5599 7.38319 19.672 7.35521 19.9175 7.34537C20.163 7.33629 20.4491 7.33478 20.4491 7.33478L18.4959 9.29147L18.5165 9.84231C18.5165 9.84231 18.5512 10.3523 18.7363 10.6292C18.9213 10.9062 19.1809 11.0658 19.3704 11.1324C19.5599 11.1997 19.672 11.2277 19.9175 11.2376C20.163 11.2466 20.4491 11.2482 20.4491 11.2482L18.4959 9.29147ZM20.4484 11.2474C20.4484 11.2474 20.7345 11.2459 20.98 11.2368C21.2256 11.2277 21.3376 11.199 21.5271 11.1316C21.7167 11.0643 21.9755 10.9054 22.1613 10.6285C22.3471 10.3515 22.381 9.84155 22.381 9.84155L22.4016 9.29071L20.4484 11.2474ZM20.4484 7.33478L18.4959 9.29147L20.4484 11.2474L22.4009 9.29147L20.4484 7.33478Z" fill="#0047BB"/>
<path d="M28.2637 9.29239L28.2431 8.74155C28.2431 8.74155 28.2084 8.23156 28.0233 7.95463C27.8382 7.67769 27.5787 7.51803 27.3892 7.45145C27.1997 7.38411 27.0876 7.35611 26.8421 7.34627C26.5965 7.33643 26.3104 7.33569 26.3104 7.33569L28.2637 9.29239ZM24.3586 9.29239L24.3793 8.74155C24.3793 8.74155 24.4139 8.23156 24.599 7.95463C24.7841 7.67769 25.0436 7.51803 25.2324 7.45145C25.4219 7.38411 25.534 7.35611 25.7795 7.34627C26.0251 7.33643 26.3104 7.33569 26.3104 7.33569L24.3586 9.29239L24.3793 9.84323C24.3793 9.84323 24.4139 10.3532 24.599 10.6302C24.7841 10.9071 25.0436 11.0667 25.2324 11.1333C25.4219 11.2006 25.534 11.2286 25.7795 11.2385C26.0251 11.2483 26.3111 11.2491 26.3111 11.2491L24.3586 9.29239ZM26.3111 11.2491C26.3111 11.2491 26.5972 11.2468 26.8428 11.2377C27.0883 11.2286 27.2004 11.1999 27.3899 11.1325C27.5794 11.0652 27.8382 10.9063 28.024 10.6294C28.2091 10.3525 28.2438 9.84247 28.2438 9.84247L28.2644 9.29163L26.3111 11.2491ZM26.3104 7.33569L24.3586 9.29239L26.3111 11.2491L28.2637 9.29239L26.3104 7.33569ZM32.1709 9.29313L32.1503 8.74229C32.1503 8.74229 32.1156 8.23232 31.9306 7.95539C31.7455 7.67846 31.4859 7.5188 31.2972 7.45221C31.1077 7.38487 30.9956 7.35687 30.75 7.34703C30.5045 7.33719 30.2184 7.33643 30.2184 7.33643L32.1709 9.29313ZM30.2184 11.2498C30.2184 11.2498 29.9323 11.2483 29.6868 11.2392C29.4412 11.2302 29.3291 11.2014 29.1396 11.1341C28.9501 11.0667 28.6913 10.9078 28.5055 10.6309C28.3197 10.354 28.2858 9.84399 28.2858 9.84399L28.2651 9.29313L30.2184 7.33643C30.2184 7.33643 29.9316 7.33795 29.686 7.34703C29.4405 7.35611 29.3284 7.38487 29.1389 7.45221C28.9494 7.51955 28.6906 7.67846 28.5048 7.95539C28.319 8.23232 28.285 8.74229 28.285 8.74229L28.2651 9.29313L30.2184 11.2498ZM30.2184 11.2498C30.2184 11.2498 30.5045 11.2483 30.75 11.2392C30.9956 11.2302 31.1077 11.2014 31.2972 11.1341C31.4867 11.0667 31.7455 10.9078 31.9306 10.6309C32.1156 10.354 32.1503 9.84399 32.1503 9.84399L32.1709 9.29313L30.2184 11.2498ZM30.2184 7.33643L28.2659 9.29389L30.2184 11.2498L32.1709 9.29313L30.2184 7.33643Z" fill="#0047BB"/>
<path d="M18.4958 19.3087L18.4752 18.7579C18.4752 18.7579 18.4405 18.2479 18.2555 17.971C18.0704 17.6941 17.8109 17.5344 17.6214 17.4678C17.4319 17.4005 17.3198 17.3725 17.0742 17.3626C16.8287 17.3536 16.5426 17.3521 16.5426 17.3521L18.4958 19.3087ZM14.5908 19.3087L14.6115 18.7579C14.6115 18.7579 14.6461 18.2479 14.8312 17.971C15.0163 17.6941 15.2758 17.5344 15.4653 17.4678C15.6548 17.4005 15.7669 17.3725 16.0124 17.3626C16.258 17.3528 16.5441 17.3521 16.5441 17.3521L14.5908 19.3087L14.6115 19.8596C14.6115 19.8596 14.6461 20.3696 14.8312 20.6465C15.0163 20.9234 15.2758 21.0831 15.4653 21.1497C15.6548 21.217 15.7669 21.245 16.0124 21.2549C16.258 21.2647 16.5441 21.2655 16.5441 21.2655L14.5908 19.3087ZM16.5434 21.2647C16.5434 21.2647 16.8294 21.2632 17.0749 21.2541C17.3205 21.245 17.4326 21.2163 17.6221 21.1489C17.8116 21.0816 18.0704 20.9227 18.2562 20.6458C18.442 20.3688 18.4759 19.8588 18.4759 19.8588L18.4966 19.308L16.5434 21.2647ZM16.5426 17.3521L14.5908 19.3087L16.5434 21.2647L18.4958 19.3087L16.5426 17.3521ZM22.4031 19.3095L22.3825 18.7587C22.3825 18.7587 22.3478 18.2487 22.1627 17.9717C21.9777 17.6948 21.7181 17.5352 21.5286 17.4686C21.3391 17.4012 21.227 17.3732 20.9815 17.3634C20.736 17.3536 20.4499 17.3528 20.4499 17.3528L22.4031 19.3095ZM18.4981 19.3095L18.5187 18.7587C18.5187 18.7587 18.5534 18.2487 18.7385 17.9717C18.9235 17.6948 19.1831 17.5352 19.3719 17.4686C19.5614 17.4012 19.6734 17.3732 19.919 17.3634C20.1645 17.3536 20.4499 17.3528 20.4499 17.3528L18.4981 19.3095L18.5187 19.8603C18.5187 19.8603 18.5534 20.3703 18.7385 20.6473C18.9235 20.9242 19.1831 21.0839 19.3719 21.1505C19.5614 21.2178 19.6734 21.2458 19.919 21.2556C20.1645 21.2655 20.4506 21.2662 20.4506 21.2662L18.4981 19.3095ZM20.4506 21.2662C20.4506 21.2662 20.7367 21.2647 20.9822 21.2556C21.2278 21.2466 21.3398 21.2178 21.5293 21.1505C21.7188 21.0831 21.9776 20.9242 22.1635 20.6473C22.3493 20.3703 22.3832 19.8603 22.3832 19.8603L22.4031 19.3095L20.4506 21.2662ZM20.4506 17.3536L18.4981 19.3095L20.4506 21.2662L22.4031 19.3095L20.4506 17.3536Z" fill="#0047BB"/>
<path d="M62.4255 9.29141L62.4048 8.74057C62.4048 8.74057 62.3702 8.23059 62.1851 7.95365C62 7.67672 61.7405 7.51706 61.551 7.45047C61.3615 7.38313 61.2494 7.35515 61.0038 7.34532C60.7583 7.33548 60.4722 7.33472 60.4722 7.33472L62.4255 9.29141ZM58.5204 9.29217L58.541 8.74134C58.541 8.74134 58.5757 8.23135 58.7608 7.95441C58.9459 7.67748 59.2054 7.51782 59.3942 7.45123C59.5837 7.38389 59.6957 7.35589 59.9413 7.34605C60.1868 7.33697 60.4729 7.33548 60.4729 7.33548L58.5204 9.29217L58.541 9.84301C58.541 9.84301 58.5757 10.353 58.7608 10.6299C58.9459 10.9069 59.2054 11.0665 59.3942 11.1331C59.5837 11.2004 59.6957 11.2284 59.9413 11.2383C60.1868 11.2474 60.4729 11.2489 60.4729 11.2489L58.5204 9.29217ZM60.4729 11.2481C60.4729 11.2481 60.759 11.2466 61.0046 11.2375C61.2501 11.2284 61.3622 11.1997 61.5517 11.1323C61.7412 11.065 62 10.9061 62.1858 10.6292C62.3709 10.3522 62.4056 9.84225 62.4056 9.84225L62.4262 9.29141L60.4729 11.2481ZM60.4729 7.33548L58.5204 9.29217L60.4729 11.2489L62.4255 9.29217L60.4729 7.33548ZM66.3327 9.29291L66.3121 8.74207C66.3121 8.74207 66.2774 8.23211 66.0924 7.95518C65.9073 7.67824 65.6477 7.51858 65.459 7.452C65.2695 7.38465 65.1574 7.35665 64.9118 7.34682C64.6663 7.33698 64.3802 7.33622 64.3802 7.33622L66.3327 9.29291ZM62.4277 9.29291L62.4483 8.74207C62.4483 8.74207 62.483 8.23211 62.668 7.95518C62.8531 7.67824 63.1127 7.51858 63.3014 7.452C63.4909 7.38465 63.603 7.35665 63.8486 7.34682C64.0941 7.33698 64.3802 7.33622 64.3802 7.33622L62.4277 9.29291L62.4483 9.84378C62.4483 9.84378 62.483 10.3537 62.668 10.6307C62.8531 10.9076 63.1127 11.0673 63.3014 11.1339C63.4909 11.2012 63.603 11.2292 63.8486 11.239C64.0941 11.2489 64.3802 11.2496 64.3802 11.2496L62.4277 9.29291ZM64.3802 11.2489C64.3802 11.2489 64.6663 11.2474 64.9118 11.2383C65.1574 11.2292 65.2695 11.2004 65.459 11.1331C65.6485 11.0658 65.9073 10.9069 66.0924 10.6299C66.2774 10.353 66.3121 9.84301 66.3121 9.84301L66.3327 9.29217L64.3802 11.2489ZM64.3802 7.33622L62.4277 9.29291L64.3802 11.2496L66.3327 9.29291L64.3802 7.33622Z" fill="#0047BB"/>
<path d="M51.6932 19.3102L51.6725 18.7594C51.6725 18.7594 51.6379 18.2494 51.4528 17.9724C51.2677 17.6955 51.0082 17.5359 50.8194 17.4693C50.6299 17.4019 50.5178 17.374 50.2723 17.3641C50.0267 17.3543 49.7406 17.3535 49.7406 17.3535L51.6932 19.3102ZM47.7881 19.3102L47.8087 18.7594C47.8087 18.7594 47.8434 18.2494 48.0285 17.9724C48.2135 17.6955 48.4731 17.5359 48.6619 17.4693C48.8514 17.4019 48.9634 17.374 49.209 17.3641C49.4545 17.3543 49.7406 17.3535 49.7406 17.3535L47.7881 19.3102L47.8087 19.861C47.8087 19.861 47.8434 20.371 48.0285 20.648C48.2135 20.9249 48.4731 21.0846 48.6619 21.1512C48.8514 21.2185 48.9634 21.2465 49.209 21.2563C49.4545 21.2661 49.7406 21.2669 49.7406 21.2669L47.7881 19.3102ZM49.7406 21.2669C49.7406 21.2669 50.0267 21.2654 50.2723 21.2563C50.5178 21.2472 50.6299 21.2185 50.8194 21.1512C51.0089 21.0838 51.2677 20.9249 51.4528 20.648C51.6379 20.371 51.6725 19.861 51.6725 19.861L51.6932 19.3102L49.7406 21.2669ZM49.7406 17.3543L47.7881 19.311L49.7406 21.2677L51.6932 19.311L49.7406 17.3543ZM51.6932 23.2236L51.6725 22.6728C51.6725 22.6728 51.6379 22.1628 51.4528 21.8858C51.2677 21.6089 51.0081 21.4493 50.8186 21.3827C50.6291 21.3153 50.5171 21.2873 50.2715 21.2775C50.026 21.2677 49.7399 21.2669 49.7399 21.2669L51.6932 23.2236ZM49.7406 25.1795C49.7406 25.1795 49.4545 25.178 49.209 25.169C48.9634 25.1599 48.8514 25.1311 48.6619 25.0638C48.4724 24.9964 48.2135 24.8375 48.0285 24.5606C47.8434 24.2837 47.8087 23.7737 47.8087 23.7737L47.7881 23.2228L49.7406 21.2661C49.7406 21.2661 49.4545 21.2677 49.209 21.2767C48.9634 21.2858 48.8514 21.3146 48.6619 21.3819C48.4724 21.4493 48.2135 21.6082 48.0285 21.8851C47.8434 22.162 47.8087 22.672 47.8087 22.672L47.7881 23.2228L49.7406 25.1795ZM49.7406 25.1795C49.7406 25.1795 50.0267 25.178 50.2723 25.169C50.5178 25.1599 50.6299 25.1311 50.8194 25.0638C51.0089 24.9964 51.2677 24.8375 51.4535 24.5606C51.6393 24.2837 51.6733 23.7737 51.6733 23.7737L51.6939 23.2228L49.7406 25.1795ZM49.7406 21.2669L47.7881 23.2236L49.7406 25.1795L51.6932 23.2236L49.7406 21.2669Z" fill="#0047BB"/>
<path d="M77.0686 19.3102L77.0479 18.7594C77.0479 18.7594 77.0133 18.2494 76.8282 17.9725C76.6432 17.6955 76.3836 17.5359 76.1941 17.4693C76.0046 17.4019 75.8925 17.374 75.647 17.3641C75.4015 17.3543 75.1154 17.3535 75.1154 17.3535L77.0686 19.3102ZM73.1643 19.3102L73.1849 18.7594C73.1849 18.7594 73.2196 18.2494 73.4047 17.9725C73.5898 17.6955 73.8493 17.5359 74.0381 17.4693C74.2276 17.4019 74.3397 17.374 74.5852 17.3641C74.8307 17.3543 75.1168 17.3535 75.1168 17.3535L73.1643 19.3102L73.1849 19.8611C73.1849 19.8611 73.2196 20.371 73.4047 20.648C73.5898 20.9249 73.8493 21.0846 74.0381 21.1512C74.2276 21.2185 74.3397 21.2465 74.5852 21.2563C74.8307 21.2661 75.1168 21.2669 75.1168 21.2669L73.1643 19.3102ZM75.1168 21.2669C75.1168 21.2669 75.4029 21.2654 75.6484 21.2563C75.894 21.2472 76.0061 21.2185 76.1956 21.1512C76.3851 21.0838 76.6439 20.9249 76.8297 20.648C77.0155 20.371 77.0494 19.8611 77.0494 19.8611L77.0701 19.3102L75.1168 21.2669ZM75.1168 17.3543L73.1643 19.311L75.1168 21.2677L77.0693 19.311L75.1168 17.3543ZM77.0693 23.2236L77.0487 22.6728C77.0487 22.6728 77.014 22.1628 76.829 21.8858C76.6439 21.6089 76.3843 21.4493 76.1948 21.3827C76.0053 21.3153 75.8933 21.2873 75.6477 21.2775C75.4022 21.2677 75.1161 21.2669 75.1161 21.2669L77.0693 23.2236ZM75.1168 25.1795C75.1168 25.1795 74.8307 25.178 74.5852 25.169C74.3397 25.1599 74.2276 25.1311 74.0381 25.0638C73.8486 24.9964 73.5898 24.8375 73.4047 24.5606C73.2196 24.2837 73.1849 23.7737 73.1849 23.7737L73.1643 23.2228L75.1168 21.2661C75.1168 21.2661 74.8307 21.2677 74.5852 21.2767C74.3397 21.2858 74.2276 21.3146 74.0381 21.3819C73.8486 21.4493 73.5898 21.6082 73.4047 21.8851C73.2196 22.162 73.1849 22.672 73.1849 22.672L73.1643 23.2228L75.1168 25.1795ZM75.1168 25.1795C75.1168 25.1795 75.4029 25.178 75.6484 25.169C75.894 25.1599 76.0061 25.1311 76.1956 25.0638C76.3851 24.9964 76.6439 24.8375 76.8297 24.5606C77.0148 24.2837 77.0494 23.7737 77.0494 23.7737L77.0701 23.2228L75.1168 25.1795ZM75.1168 21.2669L73.1643 23.2236L75.1168 25.1803L77.0693 23.2236L75.1168 21.2669Z" fill="#0047BB"/>
<path d="M62.4261 33.2416L62.4055 32.6908C62.4055 32.6908 62.3709 32.1808 62.1858 31.9039C62.0007 31.6269 61.7412 31.4673 61.5517 31.4007C61.3622 31.3334 61.2501 31.3054 61.0045 31.2955C60.759 31.2857 60.4729 31.2849 60.4729 31.2849L62.4261 33.2416ZM60.4737 35.1976C60.4737 35.1976 60.1876 35.196 59.942 35.187C59.6965 35.1779 59.5844 35.1491 59.3949 35.0818C59.2054 35.0144 58.9466 34.8556 58.7615 34.5786C58.5764 34.3017 58.5417 33.7917 58.5417 33.7917L58.5211 33.2409L60.4737 31.2842C60.4737 31.2842 60.1876 31.2857 59.942 31.2948C59.6965 31.3038 59.5844 31.3326 59.3949 31.3999C59.2054 31.4673 58.9466 31.6262 58.7615 31.9031C58.5764 32.18 58.5417 32.69 58.5417 32.69L58.5211 33.2409L60.4737 35.1976ZM60.4737 35.1976C60.4737 35.1976 60.7597 35.196 61.0053 35.187C61.2508 35.1779 61.3629 35.1491 61.5524 35.0818C61.7419 35.0144 62.0007 34.8556 62.1865 34.5786C62.3716 34.3017 62.4063 33.7917 62.4063 33.7917L62.4269 33.2409L60.4737 35.1976ZM60.4737 31.2849L58.5211 33.2416L60.4737 35.1983L62.4261 33.2416L60.4737 31.2849ZM66.3334 33.2424L66.3128 32.6915C66.3128 32.6915 66.2781 32.1815 66.0931 31.9046C65.908 31.6277 65.6484 31.468 65.4597 31.4015C65.2702 31.3341 65.1581 31.3061 64.9125 31.2963C64.667 31.2864 64.3809 31.2857 64.3809 31.2857L66.3334 33.2424ZM62.4284 33.2424L62.449 32.6915C62.449 32.6915 62.4837 32.1815 62.6688 31.9046C62.8538 31.6277 63.1134 31.468 63.3029 31.4015C63.4924 31.3341 63.6045 31.3061 63.85 31.2963C64.0956 31.2864 64.3817 31.2857 64.3817 31.2857L62.4284 33.2424L62.449 33.7932C62.449 33.7932 62.4837 34.3032 62.6688 34.5801C62.8538 34.8571 63.1134 35.0167 63.3029 35.0833C63.4924 35.1507 63.6045 35.1787 63.85 35.1885C64.0956 35.1983 64.3817 35.1991 64.3817 35.1991L62.4284 33.2424ZM64.3809 35.1991C64.3809 35.1991 64.667 35.1976 64.9125 35.1885C65.1581 35.1794 65.2702 35.1507 65.4597 35.0833C65.6492 35.016 65.908 34.8571 66.0931 34.5801C66.2781 34.3032 66.3128 33.7932 66.3128 33.7932L66.3334 33.2424L64.3809 35.1991ZM64.3809 31.2857L62.4284 33.2424L64.3809 35.1991L66.3334 33.2424L64.3809 31.2857Z" fill="#0047BB"/>
<path d="M96.6042 9.29068L96.5835 8.73984C96.5835 8.73984 96.5488 8.22985 96.3637 7.95292C96.1787 7.67598 95.9191 7.51635 95.7304 7.44976C95.5409 7.38242 95.4288 7.35442 95.1833 7.34458C94.9377 7.33475 94.6516 7.33398 94.6516 7.33398L96.6042 9.29068ZM92.6998 9.29068L92.7205 8.73984C92.7205 8.73984 92.7551 8.22985 92.9402 7.95292C93.1253 7.67598 93.3848 7.51635 93.5743 7.44976C93.7638 7.38242 93.8759 7.35442 94.1215 7.34458C94.367 7.33475 94.6531 7.33398 94.6531 7.33398L92.6998 9.29068L92.7205 9.84152C92.7205 9.84152 92.7551 10.3515 92.9402 10.6284C93.1253 10.9054 93.3848 11.065 93.5743 11.1316C93.7638 11.199 93.8759 11.2269 94.1215 11.2368C94.367 11.2466 94.6531 11.2474 94.6531 11.2474L92.6998 9.29068ZM94.6523 11.2474C94.6523 11.2474 94.9384 11.2459 95.184 11.2368C95.4295 11.2277 95.5416 11.199 95.7311 11.1316C95.9206 11.0643 96.1794 10.9054 96.3645 10.6284C96.5496 10.3515 96.5842 9.84152 96.5842 9.84152L96.6049 9.29068L94.6523 11.2474ZM94.6516 7.33475L92.6991 9.29144L94.6516 11.2481L96.6042 9.29144L94.6516 7.33475ZM96.6049 13.2041L96.5842 12.6532C96.5842 12.6532 96.5496 12.1432 96.3645 11.8663C96.1794 11.5894 95.9199 11.4297 95.7304 11.3632C95.5409 11.2958 95.4288 11.2678 95.1833 11.258C94.9377 11.2481 94.6516 11.2474 94.6516 11.2474L96.6049 13.2041ZM92.6998 13.2041L92.7205 12.6532C92.7205 12.6532 92.7551 12.1432 92.9402 11.8663C93.1253 11.5894 93.3848 11.4297 93.5736 11.3632C93.7631 11.2958 93.8752 11.2678 94.1207 11.258C94.3662 11.2481 94.6523 11.2474 94.6523 11.2474L92.6998 13.2041L92.7205 13.7549C92.7205 13.7549 92.7551 14.2649 92.9402 14.5418C93.1253 14.8188 93.3848 14.9784 93.5736 15.045C93.7631 15.1124 93.8752 15.1404 94.1207 15.1502C94.3662 15.16 94.6523 15.1608 94.6523 15.1608L92.6998 13.2041ZM94.6523 15.16C94.6523 15.16 94.9384 15.1585 95.184 15.1494C95.4295 15.1403 95.5416 15.1116 95.7311 15.0442C95.9206 14.9769 96.1794 14.818 96.3652 14.5411C96.5503 14.2641 96.585 13.7542 96.585 13.7542L96.6056 13.2033L94.6523 15.16ZM94.6523 11.2474L92.6998 13.2041L94.6523 15.1608L96.6049 13.2041L94.6523 11.2474Z" fill="#0047BB"/>
<path d="M94.6496 17.3521C94.6496 17.3521 94.9356 17.3536 95.1812 17.3626C95.4267 17.3717 95.5388 17.4005 95.7283 17.4678C95.9178 17.5352 96.1766 17.6941 96.3624 17.971C96.5482 18.2479 96.5821 18.7579 96.5821 18.7579L96.6028 19.3087L94.6496 17.3521ZM92.697 19.3087L92.7176 18.7579C92.7176 18.7579 92.7523 18.2479 92.9374 17.971C93.1225 17.6941 93.382 17.5344 93.5708 17.4678C93.7603 17.4005 93.8724 17.3725 94.1179 17.3626C94.3635 17.3528 94.6496 17.3521 94.6496 17.3521L92.697 19.3087L92.7176 19.8596C92.7176 19.8596 92.7523 20.3696 92.9374 20.6465C93.1225 20.9234 93.382 21.0831 93.5708 21.1497C93.7603 21.217 93.8724 21.245 94.1179 21.2549C94.3635 21.2647 94.6496 21.2655 94.6496 21.2655L92.697 19.3087ZM94.6496 21.2647C94.6496 21.2647 94.9356 21.2632 95.1812 21.2541C95.4267 21.245 95.5388 21.2163 95.7283 21.1489C95.9178 21.0816 96.1766 20.9227 96.3624 20.6458C96.5482 20.3688 96.5821 19.8588 96.5821 19.8588L96.6028 19.308L94.6496 21.2647ZM94.6496 17.3521L92.697 19.3087L94.6496 21.2655L96.602 19.3087L94.6496 17.3521ZM96.602 23.2214L96.5814 22.6706C96.5814 22.6706 96.5467 22.1606 96.3617 21.8836C96.1766 21.6067 95.9171 21.447 95.7276 21.3805C95.5381 21.3131 95.426 21.2851 95.1804 21.2753C94.9349 21.2655 94.6488 21.2647 94.6488 21.2647L96.602 23.2214ZM92.697 23.2214L92.7176 22.6706C92.7176 22.6706 92.7523 22.1606 92.9374 21.8836C93.1225 21.6067 93.382 21.447 93.5708 21.3805C93.7603 21.3131 93.8724 21.2851 94.1179 21.2753C94.3635 21.2655 94.6496 21.2647 94.6496 21.2647L92.697 23.2214L92.7176 23.7722C92.7176 23.7722 92.7523 24.2822 92.9374 24.5592C93.1225 24.8361 93.382 24.9957 93.5708 25.0623C93.7603 25.1297 93.8724 25.1577 94.1179 25.1675C94.3635 25.1773 94.6496 25.1781 94.6496 25.1781L92.697 23.2214ZM94.6496 25.1781C94.6496 25.1781 94.9356 25.1766 95.1812 25.1675C95.4267 25.1584 95.5388 25.1297 95.7283 25.0623C95.9178 24.995 96.1766 24.8361 96.3624 24.5592C96.5482 24.2822 96.5821 23.7722 96.5821 23.7722L96.6028 23.2214L94.6496 25.1781ZM94.6496 21.2655L92.697 23.2222L94.6496 25.1789L96.602 23.2222L94.6496 21.2655Z" fill="#0047BB"/>
<path d="M94.651 27.3701C94.651 27.3701 94.9371 27.3716 95.1826 27.3807C95.4282 27.3898 95.5402 27.4185 95.7297 27.4859C95.9192 27.5532 96.178 27.7121 96.3639 27.9891C96.5489 28.266 96.5836 28.776 96.5836 28.776L96.6043 29.3268L94.651 27.3701ZM92.6985 29.3268L92.7191 28.776C92.7191 28.776 92.7538 28.266 92.9389 27.9891C93.1239 27.7121 93.3835 27.5525 93.573 27.4859C93.7625 27.4185 93.8746 27.3906 94.1201 27.3807C94.3656 27.3716 94.6517 27.3701 94.6517 27.3701L92.6985 29.3268L92.7191 29.8776C92.7191 29.8776 92.7538 30.3876 92.9389 30.6646C93.1239 30.9415 93.3835 31.1011 93.573 31.1677C93.7625 31.2351 93.8746 31.2631 94.1201 31.2729C94.3656 31.282 94.6517 31.2835 94.6517 31.2835L92.6985 29.3268ZM94.651 31.2827C94.651 31.2827 94.9371 31.2812 95.1826 31.2721C95.4282 31.2631 95.5402 31.2343 95.7297 31.167C95.9192 31.0996 96.178 30.9407 96.3639 30.6638C96.5489 30.3869 96.5836 29.8769 96.5836 29.8769L96.6043 29.326L94.651 31.2827ZM94.651 27.3701L92.6985 29.3268L94.651 31.2835L96.6035 29.3268L94.651 27.3701ZM96.6035 33.2394L96.5829 32.6886C96.5829 32.6886 96.5482 32.1786 96.3631 31.9017C96.1781 31.6247 95.9185 31.4651 95.7297 31.3985C95.5402 31.3312 95.4282 31.3032 95.1826 31.2933C94.9371 31.2843 94.651 31.2827 94.651 31.2827L96.6035 33.2394ZM92.6985 33.2394L92.7191 32.6886C92.7191 32.6886 92.7538 32.1786 92.9389 31.9017C93.1239 31.6247 93.3835 31.4651 93.573 31.3985C93.7625 31.3312 93.8746 31.3032 94.1201 31.2933C94.3656 31.2835 94.6517 31.2827 94.6517 31.2827L92.6985 33.2394L92.7191 33.7903C92.7191 33.7903 92.7538 34.3003 92.9389 34.5772C93.1239 34.8541 93.3835 35.0138 93.573 35.0804C93.7625 35.1477 93.8746 35.1757 94.1201 35.1855C94.3656 35.1954 94.6517 35.1961 94.6517 35.1961L92.6985 33.2394ZM94.651 35.1961C94.651 35.1961 94.9371 35.1946 95.1826 35.1855C95.4282 35.1765 95.5402 35.1477 95.7297 35.0804C95.9192 35.013 96.1781 34.8541 96.3631 34.5772C96.5482 34.3003 96.5829 33.7903 96.5829 33.7903L96.6035 33.2394L94.651 35.1961ZM94.651 31.2835L92.6985 33.2402L94.651 35.1969L96.6035 33.2402L94.651 31.2835Z" fill="#0047BB"/>
<path d="M102.46 9.29385L102.44 8.74302C102.44 8.74302 102.405 8.23303 102.22 7.95609C102.035 7.67916 101.775 7.51952 101.586 7.45294C101.396 7.3856 101.284 7.35759 101.039 7.34776C100.793 7.33792 100.507 7.33716 100.507 7.33716L102.46 9.29385ZM98.5553 9.29385L98.5759 8.74302C98.5759 8.74302 98.6106 8.23303 98.7957 7.95609C98.9807 7.67916 99.2403 7.51952 99.4291 7.45294C99.6186 7.3856 99.7306 7.35759 99.9762 7.34776C100.222 7.33792 100.508 7.33716 100.508 7.33716L98.5553 9.29385L98.5759 9.84469C98.5759 9.84469 98.6106 10.3547 98.7957 10.6316C98.9807 10.9085 99.2403 11.0682 99.4291 11.1348C99.6186 11.2021 99.7306 11.2301 99.9762 11.24C100.222 11.2498 100.508 11.2505 100.508 11.2505L98.5553 9.29385ZM100.508 11.2498C100.508 11.2498 100.794 11.2483 101.039 11.2392C101.285 11.2301 101.397 11.2014 101.587 11.134C101.776 11.0667 102.035 10.9078 102.221 10.6309C102.406 10.3539 102.44 9.84395 102.44 9.84395L102.461 9.29309L100.508 11.2498ZM100.508 7.33716L98.5553 9.29385L100.508 11.2505L102.46 9.29385L100.508 7.33716ZM106.368 9.29462L106.347 8.74378C106.347 8.74378 106.312 8.23379 106.127 7.95685C105.942 7.67992 105.683 7.52026 105.494 7.45368C105.304 7.38633 105.192 7.35836 104.947 7.34852C104.701 7.33868 104.415 7.33792 104.415 7.33792L106.368 9.29462ZM102.463 9.29462L102.483 8.74378C102.483 8.74378 102.518 8.23379 102.703 7.95685C102.888 7.67992 103.148 7.52026 103.337 7.45368C103.527 7.38633 103.639 7.35836 103.884 7.34852C104.13 7.33868 104.416 7.33792 104.416 7.33792L102.463 9.29462L102.483 9.84545C102.483 9.84545 102.518 10.3554 102.703 10.6324C102.888 10.9093 103.148 11.069 103.337 11.1356C103.527 11.2029 103.639 11.2309 103.884 11.2407C104.13 11.2505 104.416 11.2513 104.416 11.2513L102.463 9.29462ZM104.415 11.2513C104.415 11.2513 104.701 11.2498 104.947 11.2407C105.192 11.2316 105.304 11.2029 105.494 11.1356C105.683 11.0682 105.942 10.9093 106.127 10.6324C106.312 10.3554 106.347 9.84545 106.347 9.84545L106.368 9.29462L104.415 11.2513ZM104.415 7.33868L102.463 9.29538L104.415 11.2521L106.368 9.29538L104.415 7.33868Z" fill="#0047BB"/>
<path d="M102.462 19.3102L102.441 18.7594C102.441 18.7594 102.407 18.2494 102.221 17.9725C102.036 17.6955 101.777 17.5359 101.587 17.4693C101.398 17.402 101.286 17.374 101.04 17.3641C100.795 17.3543 100.509 17.3535 100.509 17.3535L102.462 19.3102ZM100.509 21.2662C100.509 21.2662 100.223 21.2647 99.9777 21.2556C99.7321 21.2465 99.62 21.2178 99.4305 21.1504C99.241 21.0831 98.9823 20.9242 98.7972 20.6472C98.6121 20.3703 98.5774 19.8603 98.5774 19.8603L98.5568 19.3095L100.509 17.3528C100.509 17.3528 100.223 17.3543 99.9777 17.3634C99.7321 17.3725 99.62 17.4012 99.4305 17.4686C99.241 17.5359 98.9823 17.6948 98.7972 17.9717C98.6121 18.2487 98.5774 18.7586 98.5774 18.7586L98.5568 19.3095L100.509 21.2662ZM100.509 21.2662C100.509 21.2662 100.795 21.2647 101.041 21.2556C101.286 21.2465 101.399 21.2178 101.588 21.1504C101.778 21.0831 102.036 20.9242 102.222 20.6472C102.408 20.3703 102.442 19.8603 102.442 19.8603L102.463 19.3095L100.509 21.2662ZM100.509 17.3535L98.5568 19.3102L100.509 21.2669L102.462 19.3102L100.509 17.3535ZM106.369 19.311L106.348 18.7602C106.348 18.7602 106.314 18.2502 106.129 17.9732C105.944 17.6963 105.684 17.5366 105.495 17.4701C105.306 17.4027 105.194 17.3747 104.948 17.3649C104.703 17.3551 104.417 17.3543 104.417 17.3543L106.369 19.311ZM102.464 19.311L102.485 18.7602C102.485 18.7602 102.519 18.2502 102.704 17.9732C102.889 17.6963 103.149 17.5366 103.339 17.4701C103.528 17.4027 103.64 17.3747 103.886 17.3649C104.131 17.3551 104.417 17.3543 104.417 17.3543L102.464 19.311L102.485 19.8618C102.485 19.8618 102.519 20.3718 102.704 20.6488C102.889 20.9257 103.149 21.0853 103.339 21.1519C103.528 21.2193 103.64 21.2473 103.886 21.2571C104.131 21.2669 104.417 21.2677 104.417 21.2677L102.464 19.311ZM104.417 21.2677C104.417 21.2677 104.703 21.2662 104.948 21.2571C105.194 21.248 105.306 21.2193 105.495 21.1519C105.685 21.0846 105.944 20.9257 106.129 20.6488C106.314 20.3718 106.348 19.8618 106.348 19.8618L106.369 19.311L104.417 21.2677ZM104.417 17.3551L102.464 19.3118L104.417 21.2677L106.369 19.3118L104.417 17.3551Z" fill="#0047BB"/>
<path d="M112.218 12.2045L112.197 11.6537C112.197 11.6537 112.163 11.1437 111.977 10.8667C111.792 10.5898 111.533 10.4301 111.343 10.3636C111.154 10.2962 111.042 10.2682 110.796 10.2584C110.551 10.2485 110.265 10.2478 110.265 10.2478L112.218 12.2045ZM108.313 12.2045L108.333 11.6537C108.333 11.6537 108.368 11.1437 108.553 10.8667C108.738 10.5898 108.998 10.4301 109.187 10.3636C109.376 10.2962 109.488 10.2682 109.734 10.2584C109.979 10.2493 110.265 10.2478 110.265 10.2478L108.313 12.2045L108.333 12.7553C108.333 12.7553 108.368 13.2653 108.553 13.5423C108.738 13.8192 108.998 13.9788 109.187 14.0454C109.376 14.1128 109.488 14.1408 109.734 14.1506C109.979 14.1597 110.265 14.1612 110.265 14.1612L108.313 12.2045ZM110.265 14.1612C110.265 14.1612 110.551 14.1597 110.797 14.1506C111.042 14.1415 111.155 14.1128 111.344 14.0454C111.534 13.9781 111.792 13.8192 111.978 13.5423C112.163 13.2653 112.198 12.7553 112.198 12.7553L112.219 12.2045L110.265 14.1612ZM110.265 10.2485L108.313 12.2053L110.265 14.162L112.218 12.2053L110.265 10.2485ZM112.218 16.1179L112.197 15.5671C112.197 15.5671 112.163 15.0571 111.977 14.7801C111.792 14.5032 111.533 14.3435 111.343 14.277C111.154 14.2096 111.042 14.1816 110.796 14.1718C110.551 14.1627 110.265 14.1612 110.265 14.1612L112.218 16.1179ZM108.313 16.1179L108.334 15.5671C108.334 15.5671 108.369 15.0571 108.554 14.7801C108.739 14.5032 108.998 14.3435 109.188 14.277C109.377 14.2096 109.49 14.1816 109.735 14.1718C109.981 14.1627 110.267 14.1612 110.267 14.1612L108.313 16.1179L108.334 16.6687C108.334 16.6687 108.369 17.1787 108.554 17.4557C108.739 17.7326 108.998 17.8922 109.188 17.9588C109.377 18.0261 109.49 18.0542 109.735 18.064C109.981 18.0731 110.267 18.0746 110.267 18.0746L108.313 16.1179ZM110.265 18.0738C110.265 18.0738 110.551 18.0723 110.797 18.0632C111.042 18.0541 111.155 18.0254 111.344 17.9581C111.534 17.8907 111.792 17.7318 111.978 17.4549C112.163 17.178 112.198 16.668 112.198 16.668L112.219 16.1171L110.265 18.0738ZM110.265 14.1612L108.313 16.1179L110.265 18.0746L112.218 16.1179L110.265 14.1612Z" fill="#0047BB"/>
<path d="M112.212 29.3268L112.191 28.776C112.191 28.776 112.157 28.266 111.971 27.9891C111.786 27.7121 111.527 27.5525 111.337 27.4859C111.148 27.4185 111.036 27.3906 110.79 27.3807C110.545 27.3709 110.259 27.3701 110.259 27.3701L112.212 29.3268ZM108.307 29.3268L108.327 28.776C108.327 28.776 108.362 28.266 108.547 27.9891C108.732 27.7121 108.992 27.5525 109.181 27.4859C109.37 27.4185 109.482 27.3906 109.728 27.3807C109.973 27.3709 110.259 27.3701 110.259 27.3701L108.307 29.3268L108.327 29.8776C108.327 29.8776 108.362 30.3876 108.547 30.6646C108.732 30.9415 108.992 31.1011 109.181 31.1677C109.37 31.2351 109.482 31.2631 109.728 31.2729C109.973 31.2827 110.259 31.2835 110.259 31.2835L108.307 29.3268ZM110.259 31.2827C110.259 31.2827 110.545 31.2812 110.791 31.2721C111.036 31.2631 111.149 31.2343 111.338 31.167C111.528 31.0996 111.786 30.9407 111.972 30.6638C112.157 30.3869 112.192 29.8769 112.192 29.8769L112.213 29.326L110.259 31.2827ZM110.259 27.3701L108.307 29.3268L110.259 31.2835L112.212 29.3268L110.259 27.3701ZM112.212 33.2394L112.191 32.6886C112.191 32.6886 112.157 32.1786 111.971 31.9017C111.786 31.6247 111.527 31.4651 111.337 31.3985C111.148 31.3312 111.036 31.3032 110.79 31.2933C110.545 31.2843 110.259 31.2827 110.259 31.2827L112.212 33.2394ZM110.259 35.1961C110.259 35.1961 109.973 35.1946 109.728 35.1855C109.482 35.1765 109.37 35.1477 109.181 35.0804C108.991 35.013 108.732 34.8541 108.546 34.5772C108.361 34.3003 108.327 33.7903 108.327 33.7903L108.306 33.2394L110.259 31.2827C110.259 31.2827 109.972 31.2843 109.727 31.2933C109.481 31.3024 109.369 31.3312 109.18 31.3985C108.99 31.4659 108.731 31.6247 108.546 31.9017C108.361 32.1786 108.326 32.6886 108.326 32.6886L108.305 33.2394L110.259 35.1961ZM110.259 35.1961C110.259 35.1961 110.545 35.1946 110.791 35.1855C111.036 35.1765 111.149 35.1477 111.338 35.0804C111.528 35.013 111.786 34.8541 111.972 34.5772C112.158 34.3003 112.192 33.7903 112.192 33.7903L112.213 33.2394L110.259 35.1961ZM110.259 31.2835L108.307 33.2402L110.259 35.1969L112.212 33.2402L110.259 31.2835Z" fill="#0047BB"/>
<path d="M131.754 9.29825L131.733 8.74741C131.733 8.74741 131.699 8.23742 131.514 7.96049C131.329 7.68355 131.069 7.52389 130.88 7.45731C130.691 7.38997 130.579 7.36199 130.333 7.35215C130.088 7.34232 129.802 7.34155 129.802 7.34155L131.754 9.29825ZM129.802 11.2549C129.802 11.2549 129.515 11.2534 129.27 11.2443C129.024 11.2353 128.912 11.2065 128.723 11.1392C128.533 11.0718 128.274 10.9129 128.089 10.636C127.903 10.3591 127.869 9.84909 127.869 9.84909L127.848 9.29825L129.801 7.34155C129.801 7.34155 129.515 7.34307 129.269 7.35215C129.024 7.36123 128.912 7.38997 128.722 7.45731C128.533 7.52465 128.274 7.68355 128.088 7.96049C127.902 8.23742 127.868 8.74741 127.868 8.74741L127.848 9.29825L129.802 11.2549ZM129.802 11.2549C129.802 11.2549 130.088 11.2534 130.334 11.2443C130.579 11.2353 130.692 11.2065 130.881 11.1392C131.071 11.0718 131.329 10.9129 131.514 10.636C131.7 10.3591 131.734 9.84909 131.734 9.84909L131.755 9.29825L129.802 11.2549ZM129.802 7.34231L127.849 9.29901L129.802 11.2557L131.754 9.29901L129.802 7.34231ZM135.661 9.29975L135.641 8.74891C135.641 8.74891 135.606 8.23895 135.421 7.96201C135.236 7.68508 134.976 7.52542 134.787 7.45883C134.597 7.39149 134.485 7.36349 134.24 7.35365C133.994 7.34457 133.708 7.34305 133.708 7.34305L135.661 9.29975ZM133.709 11.2557C133.709 11.2557 133.423 11.2542 133.177 11.2451C132.932 11.236 132.82 11.2073 132.63 11.1399C132.441 11.0726 132.182 10.9137 131.996 10.6367C131.81 10.3598 131.776 9.84985 131.776 9.84985L131.756 9.29901L133.708 7.34231C133.708 7.34231 133.422 7.34381 133.176 7.35289C132.931 7.36197 132.819 7.39073 132.629 7.45807C132.44 7.52541 132.181 7.68432 131.995 7.96125C131.809 8.23818 131.775 8.74817 131.775 8.74817L131.755 9.29901L133.709 11.2557ZM133.709 11.2557C133.709 11.2557 133.995 11.2542 134.24 11.2451C134.486 11.236 134.598 11.2073 134.788 11.1399C134.977 11.0726 135.236 10.9137 135.422 10.6367C135.608 10.3598 135.641 9.84985 135.641 9.84985L135.662 9.29901L133.709 11.2557ZM133.709 7.34305L131.756 9.29975L133.709 11.2564L135.661 9.29975L133.709 7.34305Z" fill="#0047BB"/>
<path d="M147.366 9.29068L147.345 8.73984C147.345 8.73984 147.31 8.22985 147.125 7.95292C146.94 7.67598 146.68 7.51635 146.491 7.44976C146.301 7.38242 146.189 7.35442 145.944 7.34458C145.698 7.33475 145.412 7.33398 145.412 7.33398L147.366 9.29068ZM143.461 9.29068L143.482 8.73984C143.482 8.73984 143.517 8.22985 143.702 7.95292C143.887 7.67598 144.146 7.51635 144.335 7.44976C144.524 7.38242 144.637 7.35442 144.882 7.34458C145.128 7.33475 145.414 7.33398 145.414 7.33398L143.461 9.29068L143.482 9.84152C143.482 9.84152 143.517 10.3515 143.702 10.6284C143.887 10.9054 144.146 11.065 144.335 11.1316C144.524 11.199 144.637 11.2269 144.882 11.2368C145.128 11.2466 145.414 11.2474 145.414 11.2474L143.461 9.29068ZM145.414 11.2474C145.414 11.2474 145.7 11.2459 145.945 11.2368C146.191 11.2277 146.303 11.199 146.492 11.1316C146.682 11.0643 146.941 10.9054 147.127 10.6284C147.312 10.3515 147.346 9.84152 147.346 9.84152L147.367 9.29068L145.414 11.2474ZM145.413 7.33475L143.46 9.29144L145.413 11.2481L147.366 9.29144L145.413 7.33475ZM151.273 9.2922L151.252 8.74137C151.252 8.74137 151.217 8.23138 151.032 7.95444C150.847 7.67751 150.588 7.51785 150.399 7.45126C150.209 7.38392 150.097 7.35592 149.852 7.34608C149.606 7.33625 149.32 7.33551 149.32 7.33551L151.273 9.2922ZM147.368 9.2922L147.388 8.74137C147.388 8.74137 147.423 8.23138 147.608 7.95444C147.793 7.67751 148.053 7.51785 148.242 7.45126C148.432 7.38392 148.544 7.35592 148.789 7.34608C149.035 7.33625 149.321 7.33551 149.321 7.33551L147.368 9.2922L147.388 9.84304C147.388 9.84304 147.423 10.353 147.608 10.63C147.793 10.9069 148.053 11.0665 148.242 11.1331C148.432 11.2005 148.544 11.2285 148.789 11.2383C149.035 11.2481 149.321 11.2489 149.321 11.2489L147.368 9.2922ZM149.32 11.2481C149.32 11.2481 149.606 11.2466 149.852 11.2375C150.097 11.2285 150.209 11.1997 150.399 11.1324C150.589 11.065 150.847 10.9061 151.032 10.6292C151.217 10.3523 151.252 9.84228 151.252 9.84228L151.273 9.29144L149.32 11.2481ZM149.32 7.33551L147.368 9.2922L149.32 11.2489L151.273 9.2922L149.32 7.33551Z" fill="#0047BB"/>
<path d="M141.509 29.3239L141.488 28.773C141.488 28.773 141.453 28.2631 141.268 27.9861C141.083 27.7092 140.824 27.5495 140.634 27.4829C140.445 27.4156 140.333 27.3876 140.087 27.3778C139.842 27.3679 139.555 27.3672 139.555 27.3672L141.509 29.3239ZM137.604 29.3239L137.624 28.773C137.624 28.773 137.659 28.2631 137.844 27.9861C138.029 27.7092 138.289 27.5495 138.477 27.4829C138.667 27.4156 138.779 27.3876 139.025 27.3778C139.27 27.3679 139.556 27.3672 139.556 27.3672L137.604 29.3239L137.624 29.8747C137.624 29.8747 137.659 30.3847 137.844 30.6616C138.029 30.9386 138.289 31.0982 138.477 31.1648C138.667 31.2321 138.779 31.2601 139.025 31.27C139.27 31.2798 139.556 31.2806 139.556 31.2806L137.604 29.3239ZM139.556 31.2806C139.556 31.2806 139.842 31.2791 140.088 31.27C140.333 31.2609 140.445 31.2321 140.635 31.1648C140.824 31.0975 141.083 30.9386 141.269 30.6616C141.455 30.3847 141.489 29.8747 141.489 29.8747L141.509 29.3239L139.556 31.2806ZM139.556 27.3679L137.604 29.3246L139.556 31.2813L141.509 29.3246L139.556 27.3679ZM141.509 33.2373L141.488 32.6864C141.488 32.6864 141.453 32.1764 141.268 31.8995C141.083 31.6226 140.824 31.4629 140.634 31.3963C140.445 31.329 140.333 31.301 140.087 31.2912C139.842 31.2813 139.555 31.2806 139.555 31.2806L141.509 33.2373ZM137.604 33.2373L137.624 32.6864C137.624 32.6864 137.659 32.1764 137.844 31.8995C138.029 31.6226 138.289 31.4629 138.478 31.3963C138.668 31.329 138.78 31.301 139.025 31.2912C139.271 31.2821 139.557 31.2806 139.557 31.2806L137.604 33.2373L137.624 33.7881C137.624 33.7881 137.659 34.2981 137.844 34.575C138.029 34.852 138.289 35.0116 138.478 35.0782C138.668 35.1455 138.78 35.1735 139.025 35.1834C139.271 35.1925 139.557 35.194 139.557 35.194L137.604 33.2373ZM139.556 35.1932C139.556 35.1932 139.842 35.1917 140.088 35.1826C140.333 35.1735 140.445 35.1448 140.635 35.0775C140.824 35.0101 141.083 34.8512 141.269 34.5743C141.455 34.2973 141.489 33.7874 141.489 33.7874L141.509 33.2365L139.556 35.1932ZM139.556 31.2806L137.604 33.2373L139.556 35.1932L141.509 33.2373L139.556 31.2806Z" fill="#0047BB"/>
<path d="M141.505 19.3117L141.484 18.7608C141.484 18.7608 141.45 18.2509 141.265 17.9739C141.079 17.697 140.82 17.5374 140.63 17.4708C140.441 17.4034 140.329 17.3754 140.083 17.3656C139.838 17.3565 139.552 17.355 139.552 17.355L141.505 19.3117ZM139.552 21.2676C139.552 21.2676 139.266 21.2661 139.021 21.257C138.775 21.248 138.663 21.2192 138.474 21.1519C138.284 21.0845 138.025 20.9256 137.84 20.6487C137.654 20.3718 137.62 19.8618 137.62 19.8618L137.599 19.3109L139.552 17.3542C139.552 17.3542 139.266 17.3558 139.02 17.3648C138.775 17.3739 138.662 17.4027 138.473 17.47C138.283 17.5373 138.025 17.6962 137.839 17.9732C137.654 18.2501 137.619 18.7601 137.619 18.7601L137.598 19.3109L139.552 21.2676ZM139.552 21.2676C139.552 21.2676 139.839 21.2661 140.084 21.257C140.33 21.248 140.442 21.2192 140.631 21.1519C140.821 21.0845 141.079 20.9256 141.265 20.6487C141.45 20.3718 141.485 19.8618 141.485 19.8618L141.506 19.3109L139.552 21.2676ZM139.552 17.355L137.6 19.3117L139.552 21.2684L141.505 19.3117L139.552 17.355ZM141.506 23.2243L141.485 22.6735C141.485 22.6735 141.45 22.1635 141.265 21.8866C141.08 21.6096 140.821 21.45 140.632 21.3834C140.442 21.3161 140.33 21.2881 140.085 21.2782C139.839 21.2692 139.553 21.2676 139.553 21.2676L141.506 23.2243ZM137.601 23.2243L137.621 22.6735C137.621 22.6735 137.656 22.1635 137.841 21.8866C138.026 21.6096 138.286 21.45 138.475 21.3834C138.665 21.3161 138.777 21.2881 139.022 21.2782C139.268 21.2684 139.554 21.2676 139.554 21.2676L137.601 23.2243L137.621 23.7752C137.621 23.7752 137.656 24.2852 137.841 24.5621C138.026 24.839 138.286 24.9987 138.475 25.0653C138.665 25.1326 138.777 25.1606 139.022 25.1704C139.268 25.1803 139.554 25.181 139.554 25.181L137.601 23.2243ZM139.553 25.181C139.553 25.181 139.839 25.1795 140.085 25.1704C140.33 25.1614 140.442 25.1326 140.632 25.0653C140.821 24.9979 141.08 24.839 141.265 24.5621C141.45 24.2852 141.485 23.7752 141.485 23.7752L141.506 23.2243L139.553 25.181ZM139.553 21.2684L137.601 23.2251L139.553 25.1818L141.506 23.2251L139.553 21.2684Z" fill="#0047BB"/>
</svg>
