<svg width="110" height="41" viewBox="0 0 110 41" fill="none" xmlns="http://www.w3.org/2000/svg">
<g clip-path="url(#clip0_2653_202)">
<path d="M0 20.139L20.4124 40.278V20.139H40.8247L20.4124 0L0 20.139Z" fill="#0047BB"/>
<path d="M24.2113 27.6911H33.1701L37.0257 23.8871H24.2113V27.6911Z" fill="#0047BB"/>
<path d="M24.2113 36.5299L29.3711 31.4392H24.2113V36.5299Z" fill="#0047BB"/>
<path d="M86.9227 27.0198C86.9227 20.139 78.8145 20.139 78.8145 20.139H74.0516H72.1805H70.3093V40.278H74.1083V33.9566H77.8506L82.1031 40.278H86.9794L82.3299 33.3412C84.4846 32.558 86.9227 30.8238 86.9227 27.0198ZM78.8145 30.2085H74.0516V23.8871H78.8145C78.8145 23.8871 82.897 23.8871 82.897 27.0758C82.897 30.2085 78.8145 30.2085 78.8145 30.2085Z" fill="#0047BB"/>
<path d="M93.3866 20.139V23.8871H99.7938V40.278H103.593V23.8871H110V20.139H93.3866Z" fill="#0047BB"/>
<path d="M53.6959 20.139C48.0825 20.139 43.4897 24.6703 43.4897 30.2085C43.4897 35.7467 48.0825 40.278 53.6959 40.278C59.3093 40.278 63.9021 35.7467 63.9021 30.2085C63.9021 24.6143 59.3093 20.139 53.6959 20.139ZM60.0465 30.2644C59.9897 33.7888 57.098 36.5858 53.5258 36.5858C49.9537 36.5299 47.1186 33.6769 47.1186 30.1525C47.1753 26.6282 50.0671 23.8311 53.6392 23.8311C57.2114 23.8871 60.0465 26.7401 60.0465 30.2644Z" fill="#0047BB"/>
</g>
<defs>
<clipPath id="clip0_2653_202">
<rect width="110" height="40.278" fill="white"/>
</clipPath>
</defs>
</svg>
