<svg width="28" height="28" viewBox="0 0 28 28" fill="none" xmlns="http://www.w3.org/2000/svg">
<path d="M14 3.00044C7.92536 3.00044 3 7.92492 3 14.0004C3 18.8607 6.15172 22.9839 10.5222 24.4381C11.0718 24.5398 11.2742 24.1996 11.2742 23.9088C11.2742 23.6466 11.2641 22.7798 11.2592 21.861C8.19904 22.5263 7.55312 20.563 7.55312 20.563C7.05284 19.2919 6.33168 18.9535 6.33168 18.9535C5.33376 18.2706 6.40692 18.2847 6.40692 18.2847C7.51132 18.3622 8.093 19.4182 8.093 19.4182C9.0742 21.0998 10.6661 20.6136 11.2944 20.3325C11.393 19.6214 11.6781 19.1361 11.9927 18.8616C9.5494 18.5835 6.98112 17.6401 6.98112 13.4254C6.98112 12.2246 7.411 11.243 8.11456 10.473C8.00016 10.1958 7.62352 9.07728 8.22104 7.56192C8.22104 7.56192 9.14504 7.26668 11.2469 8.68964C12.1243 8.44588 13.0654 8.32356 14.0004 8.31916C14.935 8.32356 15.8766 8.44544 16.7557 8.68964C18.8554 7.26624 19.7776 7.56192 19.7776 7.56192C20.3765 9.07728 19.9998 10.1958 19.8859 10.473C20.5912 11.2434 21.018 12.2246 21.018 13.4254C21.018 17.6502 18.4444 18.5804 15.995 18.8528C16.3896 19.1942 16.7412 19.8634 16.7412 20.8895C16.7412 22.3613 16.7284 23.5458 16.7284 23.9084C16.7284 24.201 16.9264 24.5442 17.4839 24.4364C21.8522 22.9804 25 18.8585 25 14C25 7.92448 20.0751 3 14 3V3.00044Z" fill="#A0A0A0"/>
<defs>
<linearGradient
          id="paint0_linear_2217_205"
          x1="0"
          y1="11"
          x2="22"
          y2="11"
          gradientUnits="userSpaceOnUse"
        >
          <stop stop-color="#8BB7FF" />
          <stop offset="1" stop-color="#0061FF" />
        </linearGradient>
</defs>

</svg>
