<svg width="24" height="24" viewBox="0 0 24 24" fill="none" xmlns="http://www.w3.org/2000/svg">
<path d="M19.14 20.5721L19.1551 20.9753C19.1551 20.9753 19.1805 21.3486 19.316 21.5513C19.4514 21.754 19.6414 21.8709 19.7796 21.9196C19.9183 21.9689 20.0003 21.9894 20.1801 21.9966C20.3598 22.0038 20.5692 22.0044 20.5692 22.0044L19.14 20.5721ZM20.5692 19.1399C20.5692 19.1399 20.7786 19.141 20.9584 19.1477C21.1381 19.1543 21.2201 19.1753 21.3588 19.2246C21.4976 19.2739 21.687 19.3902 21.823 19.593C21.959 19.7957 21.9838 20.1689 21.9838 20.1689L22 20.5727L20.5692 22.0044C20.5692 22.0044 20.7792 22.0033 20.9589 21.9966C21.1386 21.99 21.2207 21.9689 21.3594 21.9196C21.4981 21.8704 21.6875 21.754 21.8235 21.5513C21.9595 21.3486 21.9844 20.9753 21.9844 20.9753L22 20.5727L20.5692 19.1399ZM20.5692 19.1399C20.5692 19.1399 20.3598 19.141 20.1801 19.1477C20.0003 19.1543 19.9183 19.1753 19.7796 19.2246C19.6409 19.2739 19.4514 19.3902 19.316 19.593C19.1805 19.7957 19.1551 20.1689 19.1551 20.1689L19.14 20.5721L20.5692 19.1399ZM20.5692 22.0044L22 20.5727L20.5692 19.1399L19.14 20.5721L20.5692 22.0044Z" fill="#0047BB"/>
<path d="M16.28 20.5721L16.2951 20.9753C16.2951 20.9753 16.3205 21.3486 16.456 21.5513C16.5914 21.754 16.7814 21.8709 16.9196 21.9196C17.0583 21.9689 17.1403 21.9894 17.3201 21.9966C17.4998 22.0038 17.7092 22.0044 17.7092 22.0044L16.28 20.5721ZM17.7092 19.1399C17.7092 19.1399 17.9186 19.141 18.0984 19.1477C18.2781 19.1543 18.3601 19.1753 18.4988 19.2246C18.6376 19.2739 18.827 19.3902 18.963 19.593C19.099 19.7957 19.1238 20.1689 19.1238 20.1689L19.14 20.5721L17.7092 22.0044C17.7092 22.0044 17.9192 22.0033 18.0989 21.9966C18.2786 21.99 18.3607 21.9689 18.4994 21.9196C18.6381 21.8704 18.8275 21.754 18.9635 21.5513C19.0995 21.3486 19.1244 20.9753 19.1244 20.9753L19.14 20.5721L17.7092 19.1399ZM17.7092 19.1399C17.7092 19.1399 17.4998 19.141 17.3201 19.1477C17.1403 19.1543 17.0583 19.1753 16.9196 19.2246C16.7809 19.2739 16.5914 19.3902 16.456 19.593C16.3205 19.7957 16.2951 20.1689 16.2951 20.1689L16.28 20.5721L17.7092 19.1399ZM17.7092 22.0044L19.14 20.5721L17.7092 19.1399L16.28 20.5721L17.7092 22.0044Z" fill="#0047BB"/>
<path d="M12 20.5722L12.0151 20.9754C12.0151 20.9754 12.0405 21.3486 12.1759 21.5513C12.3114 21.754 12.5014 21.8709 12.6396 21.9196C12.7783 21.9689 12.8603 21.9894 13.04 21.9966C13.2198 22.0038 13.4292 22.0044 13.4292 22.0044L12 20.5722ZM13.4292 19.1399C13.4292 19.1399 13.6386 19.141 13.8183 19.1477C13.9981 19.1543 14.0801 19.1754 14.2188 19.2246C14.3575 19.2739 14.547 19.3902 14.683 19.593C14.819 19.7957 14.8438 20.1689 14.8438 20.1689L14.86 20.5727L13.4292 22.0044C13.4292 22.0044 13.6391 22.0033 13.8189 21.9966C13.9986 21.99 14.0806 21.9689 14.2193 21.9196C14.3581 21.8704 14.5475 21.754 14.6835 21.5513C14.8195 21.3486 14.8444 20.9754 14.8444 20.9754L14.86 20.5727L13.4292 19.1399ZM13.4292 19.1399C13.4292 19.1399 13.2198 19.141 13.04 19.1477C12.8603 19.1543 12.7783 19.1754 12.6396 19.2246C12.5009 19.2739 12.3114 19.3902 12.1759 19.593C12.0405 19.7957 12.0151 20.1689 12.0151 20.1689L12 20.5722L13.4292 19.1399ZM13.4292 22.0044L14.86 20.5727L13.4292 19.1399L12 20.5722L13.4292 22.0044Z" fill="#0047BB"/>
<path d="M9.14 20.5722L9.15512 20.9754C9.15512 20.9754 9.18047 21.3486 9.31594 21.5513C9.45141 21.754 9.6414 21.8709 9.77957 21.9196C9.91828 21.9689 10.0003 21.9894 10.18 21.9966C10.3598 22.0038 10.5692 22.0044 10.5692 22.0044L9.14 20.5722ZM10.5692 19.1399C10.5692 19.1399 10.7786 19.141 10.9583 19.1477C11.1381 19.1543 11.2201 19.1754 11.3588 19.2246C11.4975 19.2739 11.687 19.3902 11.823 19.593C11.959 19.7957 11.9838 20.1689 11.9838 20.1689L12 20.5722L10.5692 22.0044C10.5692 22.0044 10.7791 22.0033 10.9589 21.9966C11.1386 21.99 11.2206 21.9689 11.3593 21.9196C11.4981 21.8704 11.6875 21.754 11.8235 21.5513C11.9595 21.3486 11.9844 20.9754 11.9844 20.9754L12 20.5722L10.5692 19.1399ZM10.5692 19.1399C10.5692 19.1399 10.3598 19.141 10.18 19.1477C10.0003 19.1543 9.91828 19.1754 9.77957 19.2246C9.64086 19.2739 9.45141 19.3902 9.31594 19.593C9.18047 19.7957 9.15512 20.1689 9.15512 20.1689L9.14 20.5722L10.5692 19.1399ZM10.5692 22.0044L12 20.5722L10.5692 19.1399L9.14 20.5722L10.5692 22.0044Z" fill="#0047BB"/>
<path d="M4.86 20.5721L4.84488 20.1689C4.84488 20.1689 4.81953 19.7957 4.68406 19.593C4.54859 19.3902 4.3586 19.2734 4.22043 19.2246C4.08172 19.1753 3.99968 19.1549 3.81995 19.1477C3.64022 19.1405 3.43081 19.1399 3.43081 19.1399L4.86 20.5721ZM3.43081 22.0044C3.43081 22.0044 3.22139 22.0033 3.04166 21.9966C2.86193 21.99 2.77989 21.9689 2.64119 21.9196C2.50248 21.8704 2.31304 21.754 2.17703 21.5513C2.04102 21.3486 2.01621 20.9753 2.01621 20.9753L2 20.5716L3.43081 19.1399C3.43081 19.1399 3.22086 19.141 3.04113 19.1477C2.86141 19.1543 2.77937 19.1753 2.64066 19.2246C2.50195 19.2739 2.31251 19.3902 2.1765 19.593C2.04049 19.7957 2.01565 20.1689 2.01565 20.1689L2 20.5716L3.43081 22.0044ZM3.43081 22.0044C3.43081 22.0044 3.64022 22.0033 3.81995 21.9966C3.99968 21.99 4.08172 21.9689 4.22043 21.9196C4.35914 21.8704 4.54859 21.754 4.68406 21.5513C4.81953 21.3486 4.84488 20.9753 4.84488 20.9753L4.86 20.5721L3.43081 22.0044ZM3.43081 19.1399L2 20.5716L3.43081 22.0044L4.86 20.5721L3.43081 19.1399Z" fill="#0047BB"/>
<path d="M7.72 20.5721L7.70488 20.1689C7.70488 20.1689 7.67953 19.7957 7.54406 19.593C7.40859 19.3902 7.2186 19.2734 7.08043 19.2246C6.94172 19.1753 6.85968 19.1549 6.67995 19.1477C6.50022 19.1405 6.29081 19.1399 6.29081 19.1399L7.72 20.5721ZM6.29081 22.0044C6.29081 22.0044 6.08139 22.0033 5.90166 21.9966C5.72194 21.99 5.63989 21.9689 5.50119 21.9196C5.36248 21.8704 5.17304 21.754 5.03703 21.5513C4.90102 21.3486 4.87621 20.9753 4.87621 20.9753L4.86 20.5721L6.29081 19.1399C6.29081 19.1399 6.08086 19.141 5.90114 19.1477C5.72141 19.1543 5.63937 19.1753 5.50066 19.2246C5.36195 19.2739 5.17251 19.3902 5.0365 19.593C4.90049 19.7957 4.87565 20.1689 4.87565 20.1689L4.86 20.5721L6.29081 22.0044ZM6.29081 22.0044C6.29081 22.0044 6.50022 22.0033 6.67995 21.9966C6.85968 21.99 6.94172 21.9689 7.08043 21.9196C7.21914 21.8704 7.40859 21.754 7.54406 21.5513C7.67953 21.3486 7.70488 20.9753 7.70488 20.9753L7.72 20.5721L6.29081 22.0044ZM6.29081 19.1399L4.86 20.5721L6.29081 22.0044L7.72 20.5721L6.29081 19.1399Z" fill="#0047BB"/>
<path d="M19.14 12.0021L19.1551 12.4053C19.1551 12.4053 19.1805 12.7786 19.316 12.9813C19.4514 13.184 19.6414 13.3008 19.7796 13.3496C19.9183 13.3989 20.0003 13.4194 20.1801 13.4266C20.3598 13.4338 20.5692 13.4343 20.5692 13.4343L19.14 12.0021ZM20.5692 10.5698C20.5692 10.5698 20.7786 10.5709 20.9584 10.5776C21.1381 10.5842 21.2201 10.6053 21.3588 10.6546C21.4976 10.7039 21.687 10.8202 21.823 11.0229C21.959 11.2256 21.9838 11.5989 21.9838 11.5989L22 12.0026L20.5692 13.4343C20.5692 13.4343 20.7792 13.4332 20.9589 13.4266C21.1386 13.4199 21.2207 13.3989 21.3594 13.3496C21.4981 13.3003 21.6875 13.184 21.8235 12.9813C21.9595 12.7786 21.9844 12.4053 21.9844 12.4053L22 12.0026L20.5692 10.5698ZM20.5692 10.5698C20.5692 10.5698 20.3598 10.5709 20.1801 10.5776C20.0003 10.5842 19.9183 10.6053 19.7796 10.6546C19.6409 10.7039 19.4514 10.8202 19.316 11.0229C19.1805 11.2256 19.1551 11.5989 19.1551 11.5989L19.14 12.0021L20.5692 10.5698ZM20.5692 13.4343L22 12.0026L20.5692 10.5698L19.14 12.0021L20.5692 13.4343Z" fill="#0047BB"/>
<path d="M16.28 12.0021L16.2951 12.4053C16.2951 12.4053 16.3205 12.7786 16.456 12.9813C16.5914 13.184 16.7814 13.3008 16.9196 13.3496C17.0583 13.3989 17.1403 13.4194 17.3201 13.4266C17.4998 13.4338 17.7092 13.4343 17.7092 13.4343L16.28 12.0021ZM17.7092 10.5698C17.7092 10.5698 17.9186 10.5709 18.0984 10.5776C18.2781 10.5842 18.3601 10.6053 18.4988 10.6546C18.6376 10.7039 18.827 10.8202 18.963 11.0229C19.099 11.2256 19.1238 11.5989 19.1238 11.5989L19.14 12.0021L17.7092 13.4343C17.7092 13.4343 17.9192 13.4332 18.0989 13.4266C18.2786 13.4199 18.3607 13.3989 18.4994 13.3496C18.6381 13.3003 18.8275 13.184 18.9635 12.9813C19.0995 12.7786 19.1244 12.4053 19.1244 12.4053L19.14 12.0021L17.7092 10.5698ZM17.7092 10.5698C17.7092 10.5698 17.4998 10.5709 17.3201 10.5776C17.1403 10.5842 17.0583 10.6053 16.9196 10.6546C16.7809 10.7039 16.5914 10.8202 16.456 11.0229C16.3205 11.2256 16.2951 11.5989 16.2951 11.5989L16.28 12.0021L17.7092 10.5698ZM17.7092 13.4343L19.14 12.0021L17.7092 10.5698L16.28 12.0021L17.7092 13.4343Z" fill="#0047BB"/>
<path d="M12 12.0021L12.0151 12.4053C12.0151 12.4053 12.0405 12.7786 12.1759 12.9813C12.3114 13.184 12.5014 13.3008 12.6396 13.3496C12.7783 13.3989 12.8603 13.4194 13.04 13.4266C13.2198 13.4338 13.4292 13.4343 13.4292 13.4343L12 12.0021ZM13.4292 10.5698C13.4292 10.5698 13.6386 10.5709 13.8183 10.5776C13.9981 10.5842 14.0801 10.6053 14.2188 10.6546C14.3575 10.7039 14.547 10.8202 14.683 11.0229C14.819 11.2256 14.8438 11.5989 14.8438 11.5989L14.86 12.0026L13.4292 13.4343C13.4292 13.4343 13.6391 13.4332 13.8189 13.4266C13.9986 13.4199 14.0806 13.3989 14.2193 13.3496C14.3581 13.3003 14.5475 13.184 14.6835 12.9813C14.8195 12.7786 14.8444 12.4053 14.8444 12.4053L14.86 12.0026L13.4292 10.5698ZM13.4292 10.5698C13.4292 10.5698 13.2198 10.5709 13.04 10.5776C12.8603 10.5842 12.7783 10.6053 12.6396 10.6546C12.5009 10.7039 12.3114 10.8202 12.1759 11.0229C12.0405 11.2256 12.0151 11.5989 12.0151 11.5989L12 12.0021L13.4292 10.5698ZM13.4292 13.4343L14.86 12.0026L13.4292 10.5698L12 12.0021L13.4292 13.4343Z" fill="#0047BB"/>
<path d="M9.14 12.0021L9.15512 12.4053C9.15512 12.4053 9.18047 12.7786 9.31594 12.9813C9.45141 13.184 9.6414 13.3008 9.77957 13.3496C9.91828 13.3989 10.0003 13.4194 10.18 13.4266C10.3598 13.4338 10.5692 13.4343 10.5692 13.4343L9.14 12.0021ZM10.5692 10.5698C10.5692 10.5698 10.7786 10.5709 10.9583 10.5776C11.1381 10.5842 11.2201 10.6053 11.3588 10.6546C11.4975 10.7039 11.687 10.8202 11.823 11.0229C11.959 11.2256 11.9838 11.5989 11.9838 11.5989L12 12.0021L10.5692 13.4343C10.5692 13.4343 10.7791 13.4332 10.9589 13.4266C11.1386 13.4199 11.2206 13.3989 11.3593 13.3496C11.4981 13.3003 11.6875 13.184 11.8235 12.9813C11.9595 12.7786 11.9844 12.4053 11.9844 12.4053L12 12.0021L10.5692 10.5698ZM10.5692 10.5698C10.5692 10.5698 10.3598 10.5709 10.18 10.5776C10.0003 10.5842 9.91828 10.6053 9.77957 10.6546C9.64086 10.7039 9.45141 10.8202 9.31594 11.0229C9.18047 11.2256 9.15512 11.5989 9.15512 11.5989L9.14 12.0021L10.5692 10.5698ZM10.5692 13.4343L12 12.0021L10.5692 10.5698L9.14 12.0021L10.5692 13.4343Z" fill="#0047BB"/>
<path d="M4.86 12.0021L4.84488 11.5989C4.84488 11.5989 4.81953 11.2256 4.68406 11.0229C4.54859 10.8202 4.3586 10.7033 4.22043 10.6546C4.08172 10.6053 3.99968 10.5848 3.81995 10.5776C3.64022 10.5704 3.43081 10.5698 3.43081 10.5698L4.86 12.0021ZM3.43081 13.4343C3.43081 13.4343 3.22139 13.4332 3.04166 13.4266C2.86193 13.4199 2.77989 13.3989 2.64119 13.3496C2.50248 13.3003 2.31304 13.184 2.17703 12.9813C2.04102 12.7786 2.01621 12.4053 2.01621 12.4053L2 12.0015L3.43081 10.5698C3.43081 10.5698 3.22086 10.5709 3.04113 10.5776C2.86141 10.5842 2.77937 10.6053 2.64066 10.6546C2.50195 10.7039 2.31251 10.8202 2.1765 11.0229C2.04049 11.2256 2.01565 11.5989 2.01565 11.5989L2 12.0015L3.43081 13.4343ZM3.43081 13.4343C3.43081 13.4343 3.64022 13.4332 3.81995 13.4266C3.99968 13.4199 4.08172 13.3989 4.22043 13.3496C4.35914 13.3003 4.54859 13.184 4.68406 12.9813C4.81953 12.7786 4.84488 12.4053 4.84488 12.4053L4.86 12.0021L3.43081 13.4343ZM3.43081 10.5698L2 12.0015L3.43081 13.4343L4.86 12.0021L3.43081 10.5698Z" fill="#0047BB"/>
<path d="M7.72 12.0021L7.70488 11.5989C7.70488 11.5989 7.67953 11.2256 7.54406 11.0229C7.40859 10.8202 7.2186 10.7033 7.08043 10.6546C6.94172 10.6053 6.85968 10.5848 6.67995 10.5776C6.50022 10.5704 6.29081 10.5698 6.29081 10.5698L7.72 12.0021ZM6.29081 13.4343C6.29081 13.4343 6.08139 13.4332 5.90166 13.4266C5.72194 13.4199 5.63989 13.3989 5.50119 13.3496C5.36248 13.3003 5.17304 13.184 5.03703 12.9813C4.90102 12.7786 4.87621 12.4053 4.87621 12.4053L4.86 12.0021L6.29081 10.5698C6.29081 10.5698 6.08086 10.5709 5.90114 10.5776C5.72141 10.5842 5.63937 10.6053 5.50066 10.6546C5.36195 10.7039 5.17251 10.8202 5.0365 11.0229C4.90049 11.2256 4.87565 11.5989 4.87565 11.5989L4.86 12.0021L6.29081 13.4343ZM6.29081 13.4343C6.29081 13.4343 6.50022 13.4332 6.67995 13.4266C6.85968 13.4199 6.94172 13.3989 7.08043 13.3496C7.21914 13.3003 7.40859 13.184 7.54406 12.9813C7.67953 12.7786 7.70488 12.4053 7.70488 12.4053L7.72 12.0021L6.29081 13.4343ZM6.29081 10.5698L4.86 12.0021L6.29081 13.4343L7.72 12.0021L6.29081 10.5698Z" fill="#0047BB"/>
<path d="M19.14 3.43226L19.1551 3.83545C19.1551 3.83545 19.1805 4.20873 19.316 4.41144C19.4514 4.61415 19.6414 4.73101 19.7796 4.77975C19.9183 4.82904 20.0003 4.84954 20.1801 4.85674C20.3598 4.86394 20.5692 4.8645 20.5692 4.8645L19.14 3.43226ZM20.5692 2C20.5692 2 20.7786 2.00111 20.9584 2.00776C21.1381 2.01441 21.2201 2.03545 21.3588 2.08475C21.4976 2.13404 21.687 2.25035 21.823 2.45306C21.959 2.65577 21.9838 3.02904 21.9838 3.02904L22 3.4328L20.5692 4.8645C20.5692 4.8645 20.7792 4.86339 20.9589 4.85674C21.1386 4.85009 21.2207 4.82904 21.3594 4.77975C21.4981 4.73046 21.6875 4.61415 21.8235 4.41144C21.9595 4.20873 21.9844 3.83545 21.9844 3.83545L22 3.4328L20.5692 2ZM20.5692 2C20.5692 2 20.3598 2.00111 20.1801 2.00776C20.0003 2.01441 19.9183 2.03545 19.7796 2.08475C19.6409 2.13404 19.4514 2.25035 19.316 2.45306C19.1805 2.65577 19.1551 3.02904 19.1551 3.02904L19.14 3.43226L20.5692 2ZM20.5692 4.8645L22 3.4328L20.5692 2L19.14 3.43226L20.5692 4.8645Z" fill="#0047BB"/>
<path d="M16.28 3.43226L16.2951 3.83545C16.2951 3.83545 16.3205 4.20873 16.456 4.41144C16.5914 4.61415 16.7814 4.73101 16.9196 4.77975C17.0583 4.82904 17.1403 4.84954 17.3201 4.85674C17.4998 4.86394 17.7092 4.8645 17.7092 4.8645L16.28 3.43226ZM17.7092 2C17.7092 2 17.9186 2.00111 18.0984 2.00776C18.2781 2.0144 18.3601 2.03545 18.4988 2.08475C18.6376 2.13404 18.827 2.25035 18.963 2.45306C19.099 2.65577 19.1238 3.02904 19.1238 3.02904L19.14 3.43226L17.7092 4.8645C17.7092 4.8645 17.9192 4.86339 18.0989 4.85674C18.2786 4.85009 18.3607 4.82904 18.4994 4.77975C18.6381 4.73046 18.8275 4.61415 18.9635 4.41144C19.0995 4.20873 19.1244 3.83545 19.1244 3.83545L19.14 3.43226L17.7092 2ZM17.7092 2C17.7092 2 17.4998 2.00111 17.3201 2.00776C17.1403 2.0144 17.0583 2.03545 16.9196 2.08475C16.7809 2.13404 16.5914 2.25035 16.456 2.45306C16.3205 2.65577 16.2951 3.02904 16.2951 3.02904L16.28 3.43226L17.7092 2ZM17.7092 4.8645L19.14 3.43226L17.7092 2L16.28 3.43226L17.7092 4.8645Z" fill="#0047BB"/>
<path d="M12 3.43226L12.0151 3.83546C12.0151 3.83546 12.0405 4.20874 12.1759 4.41144C12.3114 4.61415 12.5014 4.73102 12.6396 4.77976C12.7783 4.82905 12.8603 4.84954 13.04 4.85674C13.2198 4.86394 13.4292 4.8645 13.4292 4.8645L12 3.43226ZM13.4292 2C13.4292 2 13.6386 2.00112 13.8183 2.00776C13.9981 2.01441 14.0801 2.03546 14.2188 2.08475C14.3575 2.13404 14.547 2.25036 14.683 2.45306C14.819 2.65577 14.8438 3.02905 14.8438 3.02905L14.86 3.4328L13.4292 4.8645C13.4292 4.8645 13.6391 4.86339 13.8189 4.85674C13.9986 4.8501 14.0806 4.82905 14.2193 4.77976C14.3581 4.73046 14.5475 4.61415 14.6835 4.41144C14.8195 4.20874 14.8444 3.83546 14.8444 3.83546L14.86 3.4328L13.4292 2ZM13.4292 2C13.4292 2 13.2198 2.00112 13.04 2.00776C12.8603 2.01441 12.7783 2.03546 12.6396 2.08475C12.5009 2.13404 12.3114 2.25036 12.1759 2.45306C12.0405 2.65577 12.0151 3.02905 12.0151 3.02905L12 3.43226L13.4292 2ZM13.4292 4.8645L14.86 3.4328L13.4292 2L12 3.43226L13.4292 4.8645Z" fill="#0047BB"/>
<path d="M9.14 3.43226L9.15512 3.83546C9.15512 3.83546 9.18047 4.20874 9.31594 4.41144C9.45141 4.61415 9.6414 4.73102 9.77957 4.77976C9.91828 4.82905 10.0003 4.84954 10.18 4.85674C10.3598 4.86394 10.5692 4.8645 10.5692 4.8645L9.14 3.43226ZM10.5692 2C10.5692 2 10.7786 2.00112 10.9583 2.00776C11.1381 2.01441 11.2201 2.03546 11.3588 2.08475C11.4975 2.13404 11.687 2.25036 11.823 2.45306C11.959 2.65577 11.9838 3.02905 11.9838 3.02905L12 3.43226L10.5692 4.8645C10.5692 4.8645 10.7791 4.86339 10.9589 4.85674C11.1386 4.8501 11.2206 4.82905 11.3593 4.77976C11.4981 4.73046 11.6875 4.61415 11.8235 4.41144C11.9595 4.20874 11.9844 3.83546 11.9844 3.83546L12 3.43226L10.5692 2ZM10.5692 2C10.5692 2 10.3598 2.00112 10.18 2.00776C10.0003 2.01441 9.91828 2.03546 9.77957 2.08475C9.64086 2.13404 9.45141 2.25036 9.31594 2.45306C9.18047 2.65577 9.15512 3.02905 9.15512 3.02905L9.14 3.43226L10.5692 2ZM10.5692 4.8645L12 3.43226L10.5692 2L9.14 3.43226L10.5692 4.8645Z" fill="#0047BB"/>
<path d="M4.86 3.43224L4.84488 3.02904C4.84488 3.02904 4.81953 2.65577 4.68406 2.45306C4.54859 2.25035 4.3586 2.13348 4.22043 2.08475C4.08172 2.03545 3.99968 2.01496 3.81995 2.00776C3.64022 2.00056 3.43081 2 3.43081 2L4.86 3.43224ZM3.43081 4.8645C3.43081 4.8645 3.22139 4.86339 3.04166 4.85674C2.86193 4.85009 2.77989 4.82904 2.64119 4.77975C2.50248 4.73046 2.31304 4.61415 2.17703 4.41144C2.04102 4.20873 2.01621 3.83545 2.01621 3.83545L2 3.4317L3.43081 2C3.43081 2 3.22086 2.00111 3.04113 2.00776C2.86141 2.0144 2.77937 2.03545 2.64066 2.08475C2.50195 2.13404 2.31251 2.25035 2.1765 2.45306C2.04049 2.65577 2.01565 3.02904 2.01565 3.02904L2 3.4317L3.43081 4.8645ZM3.43081 4.8645C3.43081 4.8645 3.64022 4.86339 3.81995 4.85674C3.99968 4.85009 4.08172 4.82904 4.22043 4.77975C4.35914 4.73046 4.54859 4.61415 4.68406 4.41144C4.81953 4.20873 4.84488 3.83545 4.84488 3.83545L4.86 3.43224L3.43081 4.8645ZM3.43081 2L2 3.4317L3.43081 4.8645L4.86 3.43224L3.43081 2Z" fill="#0047BB"/>
<path d="M7.72 3.43224L7.70488 3.02904C7.70488 3.02904 7.67953 2.65577 7.54406 2.45306C7.40859 2.25035 7.2186 2.13348 7.08043 2.08475C6.94172 2.03545 6.85968 2.01496 6.67995 2.00776C6.50022 2.00056 6.29081 2 6.29081 2L7.72 3.43224ZM6.29081 4.8645C6.29081 4.8645 6.08139 4.86339 5.90166 4.85674C5.72194 4.85009 5.63989 4.82904 5.50119 4.77975C5.36248 4.73046 5.17304 4.61415 5.03703 4.41144C4.90102 4.20873 4.87621 3.83545 4.87621 3.83545L4.86 3.43224L6.29081 2C6.29081 2 6.08086 2.00111 5.90114 2.00776C5.72141 2.0144 5.63937 2.03545 5.50066 2.08475C5.36195 2.13404 5.17251 2.25035 5.0365 2.45306C4.90049 2.65577 4.87565 3.02904 4.87565 3.02904L4.86 3.43224L6.29081 4.8645ZM6.29081 4.8645C6.29081 4.8645 6.50022 4.86339 6.67995 4.85674C6.85968 4.85009 6.94172 4.82904 7.08043 4.77975C7.21914 4.73046 7.40859 4.61415 7.54406 4.41144C7.67953 4.20873 7.70488 3.83545 7.70488 3.83545L7.72 3.43224L6.29081 4.8645ZM6.29081 2L4.86 3.43224L6.29081 4.8645L7.72 3.43224L6.29081 2Z" fill="#0047BB"/>
</svg>
