<svg width="16" height="16" viewBox="0 0 16 16" fill="none" xmlns="http://www.w3.org/2000/svg">
<path d="M8.12099 0L3.87158 2.45073L5.43387 3.3561L8.12099 1.81073L10.8082 3.3561L12.3704 2.45073L8.12099 0Z" fill="#F0B90B"/>
<path d="M10.8082 4.63672L12.3704 5.54212V7.35284L9.68331 8.8982V11.9889L8.12099 12.8943L6.55871 11.9889V8.8982L3.87158 7.35284V5.54212L5.43387 4.63672L8.12099 6.18212L10.8082 4.63672Z" fill="#F0B90B"/>
<path d="M12.3704 8.63281V10.4435L10.8081 11.3489V9.53817L12.3704 8.63281Z" fill="#F0B90B"/>
<path d="M10.7925 12.6284L13.4796 11.083V7.99227L15.0419 7.08691V11.9884L10.7925 14.4391V12.6284Z" fill="#F0B90B"/>
<path d="M13.4798 4.90157L11.9175 3.99619L13.4798 3.09082L15.0421 3.99619V5.80693L13.4798 6.71229V4.90157Z" fill="#F0B90B"/>
<path d="M6.55884 15.0949V13.2842L8.12112 14.1895L9.68344 13.2842V15.0949L8.12112 16.0003L6.55884 15.0949Z" fill="#F0B90B"/>
<path d="M5.43387 11.3489L3.87158 10.4435V8.63281L5.43387 9.53817V11.3489Z" fill="#F0B90B"/>
<path d="M8.12112 4.90157L6.55884 3.99619L8.12112 3.09082L9.68344 3.99619L8.12112 4.90157Z" fill="#F0B90B"/>
<path d="M4.32479 3.99619L2.76249 4.90157V6.71229L1.2002 5.80693V3.99619L2.76249 3.09082L4.32479 3.99619Z" fill="#F0B90B"/>
<path d="M1.2002 7.08691L2.76249 7.99227V11.083L5.44963 12.6284V14.4391L1.2002 11.9884V7.08691Z" fill="#F0B90B"/>
</svg>
