<svg width="16" height="16" viewBox="0 0 16 16" fill="none" xmlns="http://www.w3.org/2000/svg">
<path d="M8 16C12.4183 16 16 12.4183 16 8C16 3.58172 12.4183 0 8 0C3.58172 0 0 3.58172 0 8C0 12.4183 3.58172 16 8 16Z" fill="#627EEA"/>
<path d="M8 2.00391V6.45391L11.75 8.10391L8 2.00391Z" fill="#C0CCF7"/>
<path d="M8 2.00391L4.25 8.10391L8 6.45391V2.00391Z" fill="white"/>
<path d="M8 6.43945L4.25 8.08945L8 10.2895V6.43945Z" fill="#C0CCF7"/>
<path d="M8 6.43945V10.2895L11.75 8.08945L8 6.43945Z" fill="#8198EE"/>
<path d="M8 14.0037V11.0037L4.25 8.80371L8 14.0037Z" fill="white"/>
<path d="M8 11.0037V14.0037L11.75 8.80371L8 11.0037Z" fill="#C0CCF7"/>
</svg>
