<svg width="16" height="16" viewBox="0 0 16 16" fill="none" xmlns="http://www.w3.org/2000/svg">
<path d="M15.4894 6.97118L15.0644 6.26803L12.7379 2.40596H12.7273L12.653 2.26953H11.8031L8.49927 8.01016L11.8562 13.7193H12.7061L12.7273 13.6878L15.5 8.99667H13.7896L12.313 11.5889L10.2096 7.99967L12.2705 4.41046L13.7684 6.96069L15.4894 6.97118Z" fill="#41E6AF"/>
<path d="M2.56091 6.03748L4.1119 3.42429L3.59136 2.5952L3.23017 2.0075L0.574363 6.63568L0.5 6.76162L0.924929 7.49625H7.60694L10.9745 1.7976L10.5071 1L5.83286 1.01049H5.7585L5.01487 1L5.40793 1.73463L5.80099 2.46927L8.86048 2.45877L6.75708 6.03748H2.56091Z" fill="#41E6AF"/>
<path d="M5.86467 3.01465C5.74781 3.01465 5.62034 3.03564 5.49286 3.07762C5.35475 3.1196 5.21665 3.18256 5.08917 3.25603C4.72798 3.47642 4.47303 3.79126 4.43053 4.08511C4.40929 4.22155 4.44116 4.33699 4.51552 4.42095C4.52614 4.44194 4.54739 4.45243 4.55801 4.47342C4.56864 4.48391 4.57926 4.48391 4.58988 4.49441C4.60051 4.5049 4.60051 4.5049 4.61113 4.5154C4.63238 4.52589 4.643 4.53639 4.66424 4.54688C4.88733 4.65183 5.2379 4.63084 5.57784 4.47342L5.58847 4.46292C5.62034 4.45243 5.65221 4.43144 5.68407 4.42095C5.71594 4.41045 5.73719 4.38946 5.76906 4.36847C5.80093 4.34748 5.8328 4.32649 5.86467 4.3055C5.89654 4.28451 5.91779 4.26352 5.94966 4.24253L5.9709 4.23204C5.99215 4.21105 6.01339 4.20056 6.03464 4.17957C6.04526 4.16907 6.04526 4.16907 6.05589 4.15858C6.07713 4.14808 6.08776 4.12709 6.09838 4.1166C6.109 4.1061 6.11963 4.09561 6.13025 4.07462C6.14087 4.05363 6.16212 4.04313 6.17274 4.02214C6.18337 4.01165 6.18337 4.01165 6.19399 4.00116C6.20461 3.98017 6.22586 3.96967 6.23648 3.94868L6.25773 3.92769C6.26835 3.9067 6.27898 3.89621 6.2896 3.87522C6.2896 3.87522 6.2896 3.87522 6.2896 3.86472L6.30022 3.84373C6.32147 3.82274 6.33209 3.79126 6.34272 3.77027C6.35334 3.74928 6.36396 3.7178 6.37458 3.69681L6.38521 3.68631C6.38521 3.67582 6.39583 3.66532 6.39583 3.66532C6.39583 3.65483 6.39583 3.65483 6.40645 3.64433C6.40645 3.62334 6.41708 3.61285 6.41708 3.59186C6.41708 3.57087 6.4277 3.57087 6.4277 3.56038C6.4277 3.54988 6.4277 3.53939 6.4277 3.53939C6.4277 3.5184 6.4277 3.5079 6.4277 3.49741V3.47642C6.4277 3.45543 6.4277 3.44493 6.4277 3.42394C6.4277 3.41345 6.4277 3.41345 6.4277 3.40295C6.4277 3.39246 6.4277 3.38196 6.4277 3.38196C6.4277 3.37147 6.4277 3.37147 6.4277 3.36098V3.35048C6.4277 3.32949 6.41708 3.319 6.40645 3.29801C6.39583 3.27702 6.38521 3.26652 6.37458 3.24553C6.30022 3.08811 6.09838 3.01465 5.86467 3.01465Z" fill="#41E6AF"/>
<path d="M6.6402 3.78146C6.6402 3.80245 6.62958 3.81294 6.61896 3.83393C6.61896 3.84443 6.61896 3.84443 6.60833 3.85492C6.59771 3.88641 6.58709 3.90739 6.56584 3.93888C6.44898 4.15927 6.25777 4.36916 6.02406 4.53708C5.99219 4.55807 5.96032 4.57906 5.92845 4.60005C5.89658 4.62104 5.86471 4.64203 5.83284 4.65252H5.82221C5.81159 4.66302 5.80097 4.66302 5.79034 4.67351C5.7691 4.68401 5.75847 4.6945 5.73723 4.705H5.7266C5.71598 4.705 5.70536 4.71549 5.69474 4.71549C5.67349 4.72599 5.65224 4.73648 5.631 4.73648L5.60975 4.74697C5.60975 4.74697 5.60975 4.74697 5.59913 4.74697C5.5885 4.74697 5.57788 4.75747 5.56726 4.75747C5.54601 4.76796 5.52476 4.76796 5.50352 4.77846L5.48227 4.78895H5.47165C5.4504 4.79945 5.42915 4.79945 5.40791 4.80994C5.39728 4.80994 5.38666 4.82044 5.36541 4.82044H5.35479C5.33355 4.82044 5.3123 4.83093 5.30168 4.83093C5.29105 4.83093 5.26981 4.83093 5.25918 4.84143H5.24856C5.23794 4.84143 5.22731 4.84143 5.21669 4.85192C5.20607 4.85192 5.19544 4.85192 5.18482 4.85192C5.15295 4.85192 5.11046 4.86242 5.07859 4.86242H5.06796C5.03609 4.86242 5.00422 4.86242 4.97236 4.86242C4.96173 4.86242 4.95111 4.86242 4.95111 4.86242H4.94049C4.91924 4.86242 4.89799 4.86242 4.87675 4.85192C4.86612 4.85192 4.8555 4.85192 4.84488 4.84143C4.82363 4.84143 4.80238 4.83093 4.78114 4.83093C4.77051 4.83093 4.75989 4.82044 4.74927 4.82044L5.33355 5.75447L6.58709 5.74398L7.2351 4.61054L6.65083 3.66602C6.65083 3.67651 6.65083 3.68701 6.6402 3.6975C6.6402 3.70799 6.6402 3.70799 6.6402 3.71849C6.6402 3.72898 6.62958 3.73948 6.62958 3.76047C6.6402 3.77096 6.6402 3.78146 6.6402 3.78146Z" fill="#41E6AF"/>
<path d="M13.3011 7.19143C13.3649 7.28588 13.4073 7.40132 13.4392 7.53775C13.4711 7.67419 13.4923 7.82111 13.4923 7.96804C13.4923 8.38783 13.3542 8.76564 13.1205 8.95454C13.0143 9.0385 12.8974 9.08048 12.7806 9.05949C12.7593 9.05949 12.7381 9.049 12.7168 9.049C12.7062 9.049 12.6956 9.0385 12.685 9.0385C12.6743 9.0385 12.6637 9.02801 12.6531 9.02801C12.6318 9.01751 12.6106 9.00702 12.6 8.99652C12.3875 8.86009 12.2282 8.55574 12.1857 8.18843V8.17793C12.1857 8.14645 12.175 8.11496 12.175 8.07299C12.175 8.0415 12.175 8.01002 12.175 7.97853C12.175 7.93655 12.175 7.90507 12.175 7.86309C12.175 7.83161 12.175 7.80012 12.1857 7.76864V7.74765C12.1857 7.72666 12.1963 7.69518 12.1963 7.67419C12.1963 7.66369 12.1963 7.6532 12.1963 7.6427C12.1963 7.62171 12.2069 7.60072 12.2069 7.57973C12.2069 7.55874 12.2175 7.54825 12.2175 7.52726C12.2282 7.50627 12.2282 7.48528 12.2388 7.46429C12.2388 7.4538 12.2494 7.4433 12.2494 7.43281C12.26 7.41182 12.26 7.39083 12.2707 7.36984L12.2813 7.33835C12.2919 7.31736 12.3025 7.30687 12.3025 7.28588C12.3025 7.28588 12.3025 7.28588 12.3025 7.27539L12.3132 7.2544C12.3238 7.22291 12.345 7.20192 12.3556 7.18093C12.3663 7.15994 12.3875 7.13895 12.3981 7.11796L12.4088 7.10747C12.4194 7.09697 12.4194 7.09698 12.43 7.08648C12.4406 7.07599 12.4406 7.07599 12.4406 7.06549C12.4513 7.055 12.4619 7.0445 12.4725 7.03401C12.4831 7.02351 12.4937 7.01302 12.4937 7.01302C12.5044 7.00252 12.5044 7.00252 12.515 6.99203C12.5256 6.98153 12.5362 6.97104 12.5469 6.96054L12.5681 6.95005C12.5787 6.93955 12.6 6.92906 12.6106 6.91856C12.6212 6.91856 12.6212 6.91856 12.6318 6.90807C12.6425 6.90807 12.6531 6.89757 12.6531 6.89757C12.6531 6.89757 12.6637 6.89757 12.6637 6.88708H12.6743C12.6956 6.88708 12.7062 6.87659 12.7275 6.87659C12.7487 6.87659 12.7699 6.87659 12.7912 6.87659C13.0143 6.86609 13.1736 6.99203 13.3011 7.19143Z" fill="#41E6AF"/>
<path d="M12.228 6.93967C12.2174 6.95017 12.2068 6.97116 12.1962 6.98165C12.1962 6.99215 12.1855 6.99215 12.1855 7.00264C12.1643 7.02363 12.1537 7.05512 12.1324 7.07611C11.9943 7.286 11.92 7.55887 11.8987 7.84222C11.8987 7.8842 11.8987 7.91569 11.8987 7.95767C11.8987 7.98915 11.8987 8.03113 11.8987 8.06261V8.07311C11.8987 8.0836 11.8987 8.10459 11.8987 8.11509C11.8987 8.13608 11.8987 8.15707 11.9093 8.17806V8.18855C11.9093 8.19905 11.9093 8.20954 11.9093 8.22003C11.9093 8.24102 11.92 8.26201 11.92 8.283V8.30399C11.92 8.30399 11.92 8.30399 11.92 8.31449C11.92 8.32498 11.92 8.33548 11.9306 8.34597C11.9306 8.36696 11.9412 8.38795 11.9412 8.40894L11.9518 8.42993V8.44042C11.9518 8.46141 11.9625 8.4824 11.9731 8.50339C11.9731 8.51389 11.9837 8.52438 11.9837 8.53488V8.54537C11.9943 8.56636 11.9943 8.57686 12.0049 8.59785C12.0049 8.60834 12.0156 8.61884 12.0262 8.63982V8.65032C12.0262 8.66081 12.0368 8.67131 12.0368 8.6818C12.0474 8.6923 12.0474 8.70279 12.0474 8.70279C12.0581 8.73428 12.0793 8.76576 12.1006 8.79725L12.1112 8.80774C12.1324 8.83923 12.143 8.86022 12.1643 8.8812C12.1643 8.8917 12.1749 8.8917 12.1749 8.90219L12.1855 8.91269C12.1962 8.93368 12.2174 8.94417 12.228 8.96516C12.2387 8.97566 12.2387 8.98615 12.2493 8.98615C12.2705 9.00714 12.2811 9.01764 12.2918 9.03863C12.3024 9.04912 12.313 9.04912 12.313 9.05962H11.1976L10.5496 7.99964L11.187 6.86621H12.3024C12.2918 6.87671 12.2918 6.87671 12.2811 6.8872L12.2705 6.8977C12.2599 6.90819 12.2493 6.91869 12.228 6.93967C12.228 6.93967 12.2387 6.93967 12.228 6.93967Z" fill="#41E6AF"/>
<path d="M5.86467 12.974C5.74781 12.974 5.62034 12.953 5.49286 12.9111C5.35475 12.8691 5.21665 12.8061 5.08917 12.7327C4.72798 12.5123 4.47303 12.1974 4.43053 11.9036C4.40929 11.7671 4.44116 11.6517 4.51552 11.5677C4.52614 11.5468 4.54739 11.5363 4.55801 11.5153C4.56864 11.5048 4.57926 11.5048 4.58988 11.4943C4.60051 11.4838 4.60051 11.4838 4.61113 11.4733C4.63238 11.4628 4.643 11.4523 4.66424 11.4418C4.88733 11.3369 5.2379 11.3578 5.57784 11.5153L5.58847 11.5258C5.62034 11.5363 5.65221 11.5572 5.68407 11.5677C5.71594 11.5782 5.73719 11.5992 5.76906 11.6202C5.80093 11.6412 5.8328 11.6622 5.86467 11.6832C5.89654 11.7042 5.91779 11.7252 5.94966 11.7462L5.9709 11.7566C5.99215 11.7776 6.01339 11.7881 6.03464 11.8091C6.04526 11.8196 6.04526 11.8196 6.05589 11.8301C6.07713 11.8406 6.08776 11.8616 6.09838 11.8721C6.109 11.8826 6.11963 11.8931 6.13025 11.9141C6.14087 11.9351 6.16212 11.9456 6.17274 11.9665C6.18337 11.977 6.18337 11.977 6.19399 11.9875C6.20461 12.0085 6.22586 12.019 6.23648 12.04L6.25773 12.061C6.26835 12.082 6.27898 12.0925 6.2896 12.1135V12.124L6.30022 12.145C6.32147 12.1659 6.33209 12.1974 6.34272 12.2184C6.35334 12.2394 6.36396 12.2709 6.37458 12.2919L6.38521 12.3024C6.38521 12.3129 6.39583 12.3234 6.39583 12.3234C6.39583 12.3339 6.39583 12.3339 6.40645 12.3444C6.40645 12.3653 6.41708 12.3758 6.41708 12.3968C6.41708 12.4178 6.4277 12.4178 6.4277 12.4283C6.4277 12.4388 6.4277 12.4493 6.4277 12.4493C6.4277 12.4703 6.4277 12.4808 6.4277 12.4913V12.5123C6.4277 12.5333 6.4277 12.5438 6.4277 12.5647C6.4277 12.5752 6.4277 12.5752 6.4277 12.5857C6.4277 12.5962 6.4277 12.6067 6.4277 12.6067C6.4277 12.6172 6.4277 12.6172 6.4277 12.6277V12.6382C6.4277 12.6592 6.41708 12.6697 6.40645 12.6907C6.39583 12.7117 6.38521 12.7222 6.37458 12.7432C6.30022 12.9006 6.09838 12.9845 5.86467 12.974Z" fill="#41E6AF"/>
<path d="M6.6402 12.2084C6.6402 12.1874 6.62958 12.1769 6.61896 12.1559C6.61896 12.1454 6.61896 12.1454 6.60833 12.1349C6.59771 12.1034 6.58709 12.0824 6.56584 12.0509C6.44898 11.8306 6.25777 11.6207 6.02406 11.4527C5.99219 11.4318 5.96032 11.4108 5.92845 11.3898C5.89658 11.3688 5.86471 11.3478 5.83284 11.3373H5.82221C5.81159 11.3268 5.80097 11.3268 5.79034 11.3163C5.7691 11.3058 5.75847 11.2953 5.73723 11.2848H5.7266C5.71598 11.2848 5.70536 11.2743 5.69474 11.2743C5.67349 11.2638 5.65224 11.2533 5.631 11.2533L5.60975 11.2428C5.60975 11.2428 5.60975 11.2428 5.59913 11.2428C5.5885 11.2428 5.57788 11.2324 5.56726 11.2324C5.54601 11.2219 5.52476 11.2219 5.50352 11.2114L5.48227 11.2009H5.47165C5.4504 11.1904 5.42915 11.1904 5.40791 11.1799C5.39728 11.1799 5.38666 11.1694 5.36541 11.1694H5.35479C5.33355 11.1694 5.3123 11.1589 5.30168 11.1589C5.29105 11.1589 5.26981 11.1589 5.25918 11.1484H5.24856C5.23794 11.1484 5.22731 11.1484 5.21669 11.1379C5.20607 11.1379 5.19544 11.1379 5.18482 11.1379C5.15295 11.1379 5.11046 11.1274 5.07859 11.1274H5.06796C5.03609 11.1274 5.00422 11.1274 4.97236 11.1274C4.96173 11.1274 4.95111 11.1274 4.95111 11.1274H4.94049C4.91924 11.1274 4.89799 11.1274 4.87675 11.1379C4.86612 11.1379 4.8555 11.1379 4.84488 11.1484C4.82363 11.1484 4.80238 11.1589 4.78114 11.1589C4.77051 11.1589 4.75989 11.1694 4.74927 11.1694L5.33355 10.2354L6.58709 10.2458L7.2351 11.3793L6.65083 12.3238C6.65083 12.3133 6.65083 12.3028 6.6402 12.2923C6.6402 12.2818 6.6402 12.2818 6.6402 12.2713C6.6402 12.2608 6.62958 12.2503 6.62958 12.2294C6.6402 12.2189 6.6402 12.2084 6.6402 12.2084Z" fill="#41E6AF"/>
<path d="M8.86048 13.5306L5.80099 13.5202L5.33357 14.3912L5.01487 14.9894L5.83286 14.9789V14.9894L10.5071 14.9999L10.9745 14.2023L7.60694 8.50366L0.924929 8.49316L0.5 9.2278L0.584986 9.36423H0.574363L3.23017 13.9819L4.1119 12.5651L2.56091 9.96243H6.75708L8.86048 13.5306Z" fill="#41E6AF"/>
</svg>
