<svg width="36" height="36" viewBox="0 0 36 36" fill="none" xmlns="http://www.w3.org/2000/svg">
<path d="M18.0002 34.4994C21.4875 34.4982 24.8848 33.3922 27.7043 31.34C30.5238 29.2878 32.6206 26.395 33.6936 23.0768C34.7667 19.7587 34.7608 16.1859 33.6767 12.8714C32.5927 9.55684 30.4864 6.671 27.6601 4.62815C24.8337 2.5853 21.4328 1.4905 17.9455 1.50093C14.4582 1.51135 11.0639 2.62646 8.24988 4.68617C5.43583 6.74589 3.34676 9.64427 2.28259 12.9652C1.21841 16.2862 1.23385 19.859 2.3267 23.1706C2.38327 23.3639 2.47817 23.5438 2.60574 23.6996C2.73331 23.8555 2.89094 23.9841 3.06925 24.0777C3.24755 24.1713 3.44288 24.2281 3.64359 24.2447C3.84431 24.2613 4.0463 24.2372 4.23754 24.1741C4.42878 24.111 4.60536 24.01 4.75675 23.8772C4.90814 23.7443 5.03125 23.5824 5.11875 23.401C5.20624 23.2196 5.25633 23.0225 5.26603 22.8213C5.27573 22.6201 5.24484 22.4191 5.1752 22.2301C4.28115 19.5205 4.26864 16.5972 5.13946 13.88C6.01027 11.1628 7.71963 8.79138 10.0222 7.10618C12.3247 5.42097 15.1019 4.50865 17.9553 4.50016C20.8086 4.49168 23.5912 5.38748 25.9037 7.05897C28.2162 8.73046 29.9396 11.0917 30.8266 13.8037C31.7135 16.5156 31.7184 19.4389 30.8405 22.1538C29.9626 24.8687 28.247 27.2357 25.9401 28.9148C23.6332 30.594 20.8535 31.4991 18.0002 31.5001C17.7984 31.4923 17.5971 31.5253 17.4083 31.5971C17.2195 31.669 17.0472 31.7782 16.9017 31.9182C16.7561 32.0582 16.6403 32.2262 16.5612 32.412C16.4821 32.5979 16.4413 32.7978 16.4413 32.9997C16.4413 33.2017 16.4821 33.4016 16.5612 33.5874C16.6403 33.7733 16.7561 33.9412 16.9017 34.0813C17.0472 34.2213 17.2195 34.3305 17.4083 34.4023C17.5971 34.4742 17.7984 34.5072 18.0002 34.4994Z" fill="#BFBFBF"/>
</svg>
