<svg width="108" height="108" viewBox="0 0 108 108" fill="none" xmlns="http://www.w3.org/2000/svg">
<g filter="url(#filter0_d)">
<circle cx="54" cy="54" r="44" fill="#0047BB"/>
</g>
<path d="M34.1093 60.8H36.7013V69.888H42.3173V72H34.1093V60.8Z" fill="white"/>
<path d="M47.623 72.128C46.7163 72.128 45.9003 71.9413 45.175 71.568C44.4603 71.184 43.9003 70.656 43.495 69.984C43.0897 69.312 42.887 68.5493 42.887 67.696C42.887 66.8427 43.0897 66.08 43.495 65.408C43.9003 64.736 44.4603 64.2133 45.175 63.84C45.9003 63.456 46.7163 63.264 47.623 63.264C48.5297 63.264 49.3403 63.456 50.055 63.84C50.7697 64.2133 51.3297 64.736 51.735 65.408C52.1403 66.08 52.343 66.8427 52.343 67.696C52.343 68.5493 52.1403 69.312 51.735 69.984C51.3297 70.656 50.7697 71.184 50.055 71.568C49.3403 71.9413 48.5297 72.128 47.623 72.128ZM47.623 70.08C48.263 70.08 48.7857 69.8667 49.191 69.44C49.607 69.0027 49.815 68.4213 49.815 67.696C49.815 66.9707 49.607 66.3947 49.191 65.968C48.7857 65.5307 48.263 65.312 47.623 65.312C46.983 65.312 46.455 65.5307 46.039 65.968C45.623 66.3947 45.415 66.9707 45.415 67.696C45.415 68.4213 45.623 69.0027 46.039 69.44C46.455 69.8667 46.983 70.08 47.623 70.08Z" fill="white"/>
<path d="M59.2434 63.264C60.31 63.264 61.1687 63.584 61.8194 64.224C62.4807 64.864 62.8114 65.8133 62.8114 67.072V72H60.3154V67.456C60.3154 66.7733 60.166 66.2667 59.8674 65.936C59.5687 65.5947 59.1367 65.424 58.5714 65.424C57.942 65.424 57.4407 65.6213 57.0674 66.016C56.694 66.4 56.5074 66.976 56.5074 67.744V72H54.0114V63.392H56.3954V64.4C56.726 64.0373 57.1367 63.76 57.6274 63.568C58.118 63.3653 58.6567 63.264 59.2434 63.264Z" fill="white"/>
<path d="M74.0476 63.392V70.56C74.0476 72.1387 73.637 73.312 72.8156 74.08C71.9943 74.848 70.7943 75.232 69.2156 75.232C68.3836 75.232 67.5943 75.1307 66.8476 74.928C66.101 74.7253 65.4823 74.432 64.9916 74.048L65.9836 72.256C66.3463 72.5547 66.805 72.7893 67.3596 72.96C67.9143 73.1413 68.469 73.232 69.0236 73.232C69.8876 73.232 70.5223 73.0347 70.9276 72.64C71.3436 72.256 71.5516 71.6693 71.5516 70.88V70.512C70.901 71.2267 69.9943 71.584 68.8316 71.584C68.0423 71.584 67.317 71.4133 66.6556 71.072C66.005 70.72 65.4876 70.2293 65.1036 69.6C64.7196 68.9707 64.5276 68.2453 64.5276 67.424C64.5276 66.6027 64.7196 65.8773 65.1036 65.248C65.4876 64.6187 66.005 64.1333 66.6556 63.792C67.317 63.44 68.0423 63.264 68.8316 63.264C70.0796 63.264 71.029 63.6747 71.6796 64.496V63.392H74.0476ZM69.3276 69.536C69.989 69.536 70.5276 69.344 70.9436 68.96C71.3703 68.5653 71.5836 68.0533 71.5836 67.424C71.5836 66.7947 71.3703 66.288 70.9436 65.904C70.5276 65.5093 69.989 65.312 69.3276 65.312C68.6663 65.312 68.1223 65.5093 67.6956 65.904C67.269 66.288 67.0556 66.7947 67.0556 67.424C67.0556 68.0533 67.269 68.5653 67.6956 68.96C68.1223 69.344 68.6663 69.536 69.3276 69.536Z" fill="white"/>
<path d="M69.4514 34.5591L57.3829 46.4408L49.8857 38.9462L40.0114 49L38 46.8064L49.8857 34.9247L57.3829 42.4193L67.44 32.3655L69.4514 34.5591Z" fill="white"/>
<path d="M61.7714 32H70V40.2259L61.7714 32Z" fill="white"/>
<defs>
<filter id="filter0_d" x="0" y="0" width="108" height="108" filterUnits="userSpaceOnUse" color-interpolation-filters="sRGB">
<feFlood flood-opacity="0" result="BackgroundImageFix"/>
<feColorMatrix in="SourceAlpha" type="matrix" values="0 0 0 0 0 0 0 0 0 0 0 0 0 0 0 0 0 0 127 0" result="hardAlpha"/>
<feOffset/>
<feGaussianBlur stdDeviation="5"/>
<feComposite in2="hardAlpha" operator="out"/>
<feColorMatrix type="matrix" values="0 0 0 0 0.898039 0 0 0 0 0.898039 0 0 0 0 0.898039 0 0 0 1 0"/>
<feBlend mode="normal" in2="BackgroundImageFix" result="effect1_dropShadow"/>
<feBlend mode="normal" in="SourceGraphic" in2="effect1_dropShadow" result="shape"/>
</filter>
</defs>
</svg>
