<svg width="88" height="88" viewBox="0 0 88 88" fill="none" xmlns="http://www.w3.org/2000/svg">
<path d="M74.8372 12.2222L48.0994 32.0833L53.0715 20.3785L74.8372 12.2222Z" fill="#E17726" stroke="#E17726" stroke-width="0.25" stroke-linecap="round" stroke-linejoin="round"/>
<path d="M13.163 12.2222L39.6628 32.2686L34.9288 20.3785L13.163 12.2222Z" fill="#E27625" stroke="#E27625" stroke-width="0.25" stroke-linecap="round" stroke-linejoin="round"/>
<path d="M65.2099 58.2733L58.0957 69.1837L73.3291 73.3943L77.6929 58.5118L65.2099 58.2733Z" fill="#E27625" stroke="#E27625" stroke-width="0.25" stroke-linecap="round" stroke-linejoin="round"/>
<path d="M10.333 58.5118L14.6703 73.3943L29.8773 69.1837L22.7895 58.2733L10.333 58.5118Z" fill="#E27625" stroke="#E27625" stroke-width="0.25" stroke-linecap="round" stroke-linejoin="round"/>
<path d="M29.0572 39.8423L24.8258 46.2509L39.9005 46.9394L39.3981 30.6533L29.0572 39.8423Z" fill="#E27625" stroke="#E27625" stroke-width="0.25" stroke-linecap="round" stroke-linejoin="round"/>
<path d="M58.9421 39.8427L48.4428 30.4683L48.099 46.9398L63.1736 46.2512L58.9421 39.8427Z" fill="#E27625" stroke="#E27625" stroke-width="0.25" stroke-linecap="round" stroke-linejoin="round"/>
<path d="M29.8776 69.1838L39.0016 64.7615L31.1471 58.6178L29.8776 69.1838Z" fill="#E27625" stroke="#E27625" stroke-width="0.25" stroke-linecap="round" stroke-linejoin="round"/>
<path d="M48.9985 64.7615L58.0961 69.1838L56.8531 58.6178L48.9985 64.7615Z" fill="#E27625" stroke="#E27625" stroke-width="0.25" stroke-linecap="round" stroke-linejoin="round"/>
<path d="M58.0961 69.184L48.9985 64.7617L49.7389 70.6935L49.6595 73.2093L58.0961 69.184Z" fill="#D5BFB2" stroke="#D5BFB2" stroke-width="0.25" stroke-linecap="round" stroke-linejoin="round"/>
<path d="M29.8776 69.184L38.3406 73.2093L38.2877 70.6935L39.0016 64.7617L29.8776 69.184Z" fill="#D5BFB2" stroke="#D5BFB2" stroke-width="0.25" stroke-linecap="round" stroke-linejoin="round"/>
<path d="M38.4989 54.698L30.9351 52.4737L36.2773 50.0109L38.4989 54.698Z" fill="#233447" stroke="#233447" stroke-width="0.25" stroke-linecap="round" stroke-linejoin="round"/>
<path d="M49.501 54.698L51.7226 50.0109L57.0913 52.4737L49.501 54.698Z" fill="#233447" stroke="#233447" stroke-width="0.25" stroke-linecap="round" stroke-linejoin="round"/>
<path d="M29.8772 69.1837L31.1997 58.2733L22.7896 58.5118L29.8772 69.1837Z" fill="#CC6228" stroke="#CC6228" stroke-width="0.25" stroke-linecap="round" stroke-linejoin="round"/>
<path d="M56.7999 58.2733L58.0959 69.1837L65.21 58.5118L56.7999 58.2733Z" fill="#CC6228" stroke="#CC6228" stroke-width="0.25" stroke-linecap="round" stroke-linejoin="round"/>
<path d="M63.1736 46.2505L48.099 46.939L49.5006 54.6982L51.7222 50.0109L57.0909 52.4737L63.1736 46.2505Z" fill="#CC6228" stroke="#CC6228" stroke-width="0.25" stroke-linecap="round" stroke-linejoin="round"/>
<path d="M30.935 52.4737L36.2773 50.0109L38.4989 54.6982L39.9005 46.939L24.8258 46.2505L30.935 52.4737Z" fill="#CC6228" stroke="#CC6228" stroke-width="0.25" stroke-linecap="round" stroke-linejoin="round"/>
<path d="M24.8263 46.2505L31.1471 58.6174L30.9354 52.4737L24.8263 46.2505Z" fill="#E27525" stroke="#E27525" stroke-width="0.25" stroke-linecap="round" stroke-linejoin="round"/>
<path d="M57.0913 52.4737L56.8533 58.6174L63.1741 46.2505L57.0913 52.4737Z" fill="#E27525" stroke="#E27525" stroke-width="0.25" stroke-linecap="round" stroke-linejoin="round"/>
<path d="M39.9013 46.9396L38.4995 54.6988L40.2714 63.8613L40.6682 51.7858L39.9013 46.9396Z" fill="#E27525" stroke="#E27525" stroke-width="0.25" stroke-linecap="round" stroke-linejoin="round"/>
<path d="M48.0994 46.9396L47.3588 51.7594L47.7291 63.8613L49.501 54.6988L48.0994 46.9396Z" fill="#E27525" stroke="#E27525" stroke-width="0.25" stroke-linecap="round" stroke-linejoin="round"/>
<path d="M49.5009 54.6984L47.729 63.8609L48.9985 64.7613L56.8533 58.6176L57.0913 52.4739L49.5009 54.6984Z" fill="#F5841F" stroke="#F5841F" stroke-width="0.25" stroke-linecap="round" stroke-linejoin="round"/>
<path d="M30.9351 52.4739L31.1468 58.6176L39.0013 64.7613L40.2708 63.8609L38.4989 54.6984L30.9351 52.4739Z" fill="#F5841F" stroke="#F5841F" stroke-width="0.25" stroke-linecap="round" stroke-linejoin="round"/>
<path d="M49.6598 73.2091L49.739 70.6933L49.0516 70.1106H38.9489L38.2877 70.6933L38.3406 73.2091L29.8776 69.1838L32.8396 71.6201L38.843 75.7778H49.1308L55.1607 71.6201L58.0962 69.1838L49.6598 73.2091Z" fill="#C0AC9D" stroke="#C0AC9D" stroke-width="0.25" stroke-linecap="round" stroke-linejoin="round"/>
<path d="M48.9983 64.7614L47.7288 63.8612H40.2708L39.0015 64.7614L38.2874 70.6934L38.9486 70.1108H49.0512L49.7389 70.6934L48.9983 64.7614Z" fill="#161616" stroke="#161616" stroke-width="0.25" stroke-linecap="round" stroke-linejoin="round"/>
<path d="M75.9742 33.3808L78.2223 22.4175L74.837 12.2222L48.9985 31.4213L58.9424 39.8423L72.9857 43.947L76.08 40.3191L74.7313 39.3392L76.8734 37.3797L75.2338 36.1085L77.376 34.4666L75.9742 33.3808Z" fill="#763E1A" stroke="#763E1A" stroke-width="0.25" stroke-linecap="round" stroke-linejoin="round"/>
<path d="M9.77783 22.4175L12.0523 33.3808L10.5977 34.4666L12.7663 36.1085L11.1266 37.3797L13.2688 39.3392L11.92 40.3191L15.0143 43.947L29.0577 39.8423L39.0015 31.4213L13.163 12.2222L9.77783 22.4175Z" fill="#763E1A" stroke="#763E1A" stroke-width="0.25" stroke-linecap="round" stroke-linejoin="round"/>
<path d="M72.9858 43.9467L58.9426 39.8422L63.1741 46.2507L56.8533 58.6175L65.2105 58.5116H77.6933L72.9858 43.9467Z" fill="#F5841F" stroke="#F5841F" stroke-width="0.25" stroke-linecap="round" stroke-linejoin="round"/>
<path d="M29.0573 39.8422L15.0141 43.9467L10.333 58.5116H22.7895L31.1466 58.6175L24.8259 46.2507L29.0573 39.8422Z" fill="#F5841F" stroke="#F5841F" stroke-width="0.25" stroke-linecap="round" stroke-linejoin="round"/>
<path d="M48.0991 46.9394L48.9983 31.4211L53.0711 20.3784H34.9286L39.0013 31.4211L39.9005 46.9394L40.2444 51.8119L40.2708 63.8611H47.7288L47.7553 51.8119L48.0991 46.9394Z" fill="#F5841F" stroke="#F5841F" stroke-width="0.25" stroke-linecap="round" stroke-linejoin="round"/>
</svg>
