<svg width="22" height="22" viewBox="0 0 22 22" fill="none" xmlns="http://www.w3.org/2000/svg">
<path d="M18.7091 3.05554L12.0247 8.02082L13.2677 5.09462L18.7091 3.05554Z" fill="#E17726" stroke="#E17726" stroke-width="0.25" stroke-linecap="round" stroke-linejoin="round"/>
<path d="M3.29053 3.05554L9.91548 8.06716L8.73199 5.09461L3.29053 3.05554Z" fill="#E27625" stroke="#E27625" stroke-width="0.25" stroke-linecap="round" stroke-linejoin="round"/>
<path d="M16.3025 14.5682L14.5239 17.2958L18.3323 18.3485L19.4232 14.6279L16.3025 14.5682Z" fill="#E27625" stroke="#E27625" stroke-width="0.25" stroke-linecap="round" stroke-linejoin="round"/>
<path d="M2.58301 14.6279L3.66732 18.3485L7.46908 17.2958L5.69712 14.5682L2.58301 14.6279Z" fill="#E27625" stroke="#E27625" stroke-width="0.25" stroke-linecap="round" stroke-linejoin="round"/>
<path d="M7.26415 9.96058L6.2063 11.5627L9.97497 11.7349L9.84936 7.66333L7.26415 9.96058Z" fill="#E27625" stroke="#E27625" stroke-width="0.25" stroke-linecap="round" stroke-linejoin="round"/>
<path d="M14.7354 9.96067L12.1106 7.61707L12.0247 11.7349L15.7933 11.5628L14.7354 9.96067Z" fill="#E27625" stroke="#E27625" stroke-width="0.25" stroke-linecap="round" stroke-linejoin="round"/>
<path d="M7.46924 17.2961L9.75026 16.1905L7.78661 14.6545L7.46924 17.2961Z" fill="#E27625" stroke="#E27625" stroke-width="0.25" stroke-linecap="round" stroke-linejoin="round"/>
<path d="M12.2495 16.1905L14.5239 17.2961L14.2132 14.6545L12.2495 16.1905Z" fill="#E27625" stroke="#E27625" stroke-width="0.25" stroke-linecap="round" stroke-linejoin="round"/>
<path d="M14.5239 17.296L12.2495 16.1904L12.4346 17.6734L12.4148 18.3023L14.5239 17.296Z" fill="#D5BFB2" stroke="#D5BFB2" stroke-width="0.25" stroke-linecap="round" stroke-linejoin="round"/>
<path d="M7.46924 17.296L9.585 18.3023L9.57177 17.6734L9.75026 16.1904L7.46924 17.296Z" fill="#D5BFB2" stroke="#D5BFB2" stroke-width="0.25" stroke-linecap="round" stroke-linejoin="round"/>
<path d="M9.62461 13.6745L7.73364 13.1184L9.0692 12.5027L9.62461 13.6745Z" fill="#233447" stroke="#233447" stroke-width="0.25" stroke-linecap="round" stroke-linejoin="round"/>
<path d="M12.375 13.6745L12.9304 12.5027L14.2726 13.1184L12.375 13.6745Z" fill="#233447" stroke="#233447" stroke-width="0.25" stroke-linecap="round" stroke-linejoin="round"/>
<path d="M7.46919 17.2958L7.7998 14.5682L5.69727 14.6279L7.46919 17.2958Z" fill="#CC6228" stroke="#CC6228" stroke-width="0.25" stroke-linecap="round" stroke-linejoin="round"/>
<path d="M14.2 14.5682L14.5239 17.2958L16.3025 14.6279L14.2 14.5682Z" fill="#CC6228" stroke="#CC6228" stroke-width="0.25" stroke-linecap="round" stroke-linejoin="round"/>
<path d="M15.7933 11.5626L12.0247 11.7348L12.3751 13.6746L12.9305 12.5027L14.2726 13.1184L15.7933 11.5626Z" fill="#CC6228" stroke="#CC6228" stroke-width="0.25" stroke-linecap="round" stroke-linejoin="round"/>
<path d="M7.7336 13.1184L9.06916 12.5027L9.62457 13.6746L9.97497 11.7348L6.2063 11.5626L7.7336 13.1184Z" fill="#CC6228" stroke="#CC6228" stroke-width="0.25" stroke-linecap="round" stroke-linejoin="round"/>
<path d="M6.20654 11.5626L7.78676 14.6544L7.73383 13.1184L6.20654 11.5626Z" fill="#E27525" stroke="#E27525" stroke-width="0.25" stroke-linecap="round" stroke-linejoin="round"/>
<path d="M14.2726 13.1184L14.2131 14.6544L15.7933 11.5626L14.2726 13.1184Z" fill="#E27525" stroke="#E27525" stroke-width="0.25" stroke-linecap="round" stroke-linejoin="round"/>
<path d="M9.97521 11.7349L9.62476 13.6747L10.0677 15.9653L10.1669 12.9464L9.97521 11.7349Z" fill="#E27525" stroke="#E27525" stroke-width="0.25" stroke-linecap="round" stroke-linejoin="round"/>
<path d="M12.0248 11.7349L11.8396 12.9398L11.9322 15.9653L12.3752 13.6747L12.0248 11.7349Z" fill="#E27525" stroke="#E27525" stroke-width="0.25" stroke-linecap="round" stroke-linejoin="round"/>
<path d="M12.3751 13.6745L11.9321 15.9652L12.2495 16.1903L14.2132 14.6543L14.2727 13.1184L12.3751 13.6745Z" fill="#F5841F" stroke="#F5841F" stroke-width="0.25" stroke-linecap="round" stroke-linejoin="round"/>
<path d="M7.73364 13.1184L7.78657 14.6543L9.75021 16.1903L10.0676 15.9652L9.62461 13.6745L7.73364 13.1184Z" fill="#F5841F" stroke="#F5841F" stroke-width="0.25" stroke-linecap="round" stroke-linejoin="round"/>
<path d="M12.4148 18.3022L12.4346 17.6733L12.2627 17.5276H9.73707L9.57177 17.6733L9.585 18.3022L7.46924 17.2959L8.20975 17.905L9.71061 18.9444H12.2825L13.79 17.905L14.5239 17.2959L12.4148 18.3022Z" fill="#C0AC9D" stroke="#C0AC9D" stroke-width="0.25" stroke-linecap="round" stroke-linejoin="round"/>
<path d="M12.2495 16.1904L11.9321 15.9653H10.0676L9.75031 16.1904L9.57178 17.6734L9.73708 17.5277H12.2627L12.4347 17.6734L12.2495 16.1904Z" fill="#161616" stroke="#161616" stroke-width="0.25" stroke-linecap="round" stroke-linejoin="round"/>
<path d="M18.9934 8.3452L19.5554 5.60439L18.7091 3.05554L12.2495 7.85533L14.7355 9.96058L18.2463 10.9868L19.0199 10.0798L18.6827 9.83479L19.2182 9.34492L18.8083 9.02713L19.3439 8.61665L18.9934 8.3452Z" fill="#763E1A" stroke="#763E1A" stroke-width="0.25" stroke-linecap="round" stroke-linejoin="round"/>
<path d="M2.44434 5.60439L3.01294 8.3452L2.6493 8.61665L3.19146 9.02713L2.78153 9.34492L3.31708 9.83479L2.97988 10.0798L3.75346 10.9868L7.2643 9.96058L9.75027 7.85533L3.29064 3.05554L2.44434 5.60439Z" fill="#763E1A" stroke="#763E1A" stroke-width="0.25" stroke-linecap="round" stroke-linejoin="round"/>
<path d="M18.2463 10.9866L14.7355 9.96045L15.7933 11.5626L14.2131 14.6543L16.3024 14.6278H19.4232L18.2463 10.9866Z" fill="#F5841F" stroke="#F5841F" stroke-width="0.25" stroke-linecap="round" stroke-linejoin="round"/>
<path d="M7.26408 9.96045L3.75328 10.9866L2.58301 14.6278H5.69712L7.7864 14.6543L6.20623 11.5626L7.26408 9.96045Z" fill="#F5841F" stroke="#F5841F" stroke-width="0.25" stroke-linecap="round" stroke-linejoin="round"/>
<path d="M12.0246 11.7348L12.2494 7.85528L13.2676 5.0946H8.73193L9.75012 7.85528L9.97492 11.7348L10.0609 12.953L10.0675 15.9653H11.932L11.9386 12.953L12.0246 11.7348Z" fill="#F5841F" stroke="#F5841F" stroke-width="0.25" stroke-linecap="round" stroke-linejoin="round"/>
</svg>
