<svg width="28" height="28" viewBox="0 0 28 28" fill="none" xmlns="http://www.w3.org/2000/svg">
<path d="M15.4655 14.0223C15.4655 17.6538 12.5415 20.5977 8.93487 20.5977C5.32821 20.5977 2.40405 17.6538 2.40405 14.0223C2.40405 10.3908 5.32799 7.44669 8.93487 7.44669C12.5418 7.44669 15.4655 10.3908 15.4655 14.0223ZM22.6297 14.0223C22.6297 17.4406 21.1678 20.2128 19.3643 20.2128C17.5609 20.2128 16.0989 17.4406 16.0989 14.0223C16.0989 10.604 17.5607 7.83187 19.3641 7.83187C21.1676 7.83187 22.6295 10.6032 22.6295 14.0223H22.6297ZM25.5601 14.0223C25.5601 17.0843 25.046 19.568 24.4117 19.568C23.7773 19.568 23.2634 17.0849 23.2634 14.0223C23.2634 10.9597 23.7775 8.47665 24.4117 8.47665C25.0458 8.47665 25.5601 10.9595 25.5601 14.0223Z" fill="#C5C5C5"/>
</svg>
