<svg width="28" height="28" viewBox="0 0 28 28" fill="none" xmlns="http://www.w3.org/2000/svg">
<path d="M15.4655 14.0224C15.4655 17.6539 12.5415 20.5978 8.93487 20.5978C5.32821 20.5978 2.40405 17.6539 2.40405 14.0224C2.40405 10.3909 5.32799 7.44678 8.93487 7.44678C12.5418 7.44678 15.4655 10.3909 15.4655 14.0224ZM22.6297 14.0224C22.6297 17.4407 21.1678 20.2129 19.3643 20.2129C17.5609 20.2129 16.0989 17.4407 16.0989 14.0224C16.0989 10.6041 17.5607 7.83196 19.3641 7.83196C21.1676 7.83196 22.6295 10.6032 22.6295 14.0224H22.6297ZM25.5601 14.0224C25.5601 17.0844 25.046 19.5681 24.4117 19.5681C23.7773 19.5681 23.2634 17.085 23.2634 14.0224C23.2634 10.9598 23.7775 8.47674 24.4117 8.47674C25.0458 8.47674 25.5601 10.9596 25.5601 14.0224Z" fill="#A0A0A0"/>
<defs>
<linearGradient
          id="paint0_linear_2217_205"
          x1="0"
          y1="11"
          x2="22"
          y2="11"
          gradientUnits="userSpaceOnUse"
        >
          <stop stop-color="#8BB7FF" />
          <stop offset="1" stop-color="#0061FF" />
        </linearGradient>
</defs>
</svg>
