<svg width="180" height="180" viewBox="0 0 180 180" fill="none" xmlns="http://www.w3.org/2000/svg">
<path d="M137.542 154.457L137.64 154.252C136.458 153.088 135.266 151.933 134.095 150.759C132.389 149.048 131.169 147.037 130.437 144.734C130.053 143.525 129.453 143.235 128.22 143.686C128.098 143.73 127.979 143.784 127.858 143.832C124.525 145.171 121.059 145.994 117.484 146.238C112.222 146.599 107.093 145.915 102.134 144.039C101.354 143.744 100.477 143.57 99.6446 143.569C74.6225 143.545 49.6006 143.549 24.5785 143.549H23.4312V49.9329H151.746V116.99C151.746 120.385 151.751 123.781 151.738 127.176C151.737 127.603 151.853 127.865 152.223 128.132C153.065 128.742 153.895 129.387 154.636 130.114C157.06 132.491 159.442 134.911 161.842 137.313C162.037 137.508 162.244 137.69 162.538 137.964C162.555 137.586 162.576 137.337 162.576 137.088C162.578 100.312 162.578 63.5366 162.575 26.7611C162.575 26.1881 162.588 25.605 162.494 25.0437C161.713 20.3866 157.668 17.383 153.305 17.3872C109.451 17.4289 65.5976 17.4122 21.7437 17.4173C21.146 17.4173 20.5336 17.4164 19.9531 17.5372C15.3758 18.489 12.4482 22.0938 12.4476 26.7838C12.4436 66.2235 12.4443 105.663 12.454 145.103C12.4558 145.807 12.5258 146.51 12.6631 147.2C13.4536 151.199 17.0756 154.489 21.9284 154.483C60.1928 154.436 98.4572 154.457 136.722 154.457C136.996 154.457 137.269 154.457 137.542 154.457ZM140.371 126.721C149.265 111.954 144.271 94.8827 132.752 86.4657C121.138 77.9792 104.696 79.0235 94.5593 88.9689C83.8382 99.4878 82.23 115.855 90.7782 127.956C95.0346 133.981 100.762 137.964 107.936 139.729C116.102 141.738 123.789 140.407 130.995 136.089C132.523 137.616 134.049 139.118 135.539 140.654C135.752 140.872 135.864 141.246 135.905 141.563C136.143 143.406 136.855 145.046 138.15 146.361C143.025 151.311 147.908 156.255 152.846 161.142C155.147 163.418 157.99 164.185 161.131 163.387C167.887 161.67 170.146 153.457 165.232 148.44C160.444 143.551 155.588 138.727 150.742 133.895C149.351 132.509 147.638 131.738 145.676 131.525C145.459 131.501 145.201 131.426 145.051 131.282C143.471 129.764 141.91 128.226 140.371 126.721ZM60.1831 73.0629C68.3584 73.0629 76.5336 73.064 84.7089 73.0598C85.098 73.0596 85.4981 73.0638 85.8748 72.9819C88.3749 72.4386 90.0802 70.1933 89.8193 67.8208C89.5337 65.2231 87.4737 63.3747 84.825 63.374C68.3962 63.3697 51.9675 63.3698 35.5386 63.3811C35.0248 63.3814 34.4938 63.4584 34 63.6006C31.6531 64.2767 30.2708 66.5383 30.6169 69.0753C30.9198 71.2942 32.9954 73.058 35.344 73.0596C43.6238 73.0661 51.9035 73.0624 60.1831 73.0629ZM54.4662 109.573V109.579C48.0426 109.579 41.6191 109.551 35.1958 109.591C32.0893 109.611 29.8973 112.638 30.7247 115.634C31.3596 117.933 33.1478 119.219 35.7738 119.22C48.2291 119.226 60.6845 119.224 73.14 119.22C73.5304 119.22 73.9229 119.188 74.311 119.142C76.6774 118.862 78.5607 116.351 78.325 113.981C78.0768 111.486 75.9071 109.514 73.2665 109.548C67.0006 109.627 60.733 109.573 54.4662 109.573ZM48.6204 96.1173C53.1375 96.1173 57.6545 96.1409 62.1712 96.1093C65.2775 96.0875 67.4958 93.0934 66.6858 90.0951C66.0574 87.7693 64.2358 86.4597 61.5873 86.4583C52.9972 86.4536 44.4071 86.4517 35.8171 86.4668C35.1995 86.4678 34.5579 86.5334 33.9689 86.7081C31.5969 87.4116 30.2432 89.6641 30.6181 92.1883C30.9447 94.3863 32.9636 96.104 35.3045 96.1135C39.7431 96.1314 44.1818 96.1186 48.6204 96.1173Z" fill="white"/>
<path d="M137.542 154.457H136.722C98.4578 154.457 60.1933 154.435 21.9289 154.482C17.0763 154.488 13.4542 151.198 12.6637 147.2C12.5264 146.509 12.4563 145.807 12.4545 145.103C12.4447 105.663 12.4441 66.223 12.4482 26.7833C12.4487 22.0933 15.3763 18.4885 19.9537 17.5367C20.5341 17.4159 21.1465 17.417 21.7442 17.4168C65.5981 17.4117 109.452 17.4284 153.306 17.3867C157.669 17.3825 161.714 20.3861 162.494 25.0432C162.588 25.6047 162.575 26.1877 162.575 26.7606C162.579 63.5362 162.578 100.312 162.577 137.087C162.577 137.337 162.556 137.586 162.538 137.964C162.244 137.689 162.037 137.507 161.843 137.313C159.443 134.911 157.061 132.49 154.636 130.113C153.895 129.387 153.065 128.741 152.223 128.132C151.853 127.864 151.737 127.603 151.739 127.176C151.752 123.78 151.746 120.385 151.746 116.989V51.091V49.9324H23.4317V143.548H24.579C49.6011 143.548 74.6231 143.544 99.6452 143.568C100.477 143.569 101.354 143.744 102.134 144.039C107.093 145.915 112.223 146.598 117.485 146.238C121.06 145.993 124.525 145.171 127.859 143.832C127.979 143.783 128.098 143.73 128.221 143.685C129.453 143.234 130.054 143.525 130.438 144.733C131.169 147.036 132.39 149.048 134.095 150.758C135.267 151.933 136.458 153.088 137.64 154.251L137.542 154.457ZM115.822 39.7125C116.422 39.7125 117.022 39.7222 117.622 39.7106C119.184 39.6807 120.532 38.6981 120.706 37.1521C120.891 35.5071 120.936 33.8145 120.768 32.1706C120.582 30.3409 119.206 29.3365 117.344 29.3318C116.3 29.3291 115.257 29.3237 114.213 29.3333C112.502 29.3492 111.105 30.5178 110.99 32.2119C110.885 33.7716 110.888 35.3366 110.997 36.896C111.11 38.5256 112.467 39.674 114.1 39.7094C114.674 39.7217 115.248 39.7113 115.822 39.7125ZM131.354 39.7171V39.7108C131.954 39.7108 132.555 39.7218 133.154 39.7087C134.75 39.6733 136.115 38.5438 136.233 36.9575C136.351 35.3781 136.359 33.7769 136.245 32.1975C136.122 30.4931 134.73 29.3472 133.011 29.3332C131.915 29.3247 130.819 29.3246 129.724 29.333C128.092 29.3448 126.711 30.3504 126.527 31.9588C126.342 33.5778 126.303 35.2445 126.464 36.864C126.647 38.7146 127.976 39.6983 129.867 39.7162C130.363 39.7211 130.859 39.7171 131.354 39.7171ZM151.774 34.5711C151.774 33.8929 151.789 33.2146 151.772 32.5368C151.726 30.7136 150.345 29.3516 148.524 29.3337C147.402 29.3225 146.281 29.3226 145.159 29.334C143.378 29.3525 141.927 30.7523 141.877 32.5392C141.841 33.8691 141.841 35.1997 141.878 36.5295C141.927 38.2999 143.333 39.6805 145.084 39.7085C146.257 39.7273 147.431 39.7273 148.605 39.708C150.396 39.6786 151.729 38.3339 151.773 36.527C151.789 35.8756 151.776 35.2232 151.774 34.5711Z" fill="#EEEEEE"/>
<path d="M140.371 126.721C141.91 128.226 143.471 129.764 145.051 131.283C145.201 131.427 145.459 131.502 145.676 131.525C147.638 131.738 149.351 132.509 150.742 133.896C155.589 138.728 160.444 143.552 165.232 148.441C170.146 153.458 167.887 161.67 161.131 163.388C157.99 164.186 155.147 163.418 152.846 161.142C147.908 156.255 143.025 151.312 138.15 146.361C136.855 145.046 136.143 143.407 135.905 141.563C135.864 141.246 135.752 140.873 135.539 140.654C134.049 139.118 132.523 137.616 130.995 136.09C123.789 140.408 116.102 141.738 107.936 139.729C100.762 137.964 95.0348 133.982 90.7783 127.956C82.23 115.856 83.8383 99.4879 94.5593 88.9692C104.696 79.0238 121.138 77.9793 132.752 86.4661C144.271 94.883 149.265 111.954 140.371 126.721ZM115.143 89.6707C103.864 89.5319 94.2326 98.8282 94.2187 110.583C94.205 122.251 103.519 131.691 115.042 131.701C126.67 131.711 136.113 122.314 136.066 110.682C136.016 98.5102 126.155 89.5364 115.143 89.6707ZM60.1834 73.0629C51.9037 73.0626 43.6239 73.0663 35.3443 73.0603C32.9956 73.0585 30.9198 71.2949 30.6172 69.076C30.2709 66.5388 31.6534 64.2774 34.0002 63.6013C34.5005 63.4576 35.0183 63.3837 35.5388 63.3818C51.9677 63.3705 68.3964 63.3703 84.8253 63.3747C87.4739 63.3754 89.5337 65.2238 89.8196 67.8215C90.0804 70.194 88.3752 72.4393 85.875 72.9826C85.4983 73.0645 85.0983 73.0601 84.7091 73.0605C76.5338 73.0643 68.3586 73.0633 60.1834 73.0629ZM54.4664 109.574C60.7332 109.574 67.0009 109.628 73.2666 109.548C75.9072 109.514 78.077 111.486 78.3251 113.981C78.5608 116.351 76.6776 118.862 74.3111 119.142C73.923 119.188 73.5304 119.22 73.14 119.22C60.6847 119.224 48.2294 119.227 35.7739 119.221C33.1479 119.219 31.3597 117.933 30.7247 115.634C29.8973 112.638 32.0891 109.611 35.1959 109.591C41.6191 109.551 48.0429 109.579 54.4663 109.579L54.4664 109.574ZM48.6207 96.1182C44.182 96.1187 39.7434 96.1317 35.3047 96.1136C32.9638 96.1041 30.945 94.3864 30.6184 92.1884C30.2434 89.6644 31.5971 87.4118 33.9691 86.7083C34.5582 86.5336 35.1996 86.468 35.8173 86.4669C44.4074 86.4518 52.9974 86.4538 61.5875 86.4585C64.236 86.4599 66.0576 87.7695 66.6861 90.0952C67.4961 93.0937 65.2777 96.0876 62.1715 96.1094C57.6548 96.1412 53.1377 96.1177 48.6207 96.1182Z" fill="#EEEEEE"/>
<path d="M115.822 39.712C115.248 39.7114 114.674 39.7218 114.1 39.7095C112.467 39.6742 111.11 38.526 110.997 36.8961C110.888 35.3368 110.885 33.7718 110.99 32.2121C111.105 30.5179 112.502 29.3493 114.214 29.3335C115.257 29.3238 116.301 29.3293 117.344 29.3319C119.206 29.3366 120.582 30.3411 120.769 32.1708C120.936 33.8149 120.891 35.5073 120.706 37.1522C120.533 38.6982 119.185 39.6807 117.622 39.7107C117.022 39.7222 116.422 39.7127 115.822 39.712ZM131.354 39.7172C130.859 39.7172 130.363 39.7213 129.867 39.7165C127.976 39.6986 126.647 38.7149 126.464 36.8643C126.303 35.2448 126.342 33.5781 126.527 31.9591C126.712 30.3507 128.092 29.3451 129.724 29.3333C130.819 29.3254 131.915 29.3245 133.011 29.3335C134.73 29.3475 136.122 30.4935 136.245 32.1978C136.359 33.7772 136.351 35.3784 136.233 36.9578C136.115 38.5442 134.75 39.6736 133.154 39.709C132.555 39.7223 131.955 39.7111 131.354 39.7111V39.7172ZM151.775 34.5712C151.776 35.2232 151.789 35.8757 151.773 36.5273C151.729 38.3342 150.396 39.6789 148.605 39.7083C147.431 39.7276 146.257 39.7274 145.084 39.7088C143.333 39.6808 141.927 38.3003 141.878 36.5298C141.841 35.2 141.841 33.8694 141.877 32.5396C141.926 30.7524 143.378 29.3526 145.159 29.3344C146.281 29.3228 147.402 29.3229 148.524 29.334C150.345 29.3519 151.726 30.7141 151.772 32.5371C151.789 33.2147 151.774 33.8931 151.775 34.5712ZM115.143 89.6706C126.155 89.5363 136.016 98.5101 136.066 110.682C136.113 122.314 126.67 131.711 115.042 131.701C103.519 131.691 94.2051 122.251 94.2188 110.582C94.2327 98.8281 103.865 89.5317 115.143 89.6706Z" fill="white"/>
</svg>
