<svg width="28" height="28" viewBox="0 0 28 28" fill="none" xmlns="http://www.w3.org/2000/svg">
<g clip-path="url(#clip0)">
<path d="M14 28C16.7689 28 19.4757 27.1789 21.778 25.6406C24.0803 24.1022 25.8747 21.9157 26.9343 19.3576C27.9939 16.7994 28.2712 13.9845 27.731 11.2687C27.1908 8.55301 25.8574 6.05845 23.8995 4.10051C21.9416 2.14258 19.447 0.809206 16.7313 0.269012C14.0155 -0.271181 11.2006 0.006066 8.64243 1.06569C6.08427 2.12532 3.89776 3.91974 2.35943 6.22202C0.821086 8.52431 0 11.2311 0 14C0 17.713 1.475 21.274 4.1005 23.8995C6.72601 26.525 10.287 28 14 28Z" fill="#0047BB"/>
<g clip-path="url(#clip1)">
<path fill-rule="evenodd" clip-rule="evenodd" d="M16.8536 9.72415C16.4956 9.65902 16.1268 9.625 15.75 9.625C12.3673 9.625 9.625 12.3673 9.625 15.75C9.625 16.1268 9.65902 16.4956 9.72415 16.8536C8.10041 15.9608 7 14.2339 7 12.25C7 9.35051 9.35051 7 12.25 7C14.2339 7 15.9608 8.10041 16.8536 9.72415Z" fill="white"/>
<circle cx="16" cy="16" r="5" fill="white"/>
<path fill-rule="evenodd" clip-rule="evenodd" d="M7 18H6V21V22H7H10V21H7V18Z" fill="white"/>
<path fill-rule="evenodd" clip-rule="evenodd" d="M21 10L22 10L22 7L22 6L21 6L18 6L18 7L21 7L21 10Z" fill="white"/>
</g>
</g>
<defs>
<clipPath id="clip0">
<rect width="28" height="28" fill="white"/>
</clipPath>
<clipPath id="clip1">
<rect width="16" height="16" fill="white" transform="translate(6 6)"/>
</clipPath>
</defs>
</svg>
