<svg width="16" height="16" viewBox="0 0 16 16" fill="none" xmlns="http://www.w3.org/2000/svg">
<path d="M11.5645 5.61735C11.431 5.54097 11.2795 5.50076 11.1254 5.50076C10.9713 5.50076 10.8199 5.54097 10.6863 5.61735L8.67157 6.80866L7.30259 7.58561L5.28785 8.77695C5.1543 8.85333 5.00288 8.89354 4.84875 8.89354C4.69462 8.89354 4.5432 8.85333 4.40965 8.77695L2.8082 7.84462C2.67679 7.76673 2.56752 7.65691 2.4907 7.5255C2.41387 7.3941 2.37202 7.24544 2.3691 7.09354V5.25478C2.36654 5.10178 2.40608 4.951 2.48346 4.81866C2.56083 4.68632 2.67311 4.57743 2.8082 4.50373L4.38382 3.59728C4.51737 3.5209 4.6688 3.48069 4.82293 3.48069C4.97707 3.48069 5.1285 3.5209 5.26205 3.59728L6.83767 4.50373C6.96907 4.58162 7.07833 4.69144 7.15515 4.82284C7.23197 4.95423 7.27382 5.10288 7.27675 5.25478V6.4461L8.64573 5.64325V4.45191C8.64828 4.29892 8.60875 4.14814 8.53138 4.0158C8.45401 3.88346 8.34173 3.77457 8.20664 3.70086L5.28785 1.9916C5.1543 1.91521 5.00288 1.875 4.84875 1.875C4.69462 1.875 4.54319 1.91521 4.40965 1.9916L1.43922 3.70089C1.30413 3.77459 1.19185 3.88347 1.11448 4.01581C1.03711 4.14815 0.997565 4.29893 1.00012 4.45191V7.8964C0.997563 8.04939 1.0371 8.20017 1.11448 8.33251C1.19185 8.46485 1.30413 8.57373 1.43922 8.64743L4.40966 10.3567C4.5432 10.4331 4.69462 10.4733 4.84876 10.4733C5.00289 10.4733 5.15432 10.4331 5.28786 10.3567L7.3026 9.19129L8.67157 8.38846L10.6863 7.22303C10.8199 7.14665 10.9713 7.10644 11.1254 7.10644C11.2796 7.10644 11.431 7.14665 11.5645 7.22303L13.1401 8.12949C13.2715 8.20738 13.3808 8.31719 13.4576 8.44859C13.5344 8.57999 13.5763 8.72863 13.5792 8.88052V10.7193C13.5818 10.8723 13.5423 11.0231 13.4649 11.1554C13.3875 11.2878 13.2752 11.3966 13.1401 11.4703L11.5645 12.4027C11.431 12.4791 11.2796 12.5193 11.1254 12.5193C10.9713 12.5193 10.8199 12.4791 10.6863 12.4027L9.1107 11.4963C8.97928 11.4184 8.87 11.3086 8.79318 11.1772C8.71635 11.0457 8.6745 10.8971 8.67157 10.7452V9.55388L7.3026 10.3567V11.5481C7.30004 11.701 7.33958 11.8518 7.41695 11.9842C7.49432 12.1165 7.6066 12.2254 7.74168 12.2991L10.7121 14.0084C10.8457 14.0848 10.9971 14.125 11.1512 14.125C11.3054 14.125 11.4568 14.0848 11.5903 14.0084L14.5608 12.2991C14.6922 12.2212 14.8014 12.1114 14.8783 11.98C14.9551 11.8486 14.997 11.6999 14.9999 11.5481V8.10357C15.0024 7.95058 14.9629 7.7998 14.8855 7.66746C14.8081 7.53512 14.6959 7.42624 14.5608 7.35254L11.5645 5.61735Z" fill="#7B3FE4"/>
</svg>
