<svg width="14" height="14" viewBox="0 0 14 14" fill="none" xmlns="http://www.w3.org/2000/svg">
<g clip-path="url(#clip0)">
<path d="M7.00027 13.3647L6.99354 13.1852C6.99354 13.1852 6.98226 13.0191 6.92197 12.9289C6.86168 12.8387 6.77714 12.7867 6.71565 12.765C6.65392 12.7431 6.61742 12.734 6.53743 12.7307C6.45745 12.7275 6.36426 12.7273 6.36426 12.7273L7.00027 13.3647ZM6.36426 14.002C6.36426 14.002 6.27107 14.0015 6.19109 13.9986C6.11111 13.9956 6.0746 13.9862 6.01287 13.9643C5.95115 13.9424 5.86685 13.8906 5.80632 13.8004C5.74579 13.7102 5.73475 13.5441 5.73475 13.5441L5.72754 13.3644L6.36426 12.7273C6.36426 12.7273 6.27083 12.7278 6.19085 12.7307C6.11087 12.7337 6.07436 12.7431 6.01264 12.765C5.95091 12.7869 5.86661 12.8387 5.80608 12.9289C5.74556 13.0191 5.7345 13.1852 5.7345 13.1852L5.72754 13.3644L6.36426 14.002ZM6.36426 14.002C6.36426 14.002 6.45745 14.0015 6.53743 13.9986C6.61742 13.9956 6.65392 13.9862 6.71565 13.9643C6.77738 13.9424 6.86168 13.8906 6.92197 13.8004C6.98226 13.7102 6.99354 13.5441 6.99354 13.5441L7.00027 13.3647L6.36426 14.002ZM6.36426 12.7273L5.72754 13.3644L6.36426 14.002L7.00027 13.3647L6.36426 12.7273Z" fill="#0047BB"/>
<path d="M8.27273 13.3647L8.266 13.1852C8.266 13.1852 8.25472 13.0191 8.19443 12.9289C8.13415 12.8387 8.0496 12.7867 7.98811 12.765C7.92639 12.7431 7.88988 12.734 7.8099 12.7307C7.72992 12.7275 7.63672 12.7273 7.63672 12.7273L8.27273 13.3647ZM7.63672 14.002C7.63672 14.002 7.54353 14.0015 7.46355 13.9986C7.38357 13.9956 7.34706 13.9862 7.28533 13.9643C7.22361 13.9424 7.13931 13.8906 7.07878 13.8004C7.01825 13.7102 7.00721 13.5441 7.00721 13.5441L7 13.3644L7.63672 12.7273C7.63672 12.7273 7.5433 12.7278 7.46332 12.7307C7.38333 12.7337 7.34683 12.7431 7.2851 12.765C7.22337 12.7869 7.13907 12.8387 7.07855 12.9289C7.01802 13.0191 7.00696 13.1852 7.00696 13.1852L7 13.3644L7.63672 14.002ZM7.63672 14.002C7.63672 14.002 7.72992 14.0015 7.8099 13.9986C7.88988 13.9956 7.92639 13.9862 7.98811 13.9643C8.04984 13.9424 8.13415 13.8906 8.19443 13.8004C8.25472 13.7102 8.266 13.5441 8.266 13.5441L8.27273 13.3647L7.63672 14.002ZM7.63672 12.7273L7 13.3644L7.63672 14.002L8.27273 13.3647L7.63672 12.7273Z" fill="#0047BB"/>
<path d="M14.0003 7.63736L13.9935 7.45793C13.9935 7.45793 13.9823 7.29182 13.922 7.20162C13.8617 7.11141 13.7771 7.0594 13.7157 7.03771C13.6539 7.01578 13.6174 7.00666 13.5374 7.00345C13.4575 7.00025 13.3643 7 13.3643 7L14.0003 7.63736ZM13.3643 8.27473C13.3643 8.27473 13.2711 8.27423 13.1911 8.27128C13.1111 8.26832 13.0746 8.25895 13.0129 8.23702C12.9511 8.21508 12.8668 8.16332 12.8063 8.07311C12.7458 7.98291 12.7348 7.81679 12.7348 7.81679L12.7275 7.63712L13.3643 7C13.3643 7 13.2708 7.00049 13.1909 7.00345C13.1109 7.00641 13.0744 7.01578 13.0126 7.03771C12.9509 7.05965 12.8666 7.11141 12.8061 7.20162C12.7456 7.29182 12.7345 7.45793 12.7345 7.45793L12.7275 7.63712L13.3643 8.27473ZM13.3643 8.27473C13.3643 8.27473 13.4575 8.27423 13.5374 8.27128C13.6174 8.26832 13.6539 8.25895 13.7157 8.23702C13.7774 8.21508 13.8617 8.16332 13.922 8.07311C13.9823 7.98291 13.9935 7.81679 13.9935 7.81679L14.0003 7.63736L13.3643 8.27473ZM13.3643 7L12.7275 7.63712L13.3643 8.27473L14.0003 7.63736L13.3643 7Z" fill="#0047BB"/>
<path d="M14.0003 6.36466L13.9935 6.18523C13.9935 6.18523 13.9823 6.01912 13.922 5.92891C13.8617 5.8387 13.7771 5.7867 13.7157 5.76501C13.6539 5.74307 13.6174 5.73395 13.5374 5.73075C13.4575 5.72754 13.3643 5.72729 13.3643 5.72729L14.0003 6.36466ZM13.3643 7.00202C13.3643 7.00202 13.2711 7.00153 13.1911 6.99857C13.1111 6.99561 13.0746 6.98625 13.0129 6.96431C12.9511 6.94237 12.8668 6.89061 12.8063 6.80041C12.7458 6.7102 12.7348 6.54409 12.7348 6.54409L12.7275 6.36441L13.3643 5.72729C13.3643 5.72729 13.2708 5.72779 13.1909 5.73075C13.1109 5.73371 13.0744 5.74307 13.0126 5.76501C12.9509 5.78694 12.8666 5.8387 12.8061 5.92891C12.7456 6.01912 12.7345 6.18523 12.7345 6.18523L12.7275 6.36441L13.3643 7.00202ZM13.3643 7.00202C13.3643 7.00202 13.4575 7.00153 13.5374 6.99857C13.6174 6.99561 13.6539 6.98625 13.7157 6.96431C13.7774 6.94237 13.8617 6.89061 13.922 6.80041C13.9823 6.7102 13.9935 6.54409 13.9935 6.54409L14.0003 6.36466L13.3643 7.00202ZM13.3643 5.72729L12.7275 6.36441L13.3643 7.00202L14.0003 6.36466L13.3643 5.72729Z" fill="#0047BB"/>
<path d="M8.27273 0.637361L8.266 0.457934C8.266 0.457934 8.25472 0.291822 8.19443 0.201615C8.13415 0.111409 8.0496 0.059402 7.98811 0.037713C7.92639 0.0157775 7.88988 0.00665662 7.8099 0.00345256C7.72992 0.000248503 7.63672 0 7.63672 0L8.27273 0.637361ZM7.63672 1.27473C7.63672 1.27473 7.54353 1.27423 7.46355 1.27128C7.38357 1.26832 7.34706 1.25895 7.28533 1.23702C7.22361 1.21508 7.13931 1.16332 7.07878 1.07311C7.01825 0.982907 7.00721 0.816794 7.00721 0.816794L7 0.63712L7.63672 0C7.63672 0 7.5433 0.00049497 7.46332 0.00345256C7.38333 0.00641015 7.34683 0.0157775 7.2851 0.037713C7.22337 0.0596484 7.13907 0.111409 7.07855 0.201615C7.01802 0.291822 7.00696 0.457934 7.00696 0.457934L7 0.63712L7.63672 1.27473ZM7.63672 1.27473C7.63672 1.27473 7.72992 1.27423 7.8099 1.27128C7.88988 1.26832 7.92639 1.25895 7.98811 1.23702C8.04984 1.21508 8.13415 1.16332 8.19443 1.07311C8.25472 0.982907 8.266 0.816794 8.266 0.816794L8.27273 0.637361L7.63672 1.27473ZM7.63672 0L7 0.63712L7.63672 1.27473L8.27273 0.637361L7.63672 0Z" fill="#0047BB"/>
<path d="M7.00027 0.637361L6.99354 0.457934C6.99354 0.457934 6.98226 0.291822 6.92197 0.201615C6.86168 0.111409 6.77714 0.059402 6.71565 0.037713C6.65392 0.0157775 6.61742 0.00665662 6.53743 0.00345256C6.45745 0.000248503 6.36426 0 6.36426 0L7.00027 0.637361ZM6.36426 1.27473C6.36426 1.27473 6.27107 1.27423 6.19109 1.27128C6.11111 1.26832 6.0746 1.25895 6.01287 1.23702C5.95115 1.21508 5.86685 1.16332 5.80632 1.07311C5.74579 0.982907 5.73475 0.816794 5.73475 0.816794L5.72754 0.63712L6.36426 0C6.36426 0 6.27083 0.00049497 6.19085 0.00345256C6.11087 0.00641015 6.07436 0.0157775 6.01264 0.037713C5.95091 0.0596484 5.86661 0.111409 5.80608 0.201615C5.74556 0.291822 5.7345 0.457934 5.7345 0.457934L5.72754 0.63712L6.36426 1.27473ZM6.36426 1.27473C6.36426 1.27473 6.45745 1.27423 6.53743 1.27128C6.61742 1.26832 6.65392 1.25895 6.71565 1.23702C6.77738 1.21508 6.86168 1.16332 6.92197 1.07311C6.98226 0.982907 6.99354 0.816794 6.99354 0.816794L7.00027 0.637361L6.36426 1.27473ZM6.36426 0L5.72754 0.63712L6.36426 1.27473L7.00027 0.637361L6.36426 0Z" fill="#0047BB"/>
<path d="M1.27273 6.36466L1.266 6.18523C1.266 6.18523 1.25472 6.01912 1.19443 5.92891C1.13415 5.8387 1.0496 5.7867 0.988112 5.76501C0.926385 5.74307 0.889877 5.73395 0.809896 5.73075C0.729915 5.72754 0.636723 5.72729 0.636723 5.72729L1.27273 6.36466ZM0.636723 7.00202C0.636723 7.00202 0.54353 7.00153 0.46355 6.99857C0.383569 6.99561 0.34706 6.98625 0.285334 6.96431C0.223607 6.94237 0.139306 6.89061 0.0787802 6.80041C0.0182543 6.7102 0.00721221 6.54409 0.00721221 6.54409L0 6.36441L0.636723 5.72729C0.636723 5.72729 0.543296 5.72779 0.463315 5.73075C0.383334 5.73371 0.346826 5.74307 0.285099 5.76501C0.223372 5.78694 0.139072 5.8387 0.0785459 5.92891C0.01802 6.01912 0.00696338 6.18523 0.00696338 6.18523L0 6.36441L0.636723 7.00202ZM0.636723 7.00202C0.636723 7.00202 0.729915 7.00153 0.809896 6.99857C0.889877 6.99561 0.926385 6.98625 0.988112 6.96431C1.04984 6.94237 1.13415 6.89061 1.19443 6.80041C1.25472 6.7102 1.266 6.54409 1.266 6.54409L1.27273 6.36466L0.636723 7.00202ZM0.636723 5.72729L0 6.36441L0.636723 7.00202L1.27273 6.36466L0.636723 5.72729Z" fill="#0047BB"/>
<path d="M1.27273 7.63736L1.266 7.45793C1.266 7.45793 1.25472 7.29182 1.19443 7.20162C1.13415 7.11141 1.0496 7.0594 0.988112 7.03771C0.926385 7.01578 0.889877 7.00666 0.809896 7.00345C0.729915 7.00025 0.636723 7 0.636723 7L1.27273 7.63736ZM0.636723 8.27473C0.636723 8.27473 0.54353 8.27423 0.46355 8.27128C0.383569 8.26832 0.34706 8.25895 0.285334 8.23702C0.223607 8.21508 0.139306 8.16332 0.0787802 8.07311C0.0182543 7.98291 0.00721221 7.81679 0.00721221 7.81679L0 7.63712L0.636723 7C0.636723 7 0.543296 7.00049 0.463315 7.00345C0.383334 7.00641 0.346826 7.01578 0.285099 7.03771C0.223372 7.05965 0.139072 7.11141 0.0785459 7.20162C0.01802 7.29182 0.00696338 7.45793 0.00696338 7.45793L0 7.63712L0.636723 8.27473ZM0.636723 8.27473C0.636723 8.27473 0.729915 8.27423 0.809896 8.27128C0.889877 8.26832 0.926385 8.25895 0.988112 8.23702C1.04984 8.21508 1.13415 8.16332 1.19443 8.07311C1.25472 7.98291 1.266 7.81679 1.266 7.81679L1.27273 7.63736L0.636723 8.27473ZM0.636723 7L0 7.63712L0.636723 8.27473L1.27273 7.63736L0.636723 7Z" fill="#0047BB"/>
<path d="M1.90896 3.81925L1.90223 3.63982C1.90223 3.63982 1.89095 3.47371 1.83066 3.3835C1.77038 3.29329 1.68583 3.24129 1.62434 3.2196C1.56262 3.19766 1.52611 3.18854 1.44613 3.18534C1.36615 3.18213 1.27295 3.18188 1.27295 3.18188L1.90896 3.81925ZM1.27295 4.45661C1.27295 4.45661 1.17976 4.45612 1.09978 4.45316C1.0198 4.4502 0.983291 4.44084 0.921564 4.4189C0.859837 4.39697 0.775537 4.3452 0.715011 4.255C0.654485 4.16479 0.643443 3.99868 0.643443 3.99868L0.63623 3.819L1.27295 3.18188C1.27295 3.18188 1.17953 3.18238 1.09955 3.18534C1.01956 3.18829 0.983056 3.19766 0.921329 3.2196C0.859602 3.24153 0.775302 3.29329 0.714776 3.3835C0.654251 3.47371 0.643194 3.63982 0.643194 3.63982L0.63623 3.819L1.27295 4.45661ZM1.27295 4.45661C1.27295 4.45661 1.36615 4.45612 1.44613 4.45316C1.52611 4.4502 1.56262 4.44084 1.62434 4.4189C1.68607 4.39697 1.77038 4.3452 1.83066 4.255C1.89095 4.16479 1.90223 3.99868 1.90223 3.99868L1.90896 3.81925L1.27295 4.45661ZM1.27295 3.18188L0.63623 3.819L1.27295 4.45661L1.90896 3.81925L1.27295 3.18188Z" fill="#0047BB"/>
<path d="M3.18191 2.54654L3.17518 2.36711C3.17518 2.36711 3.1639 2.201 3.10361 2.11079C3.04332 2.02059 2.95878 1.96858 2.89729 1.94689C2.83557 1.92496 2.79906 1.91584 2.71908 1.91263C2.6391 1.90943 2.5459 1.90918 2.5459 1.90918L3.18191 2.54654ZM2.5459 3.18391C2.5459 3.18391 2.45271 3.18341 2.37273 3.18046C2.29275 3.1775 2.25624 3.16813 2.19451 3.1462C2.13279 3.12426 2.04849 3.0725 1.98796 2.98229C1.92743 2.89209 1.91639 2.72597 1.91639 2.72597L1.90918 2.5463L2.5459 1.90918C2.5459 1.90918 2.45248 1.90967 2.37249 1.91263C2.29251 1.91559 2.25601 1.92496 2.19428 1.94689C2.13255 1.96883 2.04825 2.02059 1.98773 2.11079C1.9272 2.201 1.91614 2.36711 1.91614 2.36711L1.90918 2.5463L2.5459 3.18391ZM2.5459 3.18391C2.5459 3.18391 2.6391 3.18341 2.71908 3.18046C2.79906 3.1775 2.83557 3.16813 2.89729 3.1462C2.95902 3.12426 3.04332 3.0725 3.10361 2.98229C3.1639 2.89209 3.17518 2.72597 3.17518 2.72597L3.18191 2.54654L2.5459 3.18391ZM2.5459 1.90918L1.90918 2.5463L2.5459 3.18391L3.18191 2.54654L2.5459 1.90918Z" fill="#0047BB"/>
<path d="M4.45437 1.27384L4.44764 1.09441C4.44764 1.09441 4.43636 0.928296 4.37607 0.83809C4.31579 0.747883 4.23124 0.695877 4.16975 0.674188C4.10803 0.652252 4.07152 0.643131 3.99154 0.639927C3.91156 0.636723 3.81836 0.636475 3.81836 0.636475L4.45437 1.27384ZM3.81836 1.9112C3.81836 1.9112 3.72517 1.91071 3.64519 1.90775C3.56521 1.90479 3.5287 1.89543 3.46697 1.87349C3.40525 1.85155 3.32095 1.79979 3.26042 1.70959C3.19989 1.61938 3.18885 1.45327 3.18885 1.45327L3.18164 1.27359L3.81836 0.636475C3.81836 0.636475 3.72494 0.63697 3.64496 0.639927C3.56498 0.642885 3.52847 0.652252 3.46674 0.674188C3.40501 0.696123 3.32071 0.747883 3.26019 0.83809C3.19966 0.928296 3.1886 1.09441 3.1886 1.09441L3.18164 1.27359L3.81836 1.9112ZM3.81836 1.9112C3.81836 1.9112 3.91156 1.91071 3.99154 1.90775C4.07152 1.90479 4.10803 1.89543 4.16975 1.87349C4.23148 1.85155 4.31579 1.79979 4.37607 1.70959C4.43636 1.61938 4.44764 1.45327 4.44764 1.45327L4.45437 1.27384L3.81836 1.9112ZM3.81836 0.636475L3.18164 1.27359L3.81836 1.9112L4.45437 1.27384L3.81836 0.636475Z" fill="#0047BB"/>
<path d="M10.8181 1.27384L10.8114 1.09441C10.8114 1.09441 10.8001 0.928296 10.7398 0.83809C10.6796 0.747883 10.595 0.695877 10.5335 0.674188C10.4718 0.652252 10.4353 0.643131 10.3553 0.639927C10.2753 0.636723 10.1821 0.636475 10.1821 0.636475L10.8181 1.27384ZM10.1821 1.9112C10.1821 1.9112 10.0889 1.91071 10.009 1.90775C9.92898 1.90479 9.89247 1.89543 9.83074 1.87349C9.76902 1.85155 9.68472 1.79979 9.62419 1.70959C9.56366 1.61938 9.55262 1.45327 9.55262 1.45327L9.54541 1.27359L10.1821 0.636475C10.1821 0.636475 10.0887 0.63697 10.0087 0.639927C9.92874 0.642885 9.89224 0.652252 9.83051 0.674188C9.76878 0.696123 9.68448 0.747883 9.62396 0.83809C9.56343 0.928296 9.55237 1.09441 9.55237 1.09441L9.54541 1.27359L10.1821 1.9112ZM10.1821 1.9112C10.1821 1.9112 10.2753 1.91071 10.3553 1.90775C10.4353 1.90479 10.4718 1.89543 10.5335 1.87349C10.5952 1.85155 10.6796 1.79979 10.7398 1.70959C10.8001 1.61938 10.8114 1.45327 10.8114 1.45327L10.8181 1.27384L10.1821 1.9112ZM10.1821 0.636475L9.54541 1.27359L10.1821 1.9112L10.8181 1.27384L10.1821 0.636475Z" fill="#0047BB"/>
<path d="M12.0911 2.54654L12.0844 2.36711C12.0844 2.36711 12.0731 2.201 12.0128 2.11079C11.9525 2.02059 11.868 1.96858 11.8065 1.94689C11.7447 1.92496 11.7082 1.91584 11.6283 1.91263C11.5483 1.90943 11.4551 1.90918 11.4551 1.90918L12.0911 2.54654ZM11.4551 3.18391C11.4551 3.18391 11.3619 3.18341 11.2819 3.18046C11.2019 3.1775 11.1654 3.16813 11.1037 3.1462C11.042 3.12426 10.9577 3.0725 10.8971 2.98229C10.8366 2.89209 10.8256 2.72597 10.8256 2.72597L10.8184 2.5463L11.4551 1.90918C11.4551 1.90918 11.3617 1.90967 11.2817 1.91263C11.2017 1.91559 11.1652 1.92496 11.1035 1.94689C11.0417 1.96883 10.9574 2.02059 10.8969 2.11079C10.8364 2.201 10.8253 2.36711 10.8253 2.36711L10.8184 2.5463L11.4551 3.18391ZM11.4551 3.18391C11.4551 3.18391 11.5483 3.18341 11.6283 3.18046C11.7082 3.1775 11.7447 3.16813 11.8065 3.1462C11.8682 3.12426 11.9525 3.0725 12.0128 2.98229C12.0731 2.89209 12.0844 2.72597 12.0844 2.72597L12.0911 2.54654L11.4551 3.18391ZM11.4551 1.90918L10.8184 2.5463L11.4551 3.18391L12.0911 2.54654L11.4551 1.90918Z" fill="#0047BB"/>
<path d="M13.3635 3.81925L13.3568 3.63982C13.3568 3.63982 13.3455 3.47371 13.2853 3.3835C13.225 3.29329 13.1404 3.24129 13.0789 3.2196C13.0172 3.19766 12.9807 3.18854 12.9007 3.18534C12.8207 3.18213 12.7275 3.18188 12.7275 3.18188L13.3635 3.81925ZM12.7275 4.45661C12.7275 4.45661 12.6344 4.45612 12.5544 4.45316C12.4744 4.4502 12.4379 4.44084 12.3762 4.4189C12.3144 4.39697 12.2301 4.3452 12.1696 4.255C12.1091 4.16479 12.098 3.99868 12.098 3.99868L12.0908 3.819L12.7275 3.18188C12.7275 3.18188 12.6341 3.18238 12.5541 3.18534C12.4742 3.18829 12.4376 3.19766 12.3759 3.2196C12.3142 3.24153 12.2299 3.29329 12.1694 3.3835C12.1088 3.47371 12.0978 3.63982 12.0978 3.63982L12.0908 3.819L12.7275 4.45661ZM12.7275 4.45661C12.7275 4.45661 12.8207 4.45612 12.9007 4.45316C12.9807 4.4502 13.0172 4.44084 13.0789 4.4189C13.1407 4.39697 13.225 4.3452 13.2853 4.255C13.3455 4.16479 13.3568 3.99868 13.3568 3.99868L13.3635 3.81925L12.7275 4.45661ZM12.7275 3.18188L12.0908 3.819L12.7275 4.45661L13.3635 3.81925L12.7275 3.18188Z" fill="#0047BB"/>
<path d="M13.3635 10.1828L13.3568 10.0033C13.3568 10.0033 13.3455 9.83723 13.2853 9.74703C13.225 9.65682 13.1404 9.60481 13.0789 9.58312C13.0172 9.56119 12.9807 9.55207 12.9007 9.54886C12.8207 9.54566 12.7275 9.54541 12.7275 9.54541L13.3635 10.1828ZM12.7275 10.8201C12.7275 10.8201 12.6344 10.8196 12.5544 10.8167C12.4744 10.8137 12.4379 10.8044 12.3762 10.7824C12.3144 10.7605 12.2301 10.7087 12.1696 10.6185C12.1091 10.5283 12.098 10.3622 12.098 10.3622L12.0908 10.1825L12.7275 9.54541C12.7275 9.54541 12.6341 9.54591 12.5541 9.54886C12.4742 9.55182 12.4376 9.56119 12.3759 9.58312C12.3142 9.60506 12.2299 9.65682 12.1694 9.74703C12.1088 9.83723 12.0978 10.0033 12.0978 10.0033L12.0908 10.1825L12.7275 10.8201ZM12.7275 10.8201C12.7275 10.8201 12.8207 10.8196 12.9007 10.8167C12.9807 10.8137 13.0172 10.8044 13.0789 10.7824C13.1407 10.7605 13.225 10.7087 13.2853 10.6185C13.3455 10.5283 13.3568 10.3622 13.3568 10.3622L13.3635 10.1828L12.7275 10.8201ZM12.7275 9.54541L12.0908 10.1825L12.7275 10.8201L13.3635 10.1828L12.7275 9.54541Z" fill="#0047BB"/>
<path d="M12.0911 11.4555L12.0844 11.276C12.0844 11.276 12.0731 11.1099 12.0128 11.0197C11.9525 10.9295 11.868 10.8775 11.8065 10.8558C11.7447 10.8339 11.7082 10.8248 11.6283 10.8216C11.5483 10.8184 11.4551 10.8181 11.4551 10.8181L12.0911 11.4555ZM11.4551 12.0928C11.4551 12.0928 11.3619 12.0923 11.2819 12.0894C11.2019 12.0864 11.1654 12.0771 11.1037 12.0551C11.042 12.0332 10.9577 11.9814 10.8971 11.8912C10.8366 11.801 10.8256 11.6349 10.8256 11.6349L10.8184 11.4552L11.4551 10.8181C11.4551 10.8181 11.3617 10.8186 11.2817 10.8216C11.2017 10.8245 11.1652 10.8339 11.1035 10.8558C11.0417 10.8778 10.9574 10.9295 10.8969 11.0197C10.8364 11.1099 10.8253 11.276 10.8253 11.276L10.8184 11.4552L11.4551 12.0928ZM11.4551 12.0928C11.4551 12.0928 11.5483 12.0923 11.6283 12.0894C11.7082 12.0864 11.7447 12.0771 11.8065 12.0551C11.8682 12.0332 11.9525 11.9814 12.0128 11.8912C12.0731 11.801 12.0844 11.6349 12.0844 11.6349L12.0911 11.4555L11.4551 12.0928ZM11.4551 10.8181L10.8184 11.4552L11.4551 12.0928L12.0911 11.4555L11.4551 10.8181Z" fill="#0047BB"/>
<path d="M10.8181 12.7282L10.8114 12.5488C10.8114 12.5488 10.8001 12.3826 10.7398 12.2924C10.6796 12.2022 10.595 12.1502 10.5335 12.1285C10.4718 12.1066 10.4353 12.0975 10.3553 12.0943C10.2753 12.0911 10.1821 12.0908 10.1821 12.0908L10.8181 12.7282ZM10.1821 13.3655C10.1821 13.3655 10.0889 13.3651 10.009 13.3621C9.92898 13.3591 9.89247 13.3498 9.83074 13.3278C9.76902 13.3059 9.68472 13.2541 9.62419 13.1639C9.56366 13.0737 9.55262 12.9076 9.55262 12.9076L9.54541 12.7279L10.1821 12.0908C10.1821 12.0908 10.0887 12.0913 10.0087 12.0943C9.92874 12.0972 9.89224 12.1066 9.83051 12.1285C9.76878 12.1505 9.68448 12.2022 9.62396 12.2924C9.56343 12.3826 9.55237 12.5488 9.55237 12.5488L9.54541 12.7279L10.1821 13.3655ZM10.1821 13.3655C10.1821 13.3655 10.2753 13.3651 10.3553 13.3621C10.4353 13.3591 10.4718 13.3498 10.5335 13.3278C10.5952 13.3059 10.6796 13.2541 10.7398 13.1639C10.8001 13.0737 10.8114 12.9076 10.8114 12.9076L10.8181 12.7282L10.1821 13.3655ZM10.1821 12.0908L9.54541 12.7279L10.1821 13.3655L10.8181 12.7282L10.1821 12.0908Z" fill="#0047BB"/>
<path d="M4.45437 12.7282L4.44764 12.5488C4.44764 12.5488 4.43636 12.3826 4.37607 12.2924C4.31579 12.2022 4.23124 12.1502 4.16975 12.1285C4.10803 12.1066 4.07152 12.0975 3.99154 12.0943C3.91156 12.0911 3.81836 12.0908 3.81836 12.0908L4.45437 12.7282ZM3.81836 13.3655C3.81836 13.3655 3.72517 13.3651 3.64519 13.3621C3.56521 13.3591 3.5287 13.3498 3.46697 13.3278C3.40525 13.3059 3.32095 13.2541 3.26042 13.1639C3.19989 13.0737 3.18885 12.9076 3.18885 12.9076L3.18164 12.7279L3.81836 12.0908C3.81836 12.0908 3.72494 12.0913 3.64496 12.0943C3.56498 12.0972 3.52847 12.1066 3.46674 12.1285C3.40501 12.1505 3.32071 12.2022 3.26019 12.2924C3.19966 12.3826 3.1886 12.5488 3.1886 12.5488L3.18164 12.7279L3.81836 13.3655ZM3.81836 13.3655C3.81836 13.3655 3.91156 13.3651 3.99154 13.3621C4.07152 13.3591 4.10803 13.3498 4.16975 13.3278C4.23148 13.3059 4.31579 13.2541 4.37607 13.1639C4.43636 13.0737 4.44764 12.9076 4.44764 12.9076L4.45437 12.7282L3.81836 13.3655ZM3.81836 12.0908L3.18164 12.7279L3.81836 13.3655L4.45437 12.7282L3.81836 12.0908Z" fill="#0047BB"/>
<path d="M3.18191 11.4555L3.17518 11.276C3.17518 11.276 3.1639 11.1099 3.10361 11.0197C3.04332 10.9295 2.95878 10.8775 2.89729 10.8558C2.83557 10.8339 2.79906 10.8248 2.71908 10.8216C2.6391 10.8184 2.5459 10.8181 2.5459 10.8181L3.18191 11.4555ZM2.5459 12.0928C2.5459 12.0928 2.45271 12.0923 2.37273 12.0894C2.29275 12.0864 2.25624 12.0771 2.19451 12.0551C2.13279 12.0332 2.04849 11.9814 1.98796 11.8912C1.92743 11.801 1.91639 11.6349 1.91639 11.6349L1.90918 11.4552L2.5459 10.8181C2.5459 10.8181 2.45248 10.8186 2.37249 10.8216C2.29251 10.8245 2.25601 10.8339 2.19428 10.8558C2.13255 10.8778 2.04825 10.9295 1.98773 11.0197C1.9272 11.1099 1.91614 11.276 1.91614 11.276L1.90918 11.4552L2.5459 12.0928ZM2.5459 12.0928C2.5459 12.0928 2.6391 12.0923 2.71908 12.0894C2.79906 12.0864 2.83557 12.0771 2.89729 12.0551C2.95902 12.0332 3.04332 11.9814 3.10361 11.8912C3.1639 11.801 3.17518 11.6349 3.17518 11.6349L3.18191 11.4555L2.5459 12.0928ZM2.5459 10.8181L1.90918 11.4552L2.5459 12.0928L3.18191 11.4555L2.5459 10.8181Z" fill="#0047BB"/>
<path d="M1.90896 10.1828L1.90223 10.0033C1.90223 10.0033 1.89095 9.83723 1.83066 9.74703C1.77038 9.65682 1.68583 9.60481 1.62434 9.58312C1.56262 9.56119 1.52611 9.55207 1.44613 9.54886C1.36615 9.54566 1.27295 9.54541 1.27295 9.54541L1.90896 10.1828ZM1.27295 10.8201C1.27295 10.8201 1.17976 10.8196 1.09978 10.8167C1.0198 10.8137 0.983291 10.8044 0.921564 10.7824C0.859837 10.7605 0.775537 10.7087 0.715011 10.6185C0.654485 10.5283 0.643443 10.3622 0.643443 10.3622L0.63623 10.1825L1.27295 9.54541C1.27295 9.54541 1.17953 9.54591 1.09955 9.54886C1.01956 9.55182 0.983056 9.56119 0.921329 9.58312C0.859602 9.60506 0.775302 9.65682 0.714776 9.74703C0.654251 9.83723 0.643194 10.0033 0.643194 10.0033L0.63623 10.1825L1.27295 10.8201ZM1.27295 10.8201C1.27295 10.8201 1.36615 10.8196 1.44613 10.8167C1.52611 10.8137 1.56262 10.8044 1.62434 10.7824C1.68607 10.7605 1.77038 10.7087 1.83066 10.6185C1.89095 10.5283 1.90223 10.3622 1.90223 10.3622L1.90896 10.1828L1.27295 10.8201ZM1.27295 9.54541L0.63623 10.1825L1.27295 10.8201L1.90896 10.1828L1.27295 9.54541Z" fill="#0047BB"/>
<path d="M7.5089 10.341L7.50352 10.2067C7.50352 10.2067 7.4945 10.0823 7.44627 10.0147C7.39804 9.94719 7.3304 9.90825 7.28121 9.89201C7.23183 9.87558 7.20262 9.86875 7.13864 9.86635C7.07466 9.86396 7.0001 9.86377 7.0001 9.86377L7.5089 10.341ZM7.0001 10.8183C7.0001 10.8183 6.92555 10.8179 6.86156 10.8157C6.79758 10.8135 6.76837 10.8065 6.71899 10.7901C6.66961 10.7736 6.60217 10.7349 6.55375 10.6673C6.50533 10.5998 6.49649 10.4754 6.49649 10.4754L6.49072 10.3409L7.0001 9.86377C7.0001 9.86377 6.92536 9.86414 6.86137 9.86635C6.79739 9.86857 6.76818 9.87558 6.7188 9.89201C6.66942 9.90844 6.60198 9.94719 6.55356 10.0147C6.50514 10.0823 6.49629 10.2067 6.49629 10.2067L6.49072 10.3409L7.0001 10.8183ZM7.0001 10.8183C7.0001 10.8183 7.07466 10.8179 7.13864 10.8157C7.20262 10.8135 7.23183 10.8065 7.28121 10.7901C7.33059 10.7736 7.39804 10.7349 7.44627 10.6673C7.4945 10.5998 7.50352 10.4754 7.50352 10.4754L7.5089 10.341L7.0001 10.8183ZM7.0001 9.86377L6.49072 10.3409L7.0001 10.8183L7.5089 10.341L7.0001 9.86377Z" fill="#0047BB"/>
<path d="M7.00004 3.18188C5.77783 3.18188 4.75405 3.99364 4.50988 5.07226C4.44892 5.34158 4.67845 5.56825 4.95459 5.56825H4.97277C5.24891 5.56825 5.46439 5.33696 5.56441 5.07957C5.77796 4.53 6.34097 4.13643 7.00004 4.13643C7.84208 4.13643 8.52732 4.77884 8.52732 5.56825C8.52732 6.07845 8.29619 6.26745 7.77335 6.6445C7.57888 6.78482 7.35946 6.94327 7.14921 7.13991C6.48128 7.76561 6.48841 8.38273 6.49095 8.43188V8.87734C6.49095 9.1585 6.71888 9.38643 7.00004 9.38643C7.28121 9.38643 7.50914 9.1585 7.50914 8.87734V8.42759C7.50914 8.41613 7.52084 8.14075 7.86906 7.81477C8.03197 7.66204 8.21626 7.52936 8.39393 7.40098C8.93357 7.01152 9.5455 6.57052 9.5455 5.56825C9.5455 4.25241 8.40361 3.18188 7.00004 3.18188Z" fill="#0047BB"/>
<path d="M7.5089 8.90915L7.50352 8.7748C7.50352 8.7748 7.4945 8.65041 7.44627 8.58286C7.39804 8.51531 7.3304 8.47637 7.28121 8.46013C7.23183 8.4437 7.20262 8.43687 7.13864 8.43447C7.07466 8.43207 7.0001 8.43188 7.0001 8.43188L7.5089 8.90915ZM7.0001 9.38643C7.0001 9.38643 6.92555 9.38606 6.86156 9.38384C6.79758 9.38163 6.76837 9.37461 6.71899 9.35819C6.66961 9.34176 6.60217 9.303 6.55375 9.23546C6.50533 9.16791 6.49649 9.04352 6.49649 9.04352L6.49072 8.90897L7.0001 8.43188C7.0001 8.43188 6.92536 8.43226 6.86137 8.43447C6.79739 8.43668 6.76818 8.4437 6.7188 8.46013C6.66942 8.47655 6.60198 8.51531 6.55356 8.58286C6.50514 8.65041 6.49629 8.7748 6.49629 8.7748L6.49072 8.90897L7.0001 9.38643ZM7.0001 9.38643C7.0001 9.38643 7.07466 9.38606 7.13864 9.38384C7.20262 9.38163 7.23183 9.37461 7.28121 9.35819C7.33059 9.34176 7.39804 9.303 7.44627 9.23546C7.4945 9.16791 7.50352 9.04352 7.50352 9.04352L7.5089 8.90915L7.0001 9.38643ZM7.0001 8.43188L6.49072 8.90897L7.0001 9.38643L7.5089 8.90915L7.0001 8.43188Z" fill="#0047BB"/>
</g>
<defs>
<clipPath id="clip0">
<rect width="14" height="14" fill="white"/>
</clipPath>
</defs>
</svg>
