<svg width="22" height="22" viewBox="0 0 22 22" fill="none" xmlns="http://www.w3.org/2000/svg">
<g clip-path="url(#clip0)">
<path d="M11 21.0016L10.9894 20.7196C10.9894 20.7196 10.9717 20.4586 10.877 20.3168C10.7822 20.1751 10.6494 20.0933 10.5527 20.0593C10.4557 20.0248 10.3984 20.0105 10.2727 20.0054C10.147 20.0004 10.0006 20 10.0006 20L11 21.0016ZM10.0006 22.0031C10.0006 22.0031 9.85412 22.0024 9.72844 21.9977C9.60275 21.9931 9.54538 21.9784 9.44838 21.9439C9.35138 21.9094 9.21891 21.8281 9.1238 21.6863C9.02869 21.5446 9.01133 21.2835 9.01133 21.2835L9 21.0012L10.0006 20C10.0006 20 9.85375 20.0008 9.72807 20.0054C9.60238 20.0101 9.54501 20.0248 9.44801 20.0593C9.35101 20.0937 9.21854 20.1751 9.12343 20.3168C9.02832 20.4586 9.01094 20.7196 9.01094 20.7196L9 21.0012L10.0006 22.0031ZM10.0006 22.0031C10.0006 22.0031 10.147 22.0024 10.2727 21.9977C10.3984 21.9931 10.4557 21.9784 10.5527 21.9439C10.6497 21.9094 10.7822 21.8281 10.877 21.6863C10.9717 21.5446 10.9894 21.2835 10.9894 21.2835L11 21.0016L10.0006 22.0031ZM10.0006 20L9 21.0012L10.0006 22.0031L11 21.0016L10.0006 20Z" fill="#878787"/>
<path d="M13 21.0016L12.9894 20.7196C12.9894 20.7196 12.9717 20.4586 12.877 20.3168C12.7822 20.1751 12.6494 20.0933 12.5527 20.0593C12.4557 20.0248 12.3984 20.0105 12.2727 20.0054C12.147 20.0004 12.0006 20 12.0006 20L13 21.0016ZM12.0006 22.0031C12.0006 22.0031 11.8541 22.0024 11.7284 21.9977C11.6028 21.9931 11.5454 21.9784 11.4484 21.9439C11.3514 21.9094 11.2189 21.8281 11.1238 21.6863C11.0287 21.5446 11.0113 21.2835 11.0113 21.2835L11 21.0012L12.0006 20C12.0006 20 11.8538 20.0008 11.7281 20.0054C11.6024 20.0101 11.545 20.0248 11.448 20.0593C11.351 20.0937 11.2185 20.1751 11.1234 20.3168C11.0283 20.4586 11.0109 20.7196 11.0109 20.7196L11 21.0012L12.0006 22.0031ZM12.0006 22.0031C12.0006 22.0031 12.147 22.0024 12.2727 21.9977C12.3984 21.9931 12.4557 21.9784 12.5527 21.9439C12.6497 21.9094 12.7822 21.8281 12.877 21.6863C12.9717 21.5446 12.9894 21.2835 12.9894 21.2835L13 21.0016L12.0006 22.0031ZM12.0006 20L11 21.0012L12.0006 22.0031L13 21.0016L12.0006 20Z" fill="#878787"/>
<path d="M22 12.0016L21.9894 11.7196C21.9894 11.7196 21.9717 11.4586 21.877 11.3168C21.7822 11.1751 21.6494 11.0933 21.5527 11.0593C21.4557 11.0248 21.3984 11.0105 21.2727 11.0054C21.147 11.0004 21.0006 11 21.0006 11L22 12.0016ZM21.0006 13.0031C21.0006 13.0031 20.8541 13.0024 20.7284 12.9977C20.6028 12.9931 20.5454 12.9784 20.4484 12.9439C20.3514 12.9094 20.2189 12.8281 20.1238 12.6863C20.0287 12.5446 20.0113 12.2835 20.0113 12.2835L20 12.0012L21.0006 11C21.0006 11 20.8538 11.0008 20.7281 11.0054C20.6024 11.0101 20.545 11.0248 20.448 11.0593C20.351 11.0937 20.2185 11.1751 20.1234 11.3168C20.0283 11.4586 20.0109 11.7196 20.0109 11.7196L20 12.0012L21.0006 13.0031ZM21.0006 13.0031C21.0006 13.0031 21.147 13.0024 21.2727 12.9977C21.3984 12.9931 21.4557 12.9784 21.5527 12.9439C21.6497 12.9094 21.7822 12.8281 21.877 12.6863C21.9717 12.5446 21.9894 12.2835 21.9894 12.2835L22 12.0016L21.0006 13.0031ZM21.0006 11L20 12.0012L21.0006 13.0031L22 12.0016L21.0006 11Z" fill="#878787"/>
<path d="M22 10.0016L21.9894 9.71961C21.9894 9.71961 21.9717 9.45858 21.877 9.31682C21.7822 9.17507 21.6494 9.09335 21.5527 9.05926C21.4557 9.02479 21.3984 9.01046 21.2727 9.00543C21.147 9.00039 21.0006 9 21.0006 9L22 10.0016ZM21.0006 11.0031C21.0006 11.0031 20.8541 11.0024 20.7284 10.9977C20.6028 10.9931 20.5454 10.9784 20.4484 10.9439C20.3514 10.9094 20.2189 10.8281 20.1238 10.6863C20.0287 10.5446 20.0113 10.2835 20.0113 10.2835L20 10.0012L21.0006 9C21.0006 9 20.8538 9.00078 20.7281 9.00543C20.6024 9.01007 20.545 9.02479 20.448 9.05926C20.351 9.09373 20.2185 9.17507 20.1234 9.31682C20.0283 9.45858 20.0109 9.71961 20.0109 9.71961L20 10.0012L21.0006 11.0031ZM21.0006 11.0031C21.0006 11.0031 21.147 11.0024 21.2727 10.9977C21.3984 10.9931 21.4557 10.9784 21.5527 10.9439C21.6497 10.9094 21.7822 10.8281 21.877 10.6863C21.9717 10.5446 21.9894 10.2835 21.9894 10.2835L22 10.0016L21.0006 11.0031ZM21.0006 9L20 10.0012L21.0006 11.0031L22 10.0016L21.0006 9Z" fill="#878787"/>
<path d="M13 1.00157L12.9894 0.719611C12.9894 0.719611 12.9717 0.458577 12.877 0.316824C12.7822 0.175071 12.6494 0.0933459 12.5527 0.0592632C12.4557 0.0247932 12.3984 0.0104604 12.2727 0.00542545C12.147 0.000390505 12.0006 0 12.0006 0L13 1.00157ZM12.0006 2.00315C12.0006 2.00315 11.8541 2.00237 11.7284 1.99772C11.6028 1.99307 11.5454 1.97835 11.4484 1.94388C11.3514 1.90941 11.2189 1.82807 11.1238 1.68632C11.0287 1.54457 11.0113 1.28353 11.0113 1.28353L11 1.00119L12.0006 0C12.0006 0 11.8538 0.00077781 11.7281 0.00542545C11.6024 0.0100731 11.545 0.0247932 11.448 0.0592632C11.351 0.0937333 11.2185 0.175071 11.1234 0.316824C11.0283 0.458577 11.0109 0.719611 11.0109 0.719611L11 1.00119L12.0006 2.00315ZM12.0006 2.00315C12.0006 2.00315 12.147 2.00237 12.2727 1.99772C12.3984 1.99307 12.4557 1.97835 12.5527 1.94388C12.6497 1.90941 12.7822 1.82807 12.877 1.68632C12.9717 1.54457 12.9894 1.28353 12.9894 1.28353L13 1.00157L12.0006 2.00315ZM12.0006 0L11 1.00119L12.0006 2.00315L13 1.00157L12.0006 0Z" fill="#878787"/>
<path d="M11 1.00157L10.9894 0.719611C10.9894 0.719611 10.9717 0.458577 10.877 0.316824C10.7822 0.175071 10.6494 0.0933459 10.5527 0.0592632C10.4557 0.0247932 10.3984 0.0104604 10.2727 0.00542545C10.147 0.000390505 10.0006 0 10.0006 0L11 1.00157ZM10.0006 2.00315C10.0006 2.00315 9.85412 2.00237 9.72844 1.99772C9.60275 1.99307 9.54538 1.97835 9.44838 1.94388C9.35138 1.90941 9.21891 1.82807 9.1238 1.68632C9.02869 1.54457 9.01133 1.28353 9.01133 1.28353L9 1.00119L10.0006 0C10.0006 0 9.85375 0.00077781 9.72807 0.00542545C9.60238 0.0100731 9.54501 0.0247932 9.44801 0.0592632C9.35101 0.0937333 9.21854 0.175071 9.12343 0.316824C9.02832 0.458577 9.01094 0.719611 9.01094 0.719611L9 1.00119L10.0006 2.00315ZM10.0006 2.00315C10.0006 2.00315 10.147 2.00237 10.2727 1.99772C10.3984 1.99307 10.4557 1.97835 10.5527 1.94388C10.6497 1.90941 10.7822 1.82807 10.877 1.68632C10.9717 1.54457 10.9894 1.28353 10.9894 1.28353L11 1.00157L10.0006 2.00315ZM10.0006 0L9 1.00119L10.0006 2.00315L11 1.00157L10.0006 0Z" fill="#878787"/>
<path d="M2 10.0016L1.98943 9.71961C1.98943 9.71961 1.9717 9.45858 1.87696 9.31682C1.78223 9.17507 1.64937 9.09335 1.55275 9.05926C1.45575 9.02479 1.39838 9.01046 1.27269 9.00543C1.14701 9.00039 1.00056 9 1.00056 9L2 10.0016ZM1.00056 11.0031C1.00056 11.0031 0.854119 11.0024 0.728436 10.9977C0.602752 10.9931 0.545381 10.9784 0.448381 10.9439C0.351382 10.9094 0.21891 10.8281 0.123797 10.6863C0.0286853 10.5446 0.0113335 10.2835 0.0113335 10.2835L0 10.0012L1.00056 9C1.00056 9 0.85375 9.00078 0.728066 9.00543C0.602383 9.01007 0.545012 9.02479 0.448012 9.05926C0.351013 9.09373 0.218541 9.17507 0.123429 9.31682C0.0283172 9.45858 0.0109425 9.71961 0.0109425 9.71961L0 10.0012L1.00056 11.0031ZM1.00056 11.0031C1.00056 11.0031 1.14701 11.0024 1.27269 10.9977C1.39838 10.9931 1.45575 10.9784 1.55275 10.9439C1.64975 10.9094 1.78223 10.8281 1.87696 10.6863C1.9717 10.5446 1.98943 10.2835 1.98943 10.2835L2 10.0016L1.00056 11.0031ZM1.00056 9L0 10.0012L1.00056 11.0031L2 10.0016L1.00056 9Z" fill="#878787"/>
<path d="M2 12.0016L1.98943 11.7196C1.98943 11.7196 1.9717 11.4586 1.87696 11.3168C1.78223 11.1751 1.64937 11.0933 1.55275 11.0593C1.45575 11.0248 1.39838 11.0105 1.27269 11.0054C1.14701 11.0004 1.00056 11 1.00056 11L2 12.0016ZM1.00056 13.0031C1.00056 13.0031 0.854119 13.0024 0.728436 12.9977C0.602752 12.9931 0.545381 12.9784 0.448381 12.9439C0.351382 12.9094 0.21891 12.8281 0.123797 12.6863C0.0286853 12.5446 0.0113335 12.2835 0.0113335 12.2835L0 12.0012L1.00056 11C1.00056 11 0.85375 11.0008 0.728066 11.0054C0.602383 11.0101 0.545012 11.0248 0.448012 11.0593C0.351013 11.0937 0.218541 11.1751 0.123429 11.3168C0.0283172 11.4586 0.0109425 11.7196 0.0109425 11.7196L0 12.0012L1.00056 13.0031ZM1.00056 13.0031C1.00056 13.0031 1.14701 13.0024 1.27269 12.9977C1.39838 12.9931 1.45575 12.9784 1.55275 12.9439C1.64975 12.9094 1.78223 12.8281 1.87696 12.6863C1.9717 12.5446 1.98943 12.2835 1.98943 12.2835L2 12.0016L1.00056 13.0031ZM1.00056 11L0 12.0012L1.00056 13.0031L2 12.0016L1.00056 11Z" fill="#878787"/>
<path d="M3 6.00157L2.98943 5.71961C2.98943 5.71961 2.9717 5.45858 2.87696 5.31682C2.78223 5.17507 2.64937 5.09335 2.55275 5.05926C2.45575 5.02479 2.39838 5.01046 2.27269 5.00543C2.14701 5.00039 2.00056 5 2.00056 5L3 6.00157ZM2.00056 7.00315C2.00056 7.00315 1.85412 7.00237 1.72844 6.99772C1.60275 6.99307 1.54538 6.97835 1.44838 6.94388C1.35138 6.90941 1.21891 6.82807 1.1238 6.68632C1.02869 6.54457 1.01133 6.28353 1.01133 6.28353L1 6.00119L2.00056 5C2.00056 5 1.85375 5.00078 1.72807 5.00543C1.60238 5.01007 1.54501 5.02479 1.44801 5.05926C1.35101 5.09373 1.21854 5.17507 1.12343 5.31682C1.02832 5.45858 1.01094 5.71961 1.01094 5.71961L1 6.00119L2.00056 7.00315ZM2.00056 7.00315C2.00056 7.00315 2.14701 7.00237 2.27269 6.99772C2.39838 6.99307 2.45575 6.97835 2.55275 6.94388C2.64975 6.90941 2.78223 6.82807 2.87696 6.68632C2.9717 6.54457 2.98943 6.28353 2.98943 6.28353L3 6.00157L2.00056 7.00315ZM2.00056 5L1 6.00119L2.00056 7.00315L3 6.00157L2.00056 5Z" fill="#878787"/>
<path d="M5 4.00157L4.98943 3.71961C4.98943 3.71961 4.9717 3.45858 4.87696 3.31682C4.78223 3.17507 4.64937 3.09335 4.55275 3.05926C4.45575 3.02479 4.39838 3.01046 4.27269 3.00543C4.14701 3.00039 4.00056 3 4.00056 3L5 4.00157ZM4.00056 5.00315C4.00056 5.00315 3.85412 5.00237 3.72844 4.99772C3.60275 4.99307 3.54538 4.97835 3.44838 4.94388C3.35138 4.90941 3.21891 4.82807 3.1238 4.68632C3.02869 4.54457 3.01133 4.28353 3.01133 4.28353L3 4.00119L4.00056 3C4.00056 3 3.85375 3.00078 3.72807 3.00543C3.60238 3.01007 3.54501 3.02479 3.44801 3.05926C3.35101 3.09373 3.21854 3.17507 3.12343 3.31682C3.02832 3.45858 3.01094 3.71961 3.01094 3.71961L3 4.00119L4.00056 5.00315ZM4.00056 5.00315C4.00056 5.00315 4.14701 5.00237 4.27269 4.99772C4.39838 4.99307 4.45575 4.97835 4.55275 4.94388C4.64975 4.90941 4.78223 4.82807 4.87696 4.68632C4.9717 4.54457 4.98943 4.28353 4.98943 4.28353L5 4.00157L4.00056 5.00315ZM4.00056 3L3 4.00119L4.00056 5.00315L5 4.00157L4.00056 3Z" fill="#878787"/>
<path d="M7 2.00157L6.98943 1.71961C6.98943 1.71961 6.9717 1.45858 6.87696 1.31682C6.78223 1.17507 6.64937 1.09335 6.55275 1.05926C6.45575 1.02479 6.39838 1.01046 6.27269 1.00543C6.14701 1.00039 6.00056 1 6.00056 1L7 2.00157ZM6.00056 3.00315C6.00056 3.00315 5.85412 3.00237 5.72844 2.99772C5.60275 2.99307 5.54538 2.97835 5.44838 2.94388C5.35138 2.90941 5.21891 2.82807 5.1238 2.68632C5.02869 2.54457 5.01133 2.28353 5.01133 2.28353L5 2.00119L6.00056 1C6.00056 1 5.85375 1.00078 5.72807 1.00543C5.60238 1.01007 5.54501 1.02479 5.44801 1.05926C5.35101 1.09373 5.21854 1.17507 5.12343 1.31682C5.02832 1.45858 5.01094 1.71961 5.01094 1.71961L5 2.00119L6.00056 3.00315ZM6.00056 3.00315C6.00056 3.00315 6.14701 3.00237 6.27269 2.99772C6.39838 2.99307 6.45575 2.97835 6.55275 2.94388C6.64975 2.90941 6.78223 2.82807 6.87696 2.68632C6.9717 2.54457 6.98943 2.28353 6.98943 2.28353L7 2.00157L6.00056 3.00315ZM6.00056 1L5 2.00119L6.00056 3.00315L7 2.00157L6.00056 1Z" fill="#878787"/>
<path d="M17 2.00157L16.9894 1.71961C16.9894 1.71961 16.9717 1.45858 16.877 1.31682C16.7822 1.17507 16.6494 1.09335 16.5527 1.05926C16.4557 1.02479 16.3984 1.01046 16.2727 1.00543C16.147 1.00039 16.0006 1 16.0006 1L17 2.00157ZM16.0006 3.00315C16.0006 3.00315 15.8541 3.00237 15.7284 2.99772C15.6028 2.99307 15.5454 2.97835 15.4484 2.94388C15.3514 2.90941 15.2189 2.82807 15.1238 2.68632C15.0287 2.54457 15.0113 2.28353 15.0113 2.28353L15 2.00119L16.0006 1C16.0006 1 15.8538 1.00078 15.7281 1.00543C15.6024 1.01007 15.545 1.02479 15.448 1.05926C15.351 1.09373 15.2185 1.17507 15.1234 1.31682C15.0283 1.45858 15.0109 1.71961 15.0109 1.71961L15 2.00119L16.0006 3.00315ZM16.0006 3.00315C16.0006 3.00315 16.147 3.00237 16.2727 2.99772C16.3984 2.99307 16.4557 2.97835 16.5527 2.94388C16.6497 2.90941 16.7822 2.82807 16.877 2.68632C16.9717 2.54457 16.9894 2.28353 16.9894 2.28353L17 2.00157L16.0006 3.00315ZM16.0006 1L15 2.00119L16.0006 3.00315L17 2.00157L16.0006 1Z" fill="#878787"/>
<path d="M19 4.00157L18.9894 3.71961C18.9894 3.71961 18.9717 3.45858 18.877 3.31682C18.7822 3.17507 18.6494 3.09335 18.5527 3.05926C18.4557 3.02479 18.3984 3.01046 18.2727 3.00543C18.147 3.00039 18.0006 3 18.0006 3L19 4.00157ZM18.0006 5.00315C18.0006 5.00315 17.8541 5.00237 17.7284 4.99772C17.6028 4.99307 17.5454 4.97835 17.4484 4.94388C17.3514 4.90941 17.2189 4.82807 17.1238 4.68632C17.0287 4.54457 17.0113 4.28353 17.0113 4.28353L17 4.00119L18.0006 3C18.0006 3 17.8538 3.00078 17.7281 3.00543C17.6024 3.01007 17.545 3.02479 17.448 3.05926C17.351 3.09373 17.2185 3.17507 17.1234 3.31682C17.0283 3.45858 17.0109 3.71961 17.0109 3.71961L17 4.00119L18.0006 5.00315ZM18.0006 5.00315C18.0006 5.00315 18.147 5.00237 18.2727 4.99772C18.3984 4.99307 18.4557 4.97835 18.5527 4.94388C18.6497 4.90941 18.7822 4.82807 18.877 4.68632C18.9717 4.54457 18.9894 4.28353 18.9894 4.28353L19 4.00157L18.0006 5.00315ZM18.0006 3L17 4.00119L18.0006 5.00315L19 4.00157L18.0006 3Z" fill="#878787"/>
<path d="M21 6.00157L20.9894 5.71961C20.9894 5.71961 20.9717 5.45858 20.877 5.31682C20.7822 5.17507 20.6494 5.09335 20.5527 5.05926C20.4557 5.02479 20.3984 5.01046 20.2727 5.00543C20.147 5.00039 20.0006 5 20.0006 5L21 6.00157ZM20.0006 7.00315C20.0006 7.00315 19.8541 7.00237 19.7284 6.99772C19.6028 6.99307 19.5454 6.97835 19.4484 6.94388C19.3514 6.90941 19.2189 6.82807 19.1238 6.68632C19.0287 6.54457 19.0113 6.28353 19.0113 6.28353L19 6.00119L20.0006 5C20.0006 5 19.8538 5.00078 19.7281 5.00543C19.6024 5.01007 19.545 5.02479 19.448 5.05926C19.351 5.09373 19.2185 5.17507 19.1234 5.31682C19.0283 5.45858 19.0109 5.71961 19.0109 5.71961L19 6.00119L20.0006 7.00315ZM20.0006 7.00315C20.0006 7.00315 20.147 7.00237 20.2727 6.99772C20.3984 6.99307 20.4557 6.97835 20.5527 6.94388C20.6497 6.90941 20.7822 6.82807 20.877 6.68632C20.9717 6.54457 20.9894 6.28353 20.9894 6.28353L21 6.00157L20.0006 7.00315ZM20.0006 5L19 6.00119L20.0006 7.00315L21 6.00157L20.0006 5Z" fill="#878787"/>
<path d="M21 16.0016L20.9894 15.7196C20.9894 15.7196 20.9717 15.4586 20.877 15.3168C20.7822 15.1751 20.6494 15.0933 20.5527 15.0593C20.4557 15.0248 20.3984 15.0105 20.2727 15.0054C20.147 15.0004 20.0006 15 20.0006 15L21 16.0016ZM20.0006 17.0031C20.0006 17.0031 19.8541 17.0024 19.7284 16.9977C19.6028 16.9931 19.5454 16.9784 19.4484 16.9439C19.3514 16.9094 19.2189 16.8281 19.1238 16.6863C19.0287 16.5446 19.0113 16.2835 19.0113 16.2835L19 16.0012L20.0006 15C20.0006 15 19.8538 15.0008 19.7281 15.0054C19.6024 15.0101 19.545 15.0248 19.448 15.0593C19.351 15.0937 19.2185 15.1751 19.1234 15.3168C19.0283 15.4586 19.0109 15.7196 19.0109 15.7196L19 16.0012L20.0006 17.0031ZM20.0006 17.0031C20.0006 17.0031 20.147 17.0024 20.2727 16.9977C20.3984 16.9931 20.4557 16.9784 20.5527 16.9439C20.6497 16.9094 20.7822 16.8281 20.877 16.6863C20.9717 16.5446 20.9894 16.2835 20.9894 16.2835L21 16.0016L20.0006 17.0031ZM20.0006 15L19 16.0012L20.0006 17.0031L21 16.0016L20.0006 15Z" fill="#878787"/>
<path d="M19 18.0016L18.9894 17.7196C18.9894 17.7196 18.9717 17.4586 18.877 17.3168C18.7822 17.1751 18.6494 17.0933 18.5527 17.0593C18.4557 17.0248 18.3984 17.0105 18.2727 17.0054C18.147 17.0004 18.0006 17 18.0006 17L19 18.0016ZM18.0006 19.0031C18.0006 19.0031 17.8541 19.0024 17.7284 18.9977C17.6028 18.9931 17.5454 18.9784 17.4484 18.9439C17.3514 18.9094 17.2189 18.8281 17.1238 18.6863C17.0287 18.5446 17.0113 18.2835 17.0113 18.2835L17 18.0012L18.0006 17C18.0006 17 17.8538 17.0008 17.7281 17.0054C17.6024 17.0101 17.545 17.0248 17.448 17.0593C17.351 17.0937 17.2185 17.1751 17.1234 17.3168C17.0283 17.4586 17.0109 17.7196 17.0109 17.7196L17 18.0012L18.0006 19.0031ZM18.0006 19.0031C18.0006 19.0031 18.147 19.0024 18.2727 18.9977C18.3984 18.9931 18.4557 18.9784 18.5527 18.9439C18.6497 18.9094 18.7822 18.8281 18.877 18.6863C18.9717 18.5446 18.9894 18.2835 18.9894 18.2835L19 18.0016L18.0006 19.0031ZM18.0006 17L17 18.0012L18.0006 19.0031L19 18.0016L18.0006 17Z" fill="#878787"/>
<path d="M17 20.0016L16.9894 19.7196C16.9894 19.7196 16.9717 19.4586 16.877 19.3168C16.7822 19.1751 16.6494 19.0933 16.5527 19.0593C16.4557 19.0248 16.3984 19.0105 16.2727 19.0054C16.147 19.0004 16.0006 19 16.0006 19L17 20.0016ZM16.0006 21.0031C16.0006 21.0031 15.8541 21.0024 15.7284 20.9977C15.6028 20.9931 15.5454 20.9784 15.4484 20.9439C15.3514 20.9094 15.2189 20.8281 15.1238 20.6863C15.0287 20.5446 15.0113 20.2835 15.0113 20.2835L15 20.0012L16.0006 19C16.0006 19 15.8538 19.0008 15.7281 19.0054C15.6024 19.0101 15.545 19.0248 15.448 19.0593C15.351 19.0937 15.2185 19.1751 15.1234 19.3168C15.0283 19.4586 15.0109 19.7196 15.0109 19.7196L15 20.0012L16.0006 21.0031ZM16.0006 21.0031C16.0006 21.0031 16.147 21.0024 16.2727 20.9977C16.3984 20.9931 16.4557 20.9784 16.5527 20.9439C16.6497 20.9094 16.7822 20.8281 16.877 20.6863C16.9717 20.5446 16.9894 20.2835 16.9894 20.2835L17 20.0016L16.0006 21.0031ZM16.0006 19L15 20.0012L16.0006 21.0031L17 20.0016L16.0006 19Z" fill="#878787"/>
<path d="M7 20.0016L6.98943 19.7196C6.98943 19.7196 6.9717 19.4586 6.87696 19.3168C6.78223 19.1751 6.64937 19.0933 6.55275 19.0593C6.45575 19.0248 6.39838 19.0105 6.27269 19.0054C6.14701 19.0004 6.00056 19 6.00056 19L7 20.0016ZM6.00056 21.0031C6.00056 21.0031 5.85412 21.0024 5.72844 20.9977C5.60275 20.9931 5.54538 20.9784 5.44838 20.9439C5.35138 20.9094 5.21891 20.8281 5.1238 20.6863C5.02869 20.5446 5.01133 20.2835 5.01133 20.2835L5 20.0012L6.00056 19C6.00056 19 5.85375 19.0008 5.72807 19.0054C5.60238 19.0101 5.54501 19.0248 5.44801 19.0593C5.35101 19.0937 5.21854 19.1751 5.12343 19.3168C5.02832 19.4586 5.01094 19.7196 5.01094 19.7196L5 20.0012L6.00056 21.0031ZM6.00056 21.0031C6.00056 21.0031 6.14701 21.0024 6.27269 20.9977C6.39838 20.9931 6.45575 20.9784 6.55275 20.9439C6.64975 20.9094 6.78223 20.8281 6.87696 20.6863C6.9717 20.5446 6.98943 20.2835 6.98943 20.2835L7 20.0016L6.00056 21.0031ZM6.00056 19L5 20.0012L6.00056 21.0031L7 20.0016L6.00056 19Z" fill="#878787"/>
<path d="M5 18.0016L4.98943 17.7196C4.98943 17.7196 4.9717 17.4586 4.87696 17.3168C4.78223 17.1751 4.64937 17.0933 4.55275 17.0593C4.45575 17.0248 4.39838 17.0105 4.27269 17.0054C4.14701 17.0004 4.00056 17 4.00056 17L5 18.0016ZM4.00056 19.0031C4.00056 19.0031 3.85412 19.0024 3.72844 18.9977C3.60275 18.9931 3.54538 18.9784 3.44838 18.9439C3.35138 18.9094 3.21891 18.8281 3.1238 18.6863C3.02869 18.5446 3.01133 18.2835 3.01133 18.2835L3 18.0012L4.00056 17C4.00056 17 3.85375 17.0008 3.72807 17.0054C3.60238 17.0101 3.54501 17.0248 3.44801 17.0593C3.35101 17.0937 3.21854 17.1751 3.12343 17.3168C3.02832 17.4586 3.01094 17.7196 3.01094 17.7196L3 18.0012L4.00056 19.0031ZM4.00056 19.0031C4.00056 19.0031 4.14701 19.0024 4.27269 18.9977C4.39838 18.9931 4.45575 18.9784 4.55275 18.9439C4.64975 18.9094 4.78223 18.8281 4.87696 18.6863C4.9717 18.5446 4.98943 18.2835 4.98943 18.2835L5 18.0016L4.00056 19.0031ZM4.00056 17L3 18.0012L4.00056 19.0031L5 18.0016L4.00056 17Z" fill="#878787"/>
<path d="M3 16.0016L2.98943 15.7196C2.98943 15.7196 2.9717 15.4586 2.87696 15.3168C2.78223 15.1751 2.64937 15.0933 2.55275 15.0593C2.45575 15.0248 2.39838 15.0105 2.27269 15.0054C2.14701 15.0004 2.00056 15 2.00056 15L3 16.0016ZM2.00056 17.0031C2.00056 17.0031 1.85412 17.0024 1.72844 16.9977C1.60275 16.9931 1.54538 16.9784 1.44838 16.9439C1.35138 16.9094 1.21891 16.8281 1.1238 16.6863C1.02869 16.5446 1.01133 16.2835 1.01133 16.2835L1 16.0012L2.00056 15C2.00056 15 1.85375 15.0008 1.72807 15.0054C1.60238 15.0101 1.54501 15.0248 1.44801 15.0593C1.35101 15.0937 1.21854 15.1751 1.12343 15.3168C1.02832 15.4586 1.01094 15.7196 1.01094 15.7196L1 16.0012L2.00056 17.0031ZM2.00056 17.0031C2.00056 17.0031 2.14701 17.0024 2.27269 16.9977C2.39838 16.9931 2.45575 16.9784 2.55275 16.9439C2.64975 16.9094 2.78223 16.8281 2.87696 16.6863C2.9717 16.5446 2.98943 16.2835 2.98943 16.2835L3 16.0016L2.00056 17.0031ZM2.00056 15L1 16.0012L2.00056 17.0031L3 16.0016L2.00056 15Z" fill="#878787"/>
<path d="M6.18145 8.19373C6.42338 7.93542 6.81562 7.93542 7.05755 8.19373L11.4381 12.8708C11.68 13.1292 11.68 13.548 11.4381 13.8063C11.1961 14.0646 10.8039 14.0646 10.562 13.8063L6.18145 9.12915C5.93952 8.87084 5.93952 8.45204 6.18145 8.19373Z" fill="#878787"/>
<path d="M15.8186 8.19373C16.0605 8.45204 16.0605 8.87085 15.8186 9.12916L11.4381 13.8063C11.1961 14.0646 10.8039 14.0646 10.562 13.8063C10.32 13.548 10.32 13.1292 10.5619 12.8708L14.9425 8.19373C15.1844 7.93542 15.5766 7.93542 15.8186 8.19373Z" fill="#878787"/>
</g>
<defs>
<clipPath id="clip0">
<rect width="22" height="22" fill="white"/>
</clipPath>
</defs>
</svg>
