<svg width="22" height="22" viewBox="0 0 22 22" fill="none" xmlns="http://www.w3.org/2000/svg">
<circle cx="11" cy="11" r="10.5" stroke="#878787"/>
<path d="M6.18145 8.19373C6.42338 7.93542 6.81562 7.93542 7.05755 8.19373L11.4381 12.8708C11.68 13.1292 11.68 13.548 11.4381 13.8063C11.1961 14.0646 10.8039 14.0646 10.562 13.8063L6.18145 9.12915C5.93952 8.87084 5.93952 8.45204 6.18145 8.19373Z" fill="#878787"/>
<path d="M15.8186 8.19373C16.0605 8.45204 16.0605 8.87085 15.8186 9.12916L11.4381 13.8063C11.1961 14.0646 10.8039 14.0646 10.562 13.8063C10.32 13.548 10.32 13.1292 10.5619 12.8708L14.9425 8.19373C15.1844 7.93542 15.5766 7.93542 15.8186 8.19373Z" fill="#878787"/>
</svg>
