<svg width="36" height="36" viewBox="0 0 36 36" fill="none" xmlns="http://www.w3.org/2000/svg">
<path fill-rule="evenodd" clip-rule="evenodd" d="M5.27208 30.7279C1.89642 27.3523 0 22.7739 0 18C0 13.2261 1.89642 8.64773 5.27208 5.27208C8.64773 1.89642 13.2261 0 18 0C22.7739 0 27.3523 1.89642 30.7279 5.27208C34.1036 8.64773 36 13.2261 36 18C36 22.7739 34.1036 27.3523 30.7279 30.7279C27.3523 34.1036 22.7739 36 18 36C13.2261 36 8.64773 34.1036 5.27208 30.7279ZM10.3201 19.2786C10.1496 19.2786 9.98614 19.2109 9.8656 19.0903C9.74507 18.9698 9.67734 18.8063 9.67731 18.6359L9.67686 17.359C9.67688 17.1885 9.74461 17.025 9.86515 16.9045C9.98568 16.784 10.1492 16.7162 10.3196 16.7162C12.3858 16.7162 14.4519 16.7172 16.518 16.7182C19.5723 16.7197 22.6266 16.7211 25.6809 16.7194C25.8513 16.7194 26.0148 16.7872 26.1353 16.9077C26.2559 17.0282 26.3236 17.1917 26.3236 17.3622L26.3241 18.6418C26.324 18.8122 26.2563 18.9757 26.1358 19.0962C26.0153 19.2168 25.8518 19.2845 25.6813 19.2845L10.3201 19.2786Z" fill="url(#paint0_linear_modal)"/>
<defs>
<linearGradient id="paint0_linear_modal" x1="0" y1="0" x2="36" y2="36" gradientUnits="userSpaceOnUse">
<stop stop-color="#DC706A"/>
<stop offset="1" stop-color="#DD8751"/>
</linearGradient>
</defs>
</svg>
