<svg width="28" height="28" viewBox="0 0 28 28" fill="none" xmlns="http://www.w3.org/2000/svg">
<path d="M14 25C20.0751 25 25 20.0751 25 14C25 7.92487 20.0751 3 14 3C7.92487 3 3 7.92487 3 14C3 20.0751 7.92487 25 14 25Z" fill="#A0A0A0"/>
<path fill-rule="evenodd" clip-rule="evenodd" d="M13.999 8.53859L10.1023 9.7291L10.102 9.72812C10.0688 9.7383 10.034 9.74191 9.99953 9.73863C9.96504 9.73534 9.93154 9.72549 9.90099 9.70906C9.87045 9.69296 9.84319 9.67063 9.82118 9.64402C9.79917 9.61708 9.78242 9.5862 9.77257 9.55335C9.76239 9.52017 9.7591 9.48535 9.76239 9.45085C9.76567 9.41636 9.77585 9.38285 9.79228 9.3523C9.8087 9.32175 9.83103 9.29449 9.85797 9.2728C9.8849 9.25079 9.91577 9.23437 9.94894 9.22451L13.9225 8.01133C13.9724 7.99622 14.0256 7.99622 14.0755 8.01133L18.1358 9.25112C18.2025 9.27182 18.2583 9.31781 18.2908 9.37924C18.3233 9.44067 18.3306 9.51261 18.3102 9.5793C18.2898 9.64599 18.2442 9.70183 18.1828 9.73469C18.1214 9.76786 18.0494 9.77509 17.9827 9.75505L13.999 8.53859ZM17.6405 14.6148L19.4449 10.8631C19.4657 11.1102 19.4748 11.3584 19.4721 11.6066C19.4718 12.4745 19.367 13.3392 19.1604 14.1824C18.8809 15.3276 18.3941 16.412 17.7241 17.3818C17.0229 18.3908 16.0382 19.3844 14.6463 20.2169L17.6356 14.625L17.6405 14.6148ZM8.55559 10.8248L13.3737 20.2303C11.9701 19.395 10.9792 18.3962 10.2736 17.3818C9.60358 16.412 9.11682 15.3276 8.83731 14.1824C8.63072 13.3395 8.52594 12.4749 8.52562 11.6073C8.52234 11.346 8.53243 11.0848 8.55559 10.8248ZM19.6843 9.7263C19.7047 9.7343 19.724 9.74484 19.7417 9.75777C19.7697 9.77781 19.7936 9.80344 19.8117 9.833C19.8298 9.86257 19.8419 9.89509 19.8475 9.92958L19.9168 10.3478C19.9763 10.765 20.0038 11.1861 19.9996 11.6076C19.9992 12.5179 19.8895 13.4252 19.6728 14.3096C19.3778 15.5172 18.8645 16.6604 18.1576 17.6827C17.3388 18.8591 16.1531 20.0154 14.4488 20.9343L14.125 21.1087C14.0865 21.1294 14.0438 21.1402 14.0005 21.1402C13.9571 21.1402 13.9144 21.1294 13.8763 21.1084L13.5522 20.9339C11.8462 20.0158 10.6605 18.8591 9.84334 17.6824C9.1362 16.6601 8.62251 15.5165 8.32723 14.3089C8.11046 13.4246 8.00076 12.5176 8.00043 11.6069C7.99616 11.1855 8.02375 10.7643 8.0832 10.3471L8.14812 9.95535C8.14898 9.93188 8.15309 9.90854 8.16024 9.88597C8.17075 9.85279 8.1875 9.82224 8.20984 9.79563C8.23217 9.76935 8.25976 9.74734 8.29064 9.73157C8.32151 9.7158 8.35534 9.70628 8.38983 9.70332C8.42432 9.70069 8.45913 9.70496 8.49198 9.7158C8.52482 9.72664 8.55537 9.74406 8.58164 9.76672C8.60792 9.78939 8.62927 9.81731 8.6447 9.84819L10.9888 14.4219H17.065C17.0921 14.4219 17.1188 14.4261 17.1443 14.4342L17.1718 14.3826L19.3488 9.85213C19.3793 9.79005 19.4335 9.74274 19.4989 9.7204C19.5594 9.69971 19.6253 9.70185 19.6843 9.7263ZM16.8708 14.9462H11.2575L14.0059 20.3089L16.8708 14.9462Z" fill="white"/>
<defs>
<linearGradient
          id="paint0_linear_2217_205"
          x1="0"
          y1="11"
          x2="22"
          y2="11"
          gradientUnits="userSpaceOnUse"
        >
          <stop stop-color="#8BB7FF" />
          <stop offset="1" stop-color="#0061FF" />
        </linearGradient>
</defs>
</svg>
