<svg width="108" height="108" viewBox="0 0 108 108" fill="none" xmlns="http://www.w3.org/2000/svg">
<g filter="url(#filter0_d)">
<circle cx="54" cy="54" r="44" fill="white"/>
<circle cx="54" cy="54" r="43.5" stroke="#EEEEEE"/>
</g>
<path d="M67.5277 48.5852L57.502 38.4959L49.9484 46.0974L38 34.0731L40.0601 32L49.9484 42.0893L57.502 34.4878L69.5878 46.512L67.5277 48.5852Z" fill="url(#paint0_linear)"/>
<path d="M70 40.7074V49H61.7597L70 40.7074Z" fill="url(#paint1_linear)"/>
<path d="M35.56 73.064C34.6747 73.064 33.816 72.9467 32.984 72.712C32.1627 72.4667 31.5013 72.152 31 71.768L31.88 69.816C32.36 70.168 32.9307 70.4507 33.592 70.664C34.2533 70.8773 34.9147 70.984 35.576 70.984C36.312 70.984 36.856 70.8773 37.208 70.664C37.56 70.44 37.736 70.1467 37.736 69.784C37.736 69.5173 37.6293 69.2987 37.416 69.128C37.2133 68.9467 36.9467 68.8027 36.616 68.696C36.296 68.5893 35.8587 68.472 35.304 68.344C34.4507 68.1413 33.752 67.9387 33.208 67.736C32.664 67.5333 32.1947 67.208 31.8 66.76C31.416 66.312 31.224 65.7147 31.224 64.968C31.224 64.3173 31.4 63.7307 31.752 63.208C32.104 62.6747 32.632 62.2533 33.336 61.944C34.0507 61.6347 34.92 61.48 35.944 61.48C36.6587 61.48 37.3573 61.5653 38.04 61.736C38.7227 61.9067 39.32 62.152 39.832 62.472L39.032 64.44C37.9973 63.8533 36.9627 63.56 35.928 63.56C35.2027 63.56 34.664 63.6773 34.312 63.912C33.9707 64.1467 33.8 64.456 33.8 64.84C33.8 65.224 33.9973 65.512 34.392 65.704C34.7973 65.8853 35.4107 66.0667 36.232 66.248C37.0853 66.4507 37.784 66.6533 38.328 66.856C38.872 67.0587 39.336 67.3787 39.72 67.816C40.1147 68.2533 40.312 68.8453 40.312 69.592C40.312 70.232 40.1307 70.8187 39.768 71.352C39.416 71.8747 38.8827 72.2907 38.168 72.6C37.4533 72.9093 36.584 73.064 35.56 73.064Z" fill="url(#paint2_linear)"/>
<path d="M47.1391 64.136C48.2058 64.136 49.0645 64.456 49.7151 65.096C50.3765 65.736 50.7071 66.6853 50.7071 67.944V72.872H48.2111V68.328C48.2111 67.6453 48.0618 67.1387 47.7631 66.808C47.4645 66.4667 47.0325 66.296 46.4671 66.296C45.8378 66.296 45.3365 66.4933 44.9631 66.888C44.5898 67.272 44.4031 67.848 44.4031 68.616V72.872H41.9071V61H44.4031V65.16C44.7338 64.8293 45.1338 64.5787 45.6031 64.408C46.0725 64.2267 46.5845 64.136 47.1391 64.136Z" fill="url(#paint3_linear)"/>
<path d="M57.1594 73C56.2527 73 55.4367 72.8133 54.7114 72.44C53.9967 72.056 53.4367 71.528 53.0314 70.856C52.626 70.184 52.4234 69.4213 52.4234 68.568C52.4234 67.7147 52.626 66.952 53.0314 66.28C53.4367 65.608 53.9967 65.0853 54.7114 64.712C55.4367 64.328 56.2527 64.136 57.1594 64.136C58.066 64.136 58.8767 64.328 59.5914 64.712C60.306 65.0853 60.866 65.608 61.2714 66.28C61.6767 66.952 61.8794 67.7147 61.8794 68.568C61.8794 69.4213 61.6767 70.184 61.2714 70.856C60.866 71.528 60.306 72.056 59.5914 72.44C58.8767 72.8133 58.066 73 57.1594 73ZM57.1594 70.952C57.7994 70.952 58.322 70.7387 58.7274 70.312C59.1434 69.8747 59.3514 69.2933 59.3514 68.568C59.3514 67.8427 59.1434 67.2667 58.7274 66.84C58.322 66.4027 57.7994 66.184 57.1594 66.184C56.5194 66.184 55.9914 66.4027 55.5754 66.84C55.1594 67.2667 54.9514 67.8427 54.9514 68.568C54.9514 69.2933 55.1594 69.8747 55.5754 70.312C55.9914 70.7387 56.5194 70.952 57.1594 70.952Z" fill="url(#paint4_linear)"/>
<path d="M65.9317 65.4C66.2304 64.984 66.6304 64.6693 67.1318 64.456C67.6438 64.2427 68.2304 64.136 68.8918 64.136V66.44C68.6144 66.4187 68.4277 66.408 68.3317 66.408C67.6171 66.408 67.0571 66.6107 66.6517 67.016C66.2464 67.4107 66.0437 68.008 66.0437 68.808V72.872H63.5478V64.264H65.9317V65.4Z" fill="url(#paint5_linear)"/>
<path d="M76.2248 72.456C75.9794 72.6373 75.6754 72.776 75.3128 72.872C74.9608 72.9573 74.5874 73 74.1927 73C73.1687 73 72.3741 72.7387 71.8088 72.216C71.2541 71.6933 70.9768 70.9253 70.9768 69.912V66.376H69.6488V64.456H70.9768V62.36H73.4727V64.456H75.6168V66.376H73.4727V69.88C73.4727 70.2427 73.5634 70.5253 73.7448 70.728C73.9368 70.92 74.2034 71.016 74.5448 71.016C74.9394 71.016 75.2754 70.9093 75.5527 70.696L76.2248 72.456Z" fill="url(#paint6_linear)"/>
<defs>
<filter id="filter0_d" x="0" y="0" width="108" height="108" filterUnits="userSpaceOnUse" color-interpolation-filters="sRGB">
<feFlood flood-opacity="0" result="BackgroundImageFix"/>
<feColorMatrix in="SourceAlpha" type="matrix" values="0 0 0 0 0 0 0 0 0 0 0 0 0 0 0 0 0 0 127 0" result="hardAlpha"/>
<feOffset/>
<feGaussianBlur stdDeviation="5"/>
<feComposite in2="hardAlpha" operator="out"/>
<feColorMatrix type="matrix" values="0 0 0 0 0.898039 0 0 0 0 0.898039 0 0 0 0 0.898039 0 0 0 1 0"/>
<feBlend mode="normal" in2="BackgroundImageFix" result="effect1_dropShadow"/>
<feBlend mode="normal" in="SourceGraphic" in2="effect1_dropShadow" result="shape"/>
</filter>
<linearGradient id="paint0_linear" x1="31" y1="32" x2="71.8735" y2="77.0149" gradientUnits="userSpaceOnUse">
<stop stop-color="#98CF71"/>
<stop offset="1" stop-color="#63C8A7"/>
</linearGradient>
<linearGradient id="paint1_linear" x1="31" y1="32" x2="71.8735" y2="77.0149" gradientUnits="userSpaceOnUse">
<stop stop-color="#98CF71"/>
<stop offset="1" stop-color="#63C8A7"/>
</linearGradient>
<linearGradient id="paint2_linear" x1="31" y1="32" x2="71.8735" y2="77.0149" gradientUnits="userSpaceOnUse">
<stop stop-color="#98CF71"/>
<stop offset="1" stop-color="#63C8A7"/>
</linearGradient>
<linearGradient id="paint3_linear" x1="31" y1="32" x2="71.8735" y2="77.0149" gradientUnits="userSpaceOnUse">
<stop stop-color="#98CF71"/>
<stop offset="1" stop-color="#63C8A7"/>
</linearGradient>
<linearGradient id="paint4_linear" x1="31" y1="32" x2="71.8735" y2="77.0149" gradientUnits="userSpaceOnUse">
<stop stop-color="#98CF71"/>
<stop offset="1" stop-color="#63C8A7"/>
</linearGradient>
<linearGradient id="paint5_linear" x1="31" y1="32" x2="71.8735" y2="77.0149" gradientUnits="userSpaceOnUse">
<stop stop-color="#98CF71"/>
<stop offset="1" stop-color="#63C8A7"/>
</linearGradient>
<linearGradient id="paint6_linear" x1="31" y1="32" x2="71.8735" y2="77.0149" gradientUnits="userSpaceOnUse">
<stop stop-color="#98CF71"/>
<stop offset="1" stop-color="#63C8A7"/>
</linearGradient>
</defs>
</svg>
