<svg width="36" height="36" viewBox="0 0 36 36" fill="none" xmlns="http://www.w3.org/2000/svg">
<path d="M30.7494 30.7286C23.721 37.757 12.3612 37.757 5.33281 30.7286C-1.69556 23.7003 -1.69556 12.2587 5.25109 5.23037C12.2795 -1.71628 23.721 -1.71628 30.7494 5.23037C37.696 12.2587 37.696 23.7003 30.7494 30.7286ZM29.1149 10.9511C28.6245 10.4608 27.889 10.4608 27.4804 10.9511L15.2216 23.2099L9.5008 17.4892C9.01045 16.9988 8.27492 16.9988 7.8663 17.4892C7.37595 17.9795 7.37595 18.715 7.8663 19.1237L14.0774 25.3348C14.0774 25.3348 14.5678 25.9069 15.3033 25.9069C15.8754 25.9069 16.3657 25.3348 16.3657 25.3348L29.1149 12.5856C29.6052 12.177 29.6052 11.4415 29.1149 10.9511Z" fill="url(#paint2_linear_modal)"/>
<defs>
<linearGradient id="paint2_linear_modal" x1="0.0512696" y1="18.0102" x2="35.9594" y2="18.0102" gradientUnits="userSpaceOnUse">
<stop stop-color="#80D5F8"/>
<stop offset="1" stop-color="#54BEF3"/>
</linearGradient>
</defs>
</svg>
