<svg width="28" height="28" viewBox="0 0 28 28" fill="none" xmlns="http://www.w3.org/2000/svg">
<path d="M14 25C20.0751 25 25 20.0751 25 14C25 7.92487 20.0751 3 14 3C7.92487 3 3 7.92487 3 14C3 20.0751 7.92487 25 14 25Z" fill="#A0A0A0"/>
<path d="M7.97918 13.884C11.1859 12.4869 13.3242 11.5658 14.3941 11.1208C17.449 9.85022 18.0837 9.62951 18.4974 9.62214C18.5884 9.62062 18.7919 9.64317 18.9237 9.75011C19.035 9.84041 19.0656 9.96239 19.0803 10.048C19.0949 10.1336 19.1132 10.3286 19.0986 10.481C18.9331 12.2204 18.2168 16.4414 17.8524 18.3895C17.6982 19.2138 17.3946 19.4902 17.1007 19.5172C16.4619 19.576 15.9768 19.0951 15.3581 18.6895C14.3899 18.0549 13.843 17.6598 12.9033 17.0405C11.8172 16.3249 12.5213 15.9315 13.1402 15.2886C13.3022 15.1204 16.1167 12.5604 16.1712 12.3281C16.178 12.2991 16.1843 12.1908 16.12 12.1337C16.0557 12.0765 15.9607 12.0961 15.8922 12.1116C15.7951 12.1336 14.2485 13.1559 11.2524 15.1784C10.8134 15.4798 10.4157 15.6267 10.0595 15.619C9.66671 15.6105 8.9112 15.3969 8.34956 15.2144C7.66068 14.9904 7.11318 14.8721 7.16085 14.4918C7.18569 14.2937 7.45846 14.0911 7.97918 13.884Z" fill="white"/>
<defs>
<linearGradient
          id="paint0_linear_2217_205"
          x1="0"
          y1="11"
          x2="22"
          y2="11"
          gradientUnits="userSpaceOnUse"
        >
          <stop stop-color="#8BB7FF" />
          <stop offset="1" stop-color="#0061FF" />
        </linearGradient>
</defs>

</svg>
