<svg width="22" height="22" viewBox="0 0 22 22" fill="none" xmlns="http://www.w3.org/2000/svg">
<path d="M8.37241 2.59732C8.58307 2.59703 8.78586 2.67733 8.93921 2.82176C9.09256 2.96619 9.18485 3.16382 9.19716 3.37412C9.20946 3.58442 9.14086 3.79146 9.00541 3.95279C8.86996 4.11413 8.67792 4.21754 8.46866 4.24182L8.37241 4.24732H5.89741C5.48114 4.24719 5.08019 4.40441 4.77496 4.68746C4.46973 4.97051 4.28276 5.35847 4.25154 5.77357L4.24741 5.89732V15.7973C4.24728 16.2136 4.4045 16.6145 4.68755 16.9198C4.9706 17.225 5.35856 17.412 5.77366 17.4432L5.89741 17.4473H15.7974C16.2137 17.4475 16.6146 17.2902 16.9199 17.0072C17.2251 16.7241 17.4121 16.3362 17.4433 15.9211L17.4474 15.7973V13.3223C17.4471 13.1117 17.5274 12.9089 17.6719 12.7555C17.8163 12.6022 18.0139 12.5099 18.2242 12.4976C18.4345 12.4853 18.6415 12.5539 18.8029 12.6893C18.9642 12.8248 19.0676 13.0168 19.0919 13.2261L19.0974 13.3223V15.7973C19.0974 16.644 18.772 17.4582 18.1885 18.0717C17.605 18.6851 16.808 19.0509 15.9624 19.0932L15.7974 19.0973H5.89741C5.05076 19.0973 4.2365 18.7719 3.62304 18.1884C3.00959 17.6049 2.64387 16.8079 2.60154 15.9623L2.59741 15.7973V5.89732C2.59741 5.05067 2.92282 4.23641 3.50633 3.62295C4.08985 3.0095 4.88682 2.64378 5.73241 2.60145L5.89741 2.59732H8.37241ZM17.4474 2.59732C17.8637 2.59719 18.2646 2.75441 18.5699 3.03746C18.8751 3.32051 19.0621 3.70847 19.0933 4.12357L19.0974 4.24732V9.19732C19.0977 9.40798 19.0174 9.61077 18.873 9.76412C18.7285 9.91747 18.5309 10.0098 18.3206 10.0221C18.1103 10.0344 17.9033 9.96577 17.7419 9.83032C17.5806 9.69486 17.4772 9.50283 17.4529 9.29357L17.4474 9.19732V5.33357L11.682 11.0989C11.5268 11.2515 11.3176 11.3365 11.0999 11.3355C10.8823 11.3345 10.6739 11.2475 10.5201 11.0935C10.3663 10.9396 10.2795 10.731 10.2788 10.5134C10.278 10.2957 10.3633 10.0866 10.516 9.93157L16.1989 4.24732H12.4988C12.29 4.24489 12.0899 4.16339 11.9389 4.01925C11.7878 3.87511 11.697 3.67906 11.6848 3.47062C11.6726 3.26218 11.7399 3.05687 11.8731 2.89608C12.0063 2.73529 12.1955 2.63099 12.4025 2.6042L12.4988 2.5987H17.4488L17.4474 2.59732Z" fill="#0047BB"/>
</svg>
