<svg width="22" height="22" viewBox="0 0 22 22" fill="none" xmlns="http://www.w3.org/2000/svg">
<path fill-rule="evenodd" clip-rule="evenodd" d="M12.7377 10.3652L17.4 5.70282V9.19969V9.2H17.4L17.4091 9.42521C17.4091 9.42521 17.423 9.63371 17.4991 9.74693C17.5751 9.86016 17.6811 9.92513 17.7587 9.95266C17.8363 9.98019 17.8822 9.99195 17.9828 9.99566C18.0833 9.99937 18.2005 9.99999 18.2005 9.99999C18.2005 9.99999 18.3176 9.99937 18.4182 9.99566C18.5187 9.99195 18.5646 9.98019 18.6422 9.95266C18.7198 9.92513 18.8258 9.86016 18.9016 9.74693C18.9774 9.63371 18.9916 9.42521 18.9916 9.42521L19 9.2V9.19999V3.83331L19 3.8C19 3.61401 19 3.52101 18.9796 3.44471C18.9241 3.23765 18.7624 3.07592 18.5553 3.02044C18.479 3 18.386 3 18.2 3H18.2H12.8004H12.8V3C12.7923 3.00005 12.6795 3.00075 12.5825 3.00433C12.4819 3.00805 12.436 3.0198 12.3584 3.04734C12.2808 3.07487 12.1748 3.13984 12.0987 3.25306C12.0227 3.36629 12.0088 3.57479 12.0088 3.57479L12 3.79969L12.0091 4.02522C12.0091 4.02522 12.0229 4.23371 12.099 4.34694C12.1751 4.46016 12.2811 4.52513 12.3587 4.55266C12.4363 4.5802 12.4822 4.59195 12.5827 4.59567C12.6798 4.59925 12.7923 4.59995 12.8 4.6V4.6H12.8004L16.2401 4.6L11.6063 9.23379L11.544 9.29629C11.4993 9.33931 11.4644 9.37403 11.4644 9.37403C11.4644 9.37403 11.3817 9.45752 11.3133 9.53125C11.2448 9.60497 11.2207 9.64574 11.1853 9.72008C11.1498 9.79442 11.1209 9.91529 11.1471 10.0492C11.1734 10.183 11.311 10.3403 11.311 10.3403L11.4638 10.5055L11.6297 10.6586C11.6297 10.6586 11.7869 10.7962 11.9208 10.8224C12.0547 10.8487 12.1755 10.8197 12.2499 10.7843C12.3242 10.7489 12.365 10.7248 12.4387 10.6563C12.5124 10.5878 12.5957 10.5054 12.5957 10.5054L12.6065 10.4945C12.6426 10.4603 12.6848 10.4181 12.7377 10.3652L12.7377 10.3652Z" fill="#0047BB"/>
<path d="M5 18.0016L4.98943 17.7196C4.98943 17.7196 4.9717 17.4586 4.87696 17.3168C4.78223 17.1751 4.64937 17.0933 4.55275 17.0593C4.45575 17.0248 4.39838 17.0105 4.27269 17.0054C4.14701 17.0004 4.00056 17 4.00056 17L5 18.0016ZM4.00056 19.0031C4.00056 19.0031 3.85412 19.0024 3.72844 18.9977C3.60275 18.9931 3.54538 18.9784 3.44838 18.9439C3.35138 18.9094 3.21891 18.8281 3.1238 18.6863C3.02869 18.5446 3.01133 18.2835 3.01133 18.2835L3 18.0012L4.00056 17C4.00056 17 3.85375 17.0008 3.72807 17.0054C3.60238 17.0101 3.54501 17.0248 3.44801 17.0593C3.35101 17.0937 3.21854 17.1751 3.12343 17.3168C3.02832 17.4586 3.01094 17.7196 3.01094 17.7196L3 18.0012L4.00056 19.0031ZM4.00056 19.0031C4.00056 19.0031 4.14701 19.0024 4.27269 18.9977C4.39838 18.9931 4.45575 18.9784 4.55275 18.9439C4.64975 18.9094 4.78223 18.8281 4.87696 18.6863C4.9717 18.5446 4.98943 18.2835 4.98943 18.2835L5 18.0016L4.00056 19.0031ZM4.00056 17L3 18.0012L4.00056 19.0031L5 18.0016L4.00056 17Z" fill="#0047BB"/>
<path d="M3 18.0012L3.01133 18.2835C3.01133 18.2835 3.02869 18.5446 3.1238 18.6863C3.21891 18.8281 3.35138 18.9094 3.44838 18.9439C3.54538 18.9784 3.60275 18.9931 3.72844 18.9977C3.85412 19.0024 4.00056 19.0031 4.00056 19.0031M3 18.0012L4.00056 17M3 18.0012L3.01094 17.7196C3.01094 17.7196 3.02832 17.4586 3.12343 17.3168C3.21854 17.1751 3.35101 17.0937 3.44801 17.0593C3.54501 17.0248 3.60238 17.0101 3.72807 17.0054C3.85375 17.0008 4.00056 17 4.00056 17M3 18.0012L4.00056 19.0031M5 18.0016L4.98943 17.7196C4.98943 17.7196 4.9717 17.4586 4.87696 17.3168C4.78223 17.1751 4.64937 17.0933 4.55275 17.0593C4.45575 17.0248 4.39838 17.0105 4.27269 17.0054C4.14701 17.0004 4.00056 17 4.00056 17M5 18.0016L4.00056 17M5 18.0016L4.98943 18.2835C4.98943 18.2835 4.9717 18.5446 4.87696 18.6863C4.78223 18.8281 4.64975 18.9094 4.55275 18.9439C4.45575 18.9784 4.39838 18.9931 4.27269 18.9977C4.14701 19.0024 4.00056 19.0031 4.00056 19.0031M5 18.0016L4.00056 19.0031" stroke="white" stroke-width="0.01" stroke-miterlimit="10"/>
<path d="M7 18.0016L6.98943 17.7196C6.98943 17.7196 6.9717 17.4586 6.87696 17.3168C6.78223 17.1751 6.64937 17.0933 6.55275 17.0593C6.45575 17.0248 6.39838 17.0105 6.27269 17.0054C6.14701 17.0004 6.00056 17 6.00056 17L7 18.0016ZM6.00056 19.0031C6.00056 19.0031 5.85412 19.0024 5.72844 18.9977C5.60275 18.9931 5.54538 18.9784 5.44838 18.9439C5.35138 18.9094 5.21891 18.8281 5.1238 18.6863C5.02869 18.5446 5.01133 18.2835 5.01133 18.2835L5 18.0012L6.00056 17C6.00056 17 5.85375 17.0008 5.72807 17.0054C5.60238 17.0101 5.54501 17.0248 5.44801 17.0593C5.35101 17.0937 5.21854 17.1751 5.12343 17.3168C5.02832 17.4586 5.01094 17.7196 5.01094 17.7196L5 18.0012L6.00056 19.0031ZM6.00056 19.0031C6.00056 19.0031 6.14701 19.0024 6.27269 18.9977C6.39838 18.9931 6.45575 18.9784 6.55275 18.9439C6.64975 18.9094 6.78223 18.8281 6.87696 18.6863C6.9717 18.5446 6.98943 18.2835 6.98943 18.2835L7 18.0016L6.00056 19.0031ZM6.00056 17L5 18.0012L6.00056 19.0031L7 18.0016L6.00056 17Z" fill="#0047BB"/>
<path d="M5 18.0012L5.01133 18.2835C5.01133 18.2835 5.02869 18.5446 5.1238 18.6863C5.21891 18.8281 5.35138 18.9094 5.44838 18.9439C5.54538 18.9784 5.60275 18.9931 5.72844 18.9977C5.85412 19.0024 6.00056 19.0031 6.00056 19.0031M5 18.0012L6.00056 17M5 18.0012L5.01094 17.7196C5.01094 17.7196 5.02832 17.4586 5.12343 17.3168C5.21854 17.1751 5.35101 17.0937 5.44801 17.0593C5.54501 17.0248 5.60238 17.0101 5.72807 17.0054C5.85375 17.0008 6.00056 17 6.00056 17M5 18.0012L6.00056 19.0031M7 18.0016L6.98943 17.7196C6.98943 17.7196 6.9717 17.4586 6.87696 17.3168C6.78223 17.1751 6.64937 17.0933 6.55275 17.0593C6.45575 17.0248 6.39838 17.0105 6.27269 17.0054C6.14701 17.0004 6.00056 17 6.00056 17M7 18.0016L6.00056 17M7 18.0016L6.98943 18.2835C6.98943 18.2835 6.9717 18.5446 6.87696 18.6863C6.78223 18.8281 6.64975 18.9094 6.55275 18.9439C6.45575 18.9784 6.39838 18.9931 6.27269 18.9977C6.14701 19.0024 6.00056 19.0031 6.00056 19.0031M7 18.0016L6.00056 19.0031" stroke="white" stroke-width="0.01" stroke-miterlimit="10"/>
<path d="M19 18.0016L18.9894 17.7196C18.9894 17.7196 18.9717 17.4586 18.877 17.3168C18.7822 17.1751 18.6494 17.0933 18.5527 17.0593C18.4557 17.0248 18.3984 17.0105 18.2727 17.0054C18.147 17.0004 18.0006 17 18.0006 17L19 18.0016ZM18.0006 19.0031C18.0006 19.0031 17.8541 19.0024 17.7284 18.9977C17.6028 18.9931 17.5454 18.9784 17.4484 18.9439C17.3514 18.9094 17.2189 18.8281 17.1238 18.6863C17.0287 18.5446 17.0113 18.2835 17.0113 18.2835L17 18.0012L18.0006 17C18.0006 17 17.8538 17.0008 17.7281 17.0054C17.6024 17.0101 17.545 17.0248 17.448 17.0593C17.351 17.0937 17.2185 17.1751 17.1234 17.3168C17.0283 17.4586 17.0109 17.7196 17.0109 17.7196L17 18.0012L18.0006 19.0031ZM18.0006 19.0031C18.0006 19.0031 18.147 19.0024 18.2727 18.9977C18.3984 18.9931 18.4557 18.9784 18.5527 18.9439C18.6497 18.9094 18.7822 18.8281 18.877 18.6863C18.9717 18.5446 18.9894 18.2835 18.9894 18.2835L19 18.0016L18.0006 19.0031ZM18.0006 17L17 18.0012L18.0006 19.0031L19 18.0016L18.0006 17Z" fill="#0047BB"/>
<path d="M17 18.0012L17.0113 18.2835C17.0113 18.2835 17.0287 18.5446 17.1238 18.6863C17.2189 18.8281 17.3514 18.9094 17.4484 18.9439C17.5454 18.9784 17.6028 18.9931 17.7284 18.9977C17.8541 19.0024 18.0006 19.0031 18.0006 19.0031M17 18.0012L18.0006 17M17 18.0012L17.0109 17.7196C17.0109 17.7196 17.0283 17.4586 17.1234 17.3168C17.2185 17.1751 17.351 17.0937 17.448 17.0593C17.545 17.0248 17.6024 17.0101 17.7281 17.0054C17.8538 17.0008 18.0006 17 18.0006 17M17 18.0012L18.0006 19.0031M19 18.0016L18.9894 17.7196C18.9894 17.7196 18.9717 17.4586 18.877 17.3168C18.7822 17.1751 18.6494 17.0933 18.5527 17.0593C18.4557 17.0248 18.3984 17.0105 18.2727 17.0054C18.147 17.0004 18.0006 17 18.0006 17M19 18.0016L18.0006 17M19 18.0016L18.9894 18.2835C18.9894 18.2835 18.9717 18.5446 18.877 18.6863C18.7822 18.8281 18.6497 18.9094 18.5527 18.9439C18.4557 18.9784 18.3984 18.9931 18.2727 18.9977C18.147 19.0024 18.0006 19.0031 18.0006 19.0031M19 18.0016L18.0006 19.0031" stroke="white" stroke-width="0.01" stroke-miterlimit="10"/>
<path d="M17 18.0016L16.9894 17.7196C16.9894 17.7196 16.9717 17.4586 16.877 17.3168C16.7822 17.1751 16.6494 17.0933 16.5527 17.0593C16.4557 17.0248 16.3984 17.0105 16.2727 17.0054C16.147 17.0004 16.0006 17 16.0006 17L17 18.0016ZM16.0006 19.0031C16.0006 19.0031 15.8541 19.0024 15.7284 18.9977C15.6028 18.9931 15.5454 18.9784 15.4484 18.9439C15.3514 18.9094 15.2189 18.8281 15.1238 18.6863C15.0287 18.5446 15.0113 18.2835 15.0113 18.2835L15 18.0012L16.0006 17C16.0006 17 15.8538 17.0008 15.7281 17.0054C15.6024 17.0101 15.545 17.0248 15.448 17.0593C15.351 17.0937 15.2185 17.1751 15.1234 17.3168C15.0283 17.4586 15.0109 17.7196 15.0109 17.7196L15 18.0012L16.0006 19.0031ZM16.0006 19.0031C16.0006 19.0031 16.147 19.0024 16.2727 18.9977C16.3984 18.9931 16.4557 18.9784 16.5527 18.9439C16.6497 18.9094 16.7822 18.8281 16.877 18.6863C16.9717 18.5446 16.9894 18.2835 16.9894 18.2835L17 18.0016L16.0006 19.0031ZM16.0006 17L15 18.0012L16.0006 19.0031L17 18.0016L16.0006 17Z" fill="#0047BB"/>
<path d="M15 18.0012L15.0113 18.2835C15.0113 18.2835 15.0287 18.5446 15.1238 18.6863C15.2189 18.8281 15.3514 18.9094 15.4484 18.9439C15.5454 18.9784 15.6028 18.9931 15.7284 18.9977C15.8541 19.0024 16.0006 19.0031 16.0006 19.0031M15 18.0012L16.0006 17M15 18.0012L15.0109 17.7196C15.0109 17.7196 15.0283 17.4586 15.1234 17.3168C15.2185 17.1751 15.351 17.0937 15.448 17.0593C15.545 17.0248 15.6024 17.0101 15.7281 17.0054C15.8538 17.0008 16.0006 17 16.0006 17M15 18.0012L16.0006 19.0031M17 18.0016L16.9894 17.7196C16.9894 17.7196 16.9717 17.4586 16.877 17.3168C16.7822 17.1751 16.6494 17.0933 16.5527 17.0593C16.4557 17.0248 16.3984 17.0105 16.2727 17.0054C16.147 17.0004 16.0006 17 16.0006 17M17 18.0016L16.0006 17M17 18.0016L16.9894 18.2835C16.9894 18.2835 16.9717 18.5446 16.877 18.6863C16.7822 18.8281 16.6497 18.9094 16.5527 18.9439C16.4557 18.9784 16.3984 18.9931 16.2727 18.9977C16.147 19.0024 16.0006 19.0031 16.0006 19.0031M17 18.0016L16.0006 19.0031" stroke="white" stroke-width="0.01" stroke-miterlimit="10"/>
<path d="M19 16.0016L18.9894 15.7196C18.9894 15.7196 18.9717 15.4586 18.877 15.3168C18.7822 15.1751 18.6494 15.0933 18.5527 15.0593C18.4557 15.0248 18.3984 15.0105 18.2727 15.0054C18.147 15.0004 18.0006 15 18.0006 15L19 16.0016ZM18.0006 17.0031C18.0006 17.0031 17.8541 17.0024 17.7284 16.9977C17.6028 16.9931 17.5454 16.9784 17.4484 16.9439C17.3514 16.9094 17.2189 16.8281 17.1238 16.6863C17.0287 16.5446 17.0113 16.2835 17.0113 16.2835L17 16.0012L18.0006 15C18.0006 15 17.8538 15.0008 17.7281 15.0054C17.6024 15.0101 17.545 15.0248 17.448 15.0593C17.351 15.0937 17.2185 15.1751 17.1234 15.3168C17.0283 15.4586 17.0109 15.7196 17.0109 15.7196L17 16.0012L18.0006 17.0031ZM18.0006 17.0031C18.0006 17.0031 18.147 17.0024 18.2727 16.9977C18.3984 16.9931 18.4557 16.9784 18.5527 16.9439C18.6497 16.9094 18.7822 16.8281 18.877 16.6863C18.9717 16.5446 18.9894 16.2835 18.9894 16.2835L19 16.0016L18.0006 17.0031ZM18.0006 15L17 16.0012L18.0006 17.0031L19 16.0016L18.0006 15Z" fill="#0047BB"/>
<path d="M17 16.0012L17.0113 16.2835C17.0113 16.2835 17.0287 16.5446 17.1238 16.6863C17.2189 16.8281 17.3514 16.9094 17.4484 16.9439C17.5454 16.9784 17.6028 16.9931 17.7284 16.9977C17.8541 17.0024 18.0006 17.0031 18.0006 17.0031M17 16.0012L18.0006 15M17 16.0012L17.0109 15.7196C17.0109 15.7196 17.0283 15.4586 17.1234 15.3168C17.2185 15.1751 17.351 15.0937 17.448 15.0593C17.545 15.0248 17.6024 15.0101 17.7281 15.0054C17.8538 15.0008 18.0006 15 18.0006 15M17 16.0012L18.0006 17.0031M19 16.0016L18.9894 15.7196C18.9894 15.7196 18.9717 15.4586 18.877 15.3168C18.7822 15.1751 18.6494 15.0933 18.5527 15.0593C18.4557 15.0248 18.3984 15.0105 18.2727 15.0054C18.147 15.0004 18.0006 15 18.0006 15M19 16.0016L18.0006 15M19 16.0016L18.9894 16.2835C18.9894 16.2835 18.9717 16.5446 18.877 16.6863C18.7822 16.8281 18.6497 16.9094 18.5527 16.9439C18.4557 16.9784 18.3984 16.9931 18.2727 16.9977C18.147 17.0024 18.0006 17.0031 18.0006 17.0031M19 16.0016L18.0006 17.0031" stroke="white" stroke-width="0.01" stroke-miterlimit="10"/>
<path d="M13 18.0016L12.9894 17.7196C12.9894 17.7196 12.9717 17.4586 12.877 17.3168C12.7822 17.1751 12.6494 17.0933 12.5527 17.0593C12.4557 17.0248 12.3984 17.0105 12.2727 17.0054C12.147 17.0004 12.0006 17 12.0006 17L13 18.0016ZM12.0006 19.0031C12.0006 19.0031 11.8541 19.0024 11.7284 18.9977C11.6028 18.9931 11.5454 18.9784 11.4484 18.9439C11.3514 18.9094 11.2189 18.8281 11.1238 18.6863C11.0287 18.5446 11.0113 18.2835 11.0113 18.2835L11 18.0012L12.0006 17C12.0006 17 11.8538 17.0008 11.7281 17.0054C11.6024 17.0101 11.545 17.0248 11.448 17.0593C11.351 17.0937 11.2185 17.1751 11.1234 17.3168C11.0283 17.4586 11.0109 17.7196 11.0109 17.7196L11 18.0012L12.0006 19.0031ZM12.0006 19.0031C12.0006 19.0031 12.147 19.0024 12.2727 18.9977C12.3984 18.9931 12.4557 18.9784 12.5527 18.9439C12.6497 18.9094 12.7822 18.8281 12.877 18.6863C12.9717 18.5446 12.9894 18.2835 12.9894 18.2835L13 18.0016L12.0006 19.0031ZM12.0006 17L11 18.0012L12.0006 19.0031L13 18.0016L12.0006 17Z" fill="#0047BB"/>
<path d="M11 18.0012L11.0113 18.2835C11.0113 18.2835 11.0287 18.5446 11.1238 18.6863C11.2189 18.8281 11.3514 18.9094 11.4484 18.9439C11.5454 18.9784 11.6028 18.9931 11.7284 18.9977C11.8541 19.0024 12.0006 19.0031 12.0006 19.0031M11 18.0012L12.0006 17M11 18.0012L11.0109 17.7196C11.0109 17.7196 11.0283 17.4586 11.1234 17.3168C11.2185 17.1751 11.351 17.0937 11.448 17.0593C11.545 17.0248 11.6024 17.0101 11.7281 17.0054C11.8538 17.0008 12.0006 17 12.0006 17M11 18.0012L12.0006 19.0031M13 18.0016L12.9894 17.7196C12.9894 17.7196 12.9717 17.4586 12.877 17.3168C12.7822 17.1751 12.6494 17.0933 12.5527 17.0593C12.4557 17.0248 12.3984 17.0105 12.2727 17.0054C12.147 17.0004 12.0006 17 12.0006 17M13 18.0016L12.0006 17M13 18.0016L12.9894 18.2835C12.9894 18.2835 12.9717 18.5446 12.877 18.6863C12.7822 18.8281 12.6497 18.9094 12.5527 18.9439C12.4557 18.9784 12.3984 18.9931 12.2727 18.9977C12.147 19.0024 12.0006 19.0031 12.0006 19.0031M13 18.0016L12.0006 19.0031" stroke="white" stroke-width="0.01" stroke-miterlimit="10"/>
<path d="M11 18.0016L10.9894 17.7196C10.9894 17.7196 10.9717 17.4586 10.877 17.3168C10.7822 17.1751 10.6494 17.0933 10.5527 17.0593C10.4557 17.0248 10.3984 17.0105 10.2727 17.0054C10.147 17.0004 10.0006 17 10.0006 17L11 18.0016ZM10.0006 19.0031C10.0006 19.0031 9.85412 19.0024 9.72844 18.9977C9.60275 18.9931 9.54538 18.9784 9.44838 18.9439C9.35138 18.9094 9.21891 18.8281 9.1238 18.6863C9.02869 18.5446 9.01133 18.2835 9.01133 18.2835L9 18.0012L10.0006 17C10.0006 17 9.85375 17.0008 9.72807 17.0054C9.60238 17.0101 9.54501 17.0248 9.44801 17.0593C9.35101 17.0937 9.21854 17.1751 9.12343 17.3168C9.02832 17.4586 9.01094 17.7196 9.01094 17.7196L9 18.0012L10.0006 19.0031ZM10.0006 19.0031C10.0006 19.0031 10.147 19.0024 10.2727 18.9977C10.3984 18.9931 10.4557 18.9784 10.5527 18.9439C10.6497 18.9094 10.7822 18.8281 10.877 18.6863C10.9717 18.5446 10.9894 18.2835 10.9894 18.2835L11 18.0016L10.0006 19.0031ZM10.0006 17L9 18.0012L10.0006 19.0031L11 18.0016L10.0006 17Z" fill="#0047BB"/>
<path d="M9 18.0012L9.01133 18.2835C9.01133 18.2835 9.02869 18.5446 9.1238 18.6863C9.21891 18.8281 9.35138 18.9094 9.44838 18.9439C9.54538 18.9784 9.60275 18.9931 9.72844 18.9977C9.85412 19.0024 10.0006 19.0031 10.0006 19.0031M9 18.0012L10.0006 17M9 18.0012L9.01094 17.7196C9.01094 17.7196 9.02832 17.4586 9.12343 17.3168C9.21854 17.1751 9.35101 17.0937 9.44801 17.0593C9.54501 17.0248 9.60238 17.0101 9.72807 17.0054C9.85375 17.0008 10.0006 17 10.0006 17M9 18.0012L10.0006 19.0031M11 18.0016L10.9894 17.7196C10.9894 17.7196 10.9717 17.4586 10.877 17.3168C10.7822 17.1751 10.6494 17.0933 10.5527 17.0593C10.4557 17.0248 10.3984 17.0105 10.2727 17.0054C10.147 17.0004 10.0006 17 10.0006 17M11 18.0016L10.0006 17M11 18.0016L10.9894 18.2835C10.9894 18.2835 10.9717 18.5446 10.877 18.6863C10.7822 18.8281 10.6497 18.9094 10.5527 18.9439C10.4557 18.9784 10.3984 18.9931 10.2727 18.9977C10.147 19.0024 10.0006 19.0031 10.0006 19.0031M11 18.0016L10.0006 19.0031" stroke="white" stroke-width="0.01" stroke-miterlimit="10"/>
<path d="M5 16.0016L4.98943 15.7196C4.98943 15.7196 4.9717 15.4586 4.87696 15.3168C4.78223 15.1751 4.64937 15.0933 4.55275 15.0593C4.45575 15.0248 4.39838 15.0105 4.27269 15.0054C4.14701 15.0004 4.00056 15 4.00056 15L5 16.0016ZM4.00056 17.0031C4.00056 17.0031 3.85412 17.0024 3.72844 16.9977C3.60275 16.9931 3.54538 16.9784 3.44838 16.9439C3.35138 16.9094 3.21891 16.8281 3.1238 16.6863C3.02869 16.5446 3.01133 16.2835 3.01133 16.2835L3 16.0012L4.00056 15C4.00056 15 3.85375 15.0008 3.72807 15.0054C3.60238 15.0101 3.54501 15.0248 3.44801 15.0593C3.35101 15.0937 3.21854 15.1751 3.12343 15.3168C3.02832 15.4586 3.01094 15.7196 3.01094 15.7196L3 16.0012L4.00056 17.0031ZM4.00056 17.0031C4.00056 17.0031 4.14701 17.0024 4.27269 16.9977C4.39838 16.9931 4.45575 16.9784 4.55275 16.9439C4.64975 16.9094 4.78223 16.8281 4.87696 16.6863C4.9717 16.5446 4.98943 16.2835 4.98943 16.2835L5 16.0016L4.00056 17.0031ZM4.00056 15L3 16.0012L4.00056 17.0031L5 16.0016L4.00056 15Z" fill="#0047BB"/>
<path d="M3 16.0012L3.01133 16.2835C3.01133 16.2835 3.02869 16.5446 3.1238 16.6863C3.21891 16.8281 3.35138 16.9094 3.44838 16.9439C3.54538 16.9784 3.60275 16.9931 3.72844 16.9977C3.85412 17.0024 4.00056 17.0031 4.00056 17.0031M3 16.0012L4.00056 15M3 16.0012L3.01094 15.7196C3.01094 15.7196 3.02832 15.4586 3.12343 15.3168C3.21854 15.1751 3.35101 15.0937 3.44801 15.0593C3.54501 15.0248 3.60238 15.0101 3.72807 15.0054C3.85375 15.0008 4.00056 15 4.00056 15M3 16.0012L4.00056 17.0031M5 16.0016L4.98943 15.7196C4.98943 15.7196 4.9717 15.4586 4.87696 15.3168C4.78223 15.1751 4.64937 15.0933 4.55275 15.0593C4.45575 15.0248 4.39838 15.0105 4.27269 15.0054C4.14701 15.0004 4.00056 15 4.00056 15M5 16.0016L4.00056 15M5 16.0016L4.98943 16.2835C4.98943 16.2835 4.9717 16.5446 4.87696 16.6863C4.78223 16.8281 4.64975 16.9094 4.55275 16.9439C4.45575 16.9784 4.39838 16.9931 4.27269 16.9977C4.14701 17.0024 4.00056 17.0031 4.00056 17.0031M5 16.0016L4.00056 17.0031" stroke="white" stroke-width="0.01" stroke-miterlimit="10"/>
<path d="M5 12.0016L4.98943 11.7196C4.98943 11.7196 4.9717 11.4586 4.87696 11.3168C4.78223 11.1751 4.64937 11.0933 4.55275 11.0593C4.45575 11.0248 4.39838 11.0105 4.27269 11.0054C4.14701 11.0004 4.00056 11 4.00056 11L5 12.0016ZM4.00056 13.0031C4.00056 13.0031 3.85412 13.0024 3.72844 12.9977C3.60275 12.9931 3.54538 12.9784 3.44838 12.9439C3.35138 12.9094 3.21891 12.8281 3.1238 12.6863C3.02869 12.5446 3.01133 12.2835 3.01133 12.2835L3 12.0012L4.00056 11C4.00056 11 3.85375 11.0008 3.72807 11.0054C3.60238 11.0101 3.54501 11.0248 3.44801 11.0593C3.35101 11.0937 3.21854 11.1751 3.12343 11.3168C3.02832 11.4586 3.01094 11.7196 3.01094 11.7196L3 12.0012L4.00056 13.0031ZM4.00056 13.0031C4.00056 13.0031 4.14701 13.0024 4.27269 12.9977C4.39838 12.9931 4.45575 12.9784 4.55275 12.9439C4.64975 12.9094 4.78223 12.8281 4.87696 12.6863C4.9717 12.5446 4.98943 12.2835 4.98943 12.2835L5 12.0016L4.00056 13.0031ZM4.00056 11L3 12.0012L4.00056 13.0031L5 12.0016L4.00056 11Z" fill="#0047BB"/>
<path d="M3 12.0012L3.01133 12.2835C3.01133 12.2835 3.02869 12.5446 3.1238 12.6863C3.21891 12.8281 3.35138 12.9094 3.44838 12.9439C3.54538 12.9784 3.60275 12.9931 3.72844 12.9977C3.85412 13.0024 4.00056 13.0031 4.00056 13.0031M3 12.0012L4.00056 11M3 12.0012L3.01094 11.7196C3.01094 11.7196 3.02832 11.4586 3.12343 11.3168C3.21854 11.1751 3.35101 11.0937 3.44801 11.0593C3.54501 11.0248 3.60238 11.0101 3.72807 11.0054C3.85375 11.0008 4.00056 11 4.00056 11M3 12.0012L4.00056 13.0031M5 12.0016L4.98943 11.7196C4.98943 11.7196 4.9717 11.4586 4.87696 11.3168C4.78223 11.1751 4.64937 11.0933 4.55275 11.0593C4.45575 11.0248 4.39838 11.0105 4.27269 11.0054C4.14701 11.0004 4.00056 11 4.00056 11M5 12.0016L4.00056 11M5 12.0016L4.98943 12.2835C4.98943 12.2835 4.9717 12.5446 4.87696 12.6863C4.78223 12.8281 4.64975 12.9094 4.55275 12.9439C4.45575 12.9784 4.39838 12.9931 4.27269 12.9977C4.14701 13.0024 4.00056 13.0031 4.00056 13.0031M5 12.0016L4.00056 13.0031" stroke="white" stroke-width="0.01" stroke-miterlimit="10"/>
<path d="M5 10.0016L4.98943 9.71961C4.98943 9.71961 4.9717 9.45858 4.87696 9.31682C4.78223 9.17507 4.64937 9.09335 4.55275 9.05926C4.45575 9.02479 4.39838 9.01046 4.27269 9.00543C4.14701 9.00039 4.00056 9 4.00056 9L5 10.0016ZM4.00056 11.0031C4.00056 11.0031 3.85412 11.0024 3.72844 10.9977C3.60275 10.9931 3.54538 10.9784 3.44838 10.9439C3.35138 10.9094 3.21891 10.8281 3.1238 10.6863C3.02869 10.5446 3.01133 10.2835 3.01133 10.2835L3 10.0012L4.00056 9C4.00056 9 3.85375 9.00078 3.72807 9.00543C3.60238 9.01007 3.54501 9.02479 3.44801 9.05926C3.35101 9.09373 3.21854 9.17507 3.12343 9.31682C3.02832 9.45858 3.01094 9.71961 3.01094 9.71961L3 10.0012L4.00056 11.0031ZM4.00056 11.0031C4.00056 11.0031 4.14701 11.0024 4.27269 10.9977C4.39838 10.9931 4.45575 10.9784 4.55275 10.9439C4.64975 10.9094 4.78223 10.8281 4.87696 10.6863C4.9717 10.5446 4.98943 10.2835 4.98943 10.2835L5 10.0016L4.00056 11.0031ZM4.00056 9L3 10.0012L4.00056 11.0031L5 10.0016L4.00056 9Z" fill="#0047BB"/>
<path d="M3 10.0012L3.01133 10.2835C3.01133 10.2835 3.02869 10.5446 3.1238 10.6863C3.21891 10.8281 3.35138 10.9094 3.44838 10.9439C3.54538 10.9784 3.60275 10.9931 3.72844 10.9977C3.85412 11.0024 4.00056 11.0031 4.00056 11.0031M3 10.0012L4.00056 9M3 10.0012L3.01094 9.71961C3.01094 9.71961 3.02832 9.45858 3.12343 9.31682C3.21854 9.17507 3.35101 9.09373 3.44801 9.05926C3.54501 9.02479 3.60238 9.01007 3.72807 9.00543C3.85375 9.00078 4.00056 9 4.00056 9M3 10.0012L4.00056 11.0031M5 10.0016L4.98943 9.71961C4.98943 9.71961 4.9717 9.45858 4.87696 9.31682C4.78223 9.17507 4.64937 9.09335 4.55275 9.05926C4.45575 9.02479 4.39838 9.01046 4.27269 9.00543C4.14701 9.00039 4.00056 9 4.00056 9M5 10.0016L4.00056 9M5 10.0016L4.98943 10.2835C4.98943 10.2835 4.9717 10.5446 4.87696 10.6863C4.78223 10.8281 4.64975 10.9094 4.55275 10.9439C4.45575 10.9784 4.39838 10.9931 4.27269 10.9977C4.14701 11.0024 4.00056 11.0031 4.00056 11.0031M5 10.0016L4.00056 11.0031" stroke="white" stroke-width="0.01" stroke-miterlimit="10"/>
<path d="M5 6.00157L4.98943 5.71961C4.98943 5.71961 4.9717 5.45858 4.87696 5.31682C4.78223 5.17507 4.64937 5.09335 4.55275 5.05926C4.45575 5.02479 4.39838 5.01046 4.27269 5.00543C4.14701 5.00039 4.00056 5 4.00056 5L5 6.00157ZM4.00056 7.00315C4.00056 7.00315 3.85412 7.00237 3.72844 6.99772C3.60275 6.99307 3.54538 6.97835 3.44838 6.94388C3.35138 6.90941 3.21891 6.82807 3.1238 6.68632C3.02869 6.54457 3.01133 6.28353 3.01133 6.28353L3 6.00119L4.00056 5C4.00056 5 3.85375 5.00078 3.72807 5.00543C3.60238 5.01007 3.54501 5.02479 3.44801 5.05926C3.35101 5.09373 3.21854 5.17507 3.12343 5.31682C3.02832 5.45858 3.01094 5.71961 3.01094 5.71961L3 6.00119L4.00056 7.00315ZM4.00056 7.00315C4.00056 7.00315 4.14701 7.00237 4.27269 6.99772C4.39838 6.99307 4.45575 6.97835 4.55275 6.94388C4.64975 6.90941 4.78223 6.82807 4.87696 6.68632C4.9717 6.54457 4.98943 6.28353 4.98943 6.28353L5 6.00157L4.00056 7.00315ZM4.00056 5L3 6.00119L4.00056 7.00315L5 6.00157L4.00056 5Z" fill="#0047BB"/>
<path d="M3 6.00119L3.01133 6.28353C3.01133 6.28353 3.02869 6.54457 3.1238 6.68632C3.21891 6.82807 3.35138 6.90941 3.44838 6.94388C3.54538 6.97835 3.60275 6.99307 3.72844 6.99772C3.85412 7.00237 4.00056 7.00315 4.00056 7.00315M3 6.00119L4.00056 5M3 6.00119L3.01094 5.71961C3.01094 5.71961 3.02832 5.45858 3.12343 5.31682C3.21854 5.17507 3.35101 5.09373 3.44801 5.05926C3.54501 5.02479 3.60238 5.01007 3.72807 5.00543C3.85375 5.00078 4.00056 5 4.00056 5M3 6.00119L4.00056 7.00315M5 6.00157L4.98943 5.71961C4.98943 5.71961 4.9717 5.45858 4.87696 5.31682C4.78223 5.17507 4.64937 5.09335 4.55275 5.05926C4.45575 5.02479 4.39838 5.01046 4.27269 5.00543C4.14701 5.00039 4.00056 5 4.00056 5M5 6.00157L4.00056 5M5 6.00157L4.98943 6.28353C4.98943 6.28353 4.9717 6.54457 4.87696 6.68632C4.78223 6.82807 4.64975 6.90941 4.55275 6.94388C4.45575 6.97835 4.39838 6.99307 4.27269 6.99772C4.14701 7.00237 4.00056 7.00315 4.00056 7.00315M5 6.00157L4.00056 7.00315" stroke="white" stroke-width="0.01" stroke-miterlimit="10"/>
<path d="M5 4.00157L4.98943 3.71961C4.98943 3.71961 4.9717 3.45858 4.87696 3.31682C4.78223 3.17507 4.64937 3.09335 4.55275 3.05926C4.45575 3.02479 4.39838 3.01046 4.27269 3.00543C4.14701 3.00039 4.00056 3 4.00056 3L5 4.00157ZM4.00056 5.00315C4.00056 5.00315 3.85412 5.00237 3.72844 4.99772C3.60275 4.99307 3.54538 4.97835 3.44838 4.94388C3.35138 4.90941 3.21891 4.82807 3.1238 4.68632C3.02869 4.54457 3.01133 4.28353 3.01133 4.28353L3 4.00119L4.00056 3C4.00056 3 3.85375 3.00078 3.72807 3.00543C3.60238 3.01007 3.54501 3.02479 3.44801 3.05926C3.35101 3.09373 3.21854 3.17507 3.12343 3.31682C3.02832 3.45858 3.01094 3.71961 3.01094 3.71961L3 4.00119L4.00056 5.00315ZM4.00056 5.00315C4.00056 5.00315 4.14701 5.00237 4.27269 4.99772C4.39838 4.99307 4.45575 4.97835 4.55275 4.94388C4.64975 4.90941 4.78223 4.82807 4.87696 4.68632C4.9717 4.54457 4.98943 4.28353 4.98943 4.28353L5 4.00157L4.00056 5.00315ZM4.00056 3L3 4.00119L4.00056 5.00315L5 4.00157L4.00056 3Z" fill="#0047BB"/>
<path d="M3 4.00119L3.01133 4.28353C3.01133 4.28353 3.02869 4.54457 3.1238 4.68632C3.21891 4.82807 3.35138 4.90941 3.44838 4.94388C3.54538 4.97835 3.60275 4.99307 3.72844 4.99772C3.85412 5.00237 4.00056 5.00315 4.00056 5.00315M3 4.00119L4.00056 3M3 4.00119L3.01094 3.71961C3.01094 3.71961 3.02832 3.45858 3.12343 3.31682C3.21854 3.17507 3.35101 3.09373 3.44801 3.05926C3.54501 3.02479 3.60238 3.01007 3.72807 3.00543C3.85375 3.00078 4.00056 3 4.00056 3M3 4.00119L4.00056 5.00315M5 4.00157L4.98943 3.71961C4.98943 3.71961 4.9717 3.45858 4.87696 3.31682C4.78223 3.17507 4.64937 3.09335 4.55275 3.05926C4.45575 3.02479 4.39838 3.01046 4.27269 3.00543C4.14701 3.00039 4.00056 3 4.00056 3M5 4.00157L4.00056 3M5 4.00157L4.98943 4.28353C4.98943 4.28353 4.9717 4.54457 4.87696 4.68632C4.78223 4.82807 4.64975 4.90941 4.55275 4.94388C4.45575 4.97835 4.39838 4.99307 4.27269 4.99772C4.14701 5.00237 4.00056 5.00315 4.00056 5.00315M5 4.00157L4.00056 5.00315" stroke="white" stroke-width="0.01" stroke-miterlimit="10"/>
<path d="M7 4.00157L6.98943 3.71961C6.98943 3.71961 6.9717 3.45858 6.87696 3.31682C6.78223 3.17507 6.64937 3.09335 6.55275 3.05926C6.45575 3.02479 6.39838 3.01046 6.27269 3.00543C6.14701 3.00039 6.00056 3 6.00056 3L7 4.00157ZM6.00056 5.00315C6.00056 5.00315 5.85412 5.00237 5.72844 4.99772C5.60275 4.99307 5.54538 4.97835 5.44838 4.94388C5.35138 4.90941 5.21891 4.82807 5.1238 4.68632C5.02869 4.54457 5.01133 4.28353 5.01133 4.28353L5 4.00119L6.00056 3C6.00056 3 5.85375 3.00078 5.72807 3.00543C5.60238 3.01007 5.54501 3.02479 5.44801 3.05926C5.35101 3.09373 5.21854 3.17507 5.12343 3.31682C5.02832 3.45858 5.01094 3.71961 5.01094 3.71961L5 4.00119L6.00056 5.00315ZM6.00056 5.00315C6.00056 5.00315 6.14701 5.00237 6.27269 4.99772C6.39838 4.99307 6.45575 4.97835 6.55275 4.94388C6.64975 4.90941 6.78223 4.82807 6.87696 4.68632C6.9717 4.54457 6.98943 4.28353 6.98943 4.28353L7 4.00157L6.00056 5.00315ZM6.00056 3L5 4.00119L6.00056 5.00315L7 4.00157L6.00056 3Z" fill="#0047BB"/>
<path d="M5 4.00119L5.01133 4.28353C5.01133 4.28353 5.02869 4.54457 5.1238 4.68632C5.21891 4.82807 5.35138 4.90941 5.44838 4.94388C5.54538 4.97835 5.60275 4.99307 5.72844 4.99772C5.85412 5.00237 6.00056 5.00315 6.00056 5.00315M5 4.00119L6.00056 3M5 4.00119L5.01094 3.71961C5.01094 3.71961 5.02832 3.45858 5.12343 3.31682C5.21854 3.17507 5.35101 3.09373 5.44801 3.05926C5.54501 3.02479 5.60238 3.01007 5.72807 3.00543C5.85375 3.00078 6.00056 3 6.00056 3M5 4.00119L6.00056 5.00315M7 4.00157L6.98943 3.71961C6.98943 3.71961 6.9717 3.45858 6.87696 3.31682C6.78223 3.17507 6.64937 3.09335 6.55275 3.05926C6.45575 3.02479 6.39838 3.01046 6.27269 3.00543C6.14701 3.00039 6.00056 3 6.00056 3M7 4.00157L6.00056 3M7 4.00157L6.98943 4.28353C6.98943 4.28353 6.9717 4.54457 6.87696 4.68632C6.78223 4.82807 6.64975 4.90941 6.55275 4.94388C6.45575 4.97835 6.39838 4.99307 6.27269 4.99772C6.14701 5.00237 6.00056 5.00315 6.00056 5.00315M7 4.00157L6.00056 5.00315" stroke="white" stroke-width="0.01" stroke-miterlimit="10"/>
<path d="M9 4.00157L8.98943 3.71961C8.98943 3.71961 8.9717 3.45858 8.87696 3.31682C8.78223 3.17507 8.64937 3.09335 8.55275 3.05926C8.45575 3.02479 8.39838 3.01046 8.27269 3.00543C8.14701 3.00039 8.00056 3 8.00056 3L9 4.00157ZM8.00056 5.00315C8.00056 5.00315 7.85412 5.00237 7.72844 4.99772C7.60275 4.99307 7.54538 4.97835 7.44838 4.94388C7.35138 4.90941 7.21891 4.82807 7.1238 4.68632C7.02869 4.54457 7.01133 4.28353 7.01133 4.28353L7 4.00119L8.00056 3C8.00056 3 7.85375 3.00078 7.72807 3.00543C7.60238 3.01007 7.54501 3.02479 7.44801 3.05926C7.35101 3.09373 7.21854 3.17507 7.12343 3.31682C7.02832 3.45858 7.01094 3.71961 7.01094 3.71961L7 4.00119L8.00056 5.00315ZM8.00056 5.00315C8.00056 5.00315 8.14701 5.00237 8.27269 4.99772C8.39838 4.99307 8.45575 4.97835 8.55275 4.94388C8.64975 4.90941 8.78223 4.82807 8.87696 4.68632C8.9717 4.54457 8.98943 4.28353 8.98943 4.28353L9 4.00157L8.00056 5.00315ZM8.00056 3L7 4.00119L8.00056 5.00315L9 4.00157L8.00056 3Z" fill="#0047BB"/>
<path d="M7 4.00119L7.01133 4.28353C7.01133 4.28353 7.02869 4.54457 7.1238 4.68632C7.21891 4.82807 7.35138 4.90941 7.44838 4.94388C7.54538 4.97835 7.60275 4.99307 7.72844 4.99772C7.85412 5.00237 8.00056 5.00315 8.00056 5.00315M7 4.00119L8.00056 3M7 4.00119L7.01094 3.71961C7.01094 3.71961 7.02832 3.45858 7.12343 3.31682C7.21854 3.17507 7.35101 3.09373 7.44801 3.05926C7.54501 3.02479 7.60238 3.01007 7.72807 3.00543C7.85375 3.00078 8.00056 3 8.00056 3M7 4.00119L8.00056 5.00315M9 4.00157L8.98943 3.71961C8.98943 3.71961 8.9717 3.45858 8.87696 3.31682C8.78223 3.17507 8.64937 3.09335 8.55275 3.05926C8.45575 3.02479 8.39838 3.01046 8.27269 3.00543C8.14701 3.00039 8.00056 3 8.00056 3M9 4.00157L8.00056 3M9 4.00157L8.98943 4.28353C8.98943 4.28353 8.9717 4.54457 8.87696 4.68632C8.78223 4.82807 8.64975 4.90941 8.55275 4.94388C8.45575 4.97835 8.39838 4.99307 8.27269 4.99772C8.14701 5.00237 8.00056 5.00315 8.00056 5.00315M9 4.00157L8.00056 5.00315" stroke="white" stroke-width="0.01" stroke-miterlimit="10"/>
<path d="M19 14.0016L18.9894 13.7196C18.9894 13.7196 18.9717 13.4586 18.877 13.3168C18.7822 13.1751 18.6494 13.0933 18.5527 13.0593C18.4557 13.0248 18.3984 13.0105 18.2727 13.0054C18.147 13.0004 18.0006 13 18.0006 13L19 14.0016ZM18.0006 15.0031C18.0006 15.0031 17.8541 15.0024 17.7284 14.9977C17.6028 14.9931 17.5454 14.9784 17.4484 14.9439C17.3514 14.9094 17.2189 14.8281 17.1238 14.6863C17.0287 14.5446 17.0113 14.2835 17.0113 14.2835L17 14.0012L18.0006 13C18.0006 13 17.8538 13.0008 17.7281 13.0054C17.6024 13.0101 17.545 13.0248 17.448 13.0593C17.351 13.0937 17.2185 13.1751 17.1234 13.3168C17.0283 13.4586 17.0109 13.7196 17.0109 13.7196L17 14.0012L18.0006 15.0031ZM18.0006 15.0031C18.0006 15.0031 18.147 15.0024 18.2727 14.9977C18.3984 14.9931 18.4557 14.9784 18.5527 14.9439C18.6497 14.9094 18.7822 14.8281 18.877 14.6863C18.9717 14.5446 18.9894 14.2835 18.9894 14.2835L19 14.0016L18.0006 15.0031ZM18.0006 13L17 14.0012L18.0006 15.0031L19 14.0016L18.0006 13Z" fill="#0047BB"/>
<path d="M17 14.0012L17.0113 14.2835C17.0113 14.2835 17.0287 14.5446 17.1238 14.6863C17.2189 14.8281 17.3514 14.9094 17.4484 14.9439C17.5454 14.9784 17.6028 14.9931 17.7284 14.9977C17.8541 15.0024 18.0006 15.0031 18.0006 15.0031M17 14.0012L18.0006 13M17 14.0012L17.0109 13.7196C17.0109 13.7196 17.0283 13.4586 17.1234 13.3168C17.2185 13.1751 17.351 13.0937 17.448 13.0593C17.545 13.0248 17.6024 13.0101 17.7281 13.0054C17.8538 13.0008 18.0006 13 18.0006 13M17 14.0012L18.0006 15.0031M19 14.0016L18.9894 13.7196C18.9894 13.7196 18.9717 13.4586 18.877 13.3168C18.7822 13.1751 18.6494 13.0933 18.5527 13.0593C18.4557 13.0248 18.3984 13.0105 18.2727 13.0054C18.147 13.0004 18.0006 13 18.0006 13M19 14.0016L18.0006 13M19 14.0016L18.9894 14.2835C18.9894 14.2835 18.9717 14.5446 18.877 14.6863C18.7822 14.8281 18.6497 14.9094 18.5527 14.9439C18.4557 14.9784 18.3984 14.9931 18.2727 14.9977C18.147 15.0024 18.0006 15.0031 18.0006 15.0031M19 14.0016L18.0006 15.0031" stroke="white" stroke-width="0.01" stroke-miterlimit="10"/>
</svg>
