<svg width="28" height="28" viewBox="0 0 28 28" fill="none" xmlns="http://www.w3.org/2000/svg">
<g clip-path="url(#clip0)">
<path d="M14 28C16.7689 28 19.4757 27.1789 21.778 25.6406C24.0803 24.1022 25.8747 21.9157 26.9343 19.3576C27.9939 16.7994 28.2712 13.9845 27.731 11.2687C27.1908 8.55301 25.8574 6.05845 23.8995 4.10051C21.9416 2.14258 19.447 0.809206 16.7313 0.269012C14.0155 -0.271181 11.2006 0.006066 8.64243 1.06569C6.08427 2.12532 3.89776 3.91974 2.35943 6.22202C0.821086 8.52431 0 11.2311 0 14C0 17.713 1.475 21.274 4.1005 23.8995C6.72601 26.525 10.287 28 14 28Z" fill="#C0E79B"/>
<path d="M15.5493 11.7028V9.83617H19.8333V7H8.17717V9.8385H12.4577V11.7052C8.97983 11.8638 6.36417 12.5498 6.36417 13.37C6.36417 14.1902 8.981 14.875 12.4577 15.036V21H15.5528V15.0348C19.026 14.875 21.6358 14.1902 21.6358 13.3688C21.6358 12.5475 19.0237 11.8627 15.5493 11.7028ZM15.5493 14.5308C15.4618 14.5308 15.0138 14.5623 14.0152 14.5623C13.216 14.5623 12.656 14.5425 12.4565 14.5308C9.38583 14.3943 7.08983 13.8623 7.08983 13.2265C7.08983 12.5907 9.38233 12.0598 12.4565 11.9222V14C12.6595 14.014 13.2323 14.049 14.0292 14.049C14.9835 14.049 15.4618 14.0105 15.5528 14V11.9187C18.6212 12.054 20.909 12.586 20.909 13.223C20.909 13.86 18.6177 14.3908 15.554 14.5308H15.5493Z" fill="#26A17B"/>
</g>
<defs>
<clipPath id="clip0">
<rect width="28" height="28" fill="white"/>
</clipPath>
</defs>
</svg>
