<svg width="28" height="28" viewBox="0 0 28 28" fill="none" xmlns="http://www.w3.org/2000/svg">
<g clip-path="url(#clip0)">
<path d="M14 28C16.7689 28 19.4757 27.1789 21.778 25.6406C24.0803 24.1022 25.8747 21.9157 26.9343 19.3576C27.9939 16.7994 28.2712 13.9845 27.731 11.2687C27.1908 8.55301 25.8574 6.05845 23.8995 4.10051C21.9416 2.14258 19.447 0.809206 16.7313 0.269012C14.0155 -0.271181 11.2006 0.006066 8.64243 1.06569C6.08427 2.12532 3.89776 3.91974 2.35943 6.22202C0.821086 8.52431 0 11.2311 0 14C0 17.713 1.475 21.274 4.1005 23.8995C6.72601 26.525 10.287 28 14 28Z" fill="#0047BB"/>
<path d="M9.3329 7.16971L9.32057 6.84077C9.32057 6.84077 9.29986 6.53623 9.18933 6.37085C9.07881 6.20547 8.92383 6.11012 8.81111 6.07036C8.69794 6.03015 8.63101 6.01342 8.48438 6.00755C8.33775 6.00213 8.16689 6.00122 8.16689 6.00122L9.3329 7.16971ZM8.16689 8.33822C8.16689 8.33822 7.99604 8.33731 7.84941 8.33189C7.70278 8.32647 7.63585 8.3093 7.52268 8.26908C7.40952 8.22887 7.25496 8.13397 7.144 7.96859C7.03304 7.80322 7.01277 7.49868 7.01277 7.49868L7.00046 7.16971L8.16644 6.00122C8.16644 6.00122 7.99561 6.00213 7.84898 6.00755C7.70235 6.01297 7.63542 6.03015 7.52225 6.07036C7.40909 6.11058 7.25451 6.20547 7.14354 6.37085C7.03258 6.53623 7.01234 6.84077 7.01234 6.84077L7 7.16971L8.16689 8.33822ZM8.16689 8.33822C8.16689 8.33822 8.33775 8.33731 8.48438 8.33189C8.63101 8.32647 8.69794 8.3093 8.81111 8.26908C8.92427 8.22887 9.07881 8.13397 9.18933 7.96859C9.29986 7.80322 9.32057 7.49868 9.32057 7.49868L9.3329 7.16971L8.16689 8.33822ZM8.16689 6.00168L7.00089 7.17017L8.16689 8.33866L9.3329 7.17017L8.16689 6.00168ZM9.33333 9.50671L9.321 9.17775C9.321 9.17775 9.30031 8.87321 9.18979 8.70783C9.07926 8.54246 8.92426 8.44711 8.81154 8.40735C8.69837 8.36713 8.63144 8.35041 8.48481 8.34454C8.33818 8.33866 8.16732 8.33822 8.16732 8.33822L9.33333 9.50671ZM7.00132 9.50671L7.01365 9.17775C7.01365 9.17775 7.03436 8.87321 7.14489 8.70783C7.25541 8.54246 7.4104 8.44711 7.52357 8.40735C7.63673 8.36713 7.70367 8.35041 7.8503 8.34454C7.99693 8.33866 8.16778 8.33822 8.16778 8.33822L7.00132 9.50671L7.01365 9.83566C7.01365 9.83566 7.03436 10.1402 7.14489 10.3056C7.25541 10.471 7.4104 10.5663 7.52357 10.6061C7.63673 10.6463 7.70367 10.663 7.8503 10.6689C7.99693 10.6748 8.16778 10.6752 8.16778 10.6752L7.00132 9.50671ZM8.16732 10.6748C8.16732 10.6748 8.33818 10.6738 8.48481 10.6684C8.63144 10.663 8.69837 10.6458 8.81154 10.6056C8.9247 10.5654 9.07926 10.4705 9.18979 10.3051C9.30031 10.1398 9.321 9.83521 9.321 9.83521L9.33333 9.50626L8.16732 10.6748ZM8.16732 8.33822L7.00132 9.50671L8.16732 10.6752L9.33333 9.50671L8.16732 8.33822Z" fill="white"/>
<path d="M9.33336 13.1524L9.32102 12.8234C9.32102 12.8234 9.30034 12.5189 9.18981 12.3535C9.07929 12.1881 8.9243 12.0928 8.81113 12.053C8.69797 12.0128 8.63104 11.9961 8.4844 11.9902C8.33777 11.9843 8.16692 11.9839 8.16692 11.9839L9.33336 13.1524ZM7.00134 13.1524L7.01368 12.8234C7.01368 12.8234 7.03439 12.5189 7.14491 12.3535C7.25544 12.1881 7.41041 12.0928 7.52314 12.053C7.6363 12.0128 7.70324 11.9961 7.84987 11.9902C7.9965 11.9848 8.16735 11.9839 8.16735 11.9839L7.00134 13.1524L7.01368 13.4813C7.01368 13.4813 7.03439 13.7859 7.14491 13.9513C7.25544 14.1166 7.41041 14.212 7.52314 14.2517C7.6363 14.292 7.70324 14.3087 7.84987 14.3145C7.9965 14.32 8.16735 14.3209 8.16735 14.3209L7.00134 13.1524ZM8.16735 14.3209C8.16735 14.3209 8.3382 14.32 8.48483 14.3145C8.63147 14.3091 8.6984 14.292 8.81156 14.2517C8.92473 14.2115 9.07928 14.1166 9.19024 13.9513C9.30077 13.7859 9.32148 13.4813 9.32148 13.4813L9.33379 13.1524L8.16735 14.3209ZM8.16735 11.9843L7.00134 13.1528L8.16735 14.3213L9.33336 13.1528L8.16735 11.9843ZM9.33336 15.4894L9.32102 15.1604C9.32102 15.1604 9.30034 14.8559 9.18981 14.6905C9.07929 14.5251 8.9243 14.4298 8.81113 14.39C8.69797 14.3498 8.63104 14.3331 8.4844 14.3272C8.33777 14.3218 8.16692 14.3209 8.16692 14.3209L9.33336 15.4894ZM7.00134 15.4894L7.01368 15.1604C7.01368 15.1604 7.03439 14.8559 7.14491 14.6905C7.25544 14.5251 7.41043 14.4298 7.52359 14.39C7.63676 14.3498 7.70369 14.3331 7.85032 14.3272C7.99695 14.3218 8.16781 14.3209 8.16781 14.3209L7.00134 15.4894L7.01368 15.8183C7.01368 15.8183 7.03439 16.1229 7.14491 16.2882C7.25544 16.4536 7.41043 16.549 7.52359 16.5887C7.63676 16.6289 7.70369 16.6457 7.85032 16.6515C7.99695 16.657 8.16781 16.6579 8.16781 16.6579L7.00134 15.4894ZM8.16735 16.6574C8.16735 16.6574 8.3382 16.6565 8.48483 16.6511C8.63147 16.6457 8.6984 16.6285 8.81156 16.5883C8.92473 16.5481 9.07928 16.4532 9.19024 16.2878C9.30077 16.1224 9.32148 15.8179 9.32148 15.8179L9.33379 15.4889L8.16735 16.6574ZM8.16735 14.3209L7.00134 15.4894L8.16735 16.6579L9.33336 15.4894L8.16735 14.3209Z" fill="white"/>
<path d="M9.33425 19.1358L9.32191 18.8068C9.32191 18.8068 9.30123 18.5023 9.1907 18.3369C9.08018 18.1715 8.92516 18.0762 8.81199 18.0364C8.69883 17.9962 8.6319 17.9795 8.48527 17.9736C8.33863 17.9682 8.16781 17.9673 8.16781 17.9673L9.33425 19.1358ZM7.00223 19.1358L7.01457 18.8068C7.01457 18.8068 7.03525 18.5023 7.14577 18.3369C7.2563 18.1715 7.41132 18.0762 7.52448 18.0364C7.63765 17.9962 7.70455 17.9795 7.85118 17.9736C7.99781 17.9677 8.16867 17.9673 8.16867 17.9673L7.00223 19.1358L7.01457 19.4647C7.01457 19.4647 7.03525 19.7693 7.14577 19.9347C7.2563 20.1 7.41132 20.1954 7.52448 20.2351C7.63765 20.2753 7.70455 20.2921 7.85118 20.2979C7.99781 20.3034 8.16867 20.3043 8.16867 20.3043L7.00223 19.1358ZM8.16824 20.3043C8.16824 20.3043 8.33909 20.3034 8.48572 20.2979C8.63235 20.2925 8.69929 20.2753 8.81245 20.2351C8.92562 20.1949 9.08017 20.1 9.19113 19.9347C9.30166 19.7693 9.32234 19.4647 9.32234 19.4647L9.33468 19.1358L8.16824 20.3043ZM8.16824 17.9677L7.00223 19.1362L8.16824 20.3047L9.33425 19.1362L8.16824 17.9677ZM9.33425 21.4728L9.32191 21.1438C9.32191 21.1438 9.30123 20.8393 9.1907 20.6739C9.08018 20.5085 8.92518 20.4132 8.81245 20.3734C8.69929 20.3332 8.63235 20.3165 8.48572 20.3106C8.33909 20.3047 8.16824 20.3043 8.16824 20.3043L9.33425 21.4728ZM8.16824 22.6408C8.16824 22.6408 7.99738 22.6399 7.85075 22.6345C7.70412 22.6291 7.63719 22.6119 7.52402 22.5717C7.41086 22.5315 7.25631 22.4366 7.14534 22.2712C7.03482 22.1058 7.01411 21.8013 7.01411 21.8013L7.0018 21.4723L8.16781 20.3038C8.16781 20.3038 7.99695 20.3047 7.85032 20.3101C7.70369 20.3156 7.63676 20.3327 7.52359 20.373C7.41043 20.4132 7.25588 20.5081 7.14491 20.6734C7.03439 20.8388 7.01368 21.1434 7.01368 21.1434L7.00134 21.4723L8.16824 22.6408ZM8.16824 22.6408C8.16824 22.6408 8.33909 22.6399 8.48572 22.6345C8.63235 22.6291 8.69929 22.6119 8.81245 22.5717C8.92562 22.5315 9.08018 22.4366 9.1907 22.2712C9.30123 22.1058 9.32191 21.8013 9.32191 21.8013L9.33425 21.4723L8.16824 22.6408ZM8.16824 20.3043L7.00223 21.4728L8.16824 22.6413L9.33425 21.4728L8.16824 20.3043Z" fill="white"/>
<path d="M12.8322 7.16849L12.8199 6.83955C12.8199 6.83955 12.7992 6.53501 12.6887 6.36963C12.5782 6.20425 12.4232 6.1089 12.3104 6.06914C12.1973 6.02893 12.1303 6.0122 11.9837 6.00633C11.8371 6.00046 11.6662 6 11.6662 6L12.8322 7.16849ZM10.5007 7.16895L10.513 6.84C10.513 6.84 10.5337 6.53545 10.6442 6.37007C10.7547 6.20469 10.9097 6.10936 11.0229 6.0696C11.1361 6.02938 11.203 6.01266 11.3496 6.00678C11.4963 6.00091 11.6671 6.00046 11.6671 6.00046L10.5007 7.16895L10.513 7.4979C10.513 7.4979 10.5337 7.80245 10.6442 7.96783C10.7547 8.13321 10.9097 8.22855 11.0229 8.26831C11.1361 8.30853 11.203 8.32524 11.3496 8.33111C11.4963 8.33699 11.6671 8.33744 11.6671 8.33744L10.5007 7.16895ZM11.6662 8.33699C11.6662 8.33699 11.8371 8.33609 11.9837 8.33067C12.1303 8.32525 12.1973 8.30807 12.3104 8.26786C12.4236 8.22764 12.5782 8.13275 12.6887 7.96737C12.7992 7.80199 12.8199 7.49746 12.8199 7.49746L12.8322 7.16849L11.6662 8.33699ZM11.6662 6.00046L10.5002 7.16895L11.6662 8.33699L12.8322 7.16895L11.6662 6.00046ZM15.1656 7.1694L15.1532 6.84046C15.1532 6.84046 15.1325 6.5359 15.022 6.37052C14.9115 6.20514 14.7565 6.1098 14.6433 6.07004C14.5302 6.02982 14.4632 6.01311 14.3166 6.00724C14.17 6.00182 13.9991 6.00091 13.9991 6.00091L15.1656 7.1694ZM12.8336 7.1694L12.8459 6.84046C12.8459 6.84046 12.8666 6.5359 12.9771 6.37052C13.0876 6.20514 13.2426 6.1098 13.3558 6.07004C13.469 6.02982 13.5359 6.01311 13.6825 6.00724C13.8292 6.00182 14 6.00091 14 6.00091L12.8336 7.1694L12.8459 7.49835C12.8459 7.49835 12.8666 7.8029 12.9771 7.96828C13.0876 8.13366 13.2426 8.22899 13.3558 8.26876C13.469 8.30897 13.5359 8.32569 13.6825 8.33157C13.8292 8.33699 14 8.3379 14 8.3379L12.8336 7.1694ZM13.9996 8.33744C13.9996 8.33744 14.1704 8.33653 14.317 8.33111C14.4637 8.32569 14.5306 8.30853 14.6438 8.26831C14.7569 8.2281 14.9115 8.13321 15.0225 7.96783C15.1334 7.80245 15.1537 7.4979 15.1537 7.4979L15.166 7.16895L13.9996 8.33744ZM13.9996 6.00091L12.8336 7.1694L13.9996 8.33744L15.1656 7.1694L13.9996 6.00091Z" fill="white"/>
<path d="M18.6667 7.16996L18.6544 6.84101C18.6544 6.84101 18.6337 6.53646 18.5232 6.37108C18.4126 6.2057 18.2576 6.11035 18.1445 6.07059C18.0313 6.03038 17.9644 6.01365 17.8178 6.00778C17.6711 6.00191 17.5003 6.00146 17.5003 6.00146L18.6667 7.16996ZM16.3347 7.16996L16.347 6.84101C16.347 6.84101 16.3677 6.53646 16.4783 6.37108C16.5888 6.2057 16.7438 6.11035 16.8565 6.07059C16.9697 6.03038 17.0366 6.01365 17.1832 6.00778C17.3299 6.00191 17.5003 6.00146 17.5003 6.00146L16.3347 7.16996L16.347 7.49891C16.347 7.49891 16.3677 7.80346 16.4783 7.96884C16.5888 8.13422 16.7438 8.22955 16.8565 8.26931C16.9697 8.30953 17.0366 8.32625 17.1832 8.33212C17.3299 8.338 17.5007 8.33845 17.5007 8.33845L16.3347 7.16996ZM17.5007 8.33845C17.5007 8.33845 17.6716 8.33709 17.8182 8.33167C17.9648 8.32625 18.0317 8.30907 18.1449 8.26886C18.2581 8.22864 18.4126 8.13376 18.5236 7.96838C18.6341 7.803 18.6548 7.49845 18.6548 7.49845L18.6672 7.1695L17.5007 8.33845ZM17.5003 6.00146L16.3347 7.16996L17.5007 8.33845L18.6667 7.16996L17.5003 6.00146ZM21 7.1704L20.9877 6.84145C20.9877 6.84145 20.967 6.53691 20.8565 6.37153C20.746 6.20615 20.591 6.11081 20.4782 6.07105C20.3651 6.03083 20.2981 6.01411 20.1515 6.00824C20.0049 6.00236 19.834 6.00191 19.834 6.00191L21 7.1704ZM19.834 8.33891C19.834 8.33891 19.6632 8.338 19.5165 8.33258C19.3699 8.32716 19.303 8.30998 19.1898 8.26977C19.0766 8.22955 18.9221 8.13466 18.8111 7.96928C18.7002 7.8039 18.6799 7.49936 18.6799 7.49936L18.6676 7.1704L19.834 6.00191C19.834 6.00191 19.6627 6.00281 19.5161 6.00824C19.3695 6.01366 19.3026 6.03083 19.1894 6.07105C19.0762 6.11126 18.9217 6.20615 18.8107 6.37153C18.6997 6.53691 18.6795 6.84145 18.6795 6.84145L18.6676 7.1704L19.834 8.33891ZM19.834 8.33891C19.834 8.33891 20.0049 8.338 20.1515 8.33258C20.2981 8.32716 20.3651 8.30998 20.4782 8.26977C20.5914 8.22955 20.746 8.13466 20.8565 7.96928C20.967 7.8039 20.9877 7.49936 20.9877 7.49936L21 7.1704L19.834 8.33891ZM19.834 6.00191L18.668 7.17085L19.834 8.33891L21 7.1704L19.834 6.00191Z" fill="white"/>
<path d="M12.8335 13.1514L12.8211 12.8225C12.8211 12.8225 12.8004 12.5179 12.6899 12.3525C12.5794 12.1872 12.4244 12.0918 12.3112 12.0521C12.1981 12.0118 12.1311 11.9951 11.9845 11.9892C11.8379 11.9838 11.667 11.9829 11.667 11.9829L12.8335 13.1514ZM10.5015 13.1514L10.5138 12.8225C10.5138 12.8225 10.5345 12.5179 10.645 12.3525C10.7555 12.1872 10.9105 12.0918 11.0237 12.0521C11.1369 12.0118 11.2038 11.9951 11.3504 11.9892C11.497 11.9834 11.6679 11.9829 11.6679 11.9829L10.5015 13.1514L10.5138 13.4804C10.5138 13.4804 10.5345 13.7849 10.645 13.9503C10.7555 14.1157 10.9105 14.211 11.0237 14.2508C11.1369 14.291 11.2038 14.3077 11.3504 14.3136C11.497 14.3195 11.6679 14.3199 11.6679 14.3199L10.5015 13.1514ZM11.6675 14.3195C11.6675 14.3195 11.8383 14.3186 11.9849 14.3131C12.1316 14.3077 12.1985 14.2905 12.3117 14.2503C12.4248 14.2101 12.5794 14.1152 12.6904 13.9498C12.8013 13.7845 12.8216 13.4799 12.8216 13.4799L12.8339 13.151L11.6675 14.3195ZM11.667 11.9829L10.5015 13.1514L11.6675 14.3195L12.8335 13.1514L11.667 11.9829ZM15.1668 13.1519L15.1545 12.8229C15.1545 12.8229 15.1338 12.5184 15.0232 12.353C14.9127 12.1876 14.7577 12.0923 14.6446 12.0525C14.5314 12.0123 14.4645 11.9956 14.3178 11.9897C14.1712 11.9838 14.0003 11.9834 14.0003 11.9834L15.1668 13.1519ZM12.8348 13.1519L12.8471 12.8229C12.8471 12.8229 12.8678 12.5184 12.9783 12.353C13.0889 12.1876 13.2439 12.0923 13.3566 12.0525C13.4698 12.0123 13.5367 11.9956 13.6833 11.9897C13.83 11.9838 14.0003 11.9834 14.0003 11.9834L12.8348 13.1519L12.8471 13.4808C12.8471 13.4808 12.8678 13.7854 12.9783 13.9507C13.0889 14.1161 13.2439 14.2115 13.3566 14.2512C13.4698 14.2914 13.5367 14.3082 13.6833 14.314C13.83 14.3199 14.0008 14.3204 14.0008 14.3204L12.8348 13.1519ZM14.0008 14.3204C14.0008 14.3204 14.1716 14.3195 14.3183 14.314C14.4649 14.3086 14.5318 14.2914 14.645 14.2512C14.7582 14.211 14.9127 14.1161 15.0237 13.9507C15.1346 13.7854 15.1549 13.4808 15.1549 13.4808L15.1668 13.1519L14.0008 14.3204ZM14.0008 11.9838L12.8348 13.1519L14.0008 14.3204L15.1668 13.1519L14.0008 11.9838Z" fill="white"/>
</g>
<defs>
<clipPath id="clip0">
<rect width="28" height="28" fill="white"/>
</clipPath>
</defs>
</svg>
