<svg width="66" height="66" viewBox="0 0 66 66" fill="none" xmlns="http://www.w3.org/2000/svg">
<g clip-path="url(#clip0)">
<path d="M33 66C39.5268 66 45.907 64.0646 51.3338 60.4385C56.7606 56.8124 60.9903 51.6585 63.488 45.6286C65.9857 39.5986 66.6392 32.9634 65.3659 26.562C64.0926 20.1607 60.9496 14.2806 56.3345 9.66549C51.7194 5.05036 45.8394 1.90741 39.438 0.634101C33.0366 -0.639212 26.4014 0.0142984 20.3714 2.51199C14.3415 5.00968 9.18759 9.23938 5.5615 14.6662C1.93542 20.093 0 26.4732 0 33C0 41.7522 3.47677 50.1458 9.66547 56.3345C15.8542 62.5232 24.2479 66 33 66Z" fill="url(#paint0_linear)"/>
<path d="M26.6201 49.7204C25.1987 49.7204 24.0354 48.5873 24 47.1659V29.6899C24 22.1297 30.1297 16 37.6899 16H39.393C40.796 16 41.9345 17.1371 41.9358 18.5402C41.9358 18.5664 41.9358 18.5939 41.9345 18.6201C41.9345 20.0231 40.796 21.1616 39.393 21.1616H37.6899C32.9436 21.1616 29.0961 25.0092 29.0961 29.7554V47.1659C29.0633 48.5336 27.9851 49.6458 26.6201 49.7204Z" fill="white"/>
<path d="M39.393 36.6855H26.6201V31.5895H39.4585C40.8615 31.5895 42 32.7279 42 34.131C42.0078 35.534 40.8759 36.679 39.4729 36.6869C39.4454 36.6869 39.4192 36.6869 39.393 36.6855Z" fill="white"/>
</g>
<defs>
<linearGradient id="paint0_linear" x1="-7.82311e-08" y1="33" x2="66" y2="33" gradientUnits="userSpaceOnUse">
<stop stop-color="#8BFBE3"/>
<stop offset="1" stop-color="#63D4C8"/>
</linearGradient>
<clipPath id="clip0">
<rect width="66" height="66" fill="white"/>
</clipPath>
</defs>
</svg>
