<svg width="66" height="66" viewBox="0 0 66 66" fill="none" xmlns="http://www.w3.org/2000/svg">
<path d="M33 66C39.5268 66 45.907 64.0646 51.3338 60.4385C56.7606 56.8124 60.9903 51.6585 63.488 45.6286C65.9857 39.5986 66.6392 32.9634 65.3659 26.562C64.0926 20.1607 60.9497 14.2806 56.3345 9.66549C51.7194 5.05036 45.8394 1.90741 39.438 0.634101C33.0366 -0.639212 26.4014 0.0142984 20.3714 2.51199C14.3415 5.00968 9.18759 9.23938 5.5615 14.6662C1.93542 20.093 0 26.4732 0 33C0 41.7522 3.47677 50.1458 9.66547 56.3345C15.8542 62.5232 24.2479 66 33 66Z" fill="#0047BB"/>
<path d="M21.999 16.8994L21.9699 16.124C21.9699 16.124 21.9211 15.4061 21.6606 15.0163C21.4 14.6265 21.0347 14.4018 20.769 14.308C20.5023 14.2132 20.3445 14.1738 19.9989 14.16C19.6533 14.1472 19.2505 14.1451 19.2505 14.1451L21.999 16.8994ZM19.2505 19.6537C19.2505 19.6537 18.8478 19.6516 18.5022 19.6388C18.1566 19.626 17.9988 19.5855 17.732 19.4907C17.4653 19.3959 17.101 19.1723 16.8394 18.7824C16.5779 18.3926 16.5301 17.6748 16.5301 17.6748L16.5011 16.8994L19.2495 14.1451C19.2495 14.1451 18.8468 14.1472 18.5012 14.16C18.1555 14.1728 17.9978 14.2132 17.731 14.308C17.4643 14.4028 17.0999 14.6265 16.8384 15.0163C16.5768 15.4061 16.5291 16.124 16.5291 16.124L16.5 16.8994L19.2505 19.6537ZM19.2505 19.6537C19.2505 19.6537 19.6533 19.6516 19.9989 19.6388C20.3445 19.626 20.5023 19.5855 20.769 19.4907C21.0358 19.3959 21.4 19.1723 21.6606 18.7824C21.9211 18.3926 21.9699 17.6748 21.9699 17.6748L21.999 16.8994L19.2505 19.6537ZM19.2505 14.1461L16.5021 16.9004L19.2505 19.6547L21.999 16.9004L19.2505 14.1461ZM22 22.408L21.9709 21.6326C21.9709 21.6326 21.9222 20.9148 21.6616 20.5249C21.4011 20.1351 21.0358 19.9104 20.7701 19.8166C20.5033 19.7219 20.3455 19.6824 19.9999 19.6686C19.6543 19.6547 19.2516 19.6537 19.2516 19.6537L22 22.408ZM16.5031 22.408L16.5322 21.6326C16.5322 21.6326 16.581 20.9148 16.8415 20.5249C17.102 20.1351 17.4674 19.9104 17.7341 19.8166C18.0009 19.7219 18.1586 19.6824 18.5043 19.6686C18.8499 19.6547 19.2526 19.6537 19.2526 19.6537L16.5031 22.408L16.5322 23.1834C16.5322 23.1834 16.581 23.9012 16.8415 24.2911C17.102 24.6809 17.4674 24.9056 17.7341 24.9993C18.0009 25.0941 18.1586 25.1336 18.5043 25.1474C18.8499 25.1612 19.2526 25.1623 19.2526 25.1623L16.5031 22.408ZM19.2516 25.1612C19.2516 25.1612 19.6543 25.1591 19.9999 25.1463C20.3455 25.1335 20.5033 25.0931 20.7701 24.9983C21.0368 24.9035 21.4011 24.6798 21.6616 24.29C21.9222 23.9002 21.9709 23.1823 21.9709 23.1823L22 22.4069L19.2516 25.1612ZM19.2516 19.6537L16.5031 22.408L19.2516 25.1623L22 22.408L19.2516 19.6537Z" fill="white"/>
<path d="M22.0002 31.0018L21.9712 30.2265C21.9712 30.2265 21.9224 29.5086 21.6619 29.1188C21.4014 28.729 21.036 28.5042 20.7693 28.4105C20.5025 28.3157 20.3448 28.2763 19.9991 28.2625C19.6535 28.2486 19.2508 28.2475 19.2508 28.2475L22.0002 31.0018ZM16.5033 31.0018L16.5324 30.2265C16.5324 30.2265 16.5812 29.5086 16.8418 29.1188C17.1023 28.729 17.4676 28.5042 17.7333 28.4105C18 28.3157 18.1578 28.2763 18.5034 28.2625C18.8491 28.2497 19.2518 28.2475 19.2518 28.2475L16.5033 31.0018L16.5324 31.7772C16.5324 31.7772 16.5812 32.4951 16.8418 32.8849C17.1023 33.2747 17.4676 33.4995 17.7333 33.5932C18 33.688 18.1578 33.7274 18.5034 33.7412C18.8491 33.754 19.2518 33.7562 19.2518 33.7562L16.5033 31.0018ZM19.2518 33.7562C19.2518 33.7562 19.6545 33.754 20.0001 33.7412C20.3458 33.7285 20.5035 33.688 20.7703 33.5932C21.037 33.4984 21.4013 33.2747 21.6629 32.8849C21.9234 32.4951 21.9722 31.7772 21.9722 31.7772L22.0012 31.0018L19.2518 33.7562ZM19.2518 28.2486L16.5033 31.0029L19.2518 33.7572L22.0002 31.0029L19.2518 28.2486ZM22.0002 36.5105L21.9712 35.7351C21.9712 35.7351 21.9224 35.0172 21.6619 34.6274C21.4014 34.2376 21.036 34.0129 20.7693 33.9191C20.5025 33.8243 20.3448 33.7849 19.9991 33.7711C19.6535 33.7583 19.2508 33.7562 19.2508 33.7562L22.0002 36.5105ZM16.5033 36.5105L16.5324 35.7351C16.5324 35.7351 16.5812 35.0172 16.8418 34.6274C17.1023 34.2376 17.4676 34.0129 17.7344 33.9191C18.0011 33.8243 18.1589 33.7849 18.5045 33.7711C18.8501 33.7583 19.2529 33.7562 19.2529 33.7562L16.5033 36.5105L16.5324 37.2858C16.5324 37.2858 16.5812 38.0037 16.8418 38.3935C17.1023 38.7834 17.4676 39.0081 17.7344 39.1018C18.0011 39.1966 18.1589 39.236 18.5045 39.2498C18.8501 39.2626 19.2529 39.2648 19.2529 39.2648L16.5033 36.5105ZM19.2518 39.2637C19.2518 39.2637 19.6545 39.2616 20.0001 39.2488C20.3458 39.236 20.5035 39.1955 20.7703 39.1007C21.037 39.006 21.4013 38.7823 21.6629 38.3925C21.9234 38.0026 21.9722 37.2848 21.9722 37.2848L22.0012 36.5094L19.2518 39.2637ZM19.2518 33.7562L16.5033 36.5105L19.2518 39.2648L22.0002 36.5105L19.2518 33.7562Z" fill="white"/>
<path d="M22.0023 45.1054L21.9732 44.33C21.9732 44.33 21.9245 43.6122 21.664 43.2223C21.4035 42.8325 21.0381 42.6078 20.7713 42.514C20.5046 42.4193 20.3468 42.3799 20.0012 42.366C19.6555 42.3532 19.2529 42.3511 19.2529 42.3511L22.0023 45.1054ZM16.5054 45.1054L16.5345 44.33C16.5345 44.33 16.5833 43.6122 16.8438 43.2223C17.1043 42.8325 17.4697 42.6078 17.7365 42.514C18.0032 42.4193 18.1609 42.3799 18.5065 42.366C18.8522 42.3522 19.2549 42.3511 19.2549 42.3511L16.5054 45.1054L16.5345 45.8808C16.5345 45.8808 16.5833 46.5987 16.8438 46.9885C17.1043 47.3783 17.4697 47.603 17.7365 47.6967C18.0032 47.7915 18.1609 47.831 18.5065 47.8448C18.8522 47.8576 19.2549 47.8597 19.2549 47.8597L16.5054 45.1054ZM19.2539 47.8597C19.2539 47.8597 19.6566 47.8576 20.0022 47.8448C20.3479 47.832 20.5056 47.7915 20.7724 47.6967C21.0391 47.602 21.4034 47.3783 21.665 46.9885C21.9255 46.5987 21.9743 45.8808 21.9743 45.8808L22.0033 45.1054L19.2539 47.8597ZM19.2539 42.3522L16.5054 45.1065L19.2539 47.8608L22.0023 45.1065L19.2539 42.3522ZM22.0023 50.614L21.9732 49.8386C21.9732 49.8386 21.9245 49.1208 21.664 48.7309C21.4035 48.3411 21.0381 48.1164 20.7724 48.0227C20.5056 47.9279 20.3479 47.8885 20.0022 47.8746C19.6566 47.8608 19.2539 47.8597 19.2539 47.8597L22.0023 50.614ZM19.2539 53.3673C19.2539 53.3673 18.8512 53.3651 18.5055 53.3524C18.1599 53.3396 18.0021 53.2991 17.7354 53.2043C17.4686 53.1095 17.1043 52.8858 16.8428 52.496C16.5823 52.1062 16.5334 51.3883 16.5334 51.3883L16.5044 50.6129L19.2529 47.8586C19.2529 47.8586 18.8501 47.8608 18.5045 47.8736C18.1589 47.8863 18.0011 47.9268 17.7344 48.0216C17.4676 48.1164 17.1033 48.3401 16.8418 48.7299C16.5812 49.1197 16.5324 49.8376 16.5324 49.8376L16.5033 50.6129L19.2539 53.3673ZM19.2539 53.3673C19.2539 53.3673 19.6566 53.3651 20.0022 53.3524C20.3479 53.3396 20.5056 53.2991 20.7724 53.2043C21.0391 53.1095 21.4035 52.8858 21.664 52.496C21.9245 52.1062 21.9732 51.3883 21.9732 51.3883L22.0023 50.6129L19.2539 53.3673ZM19.2539 47.8597L16.5054 50.614L19.2539 53.3683L22.0023 50.614L19.2539 47.8597Z" fill="white"/>
<path d="M30.2475 16.8969L30.2184 16.1215C30.2184 16.1215 30.1696 15.4037 29.9091 15.0138C29.6486 14.624 29.2832 14.3993 29.0175 14.3056C28.7508 14.2108 28.593 14.1713 28.2474 14.1575C27.9017 14.1437 27.499 14.1426 27.499 14.1426L30.2475 16.8969ZM24.7516 16.898L24.7807 16.1226C24.7807 16.1226 24.8295 15.4047 25.09 15.0149C25.3505 14.6251 25.7159 14.4004 25.9826 14.3066C26.2493 14.2118 26.4071 14.1724 26.7527 14.1586C27.0984 14.1447 27.5011 14.1437 27.5011 14.1437L24.7516 16.898L24.7807 17.6733C24.7807 17.6733 24.8295 18.3912 25.09 18.781C25.3505 19.1709 25.7159 19.3956 25.9826 19.4893C26.2493 19.5841 26.4071 19.6235 26.7527 19.6373C27.0984 19.6512 27.5011 19.6523 27.5011 19.6523L24.7516 16.898ZM27.499 19.6512C27.499 19.6512 27.9017 19.6491 28.2474 19.6363C28.593 19.6235 28.7508 19.583 29.0175 19.4882C29.2843 19.3935 29.6486 19.1698 29.9091 18.78C30.1696 18.3901 30.2184 17.6723 30.2184 17.6723L30.2475 16.8969L27.499 19.6512ZM27.499 14.1437L24.7506 16.898L27.499 19.6512L30.2475 16.898L27.499 14.1437ZM35.7475 16.899L35.7184 16.1237C35.7184 16.1237 35.6696 15.4058 35.4091 15.016C35.1486 14.6261 34.7832 14.4014 34.5165 14.3077C34.2498 14.2129 34.092 14.1735 33.7464 14.1596C33.4007 14.1469 32.998 14.1447 32.998 14.1447L35.7475 16.899ZM30.2506 16.899L30.2796 16.1237C30.2796 16.1237 30.3285 15.4058 30.589 15.016C30.8495 14.6261 31.2148 14.4014 31.4816 14.3077C31.7483 14.2129 31.9061 14.1735 32.2517 14.1596C32.5974 14.1469 33.0001 14.1447 33.0001 14.1447L30.2506 16.899L30.2796 17.6744C30.2796 17.6744 30.3285 18.3923 30.589 18.7821C30.8495 19.1719 31.2148 19.3966 31.4816 19.4904C31.7483 19.5852 31.9061 19.6246 32.2517 19.6384C32.5974 19.6512 33.0001 19.6533 33.0001 19.6533L30.2506 16.899ZM32.999 19.6523C32.999 19.6523 33.4017 19.6501 33.7474 19.6373C34.093 19.6246 34.2508 19.5841 34.5175 19.4893C34.7843 19.3945 35.1486 19.1709 35.4101 18.781C35.6717 18.3912 35.7195 17.6733 35.7195 17.6733L35.7485 16.898L32.999 19.6523ZM32.999 14.1447L30.2506 16.899L32.999 19.6523L35.7475 16.899L32.999 14.1447Z" fill="white"/>
<path d="M44.0001 16.9003L43.9711 16.125C43.9711 16.125 43.9223 15.4071 43.6618 15.0173C43.4012 14.6275 43.0359 14.4027 42.7692 14.309C42.5024 14.2142 42.3446 14.1748 41.999 14.1609C41.6534 14.1471 41.2507 14.146 41.2507 14.146L44.0001 16.9003ZM38.5033 16.9003L38.5323 16.125C38.5323 16.125 38.5811 15.4071 38.8416 15.0173C39.1022 14.6275 39.4675 14.4027 39.7332 14.309C40 14.2142 40.1577 14.1748 40.5034 14.1609C40.849 14.1471 41.2507 14.146 41.2507 14.146L38.5033 16.9003L38.5323 17.6757C38.5323 17.6757 38.5811 18.3936 38.8416 18.7834C39.1022 19.1732 39.4675 19.398 39.7332 19.4917C40 19.5865 40.1577 19.6259 40.5034 19.6397C40.849 19.6536 41.2517 19.6547 41.2517 19.6547L38.5033 16.9003ZM41.2517 19.6547C41.2517 19.6547 41.6544 19.6514 42 19.6387C42.3457 19.6259 42.5034 19.5854 42.7702 19.4906C43.0369 19.3958 43.4012 19.1722 43.6628 18.7823C43.9233 18.3925 43.9721 17.6747 43.9721 17.6747L44.0012 16.8993L41.2517 19.6547ZM41.2507 14.146L38.5033 16.9003L41.2517 19.6547L44.0001 16.9003L41.2507 14.146ZM49.5001 16.9014L49.471 16.126C49.471 16.126 49.4223 15.4082 49.1618 15.0183C48.9012 14.6285 48.5359 14.4038 48.2702 14.3101C48.0034 14.2153 47.8456 14.1758 47.5 14.162C47.1544 14.1482 46.7517 14.1471 46.7517 14.1471L49.5001 16.9014ZM46.7517 19.6557C46.7517 19.6557 46.3489 19.6536 46.0033 19.6408C45.6577 19.628 45.4999 19.5875 45.2332 19.4928C44.9664 19.398 44.6021 19.1743 44.3406 18.7845C44.079 18.3946 44.0313 17.6768 44.0313 17.6768L44.0022 16.9014L46.7517 14.1471C46.7517 14.1471 46.3479 14.1492 46.0023 14.162C45.6567 14.1748 45.4989 14.2153 45.2321 14.3101C44.9654 14.4048 44.6011 14.6285 44.3395 15.0183C44.078 15.4082 44.0302 16.126 44.0302 16.126L44.0022 16.9014L46.7517 19.6557ZM46.7517 19.6557C46.7517 19.6557 47.1544 19.6536 47.5 19.6408C47.8456 19.628 48.0034 19.5875 48.2702 19.4928C48.5369 19.398 48.9012 19.1743 49.1618 18.7845C49.4223 18.3946 49.471 17.6768 49.471 17.6768L49.5001 16.9014L46.7517 19.6557ZM46.7517 14.1471L44.0032 16.9025L46.7517 19.6557L49.5001 16.9014L46.7517 14.1471Z" fill="white"/>
<path d="M30.2503 30.9995L30.2213 30.2242C30.2213 30.2242 30.1725 29.5063 29.912 29.1165C29.6515 28.7267 29.2861 28.5019 29.0194 28.4082C28.7526 28.3134 28.5949 28.274 28.2492 28.2602C27.9036 28.2474 27.5009 28.2452 27.5009 28.2452L30.2503 30.9995ZM24.7535 30.9995L24.7826 30.2242C24.7826 30.2242 24.8313 29.5063 25.0919 29.1165C25.3524 28.7267 25.7177 28.5019 25.9845 28.4082C26.2512 28.3134 26.409 28.274 26.7546 28.2602C27.1002 28.2463 27.503 28.2452 27.503 28.2452L24.7535 30.9995L24.7826 31.775C24.7826 31.775 24.8313 32.4928 25.0919 32.8826C25.3524 33.2724 25.7177 33.4972 25.9845 33.5909C26.2512 33.6857 26.409 33.7251 26.7546 33.739C27.1002 33.7528 27.503 33.7539 27.503 33.7539L24.7535 30.9995ZM27.502 33.7528C27.502 33.7528 27.9046 33.7507 28.2503 33.7379C28.5959 33.7251 28.7537 33.6846 29.0204 33.5898C29.2871 33.495 29.6515 33.2714 29.9131 32.8816C30.1746 32.4918 30.2223 31.7739 30.2223 31.7739L30.2514 30.9985L27.502 33.7528ZM27.5009 28.2452L24.7535 30.9995L27.502 33.7528L30.2503 30.9995L27.5009 28.2452ZM35.7503 31.0006L35.7213 30.2252C35.7213 30.2252 35.6725 29.5074 35.412 29.1175C35.1515 28.7277 34.7861 28.503 34.5194 28.4093C34.2526 28.3145 34.0949 28.2751 33.7492 28.2612C33.4036 28.2474 33.0009 28.2463 33.0009 28.2463L35.7503 31.0006ZM30.2535 31.0006L30.2825 30.2252C30.2825 30.2252 30.3313 29.5074 30.5919 29.1175C30.8524 28.7277 31.2177 28.503 31.4835 28.4093C31.7502 28.3145 31.908 28.2751 32.2536 28.2612C32.5992 28.2474 33.0009 28.2463 33.0009 28.2463L30.2535 31.0006L30.2825 31.776C30.2825 31.776 30.3313 32.4939 30.5919 32.8837C30.8524 33.2735 31.2177 33.4983 31.4835 33.592C31.7502 33.6868 31.908 33.7262 32.2536 33.74C32.5992 33.7539 33.0019 33.7549 33.0019 33.7549L30.2535 31.0006ZM33.0019 33.7549C33.0019 33.7549 33.4046 33.7528 33.7502 33.74C34.0959 33.7273 34.2536 33.6868 34.5204 33.592C34.7871 33.4972 35.1514 33.2735 35.413 32.8837C35.6746 32.4939 35.7223 31.776 35.7223 31.776L35.7503 31.0006L33.0019 33.7549ZM33.0019 28.2474L30.2535 31.0006L33.0019 33.7549L35.7503 31.0006L33.0019 28.2474Z" fill="white"/>
<defs>
<clipPath id="clip0">
<rect width="66" height="66" fill="white"/>
</clipPath>
</defs>
</svg>

