<svg width="66" height="66" viewBox="0 0 66 66" fill="none" xmlns="http://www.w3.org/2000/svg">
<g clip-path="url(#clip0)">
<path d="M33 66C39.5268 66 45.907 64.0646 51.3338 60.4385C56.7606 56.8124 60.9903 51.6585 63.488 45.6286C65.9857 39.5986 66.6392 32.9634 65.3659 26.562C64.0926 20.1607 60.9496 14.2806 56.3345 9.66549C51.7194 5.05036 45.8394 1.90741 39.438 0.634101C33.0366 -0.639212 26.4014 0.0142984 20.3714 2.51199C14.3415 5.00968 9.18759 9.23938 5.5615 14.6662C1.93542 20.093 0 26.4732 0 33C0 41.7522 3.47677 50.1458 9.66547 56.3345C15.8542 62.5232 24.2479 66 33 66Z" fill="url(#paint1_linear)"/>
<path d="M32.7499 11V26.576L46.2496 32.351L32.7499 11Z" fill="#2B3439"/>
<path d="M32.7498 11L19.25 32.3483L32.7498 26.5733V11Z" fill="#677889"/>
<path d="M32.7498 26.5238L19.25 32.2988L32.7498 39.9988V26.5238Z" fill="#2B3439"/>
<path d="M32.7499 26.5238V39.9988L46.2496 32.2988L32.7499 26.5238Z" fill="#060506"/>
<path d="M32.7498 52.9981V42.4986L19.25 34.7986L32.7498 52.9981Z" fill="#677889"/>
<path d="M32.7499 42.4986V52.9981L46.2496 34.7986L32.7499 42.4986Z" fill="#2B3439"/>
</g>
<defs>
<linearGradient id="paint1_linear" x1="12.012" y1="1.914" x2="54.186" y2="64.35" gradientUnits="userSpaceOnUse">
<stop stop-color="#FECBD1"/>
<stop offset="1" stop-color="#FD4E4E"/>
</linearGradient>
<clipPath id="clip0">
<rect width="66" height="66" fill="white"/>
</clipPath>
</defs>
</svg>
