<?xml version="1.0" encoding="utf-8"?>
<!-- Generator: Adobe Illustrator 21.0.0, SVG Export Plug-In . SVG Version: 6.00 Build 0)  -->
<svg version="1.1" class='icon_prc' id="icon" xmlns="http://www.w3.org/2000/svg" xmlns:xlink="http://www.w3.org/1999/xlink" x="0px" y="0px"
	 viewBox="0 0 75 84.4" style="enable-background:new 0 0 75 84.4;" xml:space="preserve">
<polygon id="_x31_1" points="37.5,84.4 37.5,81 3,63.7 3,20.6 37.5,3.4 37.5,0 0,18.7 0,65.6 "/>
<polygon id="_x31_0" points="37.5,84.4 37.5,81 72,63.7 72,20.6 37.5,3.4 37.5,0 75,18.7 75,65.6 "/>
<polygon id="_x39_" points="4.3,19.4 1.9,21.6 37.5,39.4 73.1,21.6 70.7,19.4 37.5,36 "/>
<rect id="_x38_" x="36.8" y="2.2" width="1.5" height="35.2"/>
<polygon id="_x37_" points="37.5,18.4 37.5,21.7 21,30 18,28.1 "/>
<polygon id="_x36_" points="37.5,18.4 57,28.1 54,30 37.5,21.7 "/>
<polygon id="_x35_" points="21,53.5 37.5,62 37.5,65.4 21,56.9 20,56.4 "/>
<polygon id="_x34_" points="54,30 57,28.1 57,55.1 37.5,65.4 37.5,62 54,53.3 "/>
<polygon id="_x33_" points="18,28.1 21,30 21,74.5 18,72.9 "/>
<path id="_x32_" d="M2.2,64.5l-0.7-1.3L37,45.5l0.7,1.3L2.2,64.5z M72.8,64.5l0.7-1.3L38,45.5l-0.7,1.3L72.8,64.5z"/>
<rect id="_x31_" x="36" y="36" width="3" height="46.2"/>
</svg>
