<svg width="66" height="66" viewBox="0 0 66 66" fill="none" xmlns="http://www.w3.org/2000/svg">
<path d="M33 66C51.2254 66 66 51.2254 66 33C66 14.7746 51.2254 0 33 0C14.7746 0 0 14.7746 0 33C0 51.2254 14.7746 66 33 66Z" fill="#0047BB"/>
<path d="M14.1591 17.7053H31.4611V20.7863H14.1591V17.7053ZM34.6221 17.7053H51.924V20.7863H34.6221V17.7053ZM31.4611 20.7863H34.6221V53.7053H31.4611V20.7863ZM27.6347 27.1917L10 35.7053L27.6347 44.1377V40.7323L17.1537 35.7053L27.6347 30.5972V27.1917ZM38.3653 44.1377L56 35.7053L38.3653 27.1917V30.5972L48.9295 35.7053L38.3653 40.7323V44.1377Z" fill="white"/>
</svg>
