<svg width="66" height="66" viewBox="0 0 66 66" fill="none" xmlns="http://www.w3.org/2000/svg">
<g clip-path="url(#clip0)">
<path d="M33 66C51.2254 66 66 51.2254 66 33C66 14.7746 51.2254 0 33 0C14.7746 0 0 14.7746 0 33C0 51.2254 14.7746 66 33 66Z" fill="#0047BB"/>
<path d="M31.4353 24.2432V27.8919L28.3059 31.4594H25.1765L31.4353 24.2432ZM34.5647 24.2432V27.8919L37.6941 31.5405H40.8235L34.5647 24.2432ZM31.4353 41.8378V38.1892L28.3059 34.5405H25.1765L31.4353 41.8378ZM34.5647 38.1892V41.8378L40.8235 34.5405H37.6941L34.5647 38.1892ZM31.4353 38.1892H34.5647V27.8108H31.4353V38.1892ZM31.4353 21.1622V24.2432H34.5647V21.1622H31.4353ZM31.4353 44.9189H34.5647V41.8378H31.4353V44.9189Z" fill="white"/>
<path d="M22.1294 31.4595H19L28.3059 15H31.4353L22.1294 31.4595ZM22.1294 34.5405H19L28.3059 51H31.4353L22.1294 34.5405ZM43.7882 31.4595H46.9176L37.6941 15H34.5647L43.7882 31.4595ZM34.5647 51H37.6941L47 34.5405H43.8706L34.5647 51Z" fill="white"/>
</g>
<defs>
<clipPath id="clip0">
<rect width="66" height="66" fill="white"/>
</clipPath>
</defs>
</svg>
