<svg width="68" height="68" viewBox="0 0 66 66" fill="none" xmlns="http://www.w3.org/2000/svg">
<g clip-path="url(#clip2)">
<path d="M33 66C51.2254 66 66 51.2254 66 33C66 14.7746 51.2254 0 33 0C14.7746 0 0 14.7746 0 33C0 51.2254 14.7746 66 33 66Z" fill="#0047BB"/>
<path fill-rule="evenodd" clip-rule="evenodd" d="M33 21.0091C31.8401 20.864 31.0882 20.864 31.0882 20.864H29.2594V14.6297H26.1008V20.864H20.4484V24.0226H26.1008V42.0604H20.4484V45.2191H26.1008V51.5365H29.2594V45.2191H31.0882C31.0882 45.2191 31.8401 45.2148 33 45.063V51.5365H36.1587V44.4107C40.2988 43.2201 45.4685 40.2765 45.4685 33C45.4685 25.7234 40.2988 22.8098 36.1587 21.6431V14.6297H33V21.0091ZM29.2594 42.0604H26.1008V45.2191H29.2594V42.0604ZM29.2594 42.0604H31.0882C31.0882 42.0604 41.8111 42.0604 41.8111 33C41.8111 23.9395 31.0882 24.0226 31.0882 24.0226H29.2594V20.864H26.1008V24.0226H29.2594V42.0604Z" fill="white"/>
</g>
<defs>
<clipPath id="clip2">
<rect width="66" height="66" fill="white"/>
</clipPath>
</defs>
</svg>
