<svg width="66" height="66" viewBox="0 0 66 66" fill="none" xmlns="http://www.w3.org/2000/svg">
<path d="M33 66C51.2254 66 66 51.2254 66 33C66 14.7746 51.2254 0 33 0C14.7746 0 0 14.7746 0 33C0 51.2254 14.7746 66 33 66Z" fill="#0047BB"/>
<path fill-rule="evenodd" clip-rule="evenodd" d="M26.4219 21.0811H22.1163C21.5581 21.0811 21 21.6486 21 22.2162V23.027C21 23.6757 21.4784 24.1622 22.1163 24.1622H26.4219V41.7568H22.1163C21.4784 41.7568 21 42.2432 21 42.8919V43.7027C21 44.3514 21.4784 44.8378 22.1163 44.8378H26.4219V49.8649C26.4219 50.5135 26.9003 51 27.5382 51H28.3355C28.9734 51 29.4518 50.5135 29.4518 49.8649V44.8378H31.206C31.206 44.8378 31.9272 44.8336 33.0399 44.6855V49.8649C33.0399 50.4324 33.5183 51 34.1561 51H34.8738C35.5116 51 35.99 50.5135 35.99 49.8649V44.0724C39.9743 42.9262 45 40.0643 45 32.9189C45 25.7736 39.9743 22.9412 35.99 21.8184V16.1351C35.99 15.4865 35.5116 15 34.8738 15H34.1561C33.5183 15 33.0399 15.4865 33.0399 16.1351V21.2226C31.9272 21.0811 31.206 21.0811 31.206 21.0811H29.4518V16.1351C29.4518 15.4865 28.9734 15 28.3355 15H27.5382C26.9003 15 26.4219 15.4865 26.4219 16.1351V21.0811ZM29.4518 24.1622H26.4219V21.0811H29.4518V24.1622ZM29.4518 24.1622H31.206C31.206 24.1622 41.4917 24.0811 41.4917 32.9189C41.4917 41.7568 31.206 41.7568 31.206 41.7568H29.4518V24.1622ZM29.4518 41.7568H26.4219V44.8378H29.4518V41.7568Z" fill="white"/>
</svg>


