<svg width="66" height="66" viewBox="0 0 66 66" fill="none" xmlns="http://www.w3.org/2000/svg">
<path d="M65.5 33C65.5 50.9493 50.9493 65.5 33 65.5C15.0507 65.5 0.5 50.9493 0.5 33C0.5 15.0507 15.0507 0.5 33 0.5C50.9493 0.5 65.5 15.0507 65.5 33Z" fill="white" stroke="#E5E5E5"/>
<path d="M15 15.24L28.62 32.76L26.64 26.94L15 15.24Z" fill="black"/>
<path d="M26.94 26.64L32.76 28.62L15.24 15L26.94 26.64Z" fill="black"/>
<path d="M32.94 29.04L27.12 27.12L29.04 32.94L32.94 29.04Z" fill="black"/>
<path d="M15.24 51L32.76 37.38L26.94 39.36L15.24 51Z" fill="black"/>
<path d="M26.64 39.06L28.62 33.24L15 50.76L26.64 39.06Z" fill="black"/>
<path d="M29.04 33.06L27.12 38.88L32.94 36.96L29.04 33.06Z" fill="black"/>
<path d="M39.06 26.64L33.24 28.62L50.76 15L39.06 26.64Z" fill="black"/>
<path d="M39.36 26.94L37.38 32.76L51 15.24L39.36 26.94Z" fill="black"/>
<path d="M36.96 32.94L38.88 27.12L33.06 29.04L36.96 32.94Z" fill="black"/>
<path d="M51 50.76L37.38 33.24L39.36 39.06L51 50.76Z" fill="black"/>
<path d="M39.06 39.36L33.24 37.38L50.76 51L39.06 39.36Z" fill="black"/>
<path d="M33.06 36.96L38.88 38.88L36.96 33.06L33.06 36.96Z" fill="black"/>
</svg>
