<svg width="28" height="28" viewBox="0 0 28 28" fill="none" xmlns="http://www.w3.org/2000/svg">
<path d="M8.0719 9.24217C11.3586 10.9101 14.134 10.8117 14.134 10.8117C14.134 10.8117 13.0813 7.12577 16.3352 5.49061C19.5891 3.85545 21.8285 6.6117 21.8285 6.6117C21.8285 6.6117 22.3973 6.45584 22.8184 6.29998C23.2422 6.14413 23.852 5.86522 23.852 5.86522L22.8485 7.66444L24.3934 7.50038C24.3934 7.50038 24.202 7.77928 23.584 8.34803C22.966 8.91678 22.7117 9.21209 22.7117 9.21209C22.7117 9.21209 22.9332 13.65 20.6063 17.0652C18.2793 20.4805 15.2742 22.5312 10.9074 22.9633C6.54065 23.3953 3.6969 21.618 3.6969 21.618C3.6969 21.618 5.60549 21.5086 6.82229 21.041C8.03909 20.5734 9.78909 19.343 9.78909 19.343C9.78909 19.343 7.30081 18.5746 6.40667 17.7078C5.51252 16.8437 5.29104 16.3297 5.29104 16.3297L7.74651 16.2969C7.74651 16.2969 5.16252 14.9187 4.42971 13.8277C3.6969 12.7367 3.6012 11.6812 3.6012 11.6812L5.49065 12.4469C5.49065 12.4469 3.92112 10.3031 3.6969 8.63514C3.47268 6.96717 3.98401 6.0703 3.98401 6.0703C3.98401 6.0703 4.78518 7.5742 8.0719 9.24217Z" fill="#C9C9C9"/>
</svg>
