<svg width="28" height="28" viewBox="0 0 28 28" fill="none" xmlns="http://www.w3.org/2000/svg">
<path d="M8.07178 9.24229C11.3585 10.9103 14.1339 10.8118 14.1339 10.8118C14.1339 10.8118 13.0812 7.12589 16.3351 5.49073C19.589 3.85558 21.8284 6.61183 21.8284 6.61183C21.8284 6.61183 22.3972 6.45597 22.8183 6.30011C23.2421 6.14425 23.8519 5.86534 23.8519 5.86534L22.8483 7.66456L24.3933 7.5005C24.3933 7.5005 24.2019 7.7794 23.5839 8.34815C22.9659 8.9169 22.7116 9.21222 22.7116 9.21222C22.7116 9.21222 22.9331 13.6501 20.6062 17.0653C18.2792 20.4806 15.2741 22.5314 10.9073 22.9634C6.54053 23.3954 3.69678 21.6181 3.69678 21.6181C3.69678 21.6181 5.60537 21.5087 6.82217 21.0411C8.03896 20.5735 9.78896 19.3431 9.78896 19.3431C9.78896 19.3431 7.30068 18.5747 6.40654 17.7079C5.5124 16.8439 5.29092 16.3298 5.29092 16.3298L7.74639 16.297C7.74639 16.297 5.1624 14.9189 4.42959 13.8278C3.69678 12.7368 3.60107 11.6814 3.60107 11.6814L5.49053 12.447C5.49053 12.447 3.921 10.3032 3.69678 8.63526C3.47256 6.96729 3.98389 6.07042 3.98389 6.07042C3.98389 6.07042 4.78506 7.57433 8.07178 9.24229Z" fill="#A0A0A0"/>
<defs>
<linearGradient
          id="paint0_linear_2217_205"
          x1="0"
          y1="11"
          x2="22"
          y2="11"
          gradientUnits="userSpaceOnUse"
        >
          <stop stop-color="#8BB7FF" />
          <stop offset="1" stop-color="#0061FF" />
        </linearGradient>
</defs>

</svg>
