<svg width="88" height="88" viewBox="0 0 88 88" fill="none" xmlns="http://www.w3.org/2000/svg">
<path d="M20.3777 28.5737C33.4239 15.8088 54.5761 15.8088 67.6224 28.5737L69.1926 30.11C69.8449 30.7483 69.8449 31.7831 69.1926 32.4213L63.8214 37.6767C63.4953 37.9958 62.9665 37.9958 62.6403 37.6767L60.4796 35.5626C51.3782 26.6574 36.6219 26.6574 27.5205 35.5626L25.2065 37.8266C24.8804 38.1457 24.3516 38.1457 24.0254 37.8266L18.6543 32.5713C18.002 31.933 18.002 30.8982 18.6543 30.26L20.3777 28.5737ZM78.7304 39.4423L83.5108 44.1196C84.1631 44.7578 84.1631 45.7926 83.5108 46.4309L61.956 67.5213C61.3037 68.1596 60.246 68.1596 59.5937 67.5213C59.5937 67.5213 59.5937 67.5213 59.5937 67.5213L44.2954 52.5528C44.1323 52.3933 43.8679 52.3933 43.7049 52.5528C43.7049 52.5528 43.7049 52.5528 43.7049 52.5528L28.4069 67.5213C27.7546 68.1596 26.697 68.1596 26.0447 67.5213C26.0447 67.5213 26.0446 67.5213 26.0446 67.5213L4.48924 46.4306C3.83692 45.7924 3.83692 44.7576 4.48924 44.1193L9.26957 39.4421C9.92188 38.8038 10.9795 38.8038 11.6318 39.4421L26.9303 54.4107C27.0934 54.5703 27.3578 54.5703 27.5209 54.4107C27.5209 54.4107 27.5209 54.4107 27.5209 54.4107L42.8186 39.4421C43.4709 38.8038 44.5285 38.8038 45.1809 39.442C45.1809 39.442 45.1809 39.442 45.1809 39.442L60.4794 54.4107C60.6425 54.5703 60.9069 54.5703 61.07 54.4107L76.3682 39.4423C77.0205 38.8041 78.0781 38.8041 78.7304 39.4423Z" fill="#3B99FC"/>
</svg>
