<svg width="22" height="22" viewBox="0 0 22 22" fill="none" xmlns="http://www.w3.org/2000/svg">
<path d="M11.0002 21.0827C13.1313 21.0821 15.2074 20.4061 16.9305 19.152C18.6535 17.8979 19.9349 16.1301 20.5906 14.1023C21.2464 12.0746 21.2428 9.89121 20.5803 7.86565C19.9179 5.8401 18.6306 4.07653 16.9035 2.82812C15.1763 1.57971 13.0979 0.910667 10.9668 0.917037C8.83568 0.923408 6.76137 1.60486 5.04168 2.86358C3.32198 4.12229 2.04533 5.89352 1.395 7.923C0.744666 9.95248 0.754103 12.1358 1.42195 14.1596C1.45652 14.2777 1.51452 14.3877 1.59248 14.4829C1.67044 14.5782 1.76677 14.6567 1.87573 14.714C1.9847 14.7712 2.10406 14.8059 2.22672 14.816C2.34938 14.8261 2.47282 14.8115 2.58969 14.7729C2.70656 14.7343 2.81447 14.6726 2.90699 14.5914C2.9995 14.5102 3.07474 14.4113 3.1282 14.3004C3.18167 14.1896 3.21228 14.0691 3.21821 13.9461C3.22414 13.8232 3.20526 13.7003 3.1627 13.5849C2.61634 11.929 2.6087 10.1425 3.14086 8.48203C3.67303 6.82152 4.71763 5.37232 6.12473 4.34247C7.53182 3.31262 9.22904 2.75509 10.9727 2.7499C12.7164 2.74472 14.4169 3.29216 15.8301 4.31362C17.2433 5.33508 18.2965 6.77805 18.8386 8.43537C19.3806 10.0927 19.3836 11.8791 18.847 13.5382C18.3105 15.1974 17.2621 16.6438 15.8524 17.67C14.4426 18.6961 12.7439 19.2492 11.0002 19.2499C10.8769 19.2451 10.7538 19.2653 10.6385 19.3092C10.5231 19.3531 10.4178 19.4198 10.3289 19.5054C10.2399 19.5909 10.1692 19.6936 10.1208 19.8071C10.0725 19.9207 10.0476 20.0429 10.0476 20.1663C10.0476 20.2897 10.0725 20.4119 10.1208 20.5255C10.1692 20.639 10.2399 20.7417 10.3289 20.8272C10.4178 20.9128 10.5231 20.9795 10.6385 21.0234C10.7538 21.0674 10.8769 21.0875 11.0002 21.0827Z" fill="white"/>
</svg>
