<svg width="28" height="28" viewBox="0 0 28 28" fill="none" xmlns="http://www.w3.org/2000/svg">
<path d="M14 25C20.0751 25 25 20.0751 25 14C25 7.92487 20.0751 3 14 3C7.92487 3 3 7.92487 3 14C3 20.0751 7.92487 25 14 25Z" fill="#A0A0A0"/>
<g clip-path="url(#clip0_whitePaper)">
<path d="M9.00598 9.00001V18.9999C9.00598 19.5524 9.45286 20 10.0048 20H18.2918C18.7447 20 18.9941 19.7191 18.9941 19.2031C18.9941 18.8581 18.6987 18.5 18.2918 18.5H10.9726C10.6979 18.5 10.4732 18.2748 10.4732 18C10.4732 17.7251 10.6979 17.4999 10.9726 17.4999H17.9953C18.5472 17.4999 18.994 17.0524 18.994 16.4999V9.00001C18.994 8.44752 18.5472 8 17.9953 8H14.4994V12.7475C14.4994 12.8124 14.4744 12.8774 14.427 12.9275C14.3298 13.0248 14.1697 13.0248 14.0724 12.9275C14.0074 12.8598 13.0012 12.0224 13.0012 12.0224C13.0012 12.0224 11.995 12.8598 11.9299 12.9275C11.8327 13.0248 11.6727 13.0248 11.5754 12.9275C11.528 12.8774 11.503 12.8124 11.503 12.7475V8H10.0048C9.45285 8 9.00598 8.44752 9.00598 9.00001Z" fill="white"/>
</g>
<defs>
<clipPath id="clip0_whitePaper">
<rect width="12" height="12" fill="white" transform="translate(8 8)"/>
</clipPath>
<linearGradient
          id="paint0_linear_2217_205"
          x1="0"
          y1="11"
          x2="22"
          y2="11"
          gradientUnits="userSpaceOnUse"
        >
          <stop stop-color="#8BB7FF" />
          <stop offset="1" stop-color="#0061FF" />
        </linearGradient>
</defs>

</svg>
