<svg width="20" height="20" viewBox="0 0 20 20" fill="none" xmlns="http://www.w3.org/2000/svg">
<path d="M11.7571 9.99871L16.6456 5.11884C16.874 4.88706 17.0014 4.57458 17 4.24947C16.9986 3.92436 16.8686 3.61296 16.6383 3.3831C16.408 3.15324 16.096 3.02354 15.7703 3.02225C15.4446 3.02096 15.1316 3.1482 14.8995 3.37624L10.011 8.2557L5.12257 3.37624C5.00869 3.25853 4.87246 3.16464 4.72184 3.10005C4.57122 3.03547 4.40922 3.00147 4.24529 3.00005C4.08137 2.99862 3.9188 3.02981 3.76708 3.09177C3.61535 3.15374 3.47751 3.24525 3.3616 3.36096C3.24568 3.47667 3.15401 3.61427 3.09193 3.76573C3.02986 3.91719 2.99862 4.07947 3.00005 4.2431C3.00147 4.40674 3.03553 4.56845 3.10023 4.71881C3.16493 4.86917 3.25898 5.00516 3.3769 5.11884L8.26495 9.99871L3.3769 14.8786C3.25898 14.9923 3.16493 15.1283 3.10023 15.2786C3.03553 15.429 3.00147 15.5907 3.00005 15.7543C2.99862 15.918 3.02986 16.0802 3.09193 16.2317C3.15401 16.3832 3.24568 16.5208 3.3616 16.6365C3.47751 16.7522 3.61535 16.8437 3.76708 16.9057C3.9188 16.9676 4.08137 16.9988 4.24529 16.9974C4.40922 16.996 4.57122 16.962 4.72184 16.8974C4.87246 16.8328 5.00869 16.7389 5.12257 16.6212L10.011 11.7417L14.8995 16.6216C15.1317 16.8496 15.4447 16.9767 15.7704 16.9754C16.0961 16.974 16.408 16.8442 16.6383 16.6143C16.8686 16.3844 16.9985 16.073 16.9998 15.7479C17.0011 15.4228 16.8736 15.1103 16.6452 14.8786L11.7571 9.99871Z" fill="#0047BB"/>
</svg>
