<svg width="20" height="20" viewBox="0 0 20 20" fill="none" xmlns="http://www.w3.org/2000/svg">
<path d="M7.57035 12.2293L7.40828 12.0789C7.40828 12.0789 7.25384 11.9441 7.12282 11.918C6.99181 11.892 6.87292 11.9203 6.80051 11.9549C6.72768 11.9896 6.68796 12.0134 6.61554 12.0803C6.54312 12.1471 6.46177 12.2281 6.46177 12.2281L7.57035 12.2293ZM7.57153 13.338C7.57153 13.338 7.48996 13.4187 7.41776 13.4858C7.34555 13.5528 7.30561 13.5765 7.23278 13.6111C7.15994 13.6458 7.0415 13.6741 6.91027 13.6483C6.77905 13.6224 6.62481 13.4874 6.62481 13.4874L6.46275 13.337L6.46177 12.2281C6.46177 12.2281 6.38087 12.3099 6.31381 12.3821C6.24676 12.4543 6.22312 12.4942 6.18848 12.5671C6.15384 12.6399 6.12551 12.7584 6.15135 12.8896C6.17719 13.0209 6.31218 13.1752 6.31218 13.1752L6.46275 13.337L7.57153 13.338ZM7.57153 13.338C7.57153 13.338 7.65243 13.2562 7.71949 13.184C7.78654 13.1118 7.81017 13.0718 7.84481 12.999C7.87945 12.9261 7.90779 12.8077 7.88175 12.6766C7.8557 12.5456 7.7209 12.3911 7.7209 12.3911L7.57035 12.2293L7.57153 13.338ZM6.46177 12.2281L6.46275 13.337L7.57153 13.338L7.57035 12.2293L6.46177 12.2281ZM8.67879 11.1215L8.51673 10.9711C8.51673 10.9711 8.36228 10.8363 8.23126 10.8103C8.10024 10.7842 7.98137 10.8125 7.90875 10.8474C7.83591 10.882 7.79619 10.9059 7.72377 10.9727C7.65156 11.0398 7.57 11.1205 7.57 11.1205L8.67879 11.1215ZM8.67976 12.23C8.67976 12.23 8.5982 12.3107 8.52599 12.3778C8.45379 12.4449 8.41385 12.4685 8.34101 12.5032C8.26818 12.5378 8.14973 12.5661 8.0185 12.5403C7.88728 12.5144 7.73303 12.3794 7.73303 12.3794L7.57035 12.2293L7.57 11.1205C7.57 11.1205 7.48909 11.2019 7.42204 11.2741C7.35498 11.3463 7.33136 11.3862 7.29671 11.4591C7.26207 11.5319 7.23373 11.6504 7.25957 11.7817C7.28541 11.9129 7.42042 12.0672 7.42042 12.0672L7.57035 12.2293L8.67976 12.23ZM8.67976 12.23C8.67976 12.23 8.76046 12.1484 8.82752 12.0762C8.89457 12.004 8.9182 11.9641 8.95284 11.8912C8.98748 11.8184 9.01581 11.6999 8.98997 11.5687C8.96413 11.4374 8.82913 11.2832 8.82913 11.2832L8.67879 11.1215L8.67976 12.23ZM7.57 11.1205L7.5714 12.2291L8.67976 12.23L8.67879 11.1215L7.57 11.1205Z" fill="#0047BB"/>
<path d="M4.42902 15.3711L4.26696 15.2207C4.26696 15.2207 4.11252 15.0859 3.9815 15.0598C3.85048 15.0338 3.7316 15.0621 3.65919 15.0968C3.58636 15.1314 3.54664 15.1553 3.47422 15.2221C3.4018 15.289 3.32045 15.3699 3.32045 15.3699L4.42902 15.3711ZM4.4302 16.4798C4.4302 16.4798 4.34864 16.5605 4.27644 16.6276C4.20423 16.6947 4.16429 16.7183 4.09146 16.7529C4.01862 16.7876 3.90018 16.8159 3.76895 16.7901C3.63772 16.7642 3.48349 16.6292 3.48349 16.6292L3.32143 16.4788L3.32045 15.3699C3.32045 15.3699 3.23954 15.4517 3.17249 15.5239C3.10543 15.5961 3.0818 15.636 3.04716 15.7089C3.01252 15.7817 2.98419 15.9002 3.01003 16.0314C3.03586 16.1627 3.17086 16.317 3.17086 16.317L3.32143 16.4788L4.4302 16.4798ZM4.4302 16.4798C4.4302 16.4798 4.51111 16.398 4.57816 16.3258C4.64522 16.2536 4.66885 16.2137 4.70349 16.1408C4.73813 16.068 4.76647 15.9495 4.74042 15.8185C4.71438 15.6874 4.57958 15.533 4.57958 15.533L4.42902 15.3711L4.4302 16.4798ZM3.32045 15.3699L3.32143 16.4788L4.4302 16.4798L4.42902 15.3711L3.32045 15.3699ZM5.53747 14.2633L5.3754 14.1129C5.3754 14.1129 5.22095 13.9781 5.08994 13.9521C4.95892 13.926 4.84004 13.9544 4.76742 13.9892C4.69459 14.0239 4.65486 14.0477 4.58244 14.1146C4.51024 14.1816 4.42868 14.2623 4.42868 14.2623L5.53747 14.2633ZM5.53844 15.3718C5.53844 15.3718 5.45688 15.4526 5.38467 15.5196C5.31247 15.5867 5.27253 15.6103 5.19969 15.645C5.12686 15.6796 5.0084 15.7079 4.87718 15.6821C4.74595 15.6563 4.59171 15.5212 4.59171 15.5212L4.42902 15.3711L4.42868 14.2623C4.42868 14.2623 4.34777 14.3437 4.28072 14.4159C4.21366 14.4881 4.19003 14.5281 4.15539 14.6009C4.12075 14.6738 4.09241 14.7922 4.11825 14.9235C4.14409 15.0547 4.2791 15.209 4.2791 15.209L4.42902 15.3711L5.53844 15.3718ZM5.53844 15.3718C5.53844 15.3718 5.61914 15.2903 5.6862 15.218C5.75325 15.1458 5.77688 15.1059 5.81152 15.033C5.84616 14.9602 5.87449 14.8417 5.84865 14.7105C5.82281 14.5792 5.68781 14.425 5.68781 14.425L5.53747 14.2633L5.53844 15.3718ZM4.42868 14.2623L4.43007 15.3709L5.53844 15.3718L5.53747 14.2633L4.42868 14.2623Z" fill="#0047BB"/>
<path d="M7.57035 12.2293L7.40828 12.0789C7.40828 12.0789 7.25384 11.9441 7.12282 11.918C6.9918 11.892 6.87292 11.9203 6.80051 11.9549C6.72768 11.9896 6.68796 12.0134 6.61554 12.0803C6.54312 12.1471 6.46177 12.2281 6.46177 12.2281M7.57035 12.2293L6.46177 12.2281M7.57035 12.2293L7.7209 12.3911C7.7209 12.3911 7.8557 12.5456 7.88175 12.6766C7.90779 12.8077 7.87945 12.9261 7.84481 12.999C7.81017 13.0718 7.78654 13.1118 7.71949 13.184C7.65243 13.2562 7.57153 13.338 7.57153 13.338M7.57035 12.2293L7.57153 13.338M7.57035 12.2293L7.73303 12.3794C7.73303 12.3794 7.88728 12.5144 8.0185 12.5403C8.14973 12.5661 8.26818 12.5378 8.34101 12.5032C8.41385 12.4685 8.45379 12.4449 8.52599 12.3778C8.5982 12.3107 8.67976 12.23 8.67976 12.23M7.57035 12.2293L7.57 11.1205M7.57035 12.2293L7.42042 12.0672C7.42042 12.0672 7.28541 11.9129 7.25957 11.7817C7.23373 11.6504 7.26207 11.5319 7.29671 11.4591C7.33136 11.3862 7.35498 11.3463 7.42204 11.2741C7.48909 11.2019 7.57 11.1205 7.57 11.1205M7.57035 12.2293L8.67976 12.23M6.46177 12.2281L6.46275 13.337M6.46177 12.2281C6.46177 12.2281 6.38087 12.3099 6.31381 12.3821C6.24676 12.4543 6.22312 12.4942 6.18848 12.5671C6.15384 12.6399 6.12551 12.7584 6.15135 12.8896C6.17719 13.0209 6.31218 13.1752 6.31218 13.1752L6.46275 13.337M7.57153 13.338C7.57153 13.338 7.48996 13.4187 7.41776 13.4858C7.34555 13.5528 7.30561 13.5765 7.23278 13.6111C7.15994 13.6458 7.0415 13.6741 6.91027 13.6483C6.77905 13.6224 6.62481 13.4874 6.62481 13.4874L6.46275 13.337M7.57153 13.338L6.46275 13.337M8.67879 11.1215L8.51673 10.9711C8.51673 10.9711 8.36228 10.8363 8.23126 10.8103C8.10024 10.7842 7.98137 10.8125 7.90875 10.8474C7.83591 10.882 7.79619 10.9059 7.72377 10.9727C7.65156 11.0398 7.57 11.1205 7.57 11.1205M8.67879 11.1215L7.57 11.1205M8.67879 11.1215L8.82913 11.2832C8.82913 11.2832 8.96413 11.4374 8.98997 11.5687C9.01581 11.6999 8.98748 11.8184 8.95284 11.8912C8.9182 11.9641 8.89457 12.004 8.82752 12.0762C8.76046 12.1484 8.67976 12.23 8.67976 12.23M8.67879 11.1215L8.67976 12.23M7.57 11.1205L7.5714 12.2291L8.67976 12.23M4.42902 15.3711L4.26696 15.2207C4.26696 15.2207 4.11252 15.0859 3.9815 15.0598C3.85048 15.0338 3.7316 15.0621 3.65919 15.0968C3.58636 15.1314 3.54664 15.1553 3.47422 15.2221C3.4018 15.289 3.32045 15.3699 3.32045 15.3699M4.42902 15.3711L3.32045 15.3699M4.42902 15.3711L4.57958 15.533C4.57958 15.533 4.71438 15.6874 4.74042 15.8185C4.76647 15.9495 4.73813 16.068 4.70349 16.1408C4.66885 16.2137 4.64522 16.2536 4.57816 16.3258C4.51111 16.398 4.4302 16.4798 4.4302 16.4798M4.42902 15.3711L4.4302 16.4798M4.42902 15.3711L4.59171 15.5212C4.59171 15.5212 4.74595 15.6563 4.87718 15.6821C5.0084 15.7079 5.12686 15.6796 5.19969 15.645C5.27253 15.6103 5.31247 15.5867 5.38467 15.5196C5.45688 15.4526 5.53844 15.3718 5.53844 15.3718M4.42902 15.3711L4.42868 14.2623M4.42902 15.3711L4.2791 15.209C4.2791 15.209 4.14409 15.0547 4.11825 14.9235C4.09241 14.7922 4.12075 14.6738 4.15539 14.6009C4.19003 14.5281 4.21366 14.4881 4.28072 14.4159C4.34777 14.3437 4.42868 14.2623 4.42868 14.2623M4.42902 15.3711L5.53844 15.3718M3.32045 15.3699L3.32143 16.4788M3.32045 15.3699C3.32045 15.3699 3.23954 15.4517 3.17249 15.5239C3.10543 15.5961 3.0818 15.636 3.04716 15.7089C3.01252 15.7817 2.98419 15.9002 3.01003 16.0314C3.03586 16.1627 3.17086 16.317 3.17086 16.317L3.32143 16.4788M4.4302 16.4798C4.4302 16.4798 4.34864 16.5605 4.27644 16.6276C4.20423 16.6947 4.16429 16.7183 4.09146 16.7529C4.01862 16.7876 3.90018 16.8159 3.76895 16.7901C3.63772 16.7642 3.48349 16.6292 3.48349 16.6292L3.32143 16.4788M4.4302 16.4798L3.32143 16.4788M5.53747 14.2633L5.3754 14.1129C5.3754 14.1129 5.22095 13.9781 5.08994 13.9521C4.95892 13.926 4.84004 13.9544 4.76742 13.9892C4.69459 14.0239 4.65486 14.0477 4.58244 14.1146C4.51024 14.1816 4.42868 14.2623 4.42868 14.2623M5.53747 14.2633L4.42868 14.2623M5.53747 14.2633L5.68781 14.425C5.68781 14.425 5.82281 14.5792 5.84865 14.7105C5.87449 14.8417 5.84616 14.9602 5.81152 15.033C5.77688 15.1059 5.75325 15.1458 5.6862 15.218C5.61914 15.2903 5.53844 15.3718 5.53844 15.3718M5.53747 14.2633L5.53844 15.3718M4.42868 14.2623L4.43007 15.3709L5.53844 15.3718" stroke="#0047BB" stroke-width="0.01" stroke-miterlimit="10"/>
<path d="M15.5709 15.3705L15.7212 15.2084C15.7212 15.2084 15.856 15.0539 15.8821 14.9229C15.9082 14.7919 15.8798 14.673 15.8452 14.6006C15.8105 14.5278 15.7867 14.4881 15.7198 14.4156C15.653 14.3432 15.572 14.2619 15.572 14.2619L15.5709 15.3705ZM14.4621 15.3716C14.4621 15.3716 14.3814 15.2901 14.3143 15.2179C14.2473 15.1457 14.2236 15.1057 14.189 15.0329C14.1543 14.9601 14.126 14.8416 14.1518 14.7104C14.1777 14.5792 14.3127 14.4249 14.3127 14.4249L14.4631 14.2629L15.572 14.2619C15.572 14.2619 15.4903 14.181 15.418 14.1139C15.3458 14.0469 15.3059 14.0232 15.233 13.9886C15.1602 13.9539 15.0417 13.9256 14.9105 13.9515C14.7792 13.9773 14.625 14.1123 14.625 14.1123L14.4631 14.2629L14.4621 15.3716ZM14.4621 15.3716C14.4621 15.3716 14.5439 15.4525 14.6161 15.5196C14.6883 15.5867 14.7283 15.6103 14.8011 15.6449C14.874 15.6796 14.9924 15.7079 15.1235 15.6819C15.2545 15.6558 15.409 15.521 15.409 15.521L15.5709 15.3705L14.4621 15.3716ZM15.572 14.2619L14.4631 14.2629L14.4621 15.3716L15.5709 15.3705L15.572 14.2619ZM16.6786 16.4789L16.829 16.3168C16.829 16.3168 16.9638 16.1624 16.9898 16.0314C17.0159 15.9004 16.9876 15.7815 16.9527 15.7089C16.9181 15.636 16.8942 15.5963 16.8274 15.5239C16.7603 15.4517 16.6796 15.3701 16.6796 15.3701L16.6786 16.4789ZM15.5701 16.4799C15.5701 16.4799 15.4894 16.3983 15.4223 16.3261C15.3552 16.2539 15.3316 16.214 15.297 16.1411C15.2623 16.0683 15.234 15.9498 15.2598 15.8186C15.2857 15.6874 15.4207 15.5331 15.4207 15.5331L15.5709 15.3705L16.6796 15.3701C16.6796 15.3701 16.5982 15.2892 16.526 15.2221C16.4538 15.1551 16.4139 15.1315 16.341 15.0968C16.2682 15.0622 16.1497 15.0338 16.0184 15.0597C15.8872 15.0855 15.7329 15.2205 15.7329 15.2205L15.5709 15.3705L15.5701 16.4799ZM15.5701 16.4799C15.5701 16.4799 15.6517 16.5606 15.7239 16.6276C15.7961 16.6947 15.836 16.7183 15.9089 16.753C15.9817 16.7876 16.1002 16.8159 16.2314 16.7901C16.3627 16.7642 16.5169 16.6292 16.5169 16.6292L16.6786 16.4789L15.5701 16.4799ZM16.6796 15.3701L15.5711 15.3715L15.5701 16.4799L16.6786 16.4789L16.6796 15.3701Z" fill="#0047BB"/>
<path d="M12.429 12.2291L12.5794 12.0671C12.5794 12.0671 12.7142 11.9126 12.7403 11.7816C12.7663 11.6506 12.738 11.5317 12.7034 11.4593C12.6687 11.3865 12.6449 11.3467 12.578 11.2743C12.5112 11.2019 12.4302 11.1206 12.4302 11.1206L12.429 12.2291ZM11.3203 12.2303C11.3203 12.2303 11.2396 12.1488 11.1725 12.0765C11.1054 12.0043 11.0818 11.9644 11.0472 11.8916C11.0125 11.8187 10.9842 11.7003 11.01 11.5691C11.0359 11.4378 11.1709 11.2836 11.1709 11.2836L11.3213 11.1215L12.4302 11.1206C12.4302 11.1206 12.3484 11.0397 12.2762 10.9726C12.204 10.9055 12.1641 10.8819 12.0912 10.8473C12.0184 10.8126 11.8999 10.7843 11.7687 10.8101C11.6374 10.836 11.4831 10.971 11.4831 10.971L11.3213 11.1215L11.3203 12.2303ZM11.3203 12.2303C11.3203 12.2303 11.4021 12.3112 11.4743 12.3783C11.5465 12.4453 11.5865 12.469 11.6593 12.5036C11.7321 12.5382 11.8506 12.5666 11.9817 12.5405C12.1127 12.5145 12.2672 12.3797 12.2672 12.3797L12.429 12.2291L11.3203 12.2303ZM12.4302 11.1206L11.3213 11.1215L11.3203 12.2303L12.429 12.2291L12.4302 11.1206ZM13.5368 13.3376L13.6872 13.1755C13.6872 13.1755 13.822 13.0211 13.848 12.89C13.8741 12.759 13.8458 12.6402 13.8109 12.5675C13.7762 12.4947 13.7524 12.455 13.6856 12.3826C13.6185 12.3103 13.5378 12.2288 13.5378 12.2288L13.5368 13.3376ZM12.4283 13.3385C12.4283 13.3385 12.3476 13.257 12.2805 13.1848C12.2134 13.1126 12.1898 13.0726 12.1551 12.9998C12.1205 12.927 12.0922 12.8085 12.118 12.6773C12.1439 12.5461 12.2789 12.3918 12.2789 12.3918L12.429 12.2291L13.5378 12.2288C13.5378 12.2288 13.4564 12.1479 13.3842 12.0808C13.312 12.0138 13.272 11.9901 13.1992 11.9555C13.1264 11.9209 13.0079 11.8925 12.8766 11.9184C12.7454 11.9442 12.5911 12.0792 12.5911 12.0792L12.429 12.2291L12.4283 13.3385ZM12.4283 13.3385C12.4283 13.3385 12.5098 13.4192 12.5821 13.4863C12.6543 13.5534 12.6942 13.577 12.7671 13.6116C12.8399 13.6463 12.9584 13.6746 13.0896 13.6488C13.2209 13.6229 13.3751 13.4879 13.3751 13.4879L13.5368 13.3376L12.4283 13.3385ZM13.5378 12.2288L12.4292 12.2302L12.4283 13.3385L13.5368 13.3376L13.5378 12.2288Z" fill="#0047BB"/>
<path d="M15.5709 15.3705L15.7212 15.2084C15.7212 15.2084 15.856 15.0539 15.8821 14.9229C15.9082 14.7919 15.8798 14.673 15.8452 14.6006C15.8105 14.5278 15.7867 14.4881 15.7198 14.4156C15.653 14.3432 15.572 14.2619 15.572 14.2619M15.5709 15.3705L15.572 14.2619M15.5709 15.3705L15.409 15.521C15.409 15.521 15.2545 15.6558 15.1235 15.6819C14.9924 15.7079 14.874 15.6796 14.8011 15.6449C14.7283 15.6103 14.6883 15.5867 14.6161 15.5196C14.5439 15.4525 14.4621 15.3716 14.4621 15.3716M15.5709 15.3705L14.4621 15.3716M15.5709 15.3705L15.4207 15.5331C15.4207 15.5331 15.2857 15.6874 15.2598 15.8186C15.234 15.9498 15.2623 16.0683 15.297 16.1411C15.3316 16.214 15.3552 16.2539 15.4223 16.3261C15.4894 16.3983 15.5701 16.4799 15.5701 16.4799M15.5709 15.3705L16.6796 15.3701M15.5709 15.3705L15.7329 15.2205C15.7329 15.2205 15.8872 15.0855 16.0184 15.0597C16.1497 15.0338 16.2682 15.0622 16.341 15.0968C16.4139 15.1315 16.4538 15.1551 16.526 15.2221C16.5982 15.2892 16.6796 15.3701 16.6796 15.3701M15.5709 15.3705L15.5701 16.4799M15.572 14.2619L14.4631 14.2629M15.572 14.2619C15.572 14.2619 15.4903 14.181 15.418 14.1139C15.3458 14.0469 15.3059 14.0232 15.233 13.9886C15.1602 13.9539 15.0417 13.9256 14.9105 13.9515C14.7792 13.9773 14.625 14.1123 14.625 14.1123L14.4631 14.2629M14.4621 15.3716C14.4621 15.3716 14.3814 15.2901 14.3143 15.2179C14.2473 15.1457 14.2236 15.1057 14.189 15.0329C14.1543 14.9601 14.126 14.8416 14.1518 14.7104C14.1777 14.5792 14.3127 14.4249 14.3127 14.4249L14.4631 14.2629M14.4621 15.3716L14.4631 14.2629M16.6786 16.4789L16.829 16.3168C16.829 16.3168 16.9638 16.1624 16.9898 16.0314C17.0159 15.9004 16.9876 15.7815 16.9527 15.7089C16.9181 15.636 16.8942 15.5963 16.8274 15.5239C16.7603 15.4517 16.6796 15.3701 16.6796 15.3701M16.6786 16.4789L16.6796 15.3701M16.6786 16.4789L16.5169 16.6292C16.5169 16.6292 16.3627 16.7642 16.2314 16.7901C16.1002 16.8159 15.9817 16.7876 15.9089 16.753C15.836 16.7183 15.7961 16.6947 15.7239 16.6276C15.6517 16.5606 15.5701 16.4799 15.5701 16.4799M16.6786 16.4789L15.5701 16.4799M16.6796 15.3701L15.5711 15.3715L15.5701 16.4799M12.429 12.2291L12.5794 12.0671C12.5794 12.0671 12.7142 11.9126 12.7403 11.7816C12.7663 11.6506 12.738 11.5317 12.7034 11.4593C12.6687 11.3865 12.6449 11.3467 12.578 11.2743C12.5112 11.2019 12.4302 11.1206 12.4302 11.1206M12.429 12.2291L12.4302 11.1206M12.429 12.2291L12.2672 12.3797C12.2672 12.3797 12.1127 12.5145 11.9817 12.5405C11.8506 12.5666 11.7321 12.5382 11.6593 12.5036C11.5865 12.469 11.5465 12.4453 11.4743 12.3783C11.4021 12.3112 11.3203 12.2303 11.3203 12.2303M12.429 12.2291L11.3203 12.2303M12.429 12.2291L12.2789 12.3918C12.2789 12.3918 12.1439 12.5461 12.118 12.6773C12.0922 12.8085 12.1205 12.927 12.1551 12.9998C12.1898 13.0726 12.2134 13.1126 12.2805 13.1848C12.3476 13.257 12.4283 13.3385 12.4283 13.3385M12.429 12.2291L13.5378 12.2288M12.429 12.2291L12.5911 12.0792C12.5911 12.0792 12.7454 11.9442 12.8766 11.9184C13.0079 11.8925 13.1264 11.9209 13.1992 11.9555C13.272 11.9901 13.312 12.0138 13.3842 12.0808C13.4564 12.1479 13.5378 12.2288 13.5378 12.2288M12.429 12.2291L12.4283 13.3385M12.4302 11.1206L11.3213 11.1215M12.4302 11.1206C12.4302 11.1206 12.3484 11.0397 12.2762 10.9726C12.204 10.9055 12.1641 10.8819 12.0912 10.8473C12.0184 10.8126 11.8999 10.7843 11.7687 10.8101C11.6374 10.836 11.4831 10.971 11.4831 10.971L11.3213 11.1215M11.3203 12.2303C11.3203 12.2303 11.2396 12.1488 11.1725 12.0765C11.1054 12.0043 11.0818 11.9644 11.0472 11.8916C11.0125 11.8187 10.9842 11.7003 11.01 11.5691C11.0359 11.4378 11.1709 11.2836 11.1709 11.2836L11.3213 11.1215M11.3203 12.2303L11.3213 11.1215M13.5368 13.3376L13.6872 13.1755C13.6872 13.1755 13.822 13.0211 13.848 12.89C13.8741 12.759 13.8458 12.6402 13.8109 12.5675C13.7762 12.4947 13.7524 12.455 13.6856 12.3826C13.6185 12.3103 13.5378 12.2288 13.5378 12.2288M13.5368 13.3376L13.5378 12.2288M13.5368 13.3376L13.3751 13.4879C13.3751 13.4879 13.2209 13.6229 13.0896 13.6488C12.9584 13.6746 12.8399 13.6463 12.7671 13.6116C12.6942 13.577 12.6543 13.5534 12.5821 13.4863C12.5098 13.4192 12.4283 13.3385 12.4283 13.3385M13.5368 13.3376L12.4283 13.3385M13.5378 12.2288L12.4292 12.2302L12.4283 13.3385" stroke="#0047BB" stroke-width="0.01" stroke-miterlimit="10"/>
<path d="M15.5703 4.62916L15.4083 4.47878C15.4083 4.47878 15.2538 4.34396 15.1228 4.31791C14.9918 4.29186 14.8729 4.32019 14.8005 4.35484C14.7277 4.38949 14.688 4.41335 14.6155 4.4802C14.5431 4.54705 14.4618 4.62798 14.4618 4.62798L15.5703 4.62916ZM15.5715 5.7379C15.5715 5.7379 15.49 5.81862 15.4178 5.88568C15.3456 5.95275 15.3056 5.97638 15.2328 6.01103C15.1599 6.04568 15.0415 6.07402 14.9103 6.04817C14.779 6.02233 14.6248 5.8873 14.6248 5.8873L14.4627 5.73693L14.4618 4.62798C14.4618 4.62798 14.3809 4.70976 14.3138 4.78197C14.2468 4.85419 14.2231 4.89413 14.1885 4.96697C14.1538 5.03982 14.1255 5.15829 14.1513 5.28954C14.1772 5.42078 14.3122 5.57505 14.3122 5.57505L14.4627 5.73693L15.5715 5.7379ZM15.5715 5.7379C15.5715 5.7379 15.6524 5.65612 15.7195 5.58391C15.7865 5.51169 15.8102 5.47175 15.8448 5.3989C15.8795 5.32605 15.9078 5.20758 15.8817 5.07655C15.8557 4.94551 15.7209 4.79104 15.7209 4.79104L15.5703 4.62916L15.5715 5.7379ZM14.4618 4.62798L14.4627 5.73693L15.5715 5.7379L15.5703 4.62916L14.4618 4.62798ZM16.6788 3.52139L16.5167 3.37102C16.5167 3.37102 16.3623 3.23622 16.2313 3.21016C16.1002 3.18411 15.9814 3.21244 15.9087 3.2473C15.8359 3.28195 15.7962 3.3058 15.7238 3.37265C15.6516 3.43971 15.57 3.52043 15.57 3.52043L16.6788 3.52139ZM16.6798 4.62993C16.6798 4.62993 16.5982 4.71064 16.526 4.77771C16.4538 4.84477 16.4138 4.86841 16.341 4.90305C16.2682 4.9377 16.1497 4.96603 16.0185 4.94019C15.8873 4.91435 15.733 4.77934 15.733 4.77934L15.5703 4.62916L15.57 3.52043C15.57 3.52043 15.4891 3.60177 15.422 3.67399C15.355 3.74621 15.3314 3.78615 15.2967 3.859C15.2621 3.93184 15.2337 4.05033 15.2596 4.18157C15.2854 4.31282 15.4204 4.46708 15.4204 4.46708L15.5703 4.62916L16.6798 4.62993ZM16.6798 4.62993C16.6798 4.62993 16.7605 4.54835 16.8275 4.47613C16.8946 4.40392 16.9182 4.36397 16.9528 4.29113C16.9875 4.21828 17.0158 4.09981 16.99 3.96856C16.9641 3.83732 16.8291 3.68307 16.8291 3.68307L16.6788 3.52139L16.6798 4.62993ZM15.57 3.52043L15.5714 4.62896L16.6798 4.62993L16.6788 3.52139L15.57 3.52043Z" fill="#0047BB"/>
<path d="M12.429 7.77097L12.267 7.6206C12.267 7.6206 12.1125 7.48578 11.9815 7.45973C11.8505 7.43367 11.7316 7.46201 11.6592 7.49666C11.5864 7.53131 11.5466 7.55516 11.4742 7.62201C11.4018 7.68886 11.3204 7.76979 11.3204 7.76979L12.429 7.77097ZM12.4302 8.87972C12.4302 8.87972 12.3486 8.96043 12.2764 9.0275C12.2042 9.09456 12.1643 9.1182 12.0915 9.15284C12.0186 9.18749 11.9002 9.21583 11.769 9.18999C11.6377 9.16414 11.4835 9.02911 11.4835 9.02911L11.3214 8.87874L11.3204 7.76979C11.3204 7.76979 11.2395 7.85157 11.1725 7.92379C11.1054 7.996 11.0818 8.03594 11.0472 8.10879C11.0125 8.18163 10.9842 8.30011 11.01 8.43135C11.0359 8.5626 11.1709 8.71687 11.1709 8.71687L11.3214 8.87874L12.4302 8.87972ZM12.4302 8.87972C12.4302 8.87972 12.5111 8.79794 12.5782 8.72572C12.6452 8.65351 12.6688 8.61356 12.7035 8.54071C12.7381 8.46787 12.7665 8.3494 12.7404 8.21836C12.7144 8.08732 12.5796 7.93286 12.5796 7.93286L12.429 7.77097L12.4302 8.87972ZM11.3204 7.76979L11.3214 8.87874L12.4302 8.87972L12.429 7.77097L11.3204 7.76979ZM13.5375 6.6632L13.3754 6.51283C13.3754 6.51283 13.221 6.37803 13.0899 6.35198C12.9589 6.32593 12.84 6.35425 12.7674 6.38912C12.6946 6.42376 12.6549 6.44761 12.5824 6.51446C12.5102 6.58153 12.4287 6.66224 12.4287 6.66224L13.5375 6.6632ZM13.5384 7.77174C13.5384 7.77174 13.4569 7.85246 13.3847 7.91952C13.3125 7.98659 13.2725 8.01022 13.1997 8.04487C13.1269 8.07951 13.0084 8.10785 12.8772 8.082C12.746 8.05616 12.5917 7.92115 12.5917 7.92115L12.429 7.77097L12.4287 6.66224C12.4287 6.66224 12.3478 6.74359 12.2807 6.8158C12.2137 6.88802 12.19 6.92797 12.1554 7.00081C12.1207 7.07366 12.0924 7.19214 12.1182 7.32339C12.1441 7.45463 12.2791 7.60889 12.2791 7.60889L12.429 7.77097L13.5384 7.77174ZM13.5384 7.77174C13.5384 7.77174 13.6191 7.69017 13.6862 7.61795C13.7533 7.54573 13.7769 7.50579 13.8115 7.43294C13.8462 7.36009 13.8745 7.24162 13.8487 7.11038C13.8228 6.97913 13.6878 6.82488 13.6878 6.82488L13.5375 6.6632L13.5384 7.77174ZM12.4287 6.66224L12.4301 7.77077L13.5384 7.77174L13.5375 6.6632L12.4287 6.66224Z" fill="#0047BB"/>
<path d="M15.5703 4.62916L15.4083 4.47878C15.4083 4.47878 15.2538 4.34396 15.1228 4.31791C14.9918 4.29186 14.8729 4.32019 14.8005 4.35484C14.7277 4.38949 14.688 4.41335 14.6155 4.4802C14.5431 4.54705 14.4618 4.62798 14.4618 4.62798M15.5703 4.62916L14.4618 4.62798M15.5703 4.62916L15.7209 4.79104C15.7209 4.79104 15.8557 4.94551 15.8817 5.07655C15.9078 5.20758 15.8795 5.32605 15.8448 5.3989C15.8102 5.47175 15.7865 5.51169 15.7195 5.58391C15.6524 5.65612 15.5715 5.7379 15.5715 5.7379M15.5703 4.62916L15.5715 5.7379M15.5703 4.62916L15.733 4.77934C15.733 4.77934 15.8873 4.91435 16.0185 4.94019C16.1497 4.96603 16.2682 4.9377 16.341 4.90305C16.4138 4.86841 16.4538 4.84477 16.526 4.77771C16.5982 4.71064 16.6798 4.62993 16.6798 4.62993M15.5703 4.62916L15.57 3.52043M15.5703 4.62916L15.4204 4.46708C15.4204 4.46708 15.2854 4.31282 15.2596 4.18157C15.2337 4.05033 15.2621 3.93184 15.2967 3.859C15.3314 3.78615 15.355 3.74621 15.422 3.67399C15.4891 3.60177 15.57 3.52043 15.57 3.52043M15.5703 4.62916L16.6798 4.62993M14.4618 4.62798L14.4627 5.73693M14.4618 4.62798C14.4618 4.62798 14.3809 4.70976 14.3138 4.78197C14.2468 4.85419 14.2231 4.89413 14.1885 4.96697C14.1538 5.03982 14.1255 5.15829 14.1513 5.28954C14.1772 5.42078 14.3122 5.57505 14.3122 5.57505L14.4627 5.73693M15.5715 5.7379C15.5715 5.7379 15.49 5.81862 15.4178 5.88568C15.3456 5.95275 15.3056 5.97638 15.2328 6.01103C15.1599 6.04568 15.0415 6.07402 14.9103 6.04817C14.779 6.02233 14.6248 5.8873 14.6248 5.8873L14.4627 5.73693M15.5715 5.7379L14.4627 5.73693M16.6788 3.52139L16.5167 3.37102C16.5167 3.37102 16.3623 3.23622 16.2313 3.21016C16.1002 3.18411 15.9814 3.21244 15.9087 3.2473C15.8359 3.28195 15.7962 3.3058 15.7238 3.37265C15.6516 3.43971 15.57 3.52043 15.57 3.52043M16.6788 3.52139L15.57 3.52043M16.6788 3.52139L16.8291 3.68307C16.8291 3.68307 16.9641 3.83732 16.99 3.96856C17.0158 4.09981 16.9875 4.21828 16.9528 4.29113C16.9182 4.36397 16.8946 4.40392 16.8275 4.47614C16.7605 4.54835 16.6798 4.62993 16.6798 4.62993M16.6788 3.52139L16.6798 4.62993M15.57 3.52043L15.5714 4.62896L16.6798 4.62993M12.429 7.77097L12.267 7.6206C12.267 7.6206 12.1125 7.48578 11.9815 7.45973C11.8505 7.43367 11.7316 7.46201 11.6592 7.49666C11.5864 7.53131 11.5466 7.55516 11.4742 7.62201C11.4018 7.68886 11.3204 7.76979 11.3204 7.76979M12.429 7.77097L11.3204 7.76979M12.429 7.77097L12.5796 7.93286C12.5796 7.93286 12.7144 8.08732 12.7404 8.21836C12.7665 8.3494 12.7381 8.46787 12.7035 8.54071C12.6688 8.61356 12.6452 8.65351 12.5782 8.72572C12.5111 8.79794 12.4302 8.87972 12.4302 8.87972M12.429 7.77097L12.4302 8.87972M12.429 7.77097L12.5917 7.92115C12.5917 7.92115 12.746 8.05616 12.8772 8.082C13.0084 8.10785 13.1269 8.07951 13.1997 8.04487C13.2725 8.01022 13.3125 7.98659 13.3847 7.91952C13.4569 7.85246 13.5384 7.77174 13.5384 7.77174M12.429 7.77097L12.4287 6.66224M12.429 7.77097L12.2791 7.60889C12.2791 7.60889 12.1441 7.45463 12.1182 7.32339C12.0924 7.19214 12.1207 7.07366 12.1554 7.00081C12.19 6.92797 12.2137 6.88802 12.2807 6.8158C12.3478 6.74359 12.4287 6.66224 12.4287 6.66224M12.429 7.77097L13.5384 7.77174M11.3204 7.76979L11.3214 8.87874M11.3204 7.76979C11.3204 7.76979 11.2395 7.85157 11.1725 7.92379C11.1054 7.996 11.0818 8.03594 11.0472 8.10879C11.0125 8.18163 10.9842 8.30011 11.01 8.43135C11.0359 8.5626 11.1709 8.71687 11.1709 8.71687L11.3214 8.87874M12.4302 8.87972C12.4302 8.87972 12.3486 8.96043 12.2764 9.0275C12.2042 9.09456 12.1643 9.1182 12.0915 9.15284C12.0186 9.18749 11.9002 9.21583 11.769 9.18999C11.6377 9.16414 11.4835 9.02911 11.4835 9.02911L11.3214 8.87874M12.4302 8.87972L11.3214 8.87874M13.5375 6.6632L13.3754 6.51283C13.3754 6.51283 13.221 6.37803 13.0899 6.35198C12.9589 6.32593 12.84 6.35425 12.7674 6.38912C12.6946 6.42376 12.6549 6.44761 12.5824 6.51446C12.5102 6.58153 12.4287 6.66224 12.4287 6.66224M13.5375 6.6632L12.4287 6.66224M13.5375 6.6632L13.6878 6.82488C13.6878 6.82488 13.8228 6.97913 13.8487 7.11038C13.8745 7.24162 13.8462 7.36009 13.8115 7.43294C13.7769 7.50579 13.7533 7.54573 13.6862 7.61795C13.6191 7.69017 13.5384 7.77174 13.5384 7.77174M13.5375 6.6632L13.5384 7.77174M12.4287 6.66224L12.4301 7.77077L13.5384 7.77174" stroke="#0047BB" stroke-width="0.01" stroke-miterlimit="10"/>
<path d="M7.57086 7.77036L7.72123 7.60829C7.72123 7.60829 7.85605 7.45385 7.8821 7.32283C7.90815 7.19182 7.87982 7.07294 7.84517 7.00052C7.81052 6.92769 7.78667 6.88797 7.71982 6.81555C7.65296 6.74313 7.57204 6.66178 7.57204 6.66178L7.57086 7.77036ZM6.46211 7.77154C6.46211 7.77154 6.38139 7.68998 6.31433 7.61777C6.24726 7.54557 6.22363 7.50563 6.18898 7.43279C6.15434 7.35996 6.126 7.24151 6.15184 7.11028C6.17768 6.97906 6.31271 6.82482 6.31271 6.82482L6.46308 6.66276L7.57204 6.66178C7.57204 6.66178 7.49026 6.58088 7.41804 6.51382C7.34582 6.44677 7.30588 6.42313 7.23304 6.38849C7.16019 6.35385 7.04172 6.32552 6.91048 6.35136C6.77923 6.3772 6.62496 6.5122 6.62496 6.5122L6.46308 6.66276L6.46211 7.77154ZM6.46211 7.77154C6.46211 7.77154 6.54389 7.85244 6.61611 7.9195C6.68832 7.98655 6.72827 8.01018 6.80111 8.04482C6.87396 8.07947 6.99243 8.10781 7.12347 8.08176C7.2545 8.05571 7.40897 7.92091 7.40897 7.92091L7.57086 7.77036L6.46211 7.77154ZM7.57204 6.66178L6.46308 6.66276L6.46211 7.77154L7.57086 7.77036L7.57204 6.66178ZM8.67862 8.8788L8.82899 8.71674C8.82899 8.71674 8.9638 8.56229 8.98985 8.43127C9.0159 8.30026 8.98757 8.18138 8.95271 8.10876C8.91806 8.03592 8.89422 7.9962 8.82736 7.92378C8.7603 7.85157 8.67959 7.77001 8.67959 7.77001L8.67862 8.8788ZM7.57009 8.87977C7.57009 8.87977 7.48937 8.79821 7.42231 8.72601C7.35524 8.6538 7.33161 8.61386 7.29696 8.54103C7.26231 8.46819 7.23398 8.34974 7.25982 8.21851C7.28567 8.08729 7.42068 7.93305 7.42068 7.93305L7.57086 7.77036L8.67959 7.77001C8.67959 7.77001 8.59824 7.68911 8.52602 7.62205C8.45381 7.555 8.41386 7.53137 8.34101 7.49673C8.26817 7.46208 8.14968 7.43374 8.01844 7.45958C7.88719 7.48542 7.73293 7.62043 7.73293 7.62043L7.57086 7.77036L7.57009 8.87977ZM7.57009 8.87977C7.57009 8.87977 7.65166 8.96047 7.72388 9.02753C7.79609 9.09458 7.83604 9.11821 7.90889 9.15286C7.98173 9.1875 8.1002 9.21583 8.23145 9.18999C8.36269 9.16415 8.51695 9.02914 8.51695 9.02914L8.67862 8.8788L7.57009 8.87977ZM8.67959 7.77001L7.57106 7.77141L7.57009 8.87977L8.67862 8.8788L8.67959 7.77001Z" fill="#0047BB"/>
<path d="M4.42904 4.62904L4.57941 4.46697C4.57941 4.46697 4.71423 4.31253 4.74029 4.18151C4.76634 4.05049 4.73801 3.93161 4.70335 3.8592C4.66871 3.78637 4.64485 3.74665 4.578 3.67423C4.51115 3.60181 4.43022 3.52046 4.43022 3.52046L4.42904 4.62904ZM3.32029 4.63022C3.32029 4.63022 3.23958 4.54865 3.17251 4.47645C3.10545 4.40424 3.08182 4.3643 3.04717 4.29147C3.01252 4.21863 2.98418 4.10019 3.01003 3.96896C3.03587 3.83774 3.1709 3.6835 3.1709 3.6835L3.32127 3.52144L4.43022 3.52046C4.43022 3.52046 4.34844 3.43956 4.27623 3.3725C4.20401 3.30545 4.16407 3.28181 4.09122 3.24717C4.01838 3.21253 3.89991 3.1842 3.76866 3.21004C3.63741 3.23588 3.48314 3.37087 3.48314 3.37087L3.32127 3.52144L3.32029 4.63022ZM3.32029 4.63022C3.32029 4.63022 3.40207 4.71112 3.47429 4.77818C3.54651 4.84523 3.58645 4.86886 3.6593 4.9035C3.73215 4.93814 3.85061 4.96648 3.98165 4.94044C4.11269 4.91439 4.26716 4.77959 4.26716 4.77959L4.42904 4.62904L3.32029 4.63022ZM4.43022 3.52046L3.32127 3.52144L3.32029 4.63022L4.42904 4.62904L4.43022 3.52046ZM5.53681 5.73748L5.68718 5.57542C5.68718 5.57542 5.82198 5.42097 5.84803 5.28995C5.87409 5.15893 5.84576 5.04006 5.8109 4.96744C5.77625 4.8946 5.7524 4.85488 5.68555 4.78246C5.61849 4.71025 5.53777 4.62869 5.53777 4.62869L5.53681 5.73748ZM4.42827 5.73845C4.42827 5.73845 4.34756 5.65689 4.28049 5.58468C4.21343 5.51248 4.18979 5.47254 4.15515 5.3997C4.1205 5.32687 4.09216 5.20842 4.11801 5.07719C4.14385 4.94597 4.27886 4.79172 4.27886 4.79172L4.42904 4.62904L5.53777 4.62869C5.53777 4.62869 5.45642 4.54778 5.38421 4.48073C5.31199 4.41367 5.27205 4.39005 5.1992 4.3554C5.12635 4.32076 5.00787 4.29242 4.87662 4.31826C4.74538 4.3441 4.59112 4.47911 4.59112 4.47911L4.42904 4.62904L4.42827 5.73845ZM4.42827 5.73845C4.42827 5.73845 4.50985 5.81915 4.58206 5.88621C4.65428 5.95326 4.69422 5.97689 4.76707 6.01153C4.83992 6.04618 4.95839 6.0745 5.08963 6.04866C5.22088 6.02283 5.37513 5.88782 5.37513 5.88782L5.53681 5.73748L4.42827 5.73845ZM5.53777 4.62869L4.42924 4.63009L4.42827 5.73845L5.53681 5.73748L5.53777 4.62869Z" fill="#0047BB"/>
<path d="M7.57086 7.77036L7.72123 7.60829C7.72123 7.60829 7.85605 7.45385 7.8821 7.32283C7.90815 7.19182 7.87982 7.07294 7.84517 7.00053C7.81052 6.92769 7.78667 6.88797 7.71982 6.81555C7.65296 6.74313 7.57204 6.66178 7.57204 6.66178M7.57086 7.77036L7.57204 6.66178M7.57086 7.77036L7.40897 7.92091C7.40897 7.92091 7.2545 8.05571 7.12347 8.08176C6.99243 8.10781 6.87396 8.07947 6.80111 8.04482C6.72827 8.01018 6.68832 7.98655 6.61611 7.9195C6.54389 7.85244 6.46211 7.77154 6.46211 7.77154M7.57086 7.77036L6.46211 7.77154M7.57086 7.77036L7.42068 7.93305C7.42068 7.93305 7.28567 8.08729 7.25982 8.21851C7.23398 8.34974 7.26231 8.46819 7.29696 8.54103C7.33161 8.61386 7.35524 8.6538 7.4223 8.72601C7.48937 8.79821 7.57008 8.87977 7.57008 8.87977M7.57086 7.77036L8.67959 7.77001M7.57086 7.77036L7.73293 7.62043C7.73293 7.62043 7.88719 7.48542 8.01844 7.45958C8.14968 7.43374 8.26817 7.46208 8.34101 7.49673C8.41386 7.53137 8.45381 7.555 8.52602 7.62205C8.59824 7.68911 8.67959 7.77001 8.67959 7.77001M7.57086 7.77036L7.57008 8.87977M7.57204 6.66178L6.46308 6.66276M7.57204 6.66178C7.57204 6.66178 7.49026 6.58088 7.41804 6.51382C7.34582 6.44677 7.30588 6.42313 7.23304 6.38849C7.16019 6.35385 7.04172 6.32552 6.91048 6.35136C6.77923 6.3772 6.62496 6.5122 6.62496 6.5122L6.46308 6.66276M6.46211 7.77154C6.46211 7.77154 6.38139 7.68998 6.31433 7.61777C6.24726 7.54557 6.22363 7.50563 6.18898 7.43279C6.15434 7.35996 6.126 7.24151 6.15184 7.11028C6.17768 6.97906 6.31271 6.82482 6.31271 6.82482L6.46308 6.66276M6.46211 7.77154L6.46308 6.66276M8.67862 8.8788L8.82899 8.71674C8.82899 8.71674 8.9638 8.56229 8.98985 8.43127C9.0159 8.30026 8.98757 8.18138 8.95271 8.10876C8.91806 8.03592 8.89422 7.9962 8.82737 7.92378C8.7603 7.85157 8.67959 7.77001 8.67959 7.77001M8.67862 8.8788L8.67959 7.77001M8.67862 8.8788L8.51695 9.02914C8.51695 9.02914 8.36269 9.16415 8.23145 9.18999C8.1002 9.21583 7.98173 9.1875 7.90888 9.15286C7.83604 9.11821 7.79609 9.09458 7.72388 9.02753C7.65166 8.96047 7.57008 8.87977 7.57008 8.87977M8.67862 8.8788L7.57008 8.87977M8.67959 7.77001L7.57106 7.77141L7.57008 8.87977M4.42904 4.62904L4.57941 4.46697C4.57941 4.46697 4.71423 4.31253 4.74029 4.18151C4.76634 4.05049 4.73801 3.93161 4.70335 3.8592C4.66871 3.78637 4.64485 3.74665 4.578 3.67423C4.51115 3.60181 4.43022 3.52046 4.43022 3.52046M4.42904 4.62904L4.43022 3.52046M4.42904 4.62904L4.26716 4.77959C4.26716 4.77959 4.11269 4.91439 3.98165 4.94044C3.85061 4.96648 3.73215 4.93814 3.6593 4.9035C3.58645 4.86886 3.54651 4.84523 3.47429 4.77818C3.40207 4.71112 3.32029 4.63022 3.32029 4.63022M4.42904 4.62904L3.32029 4.63022M4.42904 4.62904L4.27886 4.79172C4.27886 4.79172 4.14385 4.94597 4.11801 5.07719C4.09216 5.20842 4.1205 5.32687 4.15515 5.3997C4.18979 5.47254 4.21343 5.51248 4.28049 5.58468C4.34756 5.65689 4.42827 5.73845 4.42827 5.73845M4.42904 4.62904L5.53777 4.62869M4.42904 4.62904L4.59112 4.47911C4.59112 4.47911 4.74538 4.3441 4.87662 4.31826C5.00787 4.29242 5.12635 4.32076 5.1992 4.3554C5.27205 4.39005 5.31199 4.41367 5.38421 4.48073C5.45642 4.54778 5.53777 4.62869 5.53777 4.62869M4.42904 4.62904L4.42827 5.73845M4.43022 3.52046L3.32127 3.52144M4.43022 3.52046C4.43022 3.52046 4.34844 3.43956 4.27623 3.3725C4.20401 3.30545 4.16407 3.28181 4.09122 3.24717C4.01838 3.21253 3.89991 3.1842 3.76866 3.21004C3.63741 3.23588 3.48314 3.37087 3.48314 3.37087L3.32127 3.52144M3.32029 4.63022C3.32029 4.63022 3.23958 4.54865 3.17251 4.47645C3.10545 4.40424 3.08182 4.3643 3.04717 4.29147C3.01252 4.21863 2.98418 4.10019 3.01003 3.96896C3.03587 3.83774 3.1709 3.6835 3.1709 3.6835L3.32127 3.52144M3.32029 4.63022L3.32127 3.52144M5.53681 5.73748L5.68718 5.57542C5.68718 5.57542 5.82198 5.42097 5.84803 5.28995C5.87409 5.15893 5.84576 5.04006 5.8109 4.96744C5.77625 4.8946 5.7524 4.85488 5.68555 4.78246C5.61849 4.71025 5.53777 4.62869 5.53777 4.62869M5.53681 5.73748L5.53777 4.62869M5.53681 5.73748L5.37513 5.88782C5.37513 5.88782 5.22088 6.02283 5.08963 6.04866C4.95839 6.0745 4.83992 6.04617 4.76707 6.01153C4.69422 5.97689 4.65428 5.95326 4.58206 5.88621C4.50985 5.81915 4.42827 5.73845 4.42827 5.73845M5.53681 5.73748L4.42827 5.73845M5.53777 4.62869L4.42924 4.63009L4.42827 5.73845" stroke="#0047BB" stroke-width="0.01" stroke-miterlimit="10"/>
</svg>
